<svg version="1.1" id="redit" xmlns="http://www.w3.org/2000/svg" xmlns:xlink="http://www.w3.org/1999/xlink" viewBox="0 0 473.9 473.9" style="enable-background:new 0 0 473.9 473.9;" xml:space="preserve">
<style type="text/css">
.st0{fill:#FFFFFF;}
.st1{fill:#000000;}
</style>
<circle class="st1" cx="237" cy="237" r="237"/>
<path class="st0" d="M132.4,264.4c0,13.9,11,24.9,24.8,24.9c13.7,0,24.7-11,24.7-24.9c0-13.6-11.1-24.6-24.7-24.6 C143.4,239.8,132.4,250.9,132.4,264.4z M280.7,264.4c0,13.9,11.1,24.9,24.9,24.9c13.6,0,24.5-11,24.5-24.9c0-13.6-11-24.6-24.5-24.6
 C291.8,239.8,280.7,250.9,280.7,264.4z M282,317.4c6.3-5,15.6-4,20.6,2.4c5.1,6.4,3.8,15.6-2.4,20.6c-17.8,14.1-44.7,23.1-69,23.1
c-24.1,0-50.9-9-68.8-23.1c-6.3-5-7.4-14.2-2.5-20.6c5.1-6.4,14.2-7.3,20.8-2.4c10,8.2,30.4,16.5,50.5,16.5 C251.6,333.9,271.8,325.6,282,317.4z M428,210.1c0-27.4-22-49.3-49.5-49.3c-18.5,0-34.6,10.1-43,25.4 c-25.6-13.9-56.5-22.8-90.1-24.9l29.4-66.3l56.5,16.3c5.1,14.3,18.7,24.6,35.1,24.6c20.6,0,37.2-16.5,37.2-37 c0-20.3-16.6-37.1-37.2-37.1c-14.2,0-26.4,7.9-32.8,19.4l-62.9-18.1c-7-2.1-14.6,1.5-17.5,8.3l-40.1,90c-32.9,2.2-63,11.1-87.8,24.7 c-8.6-15.2-24.8-25.4-43.2-25.4c-27.3,0-49.4,21.9-49.4,49.3c0,20.3,12.1,37.6,29.3,45.4c-3,9.1-4.8,18.8-4.8,28.8 c0,68.3,77.6,123.7,173,123.7c95.7,0,173.3-55.5,173.3-123.7c0-10-1.8-19.7-4.8-28.8C415.9,247.7,428,230.4,428,210.1z M367.3,89.8 c7.6,0,13.9,6.5,13.9,14c0,7.8-6.4,13.9-13.9,13.9c-7.6,0-14-6.2-14-13.9C353.4,96.3,359.7,89.8,367.3,89.8z M58.2,215.1 c0-13.6,11.2-24.8,24.8-24.8c10,0,18.2,5.8,22.3,14.2c-12.9,9.9-23.6,21.2-31.4,33.6C64.8,234.4,58.2,225.4,58.2,215.1z M231.2,383.5c-79.2,0-143.5-42.2-143.5-94.2c0-52.1,64.3-94.4,143.5-94.4c79.5,0,143.7,42.3,143.7,94.4 C374.9,341.3,310.7,383.5,231.2,383.5z M388.8,238c-7.7-12.3-18.6-23.7-31.3-33.6c3.9-8.4,12.3-14.2,22.1-14.2 c13.8,0,25,11.2,25,24.8C404.5,225.4,397.9,234.4,388.8,238z"/>
</svg>
