<svg xmlns="http://www.w3.org/2000/svg" viewBox="0 0 54 54"><defs><style>.cls-1{fill:#000;}.cls-2{fill:#ffffff;}</style></defs><title>Asset 2</title><g id="Layer_2" data-name="Layer 2"><g id="Nav"><path class="cls-1" d="M27,51.5A24.5,24.5,0,1,1,51.5,27,24.53,24.53,0,0,1,27,51.5Z"/><path class="cls-2" d="M27,5A22,22,0,1,1,5,27,22,22,0,0,1,27,5m0-5A27,27,0,1,0,54,27,27,27,0,0,0,27,0Z"/><path class="cls-2" d="M37.89,27.1l-1.11,1.11a.73.73,0,0,1-.51.22.77.77,0,0,1-.51-.22L27,19.46l-8.75,8.75a.7.7,0,0,1-1,0L16.11,27.1a.7.7,0,0,1,0-1L26.49,15.7a.7.7,0,0,1,1,0L37.89,26.08a.7.7,0,0,1,0,1Zm0,8.55-1.11,1.11a.73.73,0,0,1-.51.22.77.77,0,0,1-.51-.22L27,28l-8.75,8.75a.7.7,0,0,1-1,0l-1.11-1.11a.7.7,0,0,1,0-1L26.49,24.25a.7.7,0,0,1,1,0L37.89,34.63a.7.7,0,0,1,0,1Z"/></g></g></svg>
