<?xml version="1.0" encoding="utf-8"?>
<svg version="1.1" id="Layer_1" xmlns="http://www.w3.org/2000/svg" xmlns:xlink="http://www.w3.org/1999/xlink" x="0px" y="0px"
	 viewBox="0 0 1291 475.5" style="enable-background:new 0 0 1291 475.5;" xml:space="preserve">
<style type="text/css">
	.st0{fill:#FFFFFF;}
</style>
<path class="st0" d="M362.9,367.2L362.9,367.2l0.1,0.1L362.9,367.2z M361.6,365.6l0.1,0.1L361.6,365.6z M360.2,361.6v0.2V361.6z
	 M360.2,325.1v0.2V325.1z M362.9,319.6L362.9,319.6L362.9,319.6L362.9,319.6z M370.7,358.9l-0.1-0.2L370.7,358.9z M371.2,359.6
	l-0.1-0.1L371.2,359.6z M395.1,368.7v-8.3h-20.4h-0.1c-1,0-2.1,0-2.9-0.5l-0.6-0.5l-0.1-0.1l-0.4-0.6v-0.2l-0.3-1.9v-8.2l21.6-0.7
	l0,0v-8.4l-21.6-0.7v-8.2c0-2,0-4.1,3.8-4.1h21.1v-8.4l0,0c-4.6-0.7-23.3-1.2-23.5-1.2h-0.3c-1.1,0-2.4,0.1-3.7,0.4l0,0l-1,0.3l0,0
	c-1.2,0.4-2.3,1-3.4,1.8l-0.2,0.2l-0.2,0.2l-0.2,0.2l-1,1.3l-0.2,0.4l-0.6,1.3l-0.2,0.5l-0.4,1.7l-0.1,0.7l-0.1,1.7v0.4v31.6v0.5
	l0.1,1.6l0.1,0.7l0.4,1.5l0.1,0.4l0.7,1.5l0.3,0.5l1,1.2l0.1,0.1l0.5,0.4l0.2,0.2l0.7,0.5l0.3,0.2l0.7,0.4l0.3,0.1l0.7,0.3l0.3,0.1
	l0.7,0.2l0.3,0.1l0.8,0.2h0.1c1,0.2,1.9,0.2,2.8,0.2h1C372.5,369.9,391,369.3,395.1,368.7L395.1,368.7z"/>
<path class="st0" d="M443.9,356.7L443.9,356.7L443.9,356.7z M443.1,359.4L443.1,359.4L443.1,359.4z M434.6,346.5
	c0,6.7-1.1,10.4-3.1,12.3l-0.1,0.1l-0.6,0.5l-0.3,0.2l-0.5,0.3l-0.3,0.1l-0.6,0.2l-0.2,0.1c-1.2,0.4-2.6,0.5-4.1,0.5
	c-3.6,0-6.3-0.4-8-2.6c-1.6-2-2.3-5.5-2.3-11.6v-29.8h-10.2v29.7v1.4v1.2l0.1,1.6l0.2,2.1l0.1,1.2l0.2,1.4l0.2,1.3l0.3,1.5l0.2,0.8
	l0.6,1.7l0.2,0.6l0.7,1.5l0.3,0.5l0.8,1.3l0.3,0.4l0.9,1.1l0.1,0.1l0.2,0.2l1.1,0.9l0.4,0.3l1.1,0.7l0.4,0.2l1.2,0.5l0.5,0.2
	l1.1,0.3l0.7,0.1l1.1,0.2c2,0.3,4,0.3,6,0.3h0.7h0.7c1.8,0,3.7,0,5.7-0.2l0.5-0.1l1-0.1l1-0.2l0.6-0.1l1.2-0.4l0.5-0.2l1.1-0.5
	l0.5-0.3l1-0.7l0.3-0.2l0.2-0.2l1.3-1.1l0.3-0.4l1-1.3l0.3-0.5l0.8-1.5l0.3-0.7l0.7-1.6l0.3-0.8l0.5-1.8l0.2-1l0.4-2l0.1-1.2
	l0.2-2.2l0.1-1.3l0.1-2v-0.9v-29.8h-10.3L434.6,346.5L434.6,346.5z"/>
<path class="st0" d="M483.7,317.6L483.7,317.6L483.7,317.6z M479.9,340l-0.1,0.1L479.9,340z M480.6,339.3L480.6,339.3L480.6,339.3z
	 M479.2,326.2l0.7,0.4l0.3,0.2l0.4,0.5l0.3,0.5l0.3,0.5l0.2,0.7l0.2,0.6l0.1,0.8l0.1,0.9v0.1l0.1,1.7c0,6.3-1.7,7.4-5.2,7.4h-12.1
	v-15h12.1c0.9,0,1.7,0.1,2.4,0.4L479.2,326.2z M464.5,348.6l8.9,1l8.8,20.1l0,0h11.5l-10.1-20.8h0.1c1.5-0.5,3.6-1.1,5.3-3.3
	l0.5-0.7l0.1-0.1l0.5-0.8l0.2-0.3l0.4-0.8l0.2-0.4l0.3-0.9l0.1-0.5l0.3-1.1l0.1-0.4l0.2-1.5v-0.2c0.2-1.3,0.2-2.8,0.2-4.3
	c0-1.6-0.1-3-0.3-4.3l0,0l-0.3-1.8l-0.1-0.5l-0.3-1.2l-0.2-0.6l-0.4-1l-0.2-0.4l-0.5-1l-0.1-0.1l-1.7-2.1l-0.2-0.1l-1.6-1.2
	l-0.4-0.3l-1.9-0.9l-0.5-0.2l-2.3-0.5l-0.5-0.1c-0.9-0.1-1.8-0.2-2.8-0.2h-0.3h-23.3v53h10.2L464.5,348.6L464.5,348.6z"/>
<path class="st0" d="M532.3,318l0.8,0.3L532.3,318z"/>
<path class="st0" d="M535.3,319.6l0.5,0.4L535.3,319.6z"/>
<path class="st0" d="M500.8,330.5l0.3-1.5L500.8,330.5z M500.2,333.6l0.2-1.5L500.2,333.6z M499.9,336.6l0.1-1.1L499.9,336.6z
	 M501.6,327.6l0.4-1.2L501.6,327.6z M503,324.2l-0.3,0.7L503,324.2z M504.2,322.3L504.2,322.3L504.2,322.3z M511.9,369.2h-0.2H511.9
	z M508.3,367.9l-0.2-0.1L508.3,367.9z M510.1,368.6l-0.4-0.2L510.1,368.6z M529.2,358.2l-0.3,0.3l-0.5,0.4l-0.3,0.2l-0.6,0.3
	l-0.4,0.2l-0.4,0.2l-0.8,0.3h-0.2c-1.2,0.3-2.8,0.5-4.8,0.5c-2.1,0-3.9-0.1-5.4-0.6l0,0c-1.5-0.5-2.7-1.2-3.6-2.5
	c-0.6-0.9-1-2-1.4-3.4l0,0c-0.6-2.4-0.8-5.7-0.8-10.5c0-8.3,0.8-12.8,2.7-15.3c1.9-2.4,4.8-2.6,8.5-2.6c4.3,0,6.9,0.4,8.6,2.7
	c1.8,2.4,2.6,7,2.6,15.1c0,7.3-0.7,11.5-2.4,13.9l-0.3,0.4L529.2,358.2z M539.2,324.7l-0.2-0.4L539.2,324.7z M540.3,327.3l-0.3-0.8
	L540.3,327.3z M541.7,333.2l-0.2-1.1L541.7,333.2z M542.1,336.2v-0.7V336.2z M541.1,330.1l-0.2-1.1L541.1,330.1z M541.6,354.4
	l0.1-0.5L541.6,354.4z M541,357.3l0.1-0.6L541,357.3z M540.2,359.8l0.1-0.4L540.2,359.8z M539.2,362L539.2,362L539.2,362z
	 M535.1,366.8l0.2-0.1l1-0.9L536,366l0.4-0.3l-0.1,0.1l0.3-0.3c0.9-0.9,1.8-2.1,2.5-3.3l0,0l1-2.1V360c1.6-4,2.3-9.4,2.3-16.5
	c0-6-0.5-10.9-1.6-14.7l0,0c-0.2-0.9-0.5-1.7-0.8-2.5l-0.1-0.2l-0.9-2l-0.1-0.2c-0.7-1.2-1.5-2.3-2.4-3.2l-0.7-0.6l0.4,0.3l-1-0.8
	l0.2,0.1l-0.7-0.5h0.1l-1.1-0.7l0.2,0.1l-0.5-0.3l0,0l-0.2-0.1l0,0l-1-0.4l0.2,0.1l-1.2-0.4h0.1H531h0.1l-1.5-0.4
	c-2.3-0.5-4.9-0.8-8.7-0.8c-6.5,0-11.6,0.7-15.3,4.3l-1.3,1.5v0.1l-1.1,1.7l-0.1,0.2l-1,2.2l0,0c-1.7,4.2-2.5,9.8-2.5,17.3
	c0,4.4,0.3,8.1,0.9,11.3l0.1,0.4l0.5,2.4l0.2,0.7l0.6,1.8l0.3,0.7l0.7,1.5l0.3,0.5c0.6,1.1,1.3,2,2.2,2.8c3.6,3.5,8.6,4.2,15.6,4.2
	c1.3,0,2.7-0.1,4-0.2l1.2-0.1l1.3-0.2l2.3-0.4l0.5-0.1l0.2-0.1l0.9-0.3l0.5-0.2l0.7-0.3l-0.4,0.1
	C533.3,367.9,534.2,367.4,535.1,366.8l-0.2,0.2L535.1,366.8z"/>
<path class="st0" d="M531.1,317.5L531.1,317.5L531.1,317.5z"/>
<path class="st0" d="M533.8,318.7l0.8,0.5L533.8,318.7z"/>
<path class="st0" d="M577,339.6L577,339.6L577,339.6z"/>
<path class="st0" d="M582,318.3L582,318.3L582,318.3z M588.8,334.8v0.7V334.8z M588.5,337.8l0.1-0.7L588.5,337.8z M588.1,339.8
	l0.1-0.5L588.1,339.8z M587.7,341.6l0.1-0.3L587.7,341.6z M587,343.3l0.1-0.2L587,343.3z M586.3,344.7l0.1-0.2L586.3,344.7z
	 M585.4,346l0.2-0.2L585.4,346z M584.5,347l-0.1,0.1L584.5,347L584.5,347z M583.1,348.1l0.3-0.2L583.1,348.1z M581.9,348.9l0.3-0.1
	L581.9,348.9z M580.6,349.4l0.3-0.1L580.6,349.4z M579.2,349.7l0.3-0.1L579.2,349.7z M578,350L578,350L578,350z M573.7,325.7h0.5
	H573.7z M574.8,325.9l0.4,0.1L574.8,325.9z M575.8,326.3l0.3,0.2L575.8,326.3z M576.7,327l0.2,0.2L576.7,327z M577.4,327.9l0.1,0.3
	L577.4,327.9z M578,329.2l0.1,0.2L578,329.2z M578.4,330.9v0.1V330.9z M578.2,337L578.2,337L578.2,337z M574.4,341.1H574H574.4z
	 M575.5,340.8L575,341L575.5,340.8z M576.4,340.2l-0.4,0.3L576.4,340.2z M577.6,338.6l-0.1,0.3l-0.5,0.7l0.2-0.2l-0.3,0.3l0,0
	c-0.5,0.6-1.2,1-2.1,1.3l0,0l-1.5,0.2h-11.9v-15.5h11.9l1.2,0.1h0.1l0.9,0.3l0.2,0.1l0.7,0.4l0.3,0.2l0.5,0.5l0.3,0.4l0.3,0.6
	l0.2,0.6l0.2,0.7l0.1,0.7l0.2,0.9l0.1,0.9l0.1,1v0.6l-0.1,1.3v0.5l-0.2,1.3l-0.1,0.3l-0.3,1l-0.1,0.3v-0.1L577.6,338.6l0.1-0.1
	L577.6,338.6z M561.3,348.7c0.6,0.2,9.9,1.3,12.7,1.4c1.8,0.1,4,0,6-0.6l0.2-0.1l1-0.4l0.3-0.1l0.9-0.4l0.4-0.2l0.8-0.5l0.4-0.3
	l0.6-0.5l0.2-0.2l0.2-0.2l0.8-0.9l0.2-0.3l0.6-1l0.2-0.4l0.5-1.1l0.2-0.5l0.4-1.3l0.2-0.6l0.3-1.6l0.1-0.5l0.3-2.2v-0.1
	c0.1-0.9,0.1-1.8,0.1-2.8c0-1.7-0.1-3.3-0.4-4.7l-0.1-0.4l-0.3-1.5l-0.2-0.7l-0.4-1.1l-0.3-0.7l-0.4-0.9l-0.3-0.6l-0.5-0.8l-0.3-0.4
	l-0.7-1l0,0l-1-0.9l-0.2-0.1l-1.5-0.9l-0.5-0.3l-1.9-0.7l-0.4-0.1l-2.2-0.4l-0.4-0.1l-2.5-0.1h-0.3h-23v53h10.2L561.3,348.7
	L561.3,348.7z"/>
<path class="st0" d="M598.2,325.1v0.2V325.1z M600.9,319.6L600.9,319.6L600.9,319.6L600.9,319.6z M608.3,357.8L608.3,357.8
	L608.3,357.8z M608.7,358.9l-0.1-0.2L608.7,358.9z M609.2,359.6l-0.2-0.1L609.2,359.6z M600.8,367.2L600.8,367.2l0.1,0.1
	L600.8,367.2z M599.6,365.6l0.1,0.1L599.6,365.6z M598.2,361.6v0.2V361.6z M598.1,361.3l0.1,0.7l0.4,1.5l0.1,0.4l0.7,1.5l0.3,0.4
	l1,1.2l0.1,0.1l0.5,0.4l0.2,0.2l0.7,0.5l0.3,0.2l0.7,0.4l0.3,0.1l0.7,0.3l0.3,0.1l0.7,0.2l0.3,0.1l0.8,0.2h0.1
	c1,0.2,1.9,0.2,2.8,0.2h1c0.2,0,18.6-0.7,22.7-1.2l0,0v-8.3h-20.5h-0.1c-1,0-2.1,0-2.9-0.5l-0.6-0.5v-0.1l-0.4-0.6v-0.1l-0.3-1.9
	v-8.2l21.6-0.7l0,0v-8.4l-21.6-0.7v-8.2c0-2,0-4,3.8-4H633v-8.4l0,0c-4.6-0.6-23.3-1.1-23.5-1.2h-0.3c-1.1,0-2.4,0.1-3.7,0.4l0,0
	l-1,0.3l0,0c-1.2,0.4-2.3,1-3.4,1.9l-0.2,0.2l-0.2,0.2l-0.2,0.2l-1,1.3l-0.2,0.4l-0.6,1.3l-0.2,0.5l-0.4,1.7l-0.1,0.7l-0.1,1.7v0.4
	v31.6v0.5L598.1,361.3z"/>
<path class="st0" d="M670,349h-12.4l6.4-18.9L670,349z M669.7,316.7h-11.6l-18,53l0,0h11L655,358h17.5l3.8,11.7l0,0H687L669.7,316.7
	L669.7,316.7z"/>
<polygon class="st0" points="726.5,350.9 705.4,316.7 695,316.7 695,369.7 705.3,369.7 705.3,335.8 726.5,369.7 736.7,369.7 
	736.7,316.7 726.5,316.7 "/>
<path class="st0" d="M786.5,367.5l-0.4-0.3L786.5,367.5z M784.6,366L784.6,366L784.6,366z M788.3,368.5l-0.5-0.2L788.3,368.5z
	 M790,369.1l-0.4-0.1L790,369.1z M788.7,350.9L788.7,350.9z M796.2,316.1c-1.8,0-3.4,0.2-4.9,0.5l-0.4,0.1l-1.7,0.4l-0.9,0.4l-1,0.4
	l-0.9,0.5l-0.8,0.5l-0.6,0.5l-0.9,0.7l-0.2,0.2c-0.8,0.8-1.6,1.8-2.2,2.8c-0.7,1.1-1.2,2.4-1.7,3.8l-0.1,0.2l-0.6,2l-0.1,0.6
	l-0.4,1.8l-0.1,0.7l-0.3,1.9l-0.1,0.6c-0.3,2.5-0.4,5.2-0.4,8.3c0,8.9,1.3,15.4,4,19.8c3,4.8,7.6,7.2,14.1,7.3h2.1h0.6
	c1.2,0,2.3,0,3.3-0.1l1.5-0.1c1.1-0.1,2.1-0.2,3.1-0.3l1.3-0.2c1-0.1,1.9-0.3,2.9-0.5l1-0.2l2.3-0.6l0.5-0.1l0,0v-7.9l0,0
	c-0.1,0-8.6,0.6-16.2,0.6c-4.1,0-6.7-1.4-8.3-4.3c-1.4-2.7-2-6.7-2-13.2c0-8,0.7-12.5,2.4-14.9c1.6-2.4,4.1-2.8,8-2.8
	c5.6,0,12.4,0.6,15.9,1h0.2l0,0v-8l0,0C808.9,316.8,803.5,316.1,796.2,316.1"/>
<path class="st0" d="M854.1,318l0.8,0.3L854.1,318z"/>
<path class="st0" d="M857,319.6l0.5,0.4L857,319.6z"/>
<path class="st0" d="M822.5,330.5l0.4-1.5L822.5,330.5z M822,333.6l0.2-1.5L822,333.6z M821.6,336.6l0.1-1.1L821.6,336.6z
	 M823.3,327.6l0.4-1.2L823.3,327.6z M824.8,324.2l-0.3,0.7L824.8,324.2z M826,322.3L826,322.3L826,322.3z M833.7,369.2h-0.2H833.7z
	 M830.1,367.9l-0.2-0.1L830.1,367.9z M831.8,368.6l-0.4-0.2L831.8,368.6z M851,358.2l-0.3,0.3l-0.5,0.4l-0.3,0.2l-0.6,0.3l-0.4,0.2
	l-0.4,0.2l-0.8,0.3h-0.2c-1.2,0.3-2.8,0.5-4.8,0.5c-2.1,0-3.9-0.1-5.4-0.6h-0.1c-1.5-0.4-2.7-1.2-3.6-2.5c-0.6-0.9-1-2-1.4-3.4l0,0
	c-0.6-2.4-0.8-5.7-0.8-10.6c0-8.3,0.8-12.8,2.7-15.3c1.9-2.4,4.8-2.6,8.5-2.6c4.3,0,6.9,0.4,8.6,2.7c1.8,2.4,2.6,6.9,2.6,15.1
	c0,7.3-0.7,11.5-2.4,13.9l-0.3,0.4L851,358.2z M861,324.7l-0.2-0.4L861,324.7z M862.1,327.3l-0.3-0.8L862.1,327.3z M863.4,333.2
	l-0.1-1L863.4,333.2z M863.8,336.1v-0.6V336.1z M862.9,330.1l-0.2-1L862.9,330.1z M863.3,354.4l0.1-0.4L863.3,354.4z M862.7,357.3
	l0.1-0.5L862.7,357.3z M861.9,359.8l0.1-0.4L861.9,359.8z M860.9,362L860.9,362L860.9,362z M858,365.8l-0.3,0.2L858,365.8L858,365.8
	l0.3-0.3c0.9-0.9,1.7-2,2.4-3.3l0,0l1-2.1V360c1.6-4,2.3-9.4,2.3-16.5c0-6-0.5-10.9-1.6-14.7l0,0c-0.2-0.9-0.5-1.7-0.8-2.5l-0.1-0.2
	l-0.9-2l-0.2-0.2c-0.7-1.2-1.5-2.3-2.4-3.2l-0.7-0.6l0.4,0.3l-1-0.8l0.2,0.1l-0.7-0.5h0.1l-1.1-0.7l0.2,0.1l-0.5-0.3l-0.2-0.1l0,0
	l-1-0.4l0.2,0.1l-1.2-0.4h0.1l-0.2-0.1h0.1l-1.5-0.4c-2.3-0.5-4.9-0.8-8.7-0.8c-6.5,0-11.6,0.7-15.3,4.3l-1.3,1.5v0.1l-1.1,1.7
	l-0.1,0.2l-1,2.2l0,0c-1.7,4.2-2.5,9.8-2.5,17.3c0,4.4,0.3,8.2,0.8,11.3l0.1,0.4l0.6,2.5l0.2,0.6l0.6,1.9l0.3,0.7l0.7,1.5l0.3,0.5
	c0.6,1.1,1.4,2.1,2.2,2.9c3.6,3.5,8.6,4.2,15.6,4.2c1.4,0,2.7,0,4-0.1l1.2-0.1l1.3-0.2l2.3-0.4l0.4-0.1l0.3-0.1l0.8-0.2l0.7-0.2
	l0.7-0.3l-0.4,0.1c1-0.4,1.9-0.9,2.7-1.5l-0.2,0.1l0.2-0.2l0.2-0.1L858,365.8z"/>
<path class="st0" d="M852.9,317.5L852.9,317.5L852.9,317.5z"/>
<path class="st0" d="M855.5,318.7l0.8,0.5L855.5,318.7z"/>
<path class="st0" d="M905.2,318l0.7,0.3L905.2,318z"/>
<path class="st0" d="M906.6,318.7l0.8,0.5L906.6,318.7z"/>
<path class="st0" d="M908.1,319.6l0.4,0.4L908.1,319.6z"/>
<path class="st0" d="M904,317.5L904,317.5L904,317.5z"/>
<path class="st0" d="M912.1,324.6l-0.2-0.4L912.1,324.6z M913.1,327.3l-0.3-0.8L913.1,327.3z M914.5,333.3l-0.2-1.1L914.5,333.3z
	 M914.9,336.3l-0.1-0.7L914.9,336.3z M914,330.2l-0.2-1.1L914,330.2z M914.9,351.1L914.9,351.1L914.9,351.1z M914.4,354.4l0.1-0.6
	L914.4,354.4z M913.8,357.3l0.1-0.6L913.8,357.3z M913,359.8l0.1-0.4L913,359.8z M912,362l0.1-0.1L912,362z M873.6,330.5l0.3-1.4
	L873.6,330.5z M873.1,333.5l0.2-1.4L873.1,333.5z M872.7,336.5l0.1-0.9L872.7,336.5z M874.4,327.6l0.4-1.1L874.4,327.6z
	 M881.2,367.9l-0.2-0.1L881.2,367.9z M882.9,368.6l-0.4-0.2L882.9,368.6z M884.7,369.2h-0.2H884.7z M902.6,357.4l-0.3,0.4l-0.3,0.3
	l-0.3,0.3l-0.5,0.4l-0.3,0.2l-0.6,0.3l-0.4,0.2l-0.4,0.2l-0.8,0.3h-0.1c-1.2,0.3-2.8,0.5-4.8,0.5c-2.1,0-3.9-0.1-5.4-0.6l0,0
	c-1.5-0.5-2.7-1.2-3.6-2.5c-0.6-0.9-1-2-1.4-3.4l0,0c-0.6-2.4-0.8-5.7-0.8-10.6c0-8.3,0.8-12.8,2.7-15.3c1.9-2.4,4.8-2.6,8.6-2.6
	c4.3,0,6.9,0.4,8.6,2.7c1.8,2.4,2.6,7,2.6,15.1C905,350.9,904.3,355,902.6,357.4 M875.8,324.2l-0.3,0.6L875.8,324.2z M876.1,323.8
	l-0.2,0.2l-1,2.1v0.1c-1.7,4.2-2.5,9.8-2.5,17.3c0,4.4,0.3,8.1,0.9,11.3l0.1,0.5l0.5,2.4l0.2,0.7l0.6,1.8l0.3,0.7l0.7,1.5l0.3,0.5
	c0.6,1.1,1.3,2,2.2,2.8c3.6,3.5,8.6,4.2,15.6,4.2c1.3,0,2.7-0.1,4-0.2l1.2-0.1l1.3-0.2l2.3-0.4l0.4-0.1l0.3-0.1l0.8-0.2l0.7-0.2
	l0.7-0.3l-0.4,0.1c1-0.4,1.9-0.9,2.7-1.5l-0.2,0.1l0.2-0.2l0.2-0.1l1-0.9l-0.3,0.3l0.4-0.4l-0.1,0.1l0.3-0.3
	c1.4-1.4,2.6-3.2,3.4-5.5l0,0c1.6-4,2.3-9.4,2.3-16.5c0-6-0.5-10.9-1.6-14.7l0,0c-0.3-0.9-0.5-1.7-0.8-2.5l-0.1-0.2l-0.9-2l-0.2-0.3
	c-0.7-1.2-1.5-2.3-2.4-3.2l-0.7-0.6l0.4,0.3l-1-0.8l0.2,0.1l-0.7-0.5h0.1l-1.1-0.7l0.2,0.1l-0.7-0.4l0,0l-1-0.4l0.2,0.1l-0.9-0.1
	h0.1l-0.2-0.1h0.1l-1.5-0.4c-2.3-0.5-4.9-0.8-8.7-0.8c-6.5,0-11.6,0.7-15.3,4.3l-1.2,1.4l-0.1,0.2L876.1,323.8z"/>
<path class="st0" d="M949.8,339.6L949.8,339.6L949.8,339.6z"/>
<path class="st0" d="M954.8,318.3L954.8,318.3L954.8,318.3z M961.6,335.1v0.3V335.1z M961.3,337.8l0.1-0.5L961.3,337.8z M961,339.8
	l0.1-0.4L961,339.8z M960.5,341.6l0.1-0.3L960.5,341.6z M959.9,343.2l0.1-0.2L959.9,343.2z M959.1,344.7l0.1-0.1L959.1,344.7z
	 M958.2,346l0.1-0.2L958.2,346z M957.3,347l-0.2,0.1L957.3,347L957.3,347z M956.1,348l0.2-0.1L956.1,348z M953.9,349.2L953.9,349.2
	L953.9,349.2z M955,348.7l0.1-0.1L955,348.7z M946.6,325.7h0.5H946.6z M947.7,325.9l0.4,0.1L947.7,325.9z M948.6,326.3l0.3,0.2
	L948.6,326.3z M949.5,327l0.2,0.3L949.5,327z M950.2,327.9l0.1,0.3L950.2,327.9z M950.8,329.2l0.1,0.2L950.8,329.2z M951.2,330.9
	v0.2V330.9z M947.2,341.1h-0.4H947.2z M948.3,340.8l-0.5,0.2L948.3,340.8z M949.2,340.2l-0.4,0.3L949.2,340.2z M951,337.2l-0.3,1
	l-0.1,0.4v-0.1l-0.1,0.2v-0.1l-0.1,0.2l-0.1,0.2l-0.5,0.7l0.2-0.2l-0.3,0.3v-0.1c-0.5,0.6-1.2,1-2.1,1.3l0,0l-1.5,0.2h-11.9v-15.5
	H946l1.2,0.1h0.1l0.9,0.3l0.2,0.1l0.7,0.4l0.2,0.2l0.5,0.5l0.3,0.4l0.4,0.6l0.2,0.5l0.2,0.8l0.1,0.7l0.2,0.9v0.7l0.1,1.1v0.6
	l-0.1,1.2v0.6l-0.2,1.3L951,337.2v-0.1V337.2L951,337.2L951,337.2z M934.1,348.7c0.6,0.2,9.9,1.3,12.7,1.4h1.2c2.4,0,5-0.3,7.4-1.7
	h0.1l1-0.7l0.2-0.2l0.7-0.6l0.2-0.2l0.3-0.3l0.7-0.9l0.2-0.4l0.6-1l0.2-0.5l0.5-1.1l0.2-0.6l0.4-1.2l0.2-0.7l0.3-1.5l0.1-0.6
	l0.2-2.1v-0.2c0.1-0.9,0.1-1.8,0.1-2.8c0-1.7-0.1-3.3-0.4-4.7l-0.1-0.5l-0.3-1.4l-0.2-0.7l-0.3-1.1l-0.3-0.7l-0.4-0.9l-0.4-0.6
	l-0.5-0.8l-0.4-0.4l-0.6-0.7l-0.1-0.1l-0.9-0.8l-0.2-0.1l-1.5-1l-0.4-0.2l-1.9-0.7l-0.4-0.1l-2.2-0.4l-0.5-0.1l-2.5-0.1h-0.3h-23v53
	H934L934.1,348.7L934.1,348.7L934.1,348.7z"/>
<path class="st0" d="M971,325.2v0.2V325.2z M973.7,319.6L973.7,319.6L973.7,319.6L973.7,319.6z M981.1,357.8L981.1,357.8
	L981.1,357.8z M981.5,358.9l-0.1-0.2L981.5,358.9z M982,359.6l-0.2-0.1L982,359.6z M973.7,367.2L973.7,367.2l0.1,0.1L973.7,367.2z
	 M972.4,365.6l0.1,0.1L972.4,365.6z M971,361.6v0.2V361.6z M971,361.3l0.1,0.7l0.4,1.4l0.1,0.4l0.7,1.4l0.3,0.5l1,1.2l0.1,0.1
	l0.5,0.4l0.2,0.2l0.7,0.5l0.3,0.2l0.7,0.4l0.3,0.1l0.7,0.3l0.3,0.1l0.7,0.2l0.3,0.1l0.8,0.2h0.1c1,0.1,1.9,0.2,2.8,0.2h1
	c0.2,0,18.6-0.7,22.7-1.2l0,0v-8.4h-20.4h-0.1c-1,0-2.1,0-2.9-0.5l-0.6-0.5v-0.1l-0.4-0.6v-0.1l-0.3-2v-8.2l21.5-0.7l0,0v-8.4
	l-21.6-0.7v-8.2c0-2,0-4,3.8-4h21.1v-8.4l0,0c-4.6-0.6-23.3-1.2-23.5-1.2h-0.3c-1.1,0-2.4,0.1-3.7,0.4l0,0l-1,0.3l0,0
	c-1.2,0.4-2.4,1-3.4,1.9l-0.2,0.2l-0.2,0.2l-0.2,0.2l-1,1.3l-0.2,0.4l-0.6,1.3l-0.2,0.5l-0.4,1.7l-0.1,0.7l-0.1,1.7v0.4v31.6v0.5
	L971,361.3z"/>
<path class="st0" d="M1043.5,317.6L1043.5,317.6L1043.5,317.6z M1039.7,340L1039.7,340L1039.7,340z M1040.5,339.3L1040.5,339.3
	L1040.5,339.3z M1038.8,326.1l1.5,1.1c1,1.2,1.4,3.2,1.4,6c0,6.3-1.7,7.4-5.2,7.4h-12.1v-15h12.1
	C1037.4,325.7,1038.2,325.8,1038.8,326.1L1038.8,326.1z M1024.4,348.6l8.9,1l8.8,20.1l0,0h11.5l-10.1-20.8h0.1
	c1.5-0.5,3.6-1.1,5.3-3.3l0.5-0.8v-0.1l0.5-0.8l0.1-0.3l0.4-0.9l0.2-0.4l0.3-1l0.1-0.4l0.3-1.2l0.1-0.4l0.2-1.6v-0.1
	c0.2-1.3,0.3-2.8,0.3-4.4c0-2.3-0.2-4.4-0.6-6.2l-0.1-0.4l-0.4-1.2l-0.2-0.5l-0.4-1l-0.2-0.4l-0.5-1v-0.1l-1.7-2.2l-0.2-0.1
	l-1.5-1.2l-0.4-0.3l-1.9-0.9l-0.5-0.2l-2.3-0.5l-0.5-0.1c-0.9-0.1-1.8-0.2-2.8-0.2h-0.3h-23.3v53h10.2L1024.4,348.6L1024.4,348.6z"
	/>
<path class="st0" d="M1089.6,349h-12.4l6.4-18.9L1089.6,349z M1095.8,369.7h10.9l-17.3-53l0,0h-11.6l-18,53l0,0h11l3.9-11.7h17.5
	L1095.8,369.7L1095.8,369.7z"/>
<polygon class="st0" points="1119.9,369.7 1130.2,369.7 1130.2,326 1145,326 1145,316.7 1105.5,316.7 1105.5,326 1119.9,326 "/>
<rect x="1153.5" y="316.7" class="st0" width="10.2" height="53"/>
<path class="st0" d="M1207.3,318.7l0.8,0.5L1207.3,318.7z"/>
<path class="st0" d="M1204.6,317.5L1204.6,317.5L1204.6,317.5z"/>
<path class="st0" d="M1212.7,324.6l-0.2-0.4L1212.7,324.6z M1213.8,327.2l-0.2-0.7L1213.8,327.2z M1215.2,333.1l-0.1-1L1215.2,333.1
	z M1215.6,336.1v-0.6V336.1z M1214.6,330.1l-0.2-1L1214.6,330.1z M1215.1,354.4l0.1-0.4L1215.1,354.4z M1214.5,357.3l0.1-0.5
	L1214.5,357.3z M1213.7,359.8l0.1-0.4L1213.7,359.8z M1212.7,362L1212.7,362L1212.7,362z M1174.3,330.5l0.3-1.5L1174.3,330.5z
	 M1173.7,333.6l0.2-1.5L1173.7,333.6z M1173.4,336.6l0.1-1L1173.4,336.6z M1175.1,327.6l0.4-1.1L1175.1,327.6z M1176.5,324.2
	l-0.3,0.7L1176.5,324.2z M1181.9,367.9l-0.2-0.1L1181.9,367.9z M1183.6,368.6l-0.4-0.2L1183.6,368.6z M1185.4,369.2h-0.2H1185.4z
	 M1203.3,357.4l-0.3,0.4l-0.3,0.4l-0.3,0.3l-0.5,0.4l-0.3,0.2l-0.6,0.3l-0.4,0.2l-0.4,0.2l-0.8,0.3h-0.2c-1.2,0.3-2.8,0.5-4.8,0.5
	c-2.1,0-3.9-0.1-5.4-0.6h-0.1c-1.5-0.4-2.7-1.2-3.6-2.5c-0.6-0.9-1-1.9-1.4-3.3v-0.1c-0.6-2.4-0.8-5.7-0.8-10.6
	c0-8.3,0.8-12.8,2.7-15.3c1.9-2.4,4.8-2.6,8.5-2.6c4.3,0,6.9,0.4,8.6,2.7c1.8,2.4,2.6,6.9,2.6,15.1
	C1205.7,350.9,1205,355,1203.3,357.4 M1177.7,322.3L1177.7,322.3L1177.7,322.3z M1176.7,323.8l-0.1,0.2l-1,2.2l0,0
	c-1.7,4.2-2.5,9.8-2.5,17.3c0,4.4,0.3,8.2,0.9,11.3l0.1,0.4l0.5,2.5l0.2,0.7l0.6,1.8l0.3,0.7l0.7,1.5l0.3,0.5
	c0.6,1.1,1.4,2.1,2.2,2.9c3.6,3.5,8.6,4.2,15.6,4.2c1.3,0,2.7,0,4-0.1l1.2-0.1l1.3-0.2l2.3-0.4l0.4-0.1l0.3-0.1l0.8-0.2l0.7-0.2
	l0.7-0.3l-0.4,0.1c1-0.4,1.9-0.9,2.7-1.5l-0.2,0.1l0.2-0.2l0.2-0.1l1-0.9l-0.3,0.2l0.4-0.3l-0.1,0.1l0.3-0.3c0.9-0.9,1.7-2,2.4-3.3
	l0,0l1-2.1V360c1.6-4,2.3-9.4,2.3-16.5c0-6-0.5-10.9-1.6-14.7v-0.1l-0.8-2.5l-0.1-0.3l-0.9-1.9l-0.2-0.3l-1-1.6l0,0l-1.3-1.5
	l-0.7-0.6l0.4,0.3l-1-0.8l0.2,0.1l-0.7-0.5l0.1,0.1l-1.1-0.7l0.2,0.1l-0.5-0.3l0,0l-0.2-0.1l0,0l-1-0.4l0.2,0.1l-1.2-0.4h0.1
	l-0.2-0.1h0.1l-1.5-0.4c-2.3-0.5-4.9-0.8-8.7-0.8c-6.5,0-11.6,0.7-15.3,4.3l-1.3,1.5l-0.1,0.1L1176.7,323.8z"/>
<path class="st0" d="M1205.8,318l0.7,0.3L1205.8,318z"/>
<path class="st0" d="M1208.8,319.6l0.4,0.4L1208.8,319.6z"/>
<polygon class="st0" points="1235.6,335.8 1256.8,369.7 1267,369.7 1267,316.7 1256.8,316.7 1256.8,350.9 1235.7,316.7 
	1225.3,316.7 1225.3,369.7 1235.6,369.7 "/>
<rect x="360" y="403.1" class="st0" width="10.2" height="53.2"/>
<polygon class="st0" points="411.7,437.4 390.6,403 380.2,403 380.2,456.3 390.5,456.3 390.5,422.3 411.7,456.3 422,456.3 422,403 
	411.7,403 "/>
<path class="st0" d="M477.4,455.4L477.4,455.4L477.4,455.4z M457.3,434.8l-0.4-0.1L457.3,434.8z M455.2,434.3l0.4,0.1L455.2,434.3z
	 M453.6,433.7l0.3,0.1L453.6,433.7z M452.2,432.9l0.3,0.2L452.2,432.9z M451.1,432l0.2,0.1L451.1,432z M450,431L450,431L450,431z
	 M449.4,407.5l-0.1,0.1L449.4,407.5z M461.2,412.1h0.3H461.2z M459.9,412.4l0.4-0.1L459.9,412.4z M458.9,412.9l0.4-0.2L458.9,412.9z
	 M458.3,413.4l0.1-0.1L458.3,413.4z M457.7,414.4l0.1-0.2L457.7,414.4z M457.4,415.6v-0.1V415.6z M474.8,425.2h-0.2H474.8z
	 M448,410.4l0.2-0.5L448,410.4z M447.6,411.7l0.1-0.4L447.6,411.7z M448.5,409.1l0.2-0.4L448.5,409.1z M476.2,425.6l-0.2-0.1
	L476.2,425.6z M477.6,426.1l-0.3-0.1L477.6,426.1z M478.8,426.8l-0.2-0.1L478.8,426.8z M479.9,427.6L479.9,427.6L479.9,427.6z
	 M480.1,427.9L480.1,427.9l-1-0.8l-0.2-0.1l-1-0.6l-0.2-0.1l-1.2-0.5l-0.2-0.1l-1.4-0.4h-0.1c-1.1-0.2-2.3-0.4-3.5-0.4H463
	c-1.3,0-2.4-0.1-3.3-0.4l-0.3-0.1l-0.6-0.4l-0.2-0.1c-0.9-0.7-1.4-2-1.4-4.2v-2.6v-0.7v-0.7l0.1-0.6l0.2-0.6l0.2-0.5l0.3-0.4
	l0.3-0.4l0.2-0.2l0.7-0.5l0.3-0.1l0.8-0.3h0.3l1-0.1h0.2h1.4h1c2.6,0,13.2,0.3,17.9,0.7l0,0v-8l0,0c-4.4-1.3-11.8-2-17.7-2.1h-0.1
	h-1.5h-1.3h-0.4c-0.9,0-1.8,0.1-2.6,0.2l-0.6,0.1l-2.2,0.4l-0.6,0.2l-1.9,0.7l-0.4,0.2l-1.5,1l-0.2,0.1c-2.8,2.3-4.2,5.8-4.2,10.8
	v4.6c0,2.4,0.2,5.8,2.1,8.8l0.6,0.8l0.2,0.3l0.7,0.7l0.3,0.4l0.8,0.6l0.4,0.3l0.9,0.5l0.4,0.2l1.1,0.5l0.4,0.2l1.4,0.4l0.3,0.1
	c1.3,0.3,2.7,0.4,4.2,0.4h8.2c4,0,4.8,2,4.8,5v2.8l-0.1,1.1v0.2l-0.3,0.8l-0.1,0.3l-0.6,0.7l-0.1,0.1l-0.9,0.6
	c-1.3,0.7-3.1,0.8-4.4,0.8c-6.9,0-15.8-0.5-18.6-0.8l0,0v8l0,0c5.4,1.6,11.2,2.2,20.7,2.2h0.4l2.5-0.1l0.6-0.1l2.1-0.4l0.5-0.1
	l1.9-0.7l0.5-0.2l1.5-0.9l0.2-0.1l1.6-1.6l0.3-0.3l0.5-0.7l0.3-0.5l0.4-0.8l0.3-0.6l0.3-0.9l0.2-0.6l0.3-1.3l0.1-0.4
	c0.2-1.2,0.3-2.6,0.3-4V439c0-2.6-0.4-6.3-2.4-9.3L480.1,427.9z"/>
<path class="st0" d="M498.8,454.1l-0.4-0.3L498.8,454.1z M496.9,452.6L496.9,452.6L496.9,452.6z M500.6,455.1l-0.5-0.2L500.6,455.1z
	 M502.2,455.7l-0.4-0.1L502.2,455.7z M508.5,402.5c-1.8,0-3.4,0.2-4.9,0.5l-0.3,0.1l-1.7,0.5l-0.8,0.3l-1.1,0.4l-0.9,0.5l-0.8,0.5
	l-0.6,0.5l-0.9,0.7l-0.2,0.2c-0.8,0.8-1.6,1.8-2.2,2.8c-0.7,1.1-1.2,2.4-1.7,3.9v0.2l-0.6,2l-0.1,0.5l-0.4,1.8l-0.1,0.7l-0.3,1.9
	l-0.1,0.6c-0.3,2.5-0.4,5.2-0.4,8.3c0,8.9,1.3,15.4,4,19.9c3,4.9,7.6,7.3,14.2,7.3h2h0.6c1.2,0,2.3,0,3.4-0.1l1.5-0.1
	c1.1-0.1,2.1-0.2,3.1-0.3l1.3-0.2c1-0.1,2-0.3,2.9-0.5l1-0.2l2.4-0.6l0.5-0.1l0,0v-7.9l0,0c-0.1,0-8.6,0.6-16.2,0.6
	c-4.1,0-6.8-1.4-8.3-4.4c-1.4-2.7-2-6.8-2-13.3c0-8,0.7-12.5,2.4-15c1.6-2.4,4.2-2.8,8-2.8c5.7,0,12.4,0.6,16,1h0.2l0,0v-8l0,0
	C521.2,403.2,515.8,402.5,508.5,402.5"/>
<rect x="535.8" y="403.1" class="st0" width="10.2" height="53.2"/>
<path class="st0" d="M565.9,445.5l-0.1-0.2L565.9,445.5z M566.4,446.1l-0.1-0.1L566.4,446.1z M558,453.7L558,453.7l0.2,0.2
	L558,453.7z M556.7,452.2l0.1,0.1L556.7,452.2z M555.3,448.1v0.2V448.1z M555.4,411.6v0.2V411.6z M558,406L558,406L558,406L558,406z
	 M566.8,403.1h-0.3c-1.1,0-2.4,0.1-3.7,0.4l0,0l-1,0.3l0,0c-1.2,0.4-2.4,1-3.4,1.9l-0.2,0.2l-0.2,0.2l-0.2,0.2l-1,1.3l-0.2,0.4
	l-0.6,1.3l-0.2,0.5l-0.4,1.7l-0.1,0.7l-0.1,1.6v0.4v31.7v0.5l0.1,1.6l0.1,0.8l0.4,1.4l0.2,0.5l0.7,1.4l0.3,0.5l1,1.2l0.1,0.1
	l0.5,0.4l0.2,0.2l0.7,0.5l0.3,0.2l0.7,0.4l0.3,0.1l0.7,0.3l0.4,0.1l0.7,0.2l0.3,0.1l0.8,0.2h0.2c1,0.1,1.9,0.2,2.8,0.2h1
	c0.2,0,18.7-0.7,22.8-1.2l0,0v-8.4H570c-1.1,0-2.1,0-3-0.5l-0.6-0.5v-0.1l-0.4-0.6v-0.1l-0.3-1.9v-8.3l21.6-0.7l0,0V426l-21.6-0.7
	V417c0-2,0-4.1,3.8-4.1h21.1v-8.5l0,0C585.7,403.6,567,403.1,566.8,403.1"/>
<polygon class="st0" points="629,437.4 607.9,403 597.5,403 597.5,456.3 607.8,456.3 607.8,422.3 629,456.3 639.3,456.3 639.3,403 
	629,403 "/>
<path class="st0" d="M658.3,455.7l-0.4-0.1L658.3,455.7z M654.8,454l-0.4-0.2L654.8,454z M656.6,455l-0.5-0.2L656.6,455z
	 M664.5,402.5c-1.8,0-3.4,0.2-4.9,0.5l-0.3,0.1l-1.7,0.5l-0.8,0.3l-1.1,0.4l-0.9,0.5l-0.8,0.5l-0.7,0.5l-0.9,0.7l-0.3,0.3
	c-0.8,0.8-1.5,1.7-2.2,2.8c-0.7,1.1-1.2,2.4-1.7,3.8l-0.1,0.3l-0.5,1.9l-0.1,0.7l-0.4,1.7l-0.1,0.9l-0.3,1.7l-0.1,0.8l-0.2,2.1v0.2
	c-0.1,1.8-0.2,3.8-0.2,5.9c0,8.9,1.3,15.4,4,19.9c3,4.9,7.6,7.3,14.2,7.3h2h0.6c1.2,0,2.3,0,3.4-0.1l1.5-0.1
	c1.1-0.1,2.1-0.2,3.1-0.3l1.3-0.2c1-0.1,2-0.3,2.9-0.5l1-0.2l2.4-0.6l0.5-0.1l0,0v-7.9l0,0c-0.1,0-8.6,0.6-16.2,0.6
	c-4.1,0-6.8-1.4-8.3-4.4c-1.4-2.7-2-6.8-2-13.3c0-8,0.7-12.5,2.4-15c1.6-2.4,4.2-2.8,8-2.8c5.7,0,12.4,0.6,16,1h0.2l0,0v-8l0,0
	C677.3,403.2,671.9,402.5,664.5,402.5"/>
<path class="st0" d="M700.3,444.4L700.3,444.4z M700.7,445.5l-0.1-0.2L700.7,445.5z M701.2,446.1l-0.1-0.1L701.2,446.1z
	 M692.8,453.7L692.8,453.7l0.2,0.2L692.8,453.7z M691.5,452.2l0.1,0.1L691.5,452.2z M690.1,448.1v0.3V448.1z M690.1,411.5v0.2V411.5
	z M692.8,406L692.8,406L692.8,406L692.8,406z M701.5,403.1h-0.3c-1.1,0-2.4,0.1-3.7,0.4l0,0l-1,0.3l0,0c-1.2,0.4-2.4,1-3.4,1.9
	l-0.2,0.2l-0.2,0.2l-0.2,0.2l-1,1.3l-0.2,0.4l-0.6,1.3l-0.2,0.5l-0.4,1.7l-0.1,0.7l-0.1,1.6v0.5V446v0.5l0.1,1.5l0.1,0.8l0.4,1.4
	l0.2,0.5l0.7,1.4l0.3,0.5l1,1.2l0.1,0.1l0.5,0.4l0.2,0.1l0.7,0.5l0.3,0.1l0.7,0.4l0.3,0.1l0.7,0.3l0.3,0.1l0.7,0.2l0.3,0.1l0.8,0.2
	h0.2c1,0.1,1.9,0.2,2.8,0.2h1c0.2,0,18.7-0.7,22.8-1.2l0,0V447h-20.5h-0.1c-1,0-2.1,0-2.9-0.5L701,446v-0.1l-0.4-0.7v-0.1l-0.3-2
	v-8.3l21.6-0.7l0,0v-8.5l-21.6-0.7v-8.3c0-2,0-4.1,3.8-4.1h21.1V404l0,0C720.4,403.6,701.7,403.1,701.5,403.1"/>
<path class="st0" d="M777.4,454.8L777.4,454.8L777.4,454.8z M775.1,455.9l0.2-0.1L775.1,455.9z M772.7,456.4h0.2H772.7z
	 M768.1,456.5L768.1,456.5L768.1,456.5L768.1,456.5z M766.3,456.2l0.3,0.1L766.3,456.2z M764.8,455.7l0.3,0.1L764.8,455.7z
	 M763.3,455.1l0.3,0.1L763.3,455.1z M762,454.4l0.2,0.1L762,454.4z M760.7,453.5l0.2,0.2L760.7,453.5z M759.6,452.5l0.2,0.2
	L759.6,452.5z M761.5,418.4L761.5,418.4L761.5,418.4z M760.9,417.3l-0.1-0.3L760.9,417.3z M760.3,415.6l0.1,0.4L760.3,415.6z
	 M760,414.3l0.1,0.4L760,414.3z M759.9,412.9v0.4V412.9z M760,411.6v0.4V411.6z M760.3,410.4l-0.1,0.3L760.3,410.4z M760.7,409.2
	L760.7,409.2v0.1V409.2z M761.3,408l-0.1,0.1L761.3,408z M762,407L762,407L762,407z M762.8,406L762.8,406L762.8,406z M763.7,405.2
	L763.7,405.2L763.7,405.2z M772.8,412.6l0.2-0.1L772.8,412.6z M771.9,413.2l0.2-0.2L771.9,413.2z M771.5,414.1l0.1-0.4L771.5,414.1z
	 M771.5,415.1l-0.1-0.4L771.5,415.1z M771.9,416.2l-0.1-0.2L771.9,416.2z M773.6,446.5l-0.1,0.1L773.6,446.5z M772.5,447L772.5,447
	L772.5,447z M770.3,447.1l-0.5-0.1L770.3,447.1z M769.1,446.8l-0.5-0.2L769.1,446.8z M768,446.2l-0.4-0.3L768,446.2z M766.9,445.4
	l-0.4-0.4L766.9,445.4z M765.1,438.2l0.1-0.1L765.1,438.2z M773.8,446.4l-0.5,0.3l-0.6,0.3l-0.5,0.2l-0.6,0.1l-0.5,0.1l0,0l-0.5-0.1
	l-0.9-0.2l-0.3-0.1l-1-0.4l-0.2-0.1l-1-0.7l-0.1-0.1l-1-1l-1.2-2.1l-0.1-0.2l-0.2-0.8v-0.1l-0.1-0.9c0.1-1.6,1-3.2,2.8-4.8l3.8-3.3
	l7.4,9.7l-3.7,3.6l-0.3,0.3L773.8,446.4z M778.4,402.9L778.4,402.9L778.4,402.9z M794.1,439.8l4.4-7.8l0,0l-3.6-4.3l0,0l-8.8,8.3
	l-12.3-16.8c-1-1.3-1.6-2.4-2-3.4l-0.1-0.3l-0.2-0.9v-0.3l0.1-0.6l0.2-0.3l0.3-0.4l0.3-0.2l0.7-0.3l0,0c0.8-0.2,1.8-0.4,3.1-0.4h12
	v-7.4l0,0c-5.1-1.2-11.5-2.7-20.2-1.5c-1.5,0.2-2.9,0.8-4.1,1.8l0,0l-0.8,0.7l-0.1,0.1l-0.7,0.8l-0.1,0.2l-0.6,0.8l-0.1,0.2
	l-0.5,0.9l-0.1,0.2l-0.2,0.3l-0.2,0.6l-0.1,0.3l-0.3,1v0.2l-0.1,1.1v0.2v1.1v0.2l0.2,1.2v0.2l0.4,1.2l0.1,0.2c0.4,1,0.9,1.9,1.6,2.9
	l3.7,5.4l-5,4.4c-3.2,2.7-5.3,6.2-5.9,9.8c-0.7,3.8,0.2,7.7,2.7,11.1c0.7,0.9,1.4,1.8,2.2,2.6l0.2,0.2l1,0.8l0.3,0.2l1,0.6l0.3,0.2
	l1.1,0.5l0.3,0.1l1.1,0.4l0.3,0.1l1.2,0.3l0.4,0.1l0.7,0.1h0.4l1,0.1h0.7h0.3l1.9-0.1l0.8-0.1l1.8-0.4l0.7-0.2l1.7-0.7l0.5-0.3
	l1.4-1l0.2-0.1l4.7-4.2l5.2,7h12l-9.9-13.3L794.1,439.8z"/>
<polygon class="st0" points="815.6,412.5 830.1,412.5 830.1,456.3 840.4,456.3 840.4,412.5 855.2,412.5 855.2,403.1 815.6,403.1 "/>
<path class="st0" d="M870.9,445.5l-0.1-0.1L870.9,445.5z M871.4,446.1l-0.1-0.1L871.4,446.1z M863,453.7L863,453.7L863,453.7
	L863,453.7z M861.8,452.2l0.1,0.1L861.8,452.2z M860.4,448.2v0.2V448.2z M860.4,411.6v0.1V411.6z M863.1,406L863.1,406L863.1,406
	L863.1,406z M871.8,403.1h-0.3c-1.1,0-2.4,0.1-3.7,0.4l0,0l-1,0.3h-0.1c-1.2,0.4-2.3,1-3.3,1.8l-0.3,0.2l-0.2,0.2l-0.2,0.2l-1,1.3
	l-0.2,0.3l-0.6,1.3l-0.2,0.5l-0.4,1.7l-0.1,0.7l-0.1,1.7v0.4v31.7v0.5l0.1,1.6l0.1,0.7l0.4,1.5l0.1,0.5l0.7,1.4l0.3,0.5l1,1.2
	l0.1,0.1l0.5,0.4l0.2,0.2l0.7,0.5l0.3,0.2l0.7,0.4l0.3,0.1l0.7,0.3l0.4,0.1l0.7,0.2l0.3,0.1l0.8,0.2h0.2c1,0.1,1.9,0.2,2.8,0.2h1
	c0.2,0,18.7-0.7,22.8-1.2l0,0v-8.4h-20.5h-0.1c-1,0-2.1,0-2.9-0.5l-0.6-0.5V446l-0.4-0.6v-0.1l-0.3-1.9v-8.3l21.6-0.7l0,0v-8.5
	l-21.6-0.7v-8.3c0-2,0-4.1,3.8-4.1h21.1v-8.5l0,0C890.7,403.6,872,403.1,871.8,403.1"/>
<path class="st0" d="M909.7,454.1l-0.5-0.3L909.7,454.1z M907.7,452.6l0.1,0.1L907.7,452.6z M911.5,455.1l-0.6-0.3L911.5,455.1z
	 M913.2,455.8l-0.4-0.1L913.2,455.8z M919.3,402.5c-1.8,0-3.4,0.2-4.9,0.5l-0.3,0.1l-1.7,0.5l-0.8,0.3l-1.1,0.4l-0.9,0.5l-0.8,0.5
	l-0.6,0.5l-0.9,0.7l-0.3,0.3c-0.8,0.8-1.5,1.7-2.2,2.8c-0.7,1.1-1.2,2.4-1.7,3.8l-0.1,0.3l-0.5,1.9l-0.1,0.7l-0.3,1.7l-0.1,0.9
	l-0.2,1.8l-0.1,0.8l-0.2,2.1v0.1c-0.1,1.8-0.2,3.8-0.2,5.9c0,8.9,1.3,15.4,4,19.9c3,4.9,7.6,7.3,14.2,7.3h2h0.6c1.2,0,2.3,0,3.4-0.1
	l1.5-0.1c1.1-0.1,2.1-0.2,3.1-0.3l1.3-0.2c1-0.1,2-0.3,2.9-0.5l1-0.2l2.4-0.6l0.5-0.1l0,0v-7.9l0,0c-0.1,0-8.6,0.6-16.2,0.6
	c-4.1,0-6.8-1.4-8.3-4.4c-1.4-2.7-2-6.8-2-13.3c0-8,0.7-12.5,2.4-15c1.6-2.4,4.1-2.8,8-2.8c5.6,0,12.4,0.6,16,1h0.2l0,0v-8l0,0
	C932.1,403.2,926.7,402.5,919.3,402.5"/>
<polygon class="st0" points="973.5,425.9 955.2,425.9 955.2,403.1 944.9,403.1 944.9,456.3 955.2,456.3 955.2,435.2 973.5,435.2 
	973.5,456.3 983.7,456.3 983.7,403.1 973.5,403.1 "/>
<polygon class="st0" points="1023.6,437.4 1002.5,403 992.1,403 992.1,456.3 1002.4,456.3 1002.4,422.3 1023.7,456.3 1033.9,456.3 
	1033.9,403 1023.6,403 "/>
<path class="st0" d="M1077.3,406l0.4,0.4L1077.3,406z"/>
<path class="st0" d="M1081.2,448.6L1081.2,448.6L1081.2,448.6z M1073,403.8l0.3,0.1L1073,403.8z M1053.9,455.8L1053.9,455.8
	L1053.9,455.8z M1050.3,454.5l-0.2-0.1L1050.3,454.5z M1052.1,455.2l-0.3-0.1L1052.1,455.2z M1052.4,404.1L1052.4,404.1
	L1052.4,404.1z M1071.3,444.7l-0.3,0.3l-0.5,0.4l-0.3,0.2l-0.6,0.3l-0.4,0.2l-0.4,0.2l-0.8,0.3h-0.2c-1.2,0.3-2.8,0.5-4.8,0.5
	c-1.6,0-3-0.1-4.2-0.3l0,0l-1.1-0.3h-0.1c-1.5-0.4-2.7-1.2-3.6-2.5c-1.6-2.3-2.2-6.3-2.2-14c0-8.3,0.8-12.9,2.7-15.3
	c1.9-2.4,4.9-2.6,8.6-2.6c4.3,0,6.9,0.4,8.7,2.8c1.8,2.4,2.6,7,2.6,15.2c0,7.4-0.7,11.5-2.4,13.9l-0.3,0.4L1071.3,444.7z
	 M1081.3,411.1l-0.2-0.5L1081.3,411.1z M1082.4,413.7l-0.3-0.8L1082.4,413.7z M1083.8,419.7l-0.2-1.1L1083.8,419.7z M1084.2,422.8
	l-0.1-0.7L1084.2,422.8z M1083.2,416.6l-0.2-1.1L1083.2,416.6z M1083.7,440.9l0.1-0.5L1083.7,440.9z M1083,443.8l0.1-0.6L1083,443.8
	z M1082.2,446.4l0.1-0.4L1082.2,446.4z M1084.5,430c0-6.1-0.5-10.9-1.6-14.8l0,0c-0.2-0.9-0.5-1.8-0.8-2.6l-0.1-0.2l-0.9-2l-0.1-0.2
	c-0.7-1.2-1.5-2.3-2.4-3.2l-0.7-0.6l0.4,0.4l-1.1-0.9l0.2,0.1l-0.7-0.5l0.1,0.1l-1.2-0.7l0.2,0.1l-0.7-0.4l0,0l-1-0.4l0.3,0.1
	c-0.8-0.4-1.7-0.7-2.7-0.9c-2.3-0.5-4.9-0.8-8.7-0.8c-6.5,0-11.6,0.7-15.3,4.3c-1,0.9-1.8,2.1-2.5,3.3l-0.1,0.1
	c-2.4,4.3-3.6,10.7-3.6,19.6c0,4.4,0.3,8.2,0.9,11.4l0.1,0.4l0.6,2.5l0.2,0.7l0.6,1.8l0.3,0.7l0.7,1.5l0.3,0.5
	c0.6,1.1,1.4,2.1,2.2,2.9c3.6,3.5,8.7,4.2,15.7,4.2c1.4,0,2.7-0.1,4-0.2l1.2-0.1l1.3-0.2l2.3-0.4l0.5-0.1l0.3-0.1l0.8-0.2l0.7-0.2
	l0.7-0.3l-0.4,0.1c1-0.4,1.9-0.9,2.8-1.5l-0.2,0.1l0.2-0.2l0.2-0.1l1-0.8l-0.3,0.2l0.4-0.3l-0.1,0.1l0.4-0.3
	c1.4-1.4,2.6-3.2,3.4-5.5l0,0C1083.7,442.6,1084.5,437.2,1084.5,430"/>
<path class="st0" d="M1074.4,404.4l0.7,0.3L1074.4,404.4z"/>
<path class="st0" d="M1075.8,405l0.8,0.5L1075.8,405z"/>
<path class="st0" d="M1102.4,444.4L1102.4,444.4L1102.4,444.4z M1102.8,445.5l-0.1-0.2L1102.8,445.5z M1103.3,446.1l-0.1-0.1
	L1103.3,446.1z M1106.6,446.9c-1,0-2.1,0-2.9-0.5l-0.6-0.5v-0.1l-0.4-0.7V445l-0.3-2v-40.1H1092v42.9v0.3l0.2,2.1v0.4l0.5,1.9
	l0.1,0.3l0.9,1.6l0.2,0.2l1.3,1.3l0.1,0.1l0.2,0.1l1.1,0.7l0.4,0.2l1.4,0.5l0.5,0.1l1.6,0.3l0.5,0.1l1.7,0.1h0.4h22v-9.4h-18.5l0,0
	L1106.6,446.9L1106.6,446.9z"/>
<path class="st0" d="M1131.2,414.1l0.4-1.3L1131.2,414.1z M1130.4,417l0.4-1.6L1130.4,417z M1129.8,420.1l0.2-1.6L1129.8,420.1z
	 M1129.4,423.1l0.1-1.2L1129.4,423.1z M1132.2,411.4l0.4-0.8L1132.2,411.4z M1133.8,408.7l-0.1,0.2L1133.8,408.7z M1160.6,403.8
	l0.3,0.1L1160.6,403.8z M1141.5,455.8L1141.5,455.8L1141.5,455.8z M1137.9,454.5l-0.2-0.1L1137.9,454.5z M1139.7,455.2l-0.4-0.1
	L1139.7,455.2z M1140,404.1L1140,404.1L1140,404.1z M1158.9,444.7l-0.3,0.3l-0.5,0.4l-0.3,0.2l-0.6,0.4l-0.4,0.2l-0.4,0.2l-0.8,0.3
	h-0.2c-1.2,0.3-2.8,0.5-4.8,0.5c-1.6,0-3-0.1-4.2-0.3l0,0l-1.1-0.3h-0.1c-1.5-0.4-2.7-1.2-3.6-2.5c-0.6-0.9-1.1-2-1.4-3.4
	c-0.6-2.4-0.8-5.8-0.8-10.6c0-8.3,0.8-12.9,2.7-15.3s4.9-2.6,8.6-2.6c4.3,0,6.9,0.4,8.7,2.8c1.8,2.4,2.6,7,2.6,15.2
	c0,7.4-0.7,11.5-2.4,13.9l-0.3,0.4L1158.9,444.7z M1168.9,411l-0.2-0.4L1168.9,411z M1170,413.6l-0.2-0.7L1170,413.6z M1171.4,419.5
	l-0.1-1L1171.4,419.5z M1171.7,422.5V422V422.5z M1170.8,416.5l-0.2-0.9L1170.8,416.5z M1171.3,440.9v-0.3V440.9z M1170.6,443.8
	l0.1-0.4L1170.6,443.8z M1169.8,446.4l0.1-0.3L1169.8,446.4z M1168.8,448.6L1168.8,448.6L1168.8,448.6z M1169.7,446.7l0.1-0.1
	c0.3-0.8,0.6-1.6,0.8-2.5l0,0c1-3.7,1.5-8.3,1.5-14.1c0-6.1-0.5-10.9-1.6-14.8v-0.1c-0.3-0.9-0.5-1.7-0.8-2.5l-0.1-0.3l-0.9-2
	l-0.2-0.3c-0.7-1.2-1.5-2.3-2.4-3.2l-0.7-0.6l0.4,0.4l-1-0.9l0.2,0.1l-0.7-0.5l0.1,0.1l-1.2-0.7l0.2,0.1l-0.7-0.4l0,0l-1-0.4
	l0.3,0.1c-0.8-0.4-1.7-0.7-2.7-0.9c-2.3-0.5-4.9-0.8-8.7-0.8c-6.5,0-11.6,0.7-15.3,4.3c-1,0.9-1.8,2.1-2.5,3.4l0,0
	c-2.4,4.3-3.6,10.7-3.6,19.6c0,4.4,0.3,8.2,0.9,11.4l0.1,0.4l0.6,2.5l0.2,0.6l0.6,1.9l0.3,0.7l0.7,1.5l0.3,0.5
	c0.6,1.1,1.4,2.1,2.2,2.9c3.6,3.5,8.7,4.2,15.7,4.2c1.4,0,2.7-0.1,4-0.2l1.2-0.1l1.3-0.2l2.3-0.4l0.4-0.1l0.3-0.1l0.8-0.2l0.7-0.3
	l0.7-0.3l-0.4,0.1c1-0.4,1.9-0.9,2.8-1.5l-0.2,0.1l0.2-0.2l0.2-0.1l1-0.9l-0.3,0.2l0.4-0.3l-0.1,0.1l0.3-0.3c0.9-0.9,1.7-2,2.4-3.3
	l0.1-0.1L1169.7,446.7z"/>
<path class="st0" d="M1164.9,406l0.4,0.4L1164.9,406z"/>
<path class="st0" d="M1163.4,405l0.8,0.5L1163.4,405z"/>
<path class="st0" d="M1162,404.4l0.7,0.3L1162,404.4z"/>
<path class="st0" d="M1193.9,456.6h1.1h-0.7H1193.9z M1190.8,456.4l0.7,0.1L1190.8,456.4z M1188.3,455.7l0.4,0.1L1188.3,455.7z
	 M1185.7,454.5l0.2,0.2L1185.7,454.5z M1178.1,423.1L1178.1,423.1L1178.1,423.1z M1178.4,419.9l-0.1,0.7L1178.4,419.9z
	 M1178.8,417.3l-0.2,1L1178.8,417.3z M1179.4,414.9l-0.3,1L1179.4,414.9z M1180,413l-0.3,0.9L1180,413z M1180.5,411.5l-0.2,0.3
	L1180.5,411.5z M1183.6,406.8L1183.6,406.8L1183.6,406.8z M1185.2,405.4l-0.2,0.1L1185.2,405.4z M1187,404.3l-0.3,0.1L1187,404.3z
	 M1188.9,403.5l-0.3,0.1L1188.9,403.5z M1190.8,402.9L1190.8,402.9L1190.8,402.9z M1208.9,426.1h1.9H1208.9z M1205.3,426.4l2.1-0.2
	L1205.3,426.4z M1202,426.9l2.2-0.4L1202,426.9z M1199.2,427.7l2.2-0.7L1199.2,427.7z M1211.7,426c-5.8,0-9.8,0.6-12.7,1.8v6.5h7.4
	v9.5c0,0-4.1,3.3-9,3.3h-0.2c-4,0-6.1-1.1-7.4-3.6c-1.2-2.5-1.7-6.5-1.7-13.9c0-7.3,0.5-11.4,1.8-13.9c1.4-2.8,3.8-4.1,7.8-4.1
	c6.8,0,14.2,0.8,17,1.1l1.1,0.1l0,0v-7.9l0,0c-7.4-1.8-12-2.3-20.5-2.3c-1.8,0-3.4,0.2-4.9,0.5h-0.1l-1.9,0.6l-0.3,0.1l-1.5,0.7
	l-0.4,0.2l-1.3,0.8l-0.3,0.3l-1.1,1l-0.2,0.2c-0.8,0.9-1.5,1.9-2.1,3c-2.3,4.3-3.3,10.2-3.3,19.3c0,5.4,0.3,11.1,1.7,15.9v-0.1
	c0.7,2.6,1.8,4.8,3.3,6.7l-0.4-0.5l0.7,0.8l0.2,0.2l0.2,0.2l-0.1-0.1l0.6,0.6l-0.2-0.1l-0.3-0.3l0.3,0.4l0.4,0.3l1.2,0.9l0.7,0.5
	l2,0.9l1.1,0.3l1.3,0.3l1.3,0.2l1.5,0.1l0.9,0.1h1c6.1-0.2,9-1.7,11.3-3.9l2.8,3.6h7.3v-30.1l0,0C1214.9,426,1213.2,426,1211.7,426"
	/>
<path class="st0" d="M1179.6,445.3l0.5,1.5L1179.6,445.3z"/>
<polygon class="st0" points="1255.9,403.1 1244.4,428.6 1234,403.1 1234,403.1 1222.9,403.1 1239.2,439.8 1239.2,456.3 
	1249.4,456.3 1249.4,439.8 1267,403.1 1267,403.1 "/>
<path class="st0" d="M360,99.6V233c0,9.5,7.7,17.1,17.2,17.1h184v-33.6H393.6V116h167.7V82.5h-184C367.7,82.5,360,90.2,360,99.6"/>
<path class="st0" d="M1265.3,116V82.5h-167.6V15.4h-33.5V233c0,9.5,7.7,17.2,17.2,17.2h184v-33.6h-167.6V116H1265.3z"/>
<path class="st0" d="M829.4,99.6v66.3c0,9.5,7.7,17.2,17.1,17.2H997v33.5H829.4v33.6h184.1c9.5,0,17.1-7.7,17.1-17.1v-66.3
	c0-9.5-7.7-17.2-17.1-17.2H862.9v-33.5h167.7V82.5h-184C837.1,82.5,829.4,90.2,829.4,99.6"/>
<path class="st0" d="M762.4,216.6H628.3V116h134.1V216.6z M778.8,82.5H611.9c-9.5,0-17.2,7.7-17.2,17.2v133.4
	c0,9.5,7.7,17.2,17.2,17.2h166.9c9.5,0,17.2-7.7,17.2-17.2V99.6C795.9,90.2,788.2,82.5,778.8,82.5"/>
<path class="st0" d="M292.6,212.6l-134.2,67.3L57.9,229.6v-62.3l-32.9,20v52c0,3.2,0.9,6.3,2.5,9c1.7,2.7,4,4.9,6.9,6.3l116.3,58.8
	c2.4,1.2,5.1,1.8,7.7,1.8c2.6,0,5.3-0.6,7.7-1.8L283.2,255c2.9-1.4,5.3-3.6,6.9-6.3c1.7-2.7,2.6-5.8,2.6-9L292.6,212.6L292.6,212.6z
	"/>
<path class="st0" d="M290.1,84.3c-1.7-2.7-4-4.9-6.9-6.3L166.9,19.3c-4.8-2.4-10.6-2.4-15.4,0l-117,58.4c-2.9,1.4-5.3,3.6-6.9,6.3
	c-1.7,2.7-2.6,5.9-2.6,9v26.9l0,0l134.2-67.3L259.7,103v62.3l32.9-20.1v-52C292.6,90.2,291.8,87.1,290.1,84.3"/>
</svg>
