<?xml version="1.0" encoding="UTF-8"?>
<svg enable-background="new 0 0 447.6 78.9" version="1.1" viewBox="0 0 447.6 78.9" xml:space="preserve" xmlns="http://www.w3.org/2000/svg">
<style type="text/css">
.st0{fill:#FFFFFF;}
.st1{fill:#034EA2;}
.st2{fill:#FFF200;}
</style>
<title>creative_europe</title>
<rect class="st0" x="-.3" y="-.3" width="117.9" height="80.1"/>
<path class="st0" d="m58.6 40.5"/>
<rect class="st1" x="-.3" y="-.3" width="117.9" height="80.1"/>
<path class="st1" d="m84.4 6.5"/>
<polygon class="st2" points="56.2 18.3 58.6 16.6 61 18.3 60.1 15.5 62.5 13.8 59.5 13.8 58.6 10.9 57.7 13.8 54.7 13.8 57.1 15.5"/>
<polygon class="st2" points="43.8 21.7 46.2 19.9 48.6 21.7 47.7 18.8 50.1 17.1 47.1 17.1 46.2 14.2 45.3 17.1 42.3 17.1 44.7 18.8"/>
<polygon class="st2" points="37.2 23.3 36.2 26.2 33.3 26.2 35.7 27.9 34.8 30.7 37.2 29 39.6 30.7 38.6 27.9 41.1 26.2 38.1 26.2"/>
<polygon class="st2" points="33.8 41.4 36.2 43.1 35.3 40.3 37.8 38.5 34.8 38.5 33.8 35.7 32.9 38.5 29.9 38.5 32.4 40.3 31.4 43.1"/>
<polygon class="st2" points="38.1 50.9 37.2 48.1 36.2 50.9 33.3 50.9 35.7 52.7 34.8 55.5 37.2 53.8 39.6 55.5 38.6 52.7 41.1 50.9"/>
<polygon class="st2" points="47.2 60 46.2 57.2 45.3 60 42.3 60 44.8 61.8 43.9 64.6 46.2 62.8 48.6 64.6 47.7 61.8 50.2 60"/>
<polygon class="st2" points="59.5 63.3 58.6 60.4 57.7 63.3 54.7 63.3 57.1 65.1 56.2 67.9 58.6 66.1 61 67.9 60.1 65.1 62.5 63.3"/>
<polygon class="st2" points="71.9 60 71 57.2 70.1 60 67.1 60 69.5 61.8 68.6 64.6 71 62.8 73.4 64.6 72.5 61.8 74.9 60"/>
<polygon class="st2" points="81 50.9 80.1 48.1 79.1 50.9 76.1 50.9 78.6 52.7 77.7 55.5 80.1 53.8 82.4 55.5 81.5 52.7 84 50.9"/>
<polygon class="st2" points="87.3 38.5 84.3 38.5 83.3 35.6 82.4 38.5 79.4 38.5 81.9 40.3 81 43.1 83.3 41.3 85.7 43.1 84.8 40.3"/>
<polygon class="st2" points="77.7 30.7 80.1 29 82.4 30.7 81.5 27.9 84 26.1 81 26.1 80.1 23.3 79.1 26.1 76.1 26.1 78.6 27.9"/>
<polygon class="st2" points="71 14.2 70.1 17.1 67.1 17.1 69.5 18.8 68.6 21.7 71 19.9 73.4 21.7 72.5 18.8 74.9 17.1 71.9 17.1"/>
<path class="st1" d="m137.3 3.5c1.2 1.2 1.9 2.6 2.1 4.1h-2.4c-0.3-1.2-0.8-2.1-1.6-2.8s-1.9-1-3.3-1c-1.7 0-3.1 0.6-4.2 1.9-1.1 1.2-1.6 3.2-1.6 5.7 0 2.1 0.5 3.8 1.4 5.1 1 1.3 2.4 2 4.3 2 1.8 0 3.1-0.7 4-2.1 0.5-0.7 0.9-1.7 1.1-2.9h2.4c-0.2 1.9-0.9 3.5-2.1 4.8-1.4 1.5-3.3 2.3-5.7 2.3-2.1 0-3.8-0.6-5.2-1.9-1.8-1.7-2.8-4.3-2.8-7.8 0-2.7 0.7-4.8 2.1-6.5 1.5-1.8 3.6-2.8 6.2-2.8 2.3 0.1 4 0.7 5.3 1.9z"/>
<path class="st1" d="m151.9 8.4c1.2 1.1 1.7 2.8 1.7 5 0 2.1-0.5 3.9-1.5 5.2-1 1.4-2.6 2.1-4.8 2.1-1.8 0-3.2-0.6-4.3-1.8s-1.6-2.9-1.6-4.9c0-2.2 0.6-4 1.7-5.3s2.6-2 4.5-2c1.7 0 3.1 0.5 4.3 1.7zm-1.4 8.7c0.5-1.1 0.8-2.3 0.8-3.7 0-1.2-0.2-2.2-0.6-3-0.6-1.2-1.7-1.8-3.2-1.8-1.3 0-2.3 0.5-2.9 1.5s-0.9 2.3-0.9 3.7 0.3 2.6 0.9 3.5 1.6 1.4 2.9 1.4c1.5 0 2.5-0.5 3-1.6z"/>
<path class="st1" d="M155.7,12h6.1v2.3h-6.1V12z"/>
<path class="st1" d="m165.7 3c0.5-0.8 1.5-1.1 3-1.1h0.4 0.5v2h-0.5-0.3c-0.7 0-1.1 0.2-1.2 0.5s-0.2 1.2-0.2 2.6h2.2v1.7h-2.2v11.3h-2.2v-11.2h-1.8v-1.7h1.8v-2c0.1-1 0.2-1.6 0.5-2.1z"/>
<path class="st1" d="m173.8 7v8.7c0 0.7 0.1 1.2 0.3 1.6 0.4 0.8 1.1 1.2 2.1 1.2 1.5 0 2.5-0.7 3.1-2.1 0.3-0.7 0.4-1.7 0.4-3v-6.4h2.2v13.1h-2.1v-1.9c-0.3 0.5-0.6 0.9-1 1.3-0.8 0.7-1.8 1-3 1-1.8 0-3.1-0.6-3.7-1.9-0.4-0.7-0.5-1.6-0.5-2.7v-8.9h2.2z"/>
<path class="st1" d="m185.6 7h2.1v1.9c0.6-0.8 1.3-1.3 2-1.7s1.5-0.5 2.3-0.5c1.9 0 3.1 0.6 3.8 1.9 0.4 0.7 0.5 1.7 0.5 3v8.4h-2.3v-8.3c0-0.8-0.1-1.4-0.4-1.9-0.4-0.8-1.1-1.2-2.1-1.2-0.5 0-1 0.1-1.3 0.2-0.6 0.2-1.1 0.5-1.6 1.1-0.4 0.4-0.6 0.9-0.7 1.3-0.1 0.5-0.2 1.1-0.2 2v6.9h-2.2v-13.1z"/>
<path class="st1" d="m206.7 7.5c0.4 0.2 0.8 0.7 1.3 1.3v-6.7h2.1v18h-2v-1.8c-0.5 0.8-1.1 1.4-1.8 1.8s-1.5 0.5-2.4 0.5c-1.5 0-2.7-0.6-3.8-1.8s-1.6-2.9-1.6-4.9c0-1.9 0.5-3.6 1.5-5s2.4-2.1 4.2-2.1c1 0 1.8 0.2 2.5 0.7zm-4.9 9.8c0.6 0.9 1.5 1.4 2.8 1.4 1 0 1.8-0.4 2.5-1.3s1-2.1 1-3.8-0.3-2.9-1-3.7-1.5-1.2-2.5-1.2c-1.1 0-2 0.4-2.7 1.3-0.7 0.8-1 2.1-1 3.7 0 1.5 0.3 2.6 0.9 3.6z"/>
<path class="st1" d="m221.5 7.4c0.9 0.4 1.5 1 2 1.7 0.4 0.7 0.7 1.4 0.9 2.3 0.1 0.6 0.2 1.6 0.2 2.9h-9.5c0 1.3 0.4 2.4 0.9 3.2s1.5 1.2 2.7 1.2c1.1 0 2.1-0.4 2.7-1.1 0.4-0.4 0.7-1 0.8-1.5h2.2c-0.1 0.5-0.2 1-0.6 1.6-0.3 0.6-0.7 1.1-1.1 1.5-0.7 0.7-1.5 1.1-2.5 1.3-0.5 0.1-1.1 0.2-1.8 0.2-1.6 0-3-0.6-4.1-1.8s-1.7-2.8-1.7-5c0-2.1 0.6-3.8 1.7-5.1s2.6-2 4.5-2c1 0 1.9 0.2 2.7 0.6zm0.8 5.2c-0.1-1-0.3-1.7-0.6-2.3-0.6-1.1-1.6-1.6-3-1.6-1 0-1.8 0.4-2.5 1.1s-1 1.7-1.1 2.8h7.2z"/>
<path class="st1" d="m234.6 7.5c0.4 0.2 0.8 0.7 1.3 1.3v-6.7h2.1v18h-2v-1.8c-0.5 0.8-1.1 1.4-1.8 1.8s-1.5 0.5-2.4 0.5c-1.5 0-2.7-0.6-3.8-1.8s-1.6-2.9-1.6-4.9c0-1.9 0.5-3.6 1.5-5s2.4-2.1 4.2-2.1c1 0 1.8 0.2 2.5 0.7zm-4.9 9.8c0.6 0.9 1.5 1.4 2.8 1.4 1 0 1.8-0.4 2.5-1.3s1-2.1 1-3.8-0.3-2.9-1-3.7-1.5-1.2-2.5-1.2c-1.1 0-2 0.4-2.7 1.3-0.7 0.8-1 2.1-1 3.7 0 1.5 0.3 2.6 0.9 3.6z"/>
<path class="st1" d="m248.1 2.1h2.1v6.5c0.5-0.6 1.1-1.1 1.7-1.4s1.4-0.5 2.2-0.5c1.6 0 3 0.6 4 1.7s1.5 2.8 1.5 5c0 2.1-0.5 3.8-1.5 5.2s-2.4 2.1-4.2 2.1c-1 0-1.8-0.2-2.5-0.7-0.4-0.3-0.8-0.7-1.3-1.4v1.7h-2v-18.2zm8.4 15.1c0.6-0.9 0.9-2.2 0.9-3.7 0-1.4-0.3-2.5-0.9-3.4s-1.5-1.4-2.6-1.4c-1 0-1.9 0.4-2.6 1.1-0.8 0.7-1.1 2-1.1 3.7 0 1.2 0.2 2.2 0.5 3 0.6 1.4 1.7 2.2 3.3 2.2 1-0.1 1.9-0.5 2.5-1.5z"/>
<path class="st1" d="m270.4 7h2.4c-0.3 0.8-1 2.8-2.1 5.8-0.8 2.3-1.5 4.1-2 5.5-1.3 3.3-2.2 5.4-2.7 6.1s-1.4 1.1-2.7 1.1h-0.7c-0.2 0-0.4-0.1-0.6-0.1v-2c0.4 0.1 0.7 0.2 0.8 0.2s0.3 0 0.5 0c0.4 0 0.7-0.1 0.9-0.2s0.4-0.3 0.5-0.5c0-0.1 0.2-0.4 0.4-1 0.3-0.6 0.4-1.1 0.5-1.3l-4.7-13.6h2.5l3.5 10.7 3.5-10.7z"/>
<path class="st1" d="m282.2 3.4h2.2v3.6h2.1v1.8h-2.1v8.6c0 0.5 0.2 0.8 0.5 0.9 0.2 0.1 0.5 0.1 0.9 0.1h0.3 0.4v1.8c-0.3 0.1-0.5 0.1-0.8 0.2h-0.9c-1 0-1.7-0.3-2.1-0.8s-0.6-1.2-0.6-2v-8.8h-1.8v-1.8h1.8v-3.6z"/>
<path class="st1" d="m288.7 2.1h2.2v6.7c0.5-0.7 1-1.1 1.4-1.4 0.7-0.5 1.6-0.7 2.7-0.7 1.9 0 3.2 0.7 3.9 2 0.4 0.7 0.6 1.7 0.6 3v8.4h-2.3v-8.3c0-1-0.1-1.7-0.4-2.1-0.4-0.7-1.2-1.1-2.3-1.1-0.9 0-1.7 0.3-2.5 0.9-0.7 0.6-1.1 1.8-1.1 3.6v7h-2.2v-18z"/>
<path class="st1" d="m310.7 7.4c0.9 0.4 1.5 1 2 1.7 0.4 0.7 0.7 1.4 0.9 2.3 0.1 0.6 0.2 1.6 0.2 2.9h-9.5c0 1.3 0.4 2.4 0.9 3.2s1.5 1.2 2.7 1.2c1.1 0 2.1-0.4 2.7-1.1 0.4-0.4 0.7-1 0.8-1.5h2.2c-0.1 0.5-0.2 1-0.6 1.6-0.3 0.6-0.7 1.1-1.1 1.5-0.7 0.7-1.5 1.1-2.5 1.3-0.5 0.1-1.1 0.2-1.8 0.2-1.6 0-3-0.6-4.1-1.8s-1.7-2.8-1.7-5c0-2.1 0.6-3.8 1.7-5.1s2.6-2 4.5-2c1 0 1.9 0.2 2.7 0.6zm0.8 5.2c-0.1-1-0.3-1.7-0.6-2.3-0.6-1.1-1.6-1.6-3-1.6-1 0-1.8 0.4-2.5 1.1s-1 1.7-1.1 2.8h7.2z"/>
<path class="st1" d="m137.3 32.6c1.2 1.2 1.9 2.6 2.1 4.1h-2.4c-0.3-1.2-0.8-2.1-1.6-2.8s-1.9-1-3.3-1c-1.7 0-3.1 0.6-4.2 1.9-1.1 1.2-1.6 3.2-1.6 5.7 0 2.1 0.5 3.8 1.4 5.1 1 1.3 2.4 2 4.3 2 1.8 0 3.1-0.7 4-2.1 0.5-0.7 0.9-1.7 1.1-2.9h2.4c-0.2 1.9-0.9 3.5-2.1 4.8-1.4 1.5-3.3 2.3-5.7 2.3-2.1 0-3.8-0.6-5.2-1.9-1.8-1.7-2.8-4.3-2.8-7.8 0-2.7 0.7-4.8 2.1-6.5 1.5-1.8 3.6-2.8 6.2-2.8 2.3 0.1 4 0.7 5.3 1.9z"/>
<path class="st1" d="m142.4 36.1h2.1v2.3c0.2-0.4 0.6-1 1.3-1.6s1.4-0.9 2.3-0.9h0.2 0.5v2.3h-0.4-0.4c-1.1 0-2 0.4-2.6 1.1s-0.9 1.5-0.9 2.5v7.5h-2.2v-13.2z"/>
<path class="st1" d="m158.8 36.5c0.9 0.4 1.5 1 2 1.7 0.4 0.7 0.7 1.4 0.9 2.3 0.1 0.6 0.2 1.6 0.2 2.9h-9.5c0 1.3 0.4 2.4 0.9 3.2s1.5 1.2 2.7 1.2c1.1 0 2.1-0.4 2.7-1.1 0.4-0.4 0.7-1 0.8-1.5h2.2c-0.1 0.5-0.2 1-0.6 1.6-0.3 0.6-0.7 1.1-1.1 1.5-0.7 0.7-1.5 1.1-2.5 1.3-0.5 0.1-1.1 0.2-1.8 0.2-1.6 0-3-0.6-4.1-1.8s-1.7-2.8-1.7-5c0-2.1 0.6-3.8 1.7-5.1s2.6-2 4.5-2c1-0.1 1.9 0.1 2.7 0.6zm0.8 5.1c-0.1-1-0.3-1.7-0.6-2.3-0.6-1.1-1.6-1.6-3-1.6-1 0-1.8 0.4-2.5 1.1s-1 1.7-1.1 2.8h7.2z"/>
<path class="st1" d="m171.7 41.3c0.5-0.1 0.8-0.3 1-0.6 0.1-0.2 0.1-0.5 0.1-0.8 0-0.8-0.3-1.3-0.8-1.6s-1.3-0.5-2.3-0.5c-1.1 0-2 0.3-2.4 0.9-0.3 0.3-0.4 0.9-0.5 1.5h-2.1c0-1.6 0.6-2.7 1.6-3.4 1-0.6 2.2-1 3.5-1 1.5 0 2.8 0.3 3.8 0.9s1.4 1.5 1.4 2.7v7.6c0 0.2 0 0.4 0.1 0.6 0.1 0.1 0.3 0.2 0.6 0.2h0.3c0.1 0 0.3 0 0.4-0.1v1.6c-0.3 0.1-0.6 0.2-0.8 0.2h-0.7c-0.8 0-1.3-0.3-1.7-0.8-0.2-0.3-0.3-0.7-0.4-1.2-0.4 0.6-1.1 1.1-1.9 1.5s-1.8 0.6-2.8 0.6c-1.2 0-2.2-0.4-3-1.1s-1.2-1.7-1.2-2.8c0-1.2 0.4-2.2 1.1-2.8 0.8-0.7 1.8-1.1 3-1.2l3.7-0.4zm-4.6 5.9c0.5 0.4 1 0.5 1.7 0.5 0.8 0 1.5-0.2 2.3-0.5 1.2-0.6 1.8-1.6 1.8-2.9v-1.8c-0.3 0.2-0.6 0.3-1 0.4s-0.8 0.2-1.2 0.2l-1.3 0.2c-0.8 0.1-1.4 0.3-1.8 0.5-0.7 0.4-1 1-1 1.8-0.2 0.8 0 1.3 0.5 1.6z"/>
<path class="st1" d="m179 32.5h2.2v3.7h2.1v1.8h-2.1v8.6c0 0.5 0.2 0.8 0.5 0.9 0.2 0.1 0.5 0.1 0.9 0.1h0.3 0.4v1.8c-0.3 0.1-0.5 0.1-0.8 0.2h-0.9c-1 0-1.7-0.3-2.1-0.8s-0.6-1.2-0.6-2v-8.7h-1.8v-1.8h1.8v-3.8z"/>
<path class="st1" d="m185.6 31.3h2.2v2.5h-2.2v-2.5zm0 4.9h2.2v13h-2.2v-13z"/>
<path class="st1" d="m192.2 36.1l3.5 10.7 3.6-10.7h2.4l-4.9 13.1h-2.3l-4.8-13.1h2.5z"/>
<path class="st1" d="m211.8 36.5c0.9 0.4 1.5 1 2 1.7 0.4 0.7 0.7 1.4 0.9 2.3 0.1 0.6 0.2 1.6 0.2 2.9h-9.5c0 1.3 0.4 2.4 0.9 3.2s1.5 1.2 2.7 1.2c1.1 0 2.1-0.4 2.7-1.1 0.4-0.4 0.7-1 0.8-1.5h2.2c-0.1 0.5-0.2 1-0.6 1.6-0.3 0.6-0.7 1.1-1.1 1.5-0.7 0.7-1.5 1.1-2.5 1.3-0.5 0.1-1.1 0.2-1.8 0.2-1.6 0-3-0.6-4.1-1.8s-1.7-2.8-1.7-5c0-2.1 0.6-3.8 1.7-5.1s2.6-2 4.5-2c0.9-0.1 1.8 0.1 2.7 0.6zm0.8 5.1c-0.1-1-0.3-1.7-0.6-2.3-0.6-1.1-1.6-1.6-3-1.6-1 0-1.8 0.4-2.5 1.1s-1 1.7-1.1 2.8h7.2z"/>
<path class="st1" d="m225.1 31.3h13v2.2h-10.7v5.5h9.9v2h-9.9v6.1h10.9v2.1h-13.2v-17.9z"/>
<path class="st1" d="m243.5 36.1v8.7c0 0.7 0.1 1.2 0.3 1.6 0.4 0.8 1.1 1.2 2.1 1.2 1.5 0 2.5-0.7 3.1-2.1 0.3-0.7 0.4-1.7 0.4-3v-6.4h2.2v13.1h-2.1v-1.9c-0.3 0.5-0.6 0.9-1 1.3-0.8 0.7-1.8 1-3 1-1.8 0-3.1-0.6-3.7-1.9-0.4-0.7-0.5-1.6-0.5-2.7v-8.9h2.2z"/>
<path class="st1" d="m255.3 36.1h2.1v2.3c0.2-0.4 0.6-1 1.3-1.6s1.4-0.9 2.3-0.9h0.2 0.5v2.3h-0.4-0.4c-1.1 0-2 0.4-2.6 1.1s-0.9 1.5-0.9 2.5v7.5h-2.2v-13.2z"/>
<path class="st1" d="m273.1 37.4c1.2 1.1 1.7 2.8 1.7 5 0 2.1-0.5 3.9-1.5 5.2-1 1.4-2.6 2.1-4.8 2.1-1.8 0-3.2-0.6-4.3-1.8s-1.6-2.9-1.6-4.9c0-2.2 0.6-4 1.7-5.3s2.6-2 4.5-2c1.7 0 3.1 0.6 4.3 1.7zm-1.4 8.7c0.5-1.1 0.8-2.3 0.8-3.7 0-1.2-0.2-2.2-0.6-3-0.6-1.2-1.7-1.8-3.2-1.8-1.3 0-2.3 0.5-2.9 1.5s-0.9 2.3-0.9 3.7 0.3 2.6 0.9 3.5 1.6 1.4 2.9 1.4c1.5 0.1 2.5-0.5 3-1.6z"/>
<path class="st1" d="m277.3 36.2h2.2v1.7c0.4-0.6 0.9-1.1 1.4-1.4 0.7-0.5 1.6-0.7 2.6-0.7 1.5 0 2.8 0.6 3.8 1.7s1.6 2.8 1.6 4.9c0 2.9-0.7 4.9-2.2 6.1-1 0.8-2.1 1.2-3.3 1.2-1 0-1.8-0.2-2.5-0.6-0.4-0.2-0.8-0.7-1.3-1.3v6.7h-2.2v-18.3zm8.3 10.3c0.7-0.9 1-2.1 1-3.9 0-1-0.2-1.9-0.5-2.7-0.6-1.4-1.6-2.2-3.1-2.2s-2.6 0.8-3.1 2.3c-0.3 0.8-0.5 1.9-0.5 3.1 0 1 0.2 1.9 0.5 2.6 0.6 1.4 1.6 2 3.1 2 1.1 0 1.9-0.4 2.6-1.2z"/>
<path class="st1" d="m299.6 36.5c0.9 0.4 1.5 1 2 1.7 0.4 0.7 0.7 1.4 0.9 2.3 0.1 0.6 0.2 1.6 0.2 2.9h-9.5c0 1.3 0.4 2.4 0.9 3.2s1.5 1.2 2.7 1.2c1.1 0 2.1-0.4 2.7-1.1 0.4-0.4 0.7-1 0.8-1.5h2.2c-0.1 0.5-0.2 1-0.6 1.6-0.3 0.6-0.7 1.1-1.1 1.5-0.7 0.7-1.5 1.1-2.5 1.3-0.5 0.1-1.1 0.2-1.8 0.2-1.6 0-3-0.6-4.1-1.8s-1.7-2.8-1.7-5c0-2.1 0.6-3.8 1.7-5.1s2.6-2 4.5-2c0.9-0.1 1.8 0.1 2.7 0.6zm0.7 5.1c-0.1-1-0.3-1.7-0.6-2.3-0.6-1.1-1.6-1.6-3-1.6-1 0-1.8 0.4-2.5 1.1s-1 1.7-1.1 2.8h7.2z"/>
<path class="st1" d="m312.9 31.3h8c1.6 0 2.9 0.5 3.9 1.4s1.5 2.2 1.5 3.8c0 1.4-0.4 2.6-1.3 3.7-0.9 1-2.2 1.6-4 1.6h-5.6v7.6h-2.4v-18.1zm9.4 2.4c-0.5-0.3-1.3-0.4-2.2-0.4h-4.8v6.2h4.8c1.1 0 2-0.2 2.6-0.7s1-1.3 1-2.5c0.1-1.2-0.4-2.1-1.4-2.6z"/>
<path class="st1" d="m329.1 36.1h2.1v2.3c0.2-0.4 0.6-1 1.3-1.6s1.4-0.9 2.3-0.9h0.2 0.5v2.3h-0.4-0.4c-1.1 0-2 0.4-2.6 1.1s-0.9 1.5-0.9 2.5v7.5h-2.2v-13.2z"/>
<path class="st1" d="m346.9 37.4c1.2 1.1 1.7 2.8 1.7 5 0 2.1-0.5 3.9-1.5 5.2-1 1.4-2.6 2.1-4.8 2.1-1.8 0-3.2-0.6-4.3-1.8s-1.6-2.9-1.6-4.9c0-2.2 0.6-4 1.7-5.3s2.6-2 4.5-2c1.7 0 3.2 0.6 4.3 1.7zm-1.3 8.7c0.5-1.1 0.8-2.3 0.8-3.7 0-1.2-0.2-2.2-0.6-3-0.6-1.2-1.7-1.8-3.2-1.8-1.3 0-2.3 0.5-2.9 1.5s-0.9 2.3-0.9 3.7 0.3 2.6 0.9 3.5 1.6 1.4 2.9 1.4c1.4 0.1 2.4-0.5 3-1.6z"/>
<path class="st1" d="m358.6 36.6c0.4 0.3 0.8 0.7 1.3 1.2v-1.7h2v11.9c0 1.7-0.2 3-0.7 3.9-0.9 1.8-2.6 2.7-5.2 2.7-1.4 0-2.6-0.3-3.5-0.9-1-0.6-1.5-1.6-1.6-3h2.2c0.1 0.6 0.3 1 0.6 1.4 0.5 0.5 1.3 0.7 2.3 0.7 1.7 0 2.8-0.6 3.3-1.8 0.3-0.7 0.5-2 0.4-3.8-0.4 0.7-1 1.2-1.6 1.5s-1.4 0.5-2.5 0.5c-1.4 0-2.7-0.5-3.7-1.5-1.1-1-1.6-2.7-1.6-5 0-2.2 0.5-3.9 1.6-5.1s2.4-1.8 3.9-1.8c1.2 0.1 2.1 0.3 2.8 0.8zm0.3 2.4c-0.7-0.8-1.5-1.2-2.5-1.2-1.5 0-2.6 0.7-3.2 2.2-0.3 0.8-0.5 1.8-0.5 3 0 1.5 0.3 2.6 0.9 3.4s1.4 1.2 2.4 1.2c1.6 0 2.7-0.7 3.3-2.1 0.4-0.8 0.5-1.8 0.5-2.8 0.1-1.7-0.2-2.9-0.9-3.7z"/>
<path class="st1" d="m365.4 36.1h2.1v2.3c0.2-0.4 0.6-1 1.3-1.6s1.4-0.9 2.3-0.9h0.2 0.5v2.3h-0.4-0.4c-1.1 0-2 0.4-2.6 1.1s-0.9 1.5-0.9 2.5v7.5h-2.2v-13.2z"/>
<path class="st1" d="m380.7 41.3c0.5-0.1 0.8-0.3 1-0.6 0.1-0.2 0.1-0.5 0.1-0.8 0-0.8-0.3-1.3-0.8-1.6s-1.3-0.5-2.3-0.5c-1.1 0-2 0.3-2.4 0.9-0.3 0.3-0.4 0.9-0.5 1.5h-2.1c0-1.6 0.6-2.7 1.6-3.4 1-0.6 2.2-1 3.5-1 1.5 0 2.8 0.3 3.8 0.9s1.4 1.5 1.4 2.7v7.6c0 0.2 0 0.4 0.1 0.6 0.1 0.1 0.3 0.2 0.6 0.2h0.3c0.1 0 0.3 0 0.4-0.1v1.6c-0.3 0.1-0.6 0.2-0.8 0.2h-0.7c-0.8 0-1.3-0.3-1.7-0.8-0.2-0.3-0.3-0.7-0.4-1.2-0.4 0.6-1.1 1.1-1.9 1.5s-1.8 0.6-2.8 0.6c-1.2 0-2.2-0.4-3-1.1s-1.2-1.7-1.2-2.8c0-1.2 0.4-2.2 1.1-2.8 0.8-0.7 1.8-1.1 3-1.2l3.7-0.4zm-4.7 5.9c0.5 0.4 1 0.5 1.7 0.5 0.8 0 1.5-0.2 2.3-0.5 1.2-0.6 1.8-1.6 1.8-2.9v-1.8c-0.3 0.2-0.6 0.3-1 0.4s-0.8 0.2-1.2 0.2l-1.3 0.2c-0.8 0.1-1.4 0.3-1.8 0.5-0.7 0.4-1 1-1 1.8-0.2 0.8 0.1 1.3 0.5 1.6z"/>
<path class="st1" d="m387.6 36.1h2.2v1.9c0.5-0.6 1-1.1 1.4-1.4 0.7-0.5 1.5-0.7 2.5-0.7s1.9 0.3 2.5 0.8c0.4 0.3 0.7 0.7 1 1.3 0.5-0.7 1.1-1.2 1.7-1.6 0.7-0.3 1.4-0.5 2.2-0.5 1.8 0 3 0.6 3.6 1.9 0.3 0.7 0.5 1.6 0.5 2.8v8.7h-2.3v-9.1c0-0.9-0.2-1.5-0.7-1.8-0.4-0.3-1-0.5-1.6-0.5-0.9 0-1.6 0.3-2.2 0.9s-0.9 1.5-0.9 2.9v7.6h-2.2v-8.6c0-0.9-0.1-1.5-0.3-1.9-0.3-0.6-1-0.9-1.9-0.9-0.8 0-1.6 0.3-2.3 1-0.7 0.6-1 1.8-1 3.5v7h-2.2v-13.3z"/>
<path class="st1" d="m408.5 36.1h2.2v1.9c0.5-0.6 1-1.1 1.4-1.4 0.7-0.5 1.5-0.7 2.5-0.7s1.9 0.3 2.5 0.8c0.4 0.3 0.7 0.7 1 1.3 0.5-0.7 1.1-1.2 1.7-1.6 0.7-0.3 1.4-0.5 2.2-0.5 1.8 0 3 0.6 3.6 1.9 0.3 0.7 0.5 1.6 0.5 2.8v8.7h-2.3v-9.1c0-0.9-0.2-1.5-0.7-1.8-0.4-0.3-1-0.5-1.6-0.5-0.9 0-1.6 0.3-2.2 0.9s-0.9 1.5-0.9 2.9v7.6h-2.2v-8.6c0-0.9-0.1-1.5-0.3-1.9-0.3-0.6-1-0.9-1.9-0.9-0.8 0-1.6 0.3-2.3 1-0.7 0.6-1 1.8-1 3.5v7h-2.2v-13.3z"/>
<path class="st1" d="m437.4 36.5c0.9 0.4 1.5 1 2 1.7 0.4 0.7 0.7 1.4 0.9 2.3 0.1 0.6 0.2 1.6 0.2 2.9h-9.5c0 1.3 0.4 2.4 0.9 3.2s1.5 1.2 2.7 1.2c1.1 0 2.1-0.4 2.7-1.1 0.4-0.4 0.7-1 0.8-1.5h2.2c-0.1 0.5-0.2 1-0.6 1.6-0.3 0.6-0.7 1.1-1.1 1.5-0.7 0.7-1.5 1.1-2.5 1.3-0.5 0.1-1.1 0.2-1.8 0.2-1.6 0-3-0.6-4.1-1.8s-1.7-2.8-1.7-5c0-2.1 0.6-3.8 1.7-5.1s2.6-2 4.5-2c1-0.1 1.9 0.1 2.7 0.6zm0.8 5.1c-0.1-1-0.3-1.7-0.6-2.3-0.6-1.1-1.6-1.6-3-1.6-1 0-1.8 0.4-2.5 1.1s-1 1.7-1.1 2.8h7.2z"/>
<path class="st1" d="m133.8 65.5c1.2 1.1 1.7 2.8 1.7 5 0 2.1-0.5 3.9-1.5 5.2-1 1.4-2.6 2.1-4.8 2.1-1.8 0-3.2-0.6-4.3-1.8s-1.6-2.9-1.6-4.9c0-2.2 0.6-4 1.7-5.3s2.6-2 4.5-2c1.7 0 3.1 0.6 4.3 1.7zm-1.4 8.7c0.5-1.1 0.8-2.3 0.8-3.7 0-1.2-0.2-2.2-0.6-3-0.6-1.2-1.7-1.8-3.2-1.8-1.3 0-2.3 0.5-2.9 1.5s-0.9 2.3-0.9 3.7 0.3 2.6 0.9 3.5 1.6 1.4 2.9 1.4c1.5 0.1 2.5-0.5 3-1.6z"/>
<path class="st1" d="m139.2 60.2c0.5-0.8 1.5-1.1 3-1.1h0.4 0.5v2h-0.5-0.3c-0.7 0-1.1 0.2-1.2 0.5s-0.2 1.2-0.2 2.6h2.2v1.8h-2.1v11.3h-2.2v-11.3h-1.8v-1.7h1.8v-2.1c0-0.9 0.2-1.6 0.4-2z"/>
<path class="st1" d="m152.6 60.5h2.2v3.7h2.1v1.8h-2.1v8.6c0 0.5 0.2 0.8 0.5 0.9 0.2 0.1 0.5 0.1 0.9 0.1h0.3 0.4v1.8c-0.3 0.1-0.5 0.1-0.8 0.2h-0.9c-1 0-1.7-0.3-2.1-0.8s-0.6-1.2-0.6-2v-8.8h-1.8v-1.8h1.8v-3.7z"/>
<path class="st1" d="m159.1 59.3h2.2v6.7c0.5-0.7 1-1.1 1.4-1.4 0.7-0.5 1.6-0.7 2.7-0.7 1.9 0 3.2 0.7 3.9 2 0.4 0.7 0.6 1.7 0.6 3v8.4h-2.3v-8.3c0-1-0.1-1.7-0.4-2.1-0.4-0.7-1.2-1.1-2.3-1.1-0.9 0-1.7 0.3-2.5 0.9-0.7 0.6-1.1 1.8-1.1 3.6v7h-2.2v-18z"/>
<path class="st1" d="m181.1 64.6c0.9 0.4 1.5 1 2 1.7 0.4 0.7 0.7 1.4 0.9 2.3 0.1 0.6 0.2 1.6 0.2 2.9h-9.5c0 1.3 0.4 2.4 0.9 3.2s1.5 1.2 2.7 1.2c1.1 0 2.1-0.4 2.7-1.1 0.4-0.4 0.7-1 0.8-1.5h2.2c-0.1 0.5-0.2 1-0.6 1.6-0.3 0.6-0.7 1.1-1.1 1.5-0.7 0.7-1.5 1.1-2.5 1.3-0.5 0.1-1.1 0.2-1.8 0.2-1.6 0-3-0.6-4.1-1.8s-1.7-2.8-1.7-5c0-2.1 0.6-3.8 1.7-5.1s2.6-2 4.5-2c1-0.1 1.9 0.1 2.7 0.6zm0.8 5.1c-0.1-1-0.3-1.7-0.6-2.3-0.6-1.1-1.6-1.6-3-1.6-1 0-1.8 0.4-2.5 1.1s-1 1.7-1.1 2.8h7.2z"/>
<path class="st1" d="m194.5 59.3h13v2.2h-10.7v5.5h9.9v2.1h-9.9v6.1h10.9v2.1h-13.2v-18z"/>
<path class="st1" d="m212.9 64.2v8.7c0 0.7 0.1 1.2 0.3 1.6 0.4 0.8 1.1 1.2 2.1 1.2 1.5 0 2.5-0.7 3.1-2.1 0.3-0.7 0.4-1.7 0.4-3v-6.4h2.2v13.1h-2.1v-1.9c-0.3 0.5-0.6 0.9-1 1.3-0.8 0.7-1.8 1-3 1-1.8 0-3.1-0.6-3.7-1.9-0.4-0.7-0.5-1.6-0.5-2.7v-8.9h2.2z"/>
<path class="st1" d="m224.7 64.2h2.1v2.3c0.2-0.4 0.6-1 1.3-1.6s1.4-0.9 2.3-0.9h0.2 0.5v2.3h-0.4-0.4c-1.1 0-2 0.4-2.6 1.1s-0.9 1.5-0.9 2.5v7.5h-2.2v-13.2z"/>
<path class="st1" d="m242.5 65.5c1.2 1.1 1.7 2.8 1.7 5 0 2.1-0.5 3.9-1.5 5.2-1 1.4-2.6 2.1-4.8 2.1-1.8 0-3.2-0.6-4.3-1.8s-1.6-2.9-1.6-4.9c0-2.2 0.6-4 1.7-5.3s2.6-2 4.5-2c1.7 0 3.1 0.6 4.3 1.7zm-1.4 8.7c0.5-1.1 0.8-2.3 0.8-3.7 0-1.2-0.2-2.2-0.6-3-0.6-1.2-1.7-1.8-3.2-1.8-1.3 0-2.3 0.5-2.9 1.5s-0.9 2.3-0.9 3.7 0.3 2.6 0.9 3.5 1.6 1.4 2.9 1.4c1.5 0.1 2.4-0.5 3-1.6z"/>
<path class="st1" d="m246.7 64.3h2.2v1.7c0.4-0.6 0.9-1.1 1.4-1.4 0.7-0.5 1.6-0.7 2.6-0.7 1.5 0 2.8 0.6 3.8 1.7s1.6 2.8 1.6 4.9c0 2.9-0.7 4.9-2.2 6.1-1 0.8-2.1 1.2-3.3 1.2-1 0-1.8-0.2-2.5-0.6-0.4-0.2-0.8-0.7-1.3-1.3v6.7h-2.2v-18.3zm8.3 10.2c0.7-0.9 1-2.1 1-3.9 0-1-0.2-1.9-0.5-2.7-0.6-1.4-1.6-2.2-3.1-2.2s-2.6 0.8-3.1 2.3c-0.3 0.8-0.5 1.9-0.5 3.1 0 1 0.2 1.9 0.5 2.6 0.6 1.4 1.6 2 3.1 2 1.1 0.1 1.9-0.3 2.6-1.2z"/>
<path class="st1" d="m268.9 64.6c0.9 0.4 1.5 1 2 1.7 0.4 0.7 0.7 1.4 0.9 2.3 0.1 0.6 0.2 1.6 0.2 2.9h-9.5c0 1.3 0.4 2.4 0.9 3.2s1.5 1.2 2.7 1.2c1.1 0 2.1-0.4 2.7-1.1 0.4-0.4 0.7-1 0.8-1.5h2.2c-0.1 0.5-0.2 1-0.6 1.6-0.3 0.6-0.7 1.1-1.1 1.5-0.7 0.7-1.5 1.1-2.5 1.3-0.5 0.1-1.1 0.2-1.8 0.2-1.6 0-3-0.6-4.1-1.8s-1.7-2.8-1.7-5c0-2.1 0.6-3.8 1.7-5.1s2.6-2 4.5-2c1-0.1 1.9 0.1 2.7 0.6zm0.8 5.1c-0.1-1-0.3-1.7-0.6-2.3-0.6-1.1-1.6-1.6-3-1.6-1 0-1.8 0.4-2.5 1.1s-1 1.7-1.1 2.8h7.2z"/>
<path class="st1" d="m281.8 69.4c0.5-0.1 0.8-0.3 1-0.6 0.1-0.2 0.1-0.5 0.1-0.8 0-0.8-0.3-1.3-0.8-1.6s-1.3-0.5-2.3-0.5c-1.1 0-2 0.3-2.4 0.9-0.3 0.3-0.4 0.9-0.5 1.5h-2.1c0-1.6 0.6-2.7 1.6-3.4 1-0.6 2.2-1 3.5-1 1.5 0 2.8 0.3 3.8 0.9s1.4 1.5 1.4 2.7v7.6c0 0.2 0 0.4 0.1 0.6 0.1 0.1 0.3 0.2 0.6 0.2h0.3c0.1 0 0.3 0 0.4-0.1v1.6c-0.3 0.1-0.6 0.2-0.8 0.2h-0.7c-0.8 0-1.3-0.3-1.7-0.8-0.2-0.3-0.3-0.7-0.4-1.2-0.4 0.6-1.1 1.1-1.9 1.5s-1.8 0.6-2.8 0.6c-1.2 0-2.2-0.4-3-1.1s-1.2-1.7-1.2-2.8c0-1.2 0.4-2.2 1.1-2.8 0.8-0.7 1.8-1.1 3-1.2l3.7-0.4zm-4.6 5.9c0.5 0.4 1 0.5 1.7 0.5 0.8 0 1.5-0.2 2.3-0.5 1.2-0.6 1.8-1.6 1.8-2.9v-1.8c-0.3 0.2-0.6 0.3-1 0.4s-0.8 0.2-1.2 0.2l-1.3 0.2c-0.8 0.1-1.4 0.3-1.8 0.5-0.7 0.4-1 1-1 1.8-0.2 0.8 0 1.3 0.5 1.6z"/>
<path class="st1" d="m288.7 64.2h2.1v1.9c0.6-0.8 1.3-1.3 2-1.7s1.5-0.5 2.3-0.5c1.9 0 3.1 0.6 3.8 1.9 0.4 0.7 0.5 1.7 0.5 3v8.4h-2.2v-8.2c0-0.8-0.1-1.4-0.4-1.9-0.4-0.8-1.1-1.2-2.1-1.2-0.5 0-1 0.1-1.3 0.2-0.6 0.2-1.1 0.5-1.6 1.1-0.4 0.4-0.6 0.9-0.7 1.3-0.1 0.5-0.2 1.1-0.2 2v6.9h-2.2v-13.2z"/>
<path class="st1" d="m312.5 59.3v11.1c0 1.3 0.2 2.4 0.7 3.3 0.7 1.3 2 2 3.7 2 2.1 0 3.5-0.7 4.2-2.1 0.4-0.8 0.6-1.8 0.6-3.1v-11.2h2.5v10.1c0 2.2-0.3 3.9-0.9 5.1-1.1 2.2-3.2 3.3-6.2 3.3s-5.1-1.1-6.2-3.3c-0.6-1.2-0.9-2.9-0.9-5.1v-10.1h2.5z"/>
<path class="st1" d="m327.7 64.2h2.1v1.9c0.6-0.8 1.3-1.3 2-1.7s1.5-0.5 2.3-0.5c1.9 0 3.1 0.6 3.8 1.9 0.4 0.7 0.5 1.7 0.5 3v8.4h-2.2v-8.2c0-0.8-0.1-1.4-0.4-1.9-0.4-0.8-1.1-1.2-2.1-1.2-0.5 0-1 0.1-1.3 0.2-0.6 0.2-1.1 0.5-1.6 1.1-0.4 0.4-0.6 0.9-0.7 1.3-0.1 0.5-0.2 1.1-0.2 2v6.9h-2.2v-13.2z"/>
<path class="st1" d="m341.7 59.3h2.2v2.5h-2.2v-2.5zm0 5h2.2v13h-2.2v-13z"/>
<path class="st1" d="m356.7 65.5c1.2 1.1 1.7 2.8 1.7 5 0 2.1-0.5 3.9-1.5 5.2-1 1.4-2.6 2.1-4.8 2.1-1.8 0-3.2-0.6-4.3-1.8s-1.6-2.9-1.6-4.9c0-2.2 0.6-4 1.7-5.3s2.6-2 4.5-2c1.7 0 3.2 0.6 4.3 1.7zm-1.3 8.7c0.5-1.1 0.8-2.3 0.8-3.7 0-1.2-0.2-2.2-0.6-3-0.6-1.2-1.7-1.8-3.2-1.8-1.3 0-2.3 0.5-2.9 1.5s-0.9 2.3-0.9 3.7 0.3 2.6 0.9 3.5 1.6 1.4 2.9 1.4c1.4 0.1 2.4-0.5 3-1.6z"/>
<path class="st1" d="m361.2 64.2h2.1v1.9c0.6-0.8 1.3-1.3 2-1.7s1.5-0.5 2.3-0.5c1.9 0 3.1 0.6 3.8 1.9 0.4 0.7 0.5 1.7 0.5 3v8.4h-2.2v-8.2c0-0.8-0.1-1.4-0.4-1.9-0.4-0.8-1.1-1.2-2.1-1.2-0.5 0-1 0.1-1.3 0.2-0.6 0.2-1.1 0.5-1.6 1.1-0.4 0.4-0.6 0.9-0.7 1.3-0.1 0.5-0.2 1.1-0.2 2v6.9h-2.2v-13.2z"/>
</svg>
