<?xml version="1.0" encoding="UTF-8"?>
<svg viewBox="0 0 711 737" xmlns="http://www.w3.org/2000/svg">
<defs>
<style>.cls-1,.cls-10,.cls-2,.cls-4,.cls-5,.cls-7,.cls-8{fill:none;}.cls-1,.cls-10,.cls-2,.cls-3,.cls-4,.cls-5,.cls-7,.cls-8,.cls-9{stroke:#fff;stroke-miterlimit:10;}.cls-2{stroke-width:0.75px;}.cls-3,.cls-6,.cls-9{fill:#fff;}.cls-4{stroke-dasharray:12.91 12.91;}.cls-5{stroke-dasharray:11.92 11.92;}.cls-7{stroke-dasharray:14 14;}.cls-8{stroke-dasharray:12;}.cls-10,.cls-9{stroke-width:0.5px;}</style>
</defs>
<title>nac</title>
<g data-name="Layer 1">
<path class="cls-1" d="M498.4,113.8a65.73,65.73,0,0,1-65.7,65"/>
<path class="cls-2" d="m18.5 100.5v36h1.8l31.5 0.2h2.7v-0.2a36.17 36.17 0 0 0 -36 -36z"/>
<path class="cls-2" d="m103.4 100.5v36h-1.8l-31.5 0.2h-2.7v-0.2a36.17 36.17 0 0 1 36 -36z"/>
<line class="cls-1" x1="121.5" x2="121.5" y1="73.5" y2="125.5"/>
<line class="cls-1" x1="109.5" x2="109.5" y1="73.5" y2="125.5"/>
<polygon class="cls-3" points="363.5 571.5 363.5 719.5 357.5 719.5 357.5 735.5 404.5 735.5 404.5 714.5 371.5 714.5 371.5 684.4 404.5 684.5 404.5 675.5 371.5 675.5 371.5 571.5"/>
<polygon class="cls-3" points="404.5 501.5 404.5 492.5 371.5 492.7 371.5 391.5 363.5 391.5 363.5 542.5 356.5 542.5 356.5 556.5 363.5 556.5 363.5 556.5 371.5 556.5 371.5 550.3 404.5 550.5 404.5 542.5 371.5 542.5 371.5 501.8"/>
<polygon class="cls-3" points="404.5 143.5 404.5 135.5 371.5 135.4 371.5 30.5 363.5 30.5 363.5 180.5 357.5 180.5 357.5 195.5 371.5 195.5 371.5 189.2 404.5 189.5 404.5 180.5 371.5 180.8 371.5 143.8"/>
<polygon class="cls-3" points="363.5 211.5 363.5 361.5 357.5 361.5 357.5 376.5 371.5 376.5 371.5 370.5 404.5 370.5 404.5 362.5 371.5 362.2 371.5 321.1 404.5 320.5 404.5 312.5 371.5 312.9 371.5 211.5"/>
<path class="cls-3" d="M504.5,108.5V.5h-85l-1,735,292,1v-628Zm198,618-22-1v-5h-14l-1,5h-232v-3h-3v-165h3v-14h-3v-167h4v-13h-4v-165h3v-17h-3V17.5h5v-5h61.8l.2,102,166,1,1,79h16v-13h-12l-.3-66.7,34.3-.3Z"/>
<rect class="cls-3" x="666.5" y="364.5" width="14" height="13"/>
<rect class="cls-3" x="666.5" y="542.5" width="14" height="15"/>
<line class="cls-1" x1="125.5" x2="280.5" y1="541.5" y2="542.5"/>
<line class="cls-1" x1="126.5" x2="280.5" y1="375.5" y2="375.5"/>
<line class="cls-1" x1="280.5" x2="280.5" y1="375.5" y2="542.5"/>
<line class="cls-1" x1="205.5" x2="205.5" y1="536.5" y2="376"/>
<line class="cls-1" x1="258.5" x2="258.5" y1="536.5" y2="375.5"/>
<line class="cls-1" x1="205" x2="259" y1="536.5" y2="536.5"/>
<line class="cls-1" x1="205" x2="259" y1="524.5" y2="524.5"/>
<line class="cls-1" x1="205" x2="259" y1="512.5" y2="512.5"/>
<line class="cls-1" x1="205" x2="259" y1="500.5" y2="500.5"/>
<line class="cls-1" x1="205" x2="259" y1="488.5" y2="488.5"/>
<line class="cls-1" x1="205" x2="259" y1="476.5" y2="476.5"/>
<line class="cls-1" x1="205" x2="259" y1="465.5" y2="465.5"/>
<line class="cls-1" x1="205" x2="259" y1="454.5" y2="454.5"/>
<line class="cls-1" x1="205" x2="259" y1="444.5" y2="444.5"/>
<line class="cls-1" x1="205" x2="259" y1="432.5" y2="432.5"/>
<line class="cls-1" x1="205" x2="259" y1="420.5" y2="420.5"/>
<line class="cls-1" x1="205" x2="259" y1="408.5" y2="408.5"/>
<line class="cls-1" x1="205" x2="259" y1="397.5" y2="397.5"/>
<line class="cls-1" x1="205" x2="259" y1="386.5" y2="386.5"/>
<line class="cls-1" x1="434.5" x2="440.5" y1="375.5" y2="375.5"/>
<line class="cls-4" x1="453.4" x2="576" y1="375.5" y2="375.5"/>
<line class="cls-1" x1="582.5" x2="588.5" y1="375.5" y2="375.5"/>
<line class="cls-1" x1="588.5" x2="588.5" y1="375.5" y2="381.5"/>
<line class="cls-5" x1="588.5" x2="588.5" y1="393.4" y2="530.5"/>
<line class="cls-1" x1="588.5" x2="588.5" y1="536.5" y2="542.5"/>
<line class="cls-1" x1="513.5" x2="513.5" y1="536.5" y2="465.5"/>
<line class="cls-1" x1="566.5" x2="566.5" y1="537" y2="438"/>
<polygon class="cls-6" points="539.5 376 557.4 386.4 557.4 390 541.1 380.6 541.1 395.7 541.1 537 537.9 537 537.9 395.7 537.9 380.6 521.6 390 521.6 386.4"/>
<line class="cls-1" x1="513" x2="567" y1="536.5" y2="536.5"/>
<line class="cls-1" x1="513" x2="567" y1="524.5" y2="524.5"/>
<line class="cls-1" x1="513" x2="567" y1="512.5" y2="512.5"/>
<line class="cls-1" x1="513" x2="567" y1="500.5" y2="500.5"/>
<line class="cls-1" x1="513" x2="567" y1="488.5" y2="488.5"/>
<line class="cls-1" x1="513" x2="567" y1="476.5" y2="476.5"/>
<line class="cls-1" x1="513" x2="567" y1="465.5" y2="465.5"/>
<line class="cls-1" x1="513" x2="519" y1="454.5" y2="454.5"/>
<line class="cls-1" x1="534" x2="540" y1="454.5" y2="454.5"/>
<line class="cls-1" x1="513" x2="519" y1="444.5" y2="444.5"/>
<line class="cls-7" x1="533" x2="554" y1="444.5" y2="444.5"/>
<line class="cls-1" x1="561" x2="567" y1="444.5" y2="444.5"/>
<line class="cls-1" x1="513" x2="519" y1="432.5" y2="432.5"/>
<line class="cls-7" x1="533" x2="554" y1="432.5" y2="432.5"/>
<line class="cls-1" x1="561" x2="567" y1="432.5" y2="432.5"/>
<line class="cls-1" x1="513" x2="519" y1="420.5" y2="420.5"/>
<line class="cls-7" x1="533" x2="554" y1="420.5" y2="420.5"/>
<line class="cls-1" x1="561" x2="567" y1="420.5" y2="420.5"/>
<line class="cls-1" x1="513" x2="519" y1="408.5" y2="408.5"/>
<line class="cls-7" x1="533" x2="554" y1="408.5" y2="408.5"/>
<line class="cls-1" x1="561" x2="567" y1="408.5" y2="408.5"/>
<line class="cls-1" x1="513" x2="519" y1="397.5" y2="397.5"/>
<line class="cls-7" x1="533" x2="554" y1="397.5" y2="397.5"/>
<line class="cls-1" x1="561" x2="567" y1="397.5" y2="397.5"/>
<line class="cls-1" x1="513" x2="519" y1="386.5" y2="386.5"/>
<line class="cls-7" x1="533" x2="554" y1="386.5" y2="386.5"/>
<line class="cls-1" x1="561" x2="567" y1="386.5" y2="386.5"/>
<line class="cls-1" x1="434.5" x2="440.5" y1="542.5" y2="542.5"/>
<line class="cls-4" x1="453.4" x2="576" y1="542.5" y2="542.5"/>
<line class="cls-1" x1="582.5" x2="588.5" y1="542.5" y2="542.5"/>
<polyline class="cls-1" points="513.5 465.5 535.5 452.5 539.5 440.5 542.5 458.5 545.9 448.2 566.5 437.5"/>
<line class="cls-8" x1="566.5" x2="566.5" y1="439" y2="376"/>
<line class="cls-8" x1="513.5" x2="513.5" y1="464" y2="376"/>
<polygon class="cls-6" points="231.5 376 249.4 386.4 249.4 390 233.1 380.6 233.1 395.7 233.1 537 229.9 537 229.9 395.7 229.9 380.6 213.6 390 213.6 386.4"/>
<line class="cls-1" x1="544" x2="566.5" y1="454.5" y2="454.5"/>
<line class="cls-1" x1="566.5" x2="552.5" y1="444.5" y2="444.5"/>
<line class="cls-1" x1="538.5" x2="532.5" y1="454.5" y2="454.5"/>
<circle class="cls-1" cx="148.5" cy="48.5" r="24"/>
<circle class="cls-1" cx="149" cy="48" r="13.5"/>
<circle class="cls-1" cx="149" cy="48" r="4.5"/>
<line class="cls-1" x1="153.5" x2="170.5" y1="47.5" y2="38.5"/>
<line class="cls-1" x1="172.5" x2="153.5" y1="46.5" y2="48.5"/>
<line class="cls-1" x1="171.5" x2="153.5" y1="54.5" y2="49.5"/>
<line class="cls-1" x1="152.5" x2="166.5" y1="44.5" y2="32.5"/>
<line class="cls-1" x1="151.5" x2="160.5" y1="44.5" y2="27.5"/>
<line class="cls-1" x1="150.5" x2="152.5" y1="43.5" y2="24.5"/>
<line class="cls-1" x1="148.5" x2="145.5" y1="43.5" y2="24.5"/>
<line class="cls-1" x1="136.5" x2="146.5" y1="27.5" y2="44.5"/>
<line class="cls-1" x1="131.5" x2="145.5" y1="32.5" y2="45.5"/>
<line class="cls-1" x1="126.5" x2="144.5" y1="38.5" y2="46.5"/>
<line class="cls-1" x1="124.5" x2="144.5" y1="46.5" y2="47.5"/>
<line class="cls-1" x1="125.5" x2="144.5" y1="54.5" y2="49.5"/>
<line class="cls-1" x1="128.5" x2="145.5" y1="62.5" y2="50.5"/>
<line class="cls-1" x1="133.5" x2="146.5" y1="67.5" y2="51.5"/>
<line class="cls-1" x1="140.5" x2="147.5" y1="71.5" y2="52.5"/>
<line class="cls-1" x1="148.5" x2="148.5" y1="73" y2="52.5"/>
<line class="cls-1" x1="156.5" x2="149.5" y1="71.5" y2="51.5"/>
<line class="cls-1" x1="163.5" x2="151.5" y1="67.5" y2="51.5"/>
<line class="cls-1" x1="168.5" x2="152.5" y1="61.5" y2="50.5"/>
<circle class="cls-1" cx="456.5" cy="48.5" r="24"/>
<circle class="cls-1" cx="457" cy="48" r="13.5"/>
<circle class="cls-1" cx="457" cy="48" r="4.5"/>
<line class="cls-1" x1="461.5" x2="478.5" y1="47.5" y2="38.5"/>
<line class="cls-1" x1="480.5" x2="461.5" y1="46.5" y2="48.5"/>
<line class="cls-1" x1="479.5" x2="461.5" y1="54.5" y2="49.5"/>
<line class="cls-1" x1="460.5" x2="474.5" y1="44.5" y2="32.5"/>
<line class="cls-1" x1="459.5" x2="468.5" y1="44.5" y2="27.5"/>
<line class="cls-1" x1="458.5" x2="460.5" y1="43.5" y2="24.5"/>
<line class="cls-1" x1="456.5" x2="453.5" y1="43.5" y2="24.5"/>
<line class="cls-1" x1="444.5" x2="454.5" y1="27.5" y2="44.5"/>
<line class="cls-1" x1="439.5" x2="453.5" y1="32.5" y2="45.5"/>
<line class="cls-1" x1="434.5" x2="452.5" y1="38.5" y2="46.5"/>
<line class="cls-1" x1="432.5" x2="452.5" y1="46.5" y2="47.5"/>
<line class="cls-1" x1="433.5" x2="452.5" y1="54.5" y2="49.5"/>
<line class="cls-1" x1="436.5" x2="453.5" y1="62.5" y2="50.5"/>
<line class="cls-1" x1="441.5" x2="454.5" y1="67.5" y2="51.5"/>
<line class="cls-1" x1="448.5" x2="455.5" y1="71.5" y2="52.5"/>
<line class="cls-1" x1="456.5" x2="456.5" y1="73" y2="52.5"/>
<line class="cls-1" x1="464.5" x2="457.5" y1="71.5" y2="51.5"/>
<line class="cls-1" x1="471.5" x2="459.5" y1="67.5" y2="51.5"/>
<line class="cls-1" x1="476.5" x2="460.5" y1="61.5" y2="50.5"/>
<rect class="cls-9" x="392.5" y="11.5" width="2" height="124"/>
<rect class="cls-9" x="392.5" y="189.5" width="2" height="123"/>
<rect class="cls-9" x="392.5" y="370.5" width="2" height="122"/>
<rect class="cls-9" x="392.5" y="550.5" width="2" height="125"/>
<rect class="cls-9" x="188.5" y="732.5" width="105" height="2"/>
<path class="cls-10" d="M357.5,733.5l-32,.1v-.1a32.14,32.14,0,0,1,31.9-32Z"/>
<path class="cls-10" d="M293.5,733.6l-.1-32h.1a32.12,32.12,0,0,1,32,31.8Z"/>
<path class="cls-10" d="M363,17V30.5a13.47,13.47,0,0,1-13.1-10.4Z"/>
<path class="cls-10" d="M363,196v15.5a15.51,15.51,0,0,1-15.1-11.9Z"/>
<path class="cls-10" d="M363.5,376.5v15A15.08,15.08,0,0,1,348.9,380Z"/>
<path class="cls-10" d="M363.5,556.5v15A15.08,15.08,0,0,1,348.9,560Z"/>
<polygon class="cls-3" points="0.5 0.5 0.5 373.5 110.5 373.5 110.5 735.5 188.5 735.5 188.5 725.5 125.5 725.5 125.5 721.5 122.5 721.5 121.5 556.5 125.5 556.5 125.5 541.5 121.5 541.5 121.5 376.5 126.5 376.5 126.5 361.5 121.5 361.5 121.5 196.5 124.5 196.5 124.5 182.5 110.5 182.5 110.5 362.5 11.5 362.5 11.5 136.5 17.5 136.5 17.5 124.5 11.5 124.5 11.5 11.5 59.2 11.5 59.5 125.5 54.5 125.5 54.5 136.5 66.5 136.5 66.8 11.5 109.7 11.5 109.5 73.5 121.5 73.5 121.5 16.5 126.5 16.5 126.7 11.5 355.5 11.5 355.5 16.5 373.5 16.5 373.5 11.5 403.5 11.5 403.5 0.5"/>
<rect class="cls-3" x="103.5" y="125.5" width="19" height="11"/>
<rect class="cls-6" x="431.8" y="113.2" width="1.9" height="65.8"/>
<line class="cls-2" x1="124" x2="146" y1="137.46" y2="108.26"/>
<path class="cls-2" d="m124.5 182.5c3.13-1.11 25.08-7 33-25 6.91-15.74 4.5-43.7-11.5-49.24"/>
</g>
</svg>
