<svg xmlns="http://www.w3.org/2000/svg" viewBox="0 0 439.55 434.18">
<defs>
<style>.cls-1{fill:#fff;stroke:#fff;stroke-miterlimit:10;}</style>
</defs>
<title>github-logo</title><g id="Layer_2" data-name="Layer 2"><ellipse class="cls-1" cx="219.77" cy="217.09" rx="219.27" ry="216.59"/></g><g id="Layer_1" data-name="Layer 1"><path d="M409.13,114.57a218.36,218.36,0,0,0-79.8-79.8Q278.93,5.35,219.27,5.36T109.21,34.77a218.29,218.29,0,0,0-79.8,79.8Q0,165,0,224.63,0,296.3,41.83,353.54t108.06,79.23q7.71,1.43,11.42-2a11.18,11.18,0,0,0,3.71-8.56q0-.85-.14-15.42t-.15-25.4l-6.56,1.13a83.73,83.73,0,0,1-15.85,1,121.07,121.07,0,0,1-19.84-2A44.21,44.21,0,0,1,103.35,373a36.14,36.14,0,0,1-12.56-17.55l-2.86-6.57a71,71,0,0,0-9-14.56q-6.14-8-12.42-10.85l-2-1.43a21.28,21.28,0,0,1-3.71-3.43,15.87,15.87,0,0,1-2.57-4q-.85-2,1.43-3.29C61.2,310.43,64,310,68,310l5.71.85q5.72,1.14,14.13,6.85a46.11,46.11,0,0,1,13.85,14.85q6.57,11.7,15.84,17.84t18.7,6.14a81.79,81.79,0,0,0,16.28-1.42,57.17,57.17,0,0,0,12.84-4.29q2.58-19.14,14-29.41A195.71,195.71,0,0,1,150,316.28a116.87,116.87,0,0,1-26.84-11.14,77,77,0,0,1-23-19.13q-9.13-11.42-15-30t-5.85-42.82q0-34.56,22.56-58.82-10.58-26,2-58.24,8.28-2.57,24.56,3.85t23.84,11q7.56,4.56,12.13,7.71a206.22,206.22,0,0,1,109.64,0l10.85-6.85A154,154,0,0,1,311.2,99.29q15.14-5.7,23.14-3.14,12.84,32.26,2.28,58.24,22.54,24.27,22.56,58.82,0,24.27-5.86,43t-15.12,30a79.7,79.7,0,0,1-23.13,19,117.05,117.05,0,0,1-26.84,11.14A195.85,195.85,0,0,1,259,321.42q14.85,12.85,14.85,40.54V422.2a11.37,11.37,0,0,0,3.57,8.56q3.57,3.42,11.27,2,66.26-22,108.07-79.23t41.83-128.91q0-59.66-29.41-110Z" transform="translate(0.5 -4.86)"/></g></svg>
