<?xml version="1.0" encoding="UTF-8"?>
<svg enable-background="new 0 0 473.932 473.932" viewBox="0 0 473.932 473.932" xmlns="http://www.w3.org/2000/svg">
<circle class="circle" cx="236.97" cy="236.97" r="236.97" fill="#000" />
<path d="m309.75 302.88h-67.587c-9.399 0-17.384-3.289-23.947-9.893-6.585-6.612-9.852-14.597-9.852-24.041v-24.052h96.298c8.681 0 16.164-3.121 22.376-9.321 6.211-6.249 9.332-13.721 9.332-22.421 0-8.718-3.121-16.183-9.347-22.413-6.234-6.211-13.74-9.328-22.458-9.328h-96.202v-49.687c0-9.407-3.349-17.459-10.02-24.164-6.627-6.716-14.638-10.088-23.955-10.088-9.583 0-17.721 3.323-24.366 9.893-6.649 6.593-9.968 14.713-9.968 24.393v137.21c0 28.224 9.968 52.332 29.942 72.351 19.974 20.041 44.052 30.043 72.205 30.043h67.572c9.377 0 17.429-3.368 24.131-10.092 6.702-6.687 10.043-14.75 10.043-24.146 0-9.399-3.341-17.448-10.043-24.168-6.703-6.698-14.766-10.08-24.154-10.08z" fill="#fff"/>
</svg>
