<?xml version="1.0" encoding="UTF-8"?>
<svg enable-background="new 0 0 473.932 473.931" version="1.1" viewBox="0 0 473.932 473.932" xmlns="http://www.w3.org/2000/svg">
<circle class="circle" cx="236.97" cy="236.97" r="236.97" fill="#000" />
<path d="m335.49 124.47c-40.572-1.325-68.029 21.437-82.405 68.306 7.405-3.05 14.597-4.591 21.616-4.591 14.795 0 21.343 8.303 19.596 24.958-0.868 10.084-7.405 24.752-19.596 44.011-12.243 19.285-21.384 28.916-27.457 28.916-7.884 0-15.061-14.9-21.616-44.669-2.2-8.763-6.125-31.087-11.757-67.015-5.276-33.279-19.218-48.826-41.885-46.641-9.59 0.879-23.951 9.657-43.124 26.278-13.983 12.707-28.153 25.414-42.563 38.114l13.725 17.717c13.1-9.205 20.763-13.785 22.888-13.785 10.043 0 19.427 15.757 28.146 47.262 7.831 28.935 15.715 57.833 23.577 86.73 11.712 31.528 26.144 47.3 43.124 47.3 27.465 0 61.088-25.826 100.74-77.507 38.364-49.474 58.169-88.455 59.505-116.94 1.763-38.076-12.403-57.575-42.517-58.443z" fill="#fff"/>
</svg>
