<svg id="Layer_1" data-name="Layer 1" xmlns="http://www.w3.org/2000/svg" viewBox="0 0 473.94 473.94"><defs><style>.cls-1{fill:#fff;}</style></defs><title>sm_youtube</title><circle cx="236.97" cy="236.97" r="236.97"/><path class="cls-1" d="M358.6,180.31a32,32,0,0,0-22.52-22.52c-19.75-5.39-99.24-5.39-99.24-5.39s-79.49.16-99.23,5.55a32,32,0,0,0-22.53,22.52c-6,35.1-8.29,88.57.16,122.25a32,32,0,0,0,22.53,22.53c19.75,5.38,99.23,5.38,99.23,5.38s79.49,0,99.24-5.38a32,32,0,0,0,22.52-22.53C365.06,267.58,367,214.15,358.6,180.31Z"/><path d="M211.54,279.71l65.94-38.19-65.94-38.2Z"/></svg>
