<svg id="Layer_1" data-name="Layer 1" xmlns="http://www.w3.org/2000/svg" viewBox="0 0 197.77 180.27"><defs><style>.cls-1{fill:#fff}</style></defs><path class="cls-1" d="M21.56 21.93v117.4h176.11V21.93zm119.9 37.7 1.43-4.45 1.42 4.44H149l-3.77 2.71 1.41 4.39-3.75-2.72-3.72 2.72 1.42-4.39-3.78-2.71zM65 78.88h4.65l1.43-4.45 1.42 4.44h4.65l-3.73 2.73 1.41 4.4-3.71-2.71L67.4 86l1.41-4.38zm15 26.37-3.71-2.72-3.72 2.72 1.43-4.39-3.8-2.71h4.65l1.43-4.45 1.42 4.45h4.65l-3.77 2.71zm-1.42-42.86L80 66.78l-3.71-2.72-3.72 2.72L74 62.39l-3.8-2.71h4.65l1.43-4.45 1.42 4.45h4.65zm10.34-16.81 1.43-4.45 1.42 4.44h4.65l-3.77 2.72 1.41 4.38L90.35 50l-3.72 2.71L88 48.29l-3.77-2.72zm5.17 73.76-3.71-2.71-3.72 2.71 1.41-4.34-3.77-2.71H89l1.43-4.44 1.42 4.44h4.65L92.68 115zm14.07-78.93 1.42-4.41 1.42 4.41h4.66l-3.78 2.71 1.42 4.39-3.72-2.72-3.72 2.72 1.42-4.39-3.77-2.71zm5.14 84-3.72-2.71-3.71 2.71 1.41-4.38-3.77-2.72h4.65l1.42-4.45 1.43 4.44h4.65l-3.78 2.72zm19.21-5.11-3.72-2.71-3.72 2.71 1.42-4.38-3.77-2.71h4.64l1.43-4.44 1.42 4.44h4.65l-3.77 2.79zm-1.36-71.05 1.41 4.39-3.71-2.64-3.72 2.72 1.41-4.39-3.77-2.72h4.65l1.42-4.44 1.43 4.43h4.65zm15.45 57-3.71-2.72-3.72 2.72 1.42-4.39-3.78-2.71h4.65l1.43-4.45 1.42 4.45H149l-3.77 2.71zm5.11-19.32L148 83.21l-3.71 2.72 1.41-4.39-3.77-2.71h4.65l1.42-4.44 1.43 4.44h4.65l-3.77 2.71zM50.9 167.33l3 .93a6.62 6.62 0 0 1-2.25 3.66 7.11 7.11 0 0 1-8.92-.85 7.87 7.87 0 0 1-1.93-5.6 8.24 8.24 0 0 1 1.94-5.83 6.65 6.65 0 0 1 5.1-2.07 6.24 6.24 0 0 1 4.48 1.63 5.9 5.9 0 0 1 1.49 2.8l-3 .71a3.11 3.11 0 0 0-3.17-2.52 3.43 3.43 0 0 0-2.71 1.2 5.92 5.92 0 0 0-1 3.89 6.27 6.27 0 0 0 1 4.06 3.34 3.34 0 0 0 2.66 1.21 3 3 0 0 0 2.08-.77 4.45 4.45 0 0 0 1.23-2.45zM55.77 167.26a5.88 5.88 0 0 1 .7-2.78 4.79 4.79 0 0 1 2-2 5.84 5.84 0 0 1 2.89-.71 5.42 5.42 0 0 1 4.05 1.6 5.53 5.53 0 0 1 1.59 4.01 5.63 5.63 0 0 1-1.59 4.1 5.39 5.39 0 0 1-4 1.62 6.21 6.21 0 0 1-2.86-.68 4.61 4.61 0 0 1-2.07-2 6.61 6.61 0 0 1-.71-3.16zm2.95.15a3.61 3.61 0 0 0 .77 2.48 2.52 2.52 0 0 0 3.79 0 3.65 3.65 0 0 0 .76-2.5 3.57 3.57 0 0 0-.76-2.46 2.52 2.52 0 0 0-3.79 0 3.61 3.61 0 0 0-.77 2.48zM68.93 168.84V166h5.66v2.88zM75 162h1.6v-.83a5.61 5.61 0 0 1 .29-2A2.38 2.38 0 0 1 78 158a4.15 4.15 0 0 1 2-.42 8.13 8.13 0 0 1 2.41.36l-.39 2a6.18 6.18 0 0 0-1.32-.16 1.21 1.21 0 0 0-.9.29 1.72 1.72 0 0 0-.27 1.13v.8h2.16v2.26h-2.22v8.62h-2.88v-8.62H75zM90.41 172.85v-1.63a4.09 4.09 0 0 1-1.56 1.38 4.46 4.46 0 0 1-2 .5 4 4 0 0 1-2-.48 2.79 2.79 0 0 1-1.27-1.36 6 6 0 0 1-.39-2.4V162h2.89v5a13.44 13.44 0 0 0 .16 2.81 1.47 1.47 0 0 0 .57.82 1.74 1.74 0 0 0 1.07.31 2.27 2.27 0 0 0 1.32-.41 2 2 0 0 0 .8-1 11.28 11.28 0 0 0 .22-2.94V162h2.88v10.88zM106 172.85h-2.9v-5.55a8.16 8.16 0 0 0-.19-2.28 1.55 1.55 0 0 0-.6-.81 1.71 1.71 0 0 0-1-.29 2.33 2.33 0 0 0-1.34.41 2.11 2.11 0 0 0-.82 1.09 9.73 9.73 0 0 0-.22 2.5v4.93h-2.88V162h2.68v1.59a4.48 4.48 0 0 1 5.33-1.5 2.89 2.89 0 0 1 1.2.88 3.27 3.27 0 0 1 .56 1.21 8.75 8.75 0 0 1 .16 1.94zM118.89 172.85h-2.68v-1.59a4.27 4.27 0 0 1-1.57 1.38 4 4 0 0 1-1.83.46 4.16 4.16 0 0 1-3.22-1.51 6.17 6.17 0 0 1-1.33-4.22 6.06 6.06 0 0 1 1.3-4.21 4.24 4.24 0 0 1 3.29-1.44 4.05 4.05 0 0 1 3.16 1.52v-5.42h2.88zm-7.69-5.68a5 5 0 0 0 .48 2.53 2.18 2.18 0 0 0 1.95 1.12 2.12 2.12 0 0 0 1.69-.84 4 4 0 0 0 .7-2.53 4.27 4.27 0 0 0-.68-2.7 2.15 2.15 0 0 0-1.73-.83 2.17 2.17 0 0 0-1.72.82 3.67 3.67 0 0 0-.69 2.43zM128 169.39l2.87.48a4.82 4.82 0 0 1-1.75 2.41 5.14 5.14 0 0 1-3 .82 4.87 4.87 0 0 1-4.2-1.85 6.26 6.26 0 0 1-1.08-3.76 6 6 0 0 1 1.41-4.24 4.68 4.68 0 0 1 3.58-1.53 4.85 4.85 0 0 1 3.84 1.6 7.15 7.15 0 0 1 1.34 4.92h-7.22a2.87 2.87 0 0 0 .7 2 2.17 2.17 0 0 0 1.66.72 1.81 1.81 0 0 0 1.14-.37 2.29 2.29 0 0 0 .71-1.2zm.16-2.91a2.8 2.8 0 0 0-.65-1.91 2.07 2.07 0 0 0-3 0 2.7 2.7 0 0 0-.61 1.87zM143.4 172.85h-2.68v-1.59a4.35 4.35 0 0 1-1.57 1.38 4 4 0 0 1-1.84.46 4.13 4.13 0 0 1-3.21-1.51 6.18 6.18 0 0 1-1.34-4.22 6.11 6.11 0 0 1 1.3-4.21 4.26 4.26 0 0 1 3.3-1.44 4 4 0 0 1 3.15 1.52v-5.42h2.89zm-7.69-5.68a5 5 0 0 0 .48 2.53 2.16 2.16 0 0 0 1.95 1.12 2.13 2.13 0 0 0 1.69-.84 4 4 0 0 0 .69-2.53 4.28 4.28 0 0 0-.67-2.7 2.22 2.22 0 0 0-3.45 0 3.67 3.67 0 0 0-.69 2.42zM152 172.85v-15h2.88v5.42a4.05 4.05 0 0 1 3.16-1.52 4.25 4.25 0 0 1 3.29 1.44 6 6 0 0 1 1.3 4.14 6.24 6.24 0 0 1-1.33 4.29 4.12 4.12 0 0 1-3.3 1.48 3.87 3.87 0 0 1-1.84-.47 4.44 4.44 0 0 1-1.57-1.37v1.59zm2.86-5.68a4.71 4.71 0 0 0 .53 2.51 2.28 2.28 0 0 0 2 1.14A2 2 0 0 0 159 170a4.06 4.06 0 0 0 .67-2.57 4.26 4.26 0 0 0-.68-2.69 2.15 2.15 0 0 0-1.73-.83 2.18 2.18 0 0 0-1.73.81 3.72 3.72 0 0 0-.72 2.45zM163.53 162h3.07l2.6 7.73 2.55-7.73h3l-3.84 10.47-.69 1.9a8.23 8.23 0 0 1-.72 1.46 3.39 3.39 0 0 1-.79.81 3.59 3.59 0 0 1-1.1.49 5.6 5.6 0 0 1-1.47.17 7.33 7.33 0 0 1-1.63-.17l-.26-2.26a6.34 6.34 0 0 0 1.22.14 1.82 1.82 0 0 0 1.49-.59 4.21 4.21 0 0 0 .74-1.5zM17.08 187.17v2.29h-2v4.39a10.12 10.12 0 0 0 .06 1.55.64.64 0 0 0 .26.37.83.83 0 0 0 .48.14 3.76 3.76 0 0 0 1.16-.27l.25 2.23a5.69 5.69 0 0 1-2.28.43 3.64 3.64 0 0 1-1.4-.26 2 2 0 0 1-.92-.68 2.63 2.63 0 0 1-.41-1.12 14.25 14.25 0 0 1-.09-2v-4.75H10.9v-2.29h1.32V185l2.89-1.68v3.85zM22 183v5.53a4.24 4.24 0 0 1 3.34-1.63 4.15 4.15 0 0 1 1.79.37 2.9 2.9 0 0 1 1.2.94 3.45 3.45 0 0 1 .56 1.27 11.37 11.37 0 0 1 .15 2.17v6.38h-2.93v-5.73a8.37 8.37 0 0 0-.17-2.17 1.39 1.39 0 0 0-.58-.73 1.77 1.77 0 0 0-1-.28 2.41 2.41 0 0 0-1.28.35 2 2 0 0 0-.83 1.05 6.42 6.42 0 0 0-.25 2.08v5.45h-2.93V183zM38.22 194.59l2.87.48a4.78 4.78 0 0 1-1.75 2.41 5.14 5.14 0 0 1-3 .82 4.87 4.87 0 0 1-4.2-1.85 6.26 6.26 0 0 1-1.08-3.76 6 6 0 0 1 1.41-4.24 4.68 4.68 0 0 1 3.58-1.53 4.85 4.85 0 0 1 3.84 1.6 7.15 7.15 0 0 1 1.34 4.92H34a2.86 2.86 0 0 0 .7 2 2.17 2.17 0 0 0 1.66.72 1.81 1.81 0 0 0 1.14-.37 2.29 2.29 0 0 0 .72-1.2zm.16-2.91a2.8 2.8 0 0 0-.65-1.91 2.07 2.07 0 0 0-3 0 2.7 2.7 0 0 0-.61 1.87zM49.44 198.05V183h11.15v2.55h-8.11v3.33H60v2.53h-7.52v4.09h8.4v2.53zM70.6 198.05v-1.63a4.19 4.19 0 0 1-1.6 1.38 4.39 4.39 0 0 1-2 .5 4 4 0 0 1-2-.48 2.84 2.84 0 0 1-1.26-1.35 6.05 6.05 0 0 1-.39-2.41v-6.89h2.88v5a13.44 13.44 0 0 0 .16 2.81 1.48 1.48 0 0 0 .58.82 1.71 1.71 0 0 0 1.06.31 2.28 2.28 0 0 0 1.33-.41 2.08 2.08 0 0 0 .8-1 12 12 0 0 0 .21-2.94v-4.59h2.88v10.88zM79 198.05h-2.87v-10.88h2.68v1.54a4.58 4.58 0 0 1 1.24-1.44 2.27 2.27 0 0 1 1.24-.35 3.68 3.68 0 0 1 1.9.54L82.3 190a2.59 2.59 0 0 0-1.36-.47 1.55 1.55 0 0 0-1 .34 2.25 2.25 0 0 0-.66 1.2 17.19 17.19 0 0 0-.24 3.65zM83.76 192.46a5.89 5.89 0 0 1 .71-2.78 4.79 4.79 0 0 1 2-2.05 5.84 5.84 0 0 1 2.89-.71 5.42 5.42 0 0 1 4 1.6 5.53 5.53 0 0 1 1.64 4.06 5.63 5.63 0 0 1-1.59 4.1 5.4 5.4 0 0 1-4 1.62 6.2 6.2 0 0 1-2.85-.68 4.61 4.61 0 0 1-2.07-2 6.61 6.61 0 0 1-.73-3.16zm3 .15a3.56 3.56 0 0 0 .77 2.48 2.41 2.41 0 0 0 1.89.86 2.38 2.38 0 0 0 1.89-.86 3.65 3.65 0 0 0 .77-2.5 3.57 3.57 0 0 0-.77-2.46 2.38 2.38 0 0 0-1.89-.86 2.41 2.41 0 0 0-1.89.86 3.56 3.56 0 0 0-.81 2.48zM97.18 187.17h2.68v1.59a4 4 0 0 1 1.42-1.33 3.89 3.89 0 0 1 2-.51 4.18 4.18 0 0 1 3.22 1.49 6 6 0 0 1 1.32 4.14 6.24 6.24 0 0 1-1.33 4.24 4.15 4.15 0 0 1-3.23 1.51 3.66 3.66 0 0 1-1.64-.36 5.52 5.52 0 0 1-1.54-1.23v5.49h-2.9zm2.85 5.26a4.24 4.24 0 0 0 .72 2.71 2.25 2.25 0 0 0 1.78.87 2.06 2.06 0 0 0 1.67-.8 4.19 4.19 0 0 0 .67-2.64 3.91 3.91 0 0 0-.69-2.54 2.11 2.11 0 0 0-1.7-.83 2.23 2.23 0 0 0-1.76.81 3.66 3.66 0 0 0-.72 2.42zM116.39 194.59l2.87.48a4.72 4.72 0 0 1-1.75 2.41 5.12 5.12 0 0 1-3 .82 4.88 4.88 0 0 1-4.2-1.85 6.26 6.26 0 0 1-1.08-3.76 6 6 0 0 1 1.42-4.24 4.67 4.67 0 0 1 3.58-1.53 4.81 4.81 0 0 1 3.83 1.6 7.09 7.09 0 0 1 1.35 4.92h-7.21a2.9 2.9 0 0 0 .69 2 2.19 2.19 0 0 0 1.67.72 1.76 1.76 0 0 0 1.13-.37 2.29 2.29 0 0 0 .7-1.2zm.17-2.91a2.85 2.85 0 0 0-.65-1.91 2.08 2.08 0 0 0-3.06 0 2.65 2.65 0 0 0-.6 1.87zM123.92 190.49l-2.62-.49a4.06 4.06 0 0 1 1.52-2.34 5.54 5.54 0 0 1 3.2-.76 6.77 6.77 0 0 1 2.87.46 2.89 2.89 0 0 1 1.33 1.15 5.92 5.92 0 0 1 .38 2.58v3.37a11.78 11.78 0 0 0 .14 2.11 6 6 0 0 0 .52 1.46h-2.85a8.41 8.41 0 0 1-.28-.85c0-.17-.08-.28-.1-.33a5.32 5.32 0 0 1-1.58 1.07 4.51 4.51 0 0 1-1.79.36 3.68 3.68 0 0 1-2.65-.91 3.25 3.25 0 0 1-.53-3.95 2.76 2.76 0 0 1 1.23-1.11 9.53 9.53 0 0 1 2.29-.67 16.11 16.11 0 0 0 2.8-.71v-.29a1.46 1.46 0 0 0-.41-1.18 2.42 2.42 0 0 0-1.55-.36 2 2 0 0 0-1.2.31 2.13 2.13 0 0 0-.72 1.08zm3.85 2.34c-.37.12-1 .27-1.75.44a5.15 5.15 0 0 0-1.57.5 1.18 1.18 0 0 0-.56 1 1.41 1.41 0 0 0 .45 1.05 1.58 1.58 0 0 0 1.15.44 2.48 2.48 0 0 0 1.48-.51 1.81 1.81 0 0 0 .69-1 5.42 5.42 0 0 0 .11-1.4zM143.35 198.05h-2.88v-5.55a8.16 8.16 0 0 0-.19-2.28 1.55 1.55 0 0 0-.6-.81 1.71 1.71 0 0 0-1-.29 2.35 2.35 0 0 0-1.34.41 2 2 0 0 0-.81 1.09 9.28 9.28 0 0 0-.22 2.5v4.93h-2.89v-10.88h2.68v1.59a4.36 4.36 0 0 1 3.59-1.84 4.29 4.29 0 0 1 1.74.34 2.89 2.89 0 0 1 1.2.88 3.27 3.27 0 0 1 .56 1.21 8.75 8.75 0 0 1 .16 1.94zM152.11 183h3v8.14a18 18 0 0 0 .11 2.52 2.44 2.44 0 0 0 .93 1.48 3.26 3.26 0 0 0 2 .56 3.08 3.08 0 0 0 1.95-.53 2.13 2.13 0 0 0 .79-1.3 18.25 18.25 0 0 0 .13-2.55V183h3v7.9a20.73 20.73 0 0 1-.24 3.82 4.28 4.28 0 0 1-.91 1.89 4.54 4.54 0 0 1-1.77 1.22 7.57 7.57 0 0 1-2.89.46 8.2 8.2 0 0 1-3.27-.5 4.62 4.62 0 0 1-1.75-1.29 4.07 4.07 0 0 1-.86-1.66 19.09 19.09 0 0 1-.29-3.82zM177.18 198.05h-2.88v-5.55a8.58 8.58 0 0 0-.19-2.28 1.55 1.55 0 0 0-.6-.81 1.73 1.73 0 0 0-1-.29 2.31 2.31 0 0 0-1.34.41 2.11 2.11 0 0 0-.82 1.09 9.73 9.73 0 0 0-.22 2.5v4.93h-2.88v-10.88h2.68v1.59a4.48 4.48 0 0 1 5.33-1.5 2.85 2.85 0 0 1 1.19.88 3.29 3.29 0 0 1 .57 1.21 9.41 9.41 0 0 1 .16 1.94zM180.1 185.69V183h2.9v2.67zm0 12.36v-10.88h2.9v10.88zM185.27 192.46a5.78 5.78 0 0 1 .71-2.78 4.77 4.77 0 0 1 2-2.05 5.85 5.85 0 0 1 2.9-.71 5.45 5.45 0 0 1 4.05 1.6 5.57 5.57 0 0 1 1.58 4.06 5.64 5.64 0 0 1-1.6 4.1 5.39 5.39 0 0 1-4 1.62 6.24 6.24 0 0 1-2.86-.68 4.64 4.64 0 0 1-2.06-2 6.5 6.5 0 0 1-.72-3.16zm2.95.15a3.61 3.61 0 0 0 .77 2.48 2.52 2.52 0 0 0 3.79 0 3.65 3.65 0 0 0 .76-2.5 3.57 3.57 0 0 0-.76-2.46 2.52 2.52 0 0 0-3.79 0 3.61 3.61 0 0 0-.77 2.48zM208.67 198.05h-2.89v-5.55a8.74 8.74 0 0 0-.18-2.28 1.55 1.55 0 0 0-.6-.81 1.73 1.73 0 0 0-1-.29 2.31 2.31 0 0 0-1.34.41 2.11 2.11 0 0 0-.82 1.09 9.28 9.28 0 0 0-.22 2.5v4.93h-2.88v-10.88h2.68v1.59a4.48 4.48 0 0 1 5.33-1.5 2.92 2.92 0 0 1 1.19.88 3.29 3.29 0 0 1 .57 1.21 9.41 9.41 0 0 1 .16 1.94z" transform="translate(-10.9 -21.93)"/></svg>
