<svg xmlns="http://www.w3.org/2000/svg" viewBox="0 0 447.6 78.9" style="enable-background:new 0 0 447.6 78.9" xml:space="preserve"><style>.st0{fill:#fff}</style><g id="Layer_1"><path class="st0" d="M139.3 3.5c1.2 1.2 1.9 2.6 2.1 4.1H139c-.3-1.2-.8-2.1-1.6-2.8s-1.9-1-3.3-1c-1.7 0-3.1.6-4.2 1.9-1.1 1.2-1.6 3.2-1.6 5.7 0 2.1.5 3.8 1.4 5.1 1 1.3 2.4 2 4.3 2 1.8 0 3.1-.7 4-2.1.5-.7.9-1.7 1.1-2.9h2.4c-.2 1.9-.9 3.5-2.1 4.8-1.4 1.5-3.3 2.3-5.7 2.3-2.1 0-3.8-.6-5.2-1.9-1.8-1.7-2.8-4.3-2.8-7.8 0-2.7.7-4.8 2.1-6.5 1.5-1.8 3.6-2.8 6.2-2.8 2.3.1 4 .7 5.3 1.9zM153.9 8.4c1.2 1.1 1.7 2.8 1.7 5 0 2.1-.5 3.9-1.5 5.2-1 1.4-2.6 2.1-4.8 2.1-1.8 0-3.2-.6-4.3-1.8s-1.6-2.9-1.6-4.9c0-2.2.6-4 1.7-5.3s2.6-2 4.5-2c1.7 0 3.1.5 4.3 1.7zm-1.4 8.7c.5-1.1.8-2.3.8-3.7 0-1.2-.2-2.2-.6-3-.6-1.2-1.7-1.8-3.2-1.8-1.3 0-2.3.5-2.9 1.5s-.9 2.3-.9 3.7.3 2.6.9 3.5 1.6 1.4 2.9 1.4c1.5 0 2.5-.5 3-1.6zM157.7 12h6.1v2.3h-6.1V12zM167.7 3c.5-.8 1.5-1.1 3-1.1h.9v2h-.8c-.7 0-1.1.2-1.2.5s-.2 1.2-.2 2.6h2.2v1.7h-2.2V20h-2.2V8.8h-1.8V7.1h1.8v-2c.1-1 .2-1.6.5-2.1zM175.8 7v8.7c0 .7.1 1.2.3 1.6.4.8 1.1 1.2 2.1 1.2 1.5 0 2.5-.7 3.1-2.1.3-.7.4-1.7.4-3V7h2.2v13.1h-2.1v-1.9c-.3.5-.6.9-1 1.3-.8.7-1.8 1-3 1-1.8 0-3.1-.6-3.7-1.9-.4-.7-.5-1.6-.5-2.7V7h2.2zM187.6 7h2.1v1.9c.6-.8 1.3-1.3 2-1.7s1.5-.5 2.3-.5c1.9 0 3.1.6 3.8 1.9.4.7.5 1.7.5 3V20H196v-8.3c0-.8-.1-1.4-.4-1.9-.4-.8-1.1-1.2-2.1-1.2-.5 0-1 .1-1.3.2-.6.2-1.1.5-1.6 1.1-.4.4-.6.9-.7 1.3-.1.5-.2 1.1-.2 2v6.9h-2.2l.1-13.1zM208.7 7.5c.4.2.8.7 1.3 1.3V2.1h2.1v18h-2v-1.8c-.5.8-1.1 1.4-1.8 1.8s-1.5.5-2.4.5c-1.5 0-2.7-.6-3.8-1.8s-1.6-2.9-1.6-4.9c0-1.9.5-3.6 1.5-5s2.4-2.1 4.2-2.1c1 0 1.8.2 2.5.7zm-4.9 9.8c.6.9 1.5 1.4 2.8 1.4 1 0 1.8-.4 2.5-1.3s1-2.1 1-3.8-.3-2.9-1-3.7-1.5-1.2-2.5-1.2c-1.1 0-2 .4-2.7 1.3-.7.8-1 2.1-1 3.7 0 1.5.3 2.6.9 3.6zM223.5 7.4c.9.4 1.5 1 2 1.7.4.7.7 1.4.9 2.3.1.6.2 1.6.2 2.9h-9.5c0 1.3.4 2.4.9 3.2s1.5 1.2 2.7 1.2c1.1 0 2.1-.4 2.7-1.1.4-.4.7-1 .8-1.5h2.2c-.1.5-.2 1-.6 1.6-.3.6-.7 1.1-1.1 1.5-.7.7-1.5 1.1-2.5 1.3-.5.1-1.1.2-1.8.2-1.6 0-3-.6-4.1-1.8s-1.7-2.8-1.7-5c0-2.1.6-3.8 1.7-5.1s2.6-2 4.5-2c1 0 1.9.2 2.7.6zm.8 5.2c-.1-1-.3-1.7-.6-2.3-.6-1.1-1.6-1.6-3-1.6-1 0-1.8.4-2.5 1.1s-1 1.7-1.1 2.8h7.2zM236.6 7.5c.4.2.8.7 1.3 1.3V2.1h2.1v18h-2v-1.8c-.5.8-1.1 1.4-1.8 1.8s-1.5.5-2.4.5c-1.5 0-2.7-.6-3.8-1.8s-1.6-2.9-1.6-4.9c0-1.9.5-3.6 1.5-5s2.4-2.1 4.2-2.1c1 0 1.8.2 2.5.7zm-4.9 9.8c.6.9 1.5 1.4 2.8 1.4 1 0 1.8-.4 2.5-1.3s1-2.1 1-3.8-.3-2.9-1-3.7-1.5-1.2-2.5-1.2c-1.1 0-2 .4-2.7 1.3-.7.8-1 2.1-1 3.7 0 1.5.3 2.6.9 3.6zM250.1 2.1h2.1v6.5c.5-.6 1.1-1.1 1.7-1.4s1.4-.5 2.2-.5c1.6 0 3 .6 4 1.7s1.5 2.8 1.5 5c0 2.1-.5 3.8-1.5 5.2s-2.4 2.1-4.2 2.1c-1 0-1.8-.2-2.5-.7-.4-.3-.8-.7-1.3-1.4v1.7h-2V2.1zm8.4 15.1c.6-.9.9-2.2.9-3.7 0-1.4-.3-2.5-.9-3.4s-1.5-1.4-2.6-1.4c-1 0-1.9.4-2.6 1.1-.8.7-1.1 2-1.1 3.7 0 1.2.2 2.2.5 3 .6 1.4 1.7 2.2 3.3 2.2 1-.1 1.9-.5 2.5-1.5zM272.4 7h2.4c-.3.8-1 2.8-2.1 5.8-.8 2.3-1.5 4.1-2 5.5-1.3 3.3-2.2 5.4-2.7 6.1s-1.4 1.1-2.7 1.1h-.7c-.2 0-.4-.1-.6-.1v-2c.4.1.7.2.8.2h.5c.4 0 .7-.1.9-.2s.4-.3.5-.5c0-.1.2-.4.4-1 .3-.6.4-1.1.5-1.3L262.9 7h2.5l3.5 10.7L272.4 7zM284.2 3.4h2.2V7h2.1v1.8h-2.1v8.6c0 .5.2.8.5.9.2.1.5.1.9.1h.7v1.8c-.3.1-.5.1-.8.2h-.9c-1 0-1.7-.3-2.1-.8s-.6-1.2-.6-2V8.8h-1.8V7h1.8V3.4h.1zM290.7 2.1h2.2v6.7c.5-.7 1-1.1 1.4-1.4.7-.5 1.6-.7 2.7-.7 1.9 0 3.2.7 3.9 2 .4.7.6 1.7.6 3v8.4h-2.3v-8.3c0-1-.1-1.7-.4-2.1-.4-.7-1.2-1.1-2.3-1.1-.9 0-1.7.3-2.5.9-.7.6-1.1 1.8-1.1 3.6v7h-2.2v-18zM312.7 7.4c.9.4 1.5 1 2 1.7.4.7.7 1.4.9 2.3.1.6.2 1.6.2 2.9h-9.5c0 1.3.4 2.4.9 3.2s1.5 1.2 2.7 1.2c1.1 0 2.1-.4 2.7-1.1.4-.4.7-1 .8-1.5h2.2c-.1.5-.2 1-.6 1.6-.3.6-.7 1.1-1.1 1.5-.7.7-1.5 1.1-2.5 1.3-.5.1-1.1.2-1.8.2-1.6 0-3-.6-4.1-1.8s-1.7-2.8-1.7-5c0-2.1.6-3.8 1.7-5.1s2.6-2 4.5-2c1 0 1.9.2 2.7.6zm.8 5.2c-.1-1-.3-1.7-.6-2.3-.6-1.1-1.6-1.6-3-1.6-1 0-1.8.4-2.5 1.1s-1 1.7-1.1 2.8h7.2zM139.3 32.6c1.2 1.2 1.9 2.6 2.1 4.1H139c-.3-1.2-.8-2.1-1.6-2.8s-1.9-1-3.3-1c-1.7 0-3.1.6-4.2 1.9-1.1 1.2-1.6 3.2-1.6 5.7 0 2.1.5 3.8 1.4 5.1 1 1.3 2.4 2 4.3 2 1.8 0 3.1-.7 4-2.1.5-.7.9-1.7 1.1-2.9h2.4c-.2 1.9-.9 3.5-2.1 4.8-1.4 1.5-3.3 2.3-5.7 2.3-2.1 0-3.8-.6-5.2-1.9-1.8-1.7-2.8-4.3-2.8-7.8 0-2.7.7-4.8 2.1-6.5 1.5-1.8 3.6-2.8 6.2-2.8 2.3.1 4 .7 5.3 1.9zM144.4 36.1h2.1v2.3c.2-.4.6-1 1.3-1.6s1.4-.9 2.3-.9h.7v2.3h-.8c-1.1 0-2 .4-2.6 1.1s-.9 1.5-.9 2.5v7.5h-2.2l.1-13.2zM160.8 36.5c.9.4 1.5 1 2 1.7.4.7.7 1.4.9 2.3.1.6.2 1.6.2 2.9h-9.5c0 1.3.4 2.4.9 3.2s1.5 1.2 2.7 1.2c1.1 0 2.1-.4 2.7-1.1.4-.4.7-1 .8-1.5h2.2c-.1.5-.2 1-.6 1.6-.3.6-.7 1.1-1.1 1.5-.7.7-1.5 1.1-2.5 1.3-.5.1-1.1.2-1.8.2-1.6 0-3-.6-4.1-1.8s-1.7-2.8-1.7-5c0-2.1.6-3.8 1.7-5.1s2.6-2 4.5-2c1-.1 1.9.1 2.7.6zm.8 5.1c-.1-1-.3-1.7-.6-2.3-.6-1.1-1.6-1.6-3-1.6-1 0-1.8.4-2.5 1.1s-1 1.7-1.1 2.8h7.2zM173.7 41.3c.5-.1.8-.3 1-.6.1-.2.1-.5.1-.8 0-.8-.3-1.3-.8-1.6s-1.3-.5-2.3-.5c-1.1 0-2 .3-2.4.9-.3.3-.4.9-.5 1.5h-2.1c0-1.6.6-2.7 1.6-3.4 1-.6 2.2-1 3.5-1 1.5 0 2.8.3 3.8.9s1.4 1.5 1.4 2.7V47c0 .2 0 .4.1.6.1.1.3.2.6.2h.3c.1 0 .3 0 .4-.1v1.6c-.3.1-.6.2-.8.2h-.7c-.8 0-1.3-.3-1.7-.8-.2-.3-.3-.7-.4-1.2-.4.6-1.1 1.1-1.9 1.5s-1.8.6-2.8.6c-1.2 0-2.2-.4-3-1.1s-1.2-1.7-1.2-2.8c0-1.2.4-2.2 1.1-2.8.8-.7 1.8-1.1 3-1.2l3.7-.4zm-4.6 5.9c.5.4 1 .5 1.7.5.8 0 1.5-.2 2.3-.5 1.2-.6 1.8-1.6 1.8-2.9v-1.8c-.3.2-.6.3-1 .4s-.8.2-1.2.2l-1.3.2c-.8.1-1.4.3-1.8.5-.7.4-1 1-1 1.8-.2.8 0 1.3.5 1.6zM181 32.5h2.2v3.7h2.1V38h-2.1v8.6c0 .5.2.8.5.9.2.1.5.1.9.1h.7v1.8c-.3.1-.5.1-.8.2h-.9c-1 0-1.7-.3-2.1-.8s-.6-1.2-.6-2v-8.7h-1.8v-1.8h1.8v-3.8h.1zM187.6 31.3h2.2v2.5h-2.2v-2.5zm0 4.9h2.2v13h-2.2v-13zM194.2 36.1l3.5 10.7 3.6-10.7h2.4l-4.9 13.1h-2.3l-4.8-13.1h2.5zM213.8 36.5c.9.4 1.5 1 2 1.7.4.7.7 1.4.9 2.3.1.6.2 1.6.2 2.9h-9.5c0 1.3.4 2.4.9 3.2s1.5 1.2 2.7 1.2c1.1 0 2.1-.4 2.7-1.1.4-.4.7-1 .8-1.5h2.2c-.1.5-.2 1-.6 1.6-.3.6-.7 1.1-1.1 1.5-.7.7-1.5 1.1-2.5 1.3-.5.1-1.1.2-1.8.2-1.6 0-3-.6-4.1-1.8s-1.7-2.8-1.7-5c0-2.1.6-3.8 1.7-5.1s2.6-2 4.5-2c.9-.1 1.8.1 2.7.6zm.8 5.1c-.1-1-.3-1.7-.6-2.3-.6-1.1-1.6-1.6-3-1.6-1 0-1.8.4-2.5 1.1s-1 1.7-1.1 2.8h7.2zM227.1 31.3h13v2.2h-10.7V39h9.9v2h-9.9v6.1h10.9v2.1h-13.2V31.3zM245.5 36.1v8.7c0 .7.1 1.2.3 1.6.4.8 1.1 1.2 2.1 1.2 1.5 0 2.5-.7 3.1-2.1.3-.7.4-1.7.4-3v-6.4h2.2v13.1h-2.1v-1.9c-.3.5-.6.9-1 1.3-.8.7-1.8 1-3 1-1.8 0-3.1-.6-3.7-1.9-.4-.7-.5-1.6-.5-2.7v-8.9h2.2zM257.3 36.1h2.1v2.3c.2-.4.6-1 1.3-1.6s1.4-.9 2.3-.9h.7v2.3h-.8c-1.1 0-2 .4-2.6 1.1s-.9 1.5-.9 2.5v7.5h-2.2l.1-13.2zM275.1 37.4c1.2 1.1 1.7 2.8 1.7 5 0 2.1-.5 3.9-1.5 5.2-1 1.4-2.6 2.1-4.8 2.1-1.8 0-3.2-.6-4.3-1.8s-1.6-2.9-1.6-4.9c0-2.2.6-4 1.7-5.3s2.6-2 4.5-2c1.7 0 3.1.6 4.3 1.7zm-1.4 8.7c.5-1.1.8-2.3.8-3.7 0-1.2-.2-2.2-.6-3-.6-1.2-1.7-1.8-3.2-1.8-1.3 0-2.3.5-2.9 1.5s-.9 2.3-.9 3.7.3 2.6.9 3.5 1.6 1.4 2.9 1.4c1.5.1 2.5-.5 3-1.6zM279.3 36.2h2.2v1.7c.4-.6.9-1.1 1.4-1.4.7-.5 1.6-.7 2.6-.7 1.5 0 2.8.6 3.8 1.7s1.6 2.8 1.6 4.9c0 2.9-.7 4.9-2.2 6.1-1 .8-2.1 1.2-3.3 1.2-1 0-1.8-.2-2.5-.6-.4-.2-.8-.7-1.3-1.3v6.7h-2.2V36.2h-.1zm8.3 10.3c.7-.9 1-2.1 1-3.9 0-1-.2-1.9-.5-2.7-.6-1.4-1.6-2.2-3.1-2.2s-2.6.8-3.1 2.3c-.3.8-.5 1.9-.5 3.1 0 1 .2 1.9.5 2.6.6 1.4 1.6 2 3.1 2 1.1 0 1.9-.4 2.6-1.2zM301.6 36.5c.9.4 1.5 1 2 1.7.4.7.7 1.4.9 2.3.1.6.2 1.6.2 2.9h-9.5c0 1.3.4 2.4.9 3.2s1.5 1.2 2.7 1.2c1.1 0 2.1-.4 2.7-1.1.4-.4.7-1 .8-1.5h2.2c-.1.5-.2 1-.6 1.6-.3.6-.7 1.1-1.1 1.5-.7.7-1.5 1.1-2.5 1.3-.5.1-1.1.2-1.8.2-1.6 0-3-.6-4.1-1.8s-1.7-2.8-1.7-5c0-2.1.6-3.8 1.7-5.1s2.6-2 4.5-2c.9-.1 1.8.1 2.7.6zm.7 5.1c-.1-1-.3-1.7-.6-2.3-.6-1.1-1.6-1.6-3-1.6-1 0-1.8.4-2.5 1.1s-1 1.7-1.1 2.8h7.2zM314.9 31.3h8c1.6 0 2.9.5 3.9 1.4s1.5 2.2 1.5 3.8c0 1.4-.4 2.6-1.3 3.7-.9 1-2.2 1.6-4 1.6h-5.6v7.6H315V31.3h-.1zm9.4 2.4c-.5-.3-1.3-.4-2.2-.4h-4.8v6.2h4.8c1.1 0 2-.2 2.6-.7s1-1.3 1-2.5c.1-1.2-.4-2.1-1.4-2.6zM331.1 36.1h2.1v2.3c.2-.4.6-1 1.3-1.6s1.4-.9 2.3-.9h.7v2.3h-.8c-1.1 0-2 .4-2.6 1.1s-.9 1.5-.9 2.5v7.5H331V36.1h.1zM348.9 37.4c1.2 1.1 1.7 2.8 1.7 5 0 2.1-.5 3.9-1.5 5.2-1 1.4-2.6 2.1-4.8 2.1-1.8 0-3.2-.6-4.3-1.8s-1.6-2.9-1.6-4.9c0-2.2.6-4 1.7-5.3s2.6-2 4.5-2c1.7 0 3.2.6 4.3 1.7zm-1.3 8.7c.5-1.1.8-2.3.8-3.7 0-1.2-.2-2.2-.6-3-.6-1.2-1.7-1.8-3.2-1.8-1.3 0-2.3.5-2.9 1.5s-.9 2.3-.9 3.7.3 2.6.9 3.5 1.6 1.4 2.9 1.4c1.4.1 2.4-.5 3-1.6zM360.6 36.6c.4.3.8.7 1.3 1.2v-1.7h2V48c0 1.7-.2 3-.7 3.9-.9 1.8-2.6 2.7-5.2 2.7-1.4 0-2.6-.3-3.5-.9-1-.6-1.5-1.6-1.6-3h2.2c.1.6.3 1 .6 1.4.5.5 1.3.7 2.3.7 1.7 0 2.8-.6 3.3-1.8.3-.7.5-2 .4-3.8-.4.7-1 1.2-1.6 1.5s-1.4.5-2.5.5c-1.4 0-2.7-.5-3.7-1.5-1.1-1-1.6-2.7-1.6-5 0-2.2.5-3.9 1.6-5.1s2.4-1.8 3.9-1.8c1.2.1 2.1.3 2.8.8zm.3 2.4c-.7-.8-1.5-1.2-2.5-1.2-1.5 0-2.6.7-3.2 2.2-.3.8-.5 1.8-.5 3 0 1.5.3 2.6.9 3.4s1.4 1.2 2.4 1.2c1.6 0 2.7-.7 3.3-2.1.4-.8.5-1.8.5-2.8.1-1.7-.2-2.9-.9-3.7zM367.4 36.1h2.1v2.3c.2-.4.6-1 1.3-1.6s1.4-.9 2.3-.9h.7v2.3h-.8c-1.1 0-2 .4-2.6 1.1s-.9 1.5-.9 2.5v7.5h-2.2V36.1h.1zM382.7 41.3c.5-.1.8-.3 1-.6.1-.2.1-.5.1-.8 0-.8-.3-1.3-.8-1.6s-1.3-.5-2.3-.5c-1.1 0-2 .3-2.4.9-.3.3-.4.9-.5 1.5h-2.1c0-1.6.6-2.7 1.6-3.4 1-.6 2.2-1 3.5-1 1.5 0 2.8.3 3.8.9s1.4 1.5 1.4 2.7V47c0 .2 0 .4.1.6.1.1.3.2.6.2h.3c.1 0 .3 0 .4-.1v1.6c-.3.1-.6.2-.8.2h-.7c-.8 0-1.3-.3-1.7-.8-.2-.3-.3-.7-.4-1.2-.4.6-1.1 1.1-1.9 1.5s-1.8.6-2.8.6c-1.2 0-2.2-.4-3-1.1s-1.2-1.7-1.2-2.8c0-1.2.4-2.2 1.1-2.8.8-.7 1.8-1.1 3-1.2l3.7-.4zm-4.7 5.9c.5.4 1 .5 1.7.5.8 0 1.5-.2 2.3-.5 1.2-.6 1.8-1.6 1.8-2.9v-1.8c-.3.2-.6.3-1 .4s-.8.2-1.2.2l-1.3.2c-.8.1-1.4.3-1.8.5-.7.4-1 1-1 1.8-.2.8.1 1.3.5 1.6zM389.6 36.1h2.2V38c.5-.6 1-1.1 1.4-1.4.7-.5 1.5-.7 2.5-.7s1.9.3 2.5.8c.4.3.7.7 1 1.3.5-.7 1.1-1.2 1.7-1.6.7-.3 1.4-.5 2.2-.5 1.8 0 3 .6 3.6 1.9.3.7.5 1.6.5 2.8v8.7h-2.3v-9.1c0-.9-.2-1.5-.7-1.8-.4-.3-1-.5-1.6-.5-.9 0-1.6.3-2.2.9s-.9 1.5-.9 2.9v7.6h-2.2v-8.6c0-.9-.1-1.5-.3-1.9-.3-.6-1-.9-1.9-.9-.8 0-1.6.3-2.3 1-.7.6-1 1.8-1 3.5v7h-2.2V36.1zM410.5 36.1h2.2V38c.5-.6 1-1.1 1.4-1.4.7-.5 1.5-.7 2.5-.7s1.9.3 2.5.8c.4.3.7.7 1 1.3.5-.7 1.1-1.2 1.7-1.6.7-.3 1.4-.5 2.2-.5 1.8 0 3 .6 3.6 1.9.3.7.5 1.6.5 2.8v8.7h-2.3v-9.1c0-.9-.2-1.5-.7-1.8-.4-.3-1-.5-1.6-.5-.9 0-1.6.3-2.2.9s-.9 1.5-.9 2.9v7.6h-2.2v-8.6c0-.9-.1-1.5-.3-1.9-.3-.6-1-.9-1.9-.9-.8 0-1.6.3-2.3 1-.7.6-1 1.8-1 3.5v7h-2.2V36.1zM439.4 36.5c.9.4 1.5 1 2 1.7.4.7.7 1.4.9 2.3.1.6.2 1.6.2 2.9H433c0 1.3.4 2.4.9 3.2s1.5 1.2 2.7 1.2c1.1 0 2.1-.4 2.7-1.1.4-.4.7-1 .8-1.5h2.2c-.1.5-.2 1-.6 1.6-.3.6-.7 1.1-1.1 1.5-.7.7-1.5 1.1-2.5 1.3-.5.1-1.1.2-1.8.2-1.6 0-3-.6-4.1-1.8s-1.7-2.8-1.7-5c0-2.1.6-3.8 1.7-5.1s2.6-2 4.5-2c1-.1 1.9.1 2.7.6zm.8 5.1c-.1-1-.3-1.7-.6-2.3-.6-1.1-1.6-1.6-3-1.6-1 0-1.8.4-2.5 1.1s-1 1.7-1.1 2.8h7.2zM135.8 65.5c1.2 1.1 1.7 2.8 1.7 5 0 2.1-.5 3.9-1.5 5.2-1 1.4-2.6 2.1-4.8 2.1-1.8 0-3.2-.6-4.3-1.8s-1.6-2.9-1.6-4.9c0-2.2.6-4 1.7-5.3s2.6-2 4.5-2c1.7 0 3.1.6 4.3 1.7zm-1.4 8.7c.5-1.1.8-2.3.8-3.7 0-1.2-.2-2.2-.6-3-.6-1.2-1.7-1.8-3.2-1.8-1.3 0-2.3.5-2.9 1.5-.6 1-.9 2.3-.9 3.7s.3 2.6.9 3.5c.6.9 1.6 1.4 2.9 1.4 1.5.1 2.5-.5 3-1.6zM141.2 60.2c.5-.8 1.5-1.1 3-1.1h.9v2h-.8c-.7 0-1.1.2-1.2.5s-.2 1.2-.2 2.6h2.2V66H143v11.3h-2.2V66H139v-1.7h1.8v-2.1c0-.9.2-1.6.4-2zM154.6 60.5h2.2v3.7h2.1V66h-2.1v8.6c0 .5.2.8.5.9.2.1.5.1.9.1h.7v1.8c-.3.1-.5.1-.8.2h-.9c-1 0-1.7-.3-2.1-.8s-.6-1.2-.6-2V66h-1.8v-1.8h1.8v-3.7h.1zM161.1 59.3h2.2V66c.5-.7 1-1.1 1.4-1.4.7-.5 1.6-.7 2.7-.7 1.9 0 3.2.7 3.9 2 .4.7.6 1.7.6 3v8.4h-2.3V69c0-1-.1-1.7-.4-2.1-.4-.7-1.2-1.1-2.3-1.1-.9 0-1.7.3-2.5.9-.7.6-1.1 1.8-1.1 3.6v7h-2.2v-18zM183.1 64.6c.9.4 1.5 1 2 1.7.4.7.7 1.4.9 2.3.1.6.2 1.6.2 2.9h-9.5c0 1.3.4 2.4.9 3.2s1.5 1.2 2.7 1.2c1.1 0 2.1-.4 2.7-1.1.4-.4.7-1 .8-1.5h2.2c-.1.5-.2 1-.6 1.6-.3.6-.7 1.1-1.1 1.5-.7.7-1.5 1.1-2.5 1.3-.5.1-1.1.2-1.8.2-1.6 0-3-.6-4.1-1.8s-1.7-2.8-1.7-5c0-2.1.6-3.8 1.7-5.1s2.6-2 4.5-2c1-.1 1.9.1 2.7.6zm.8 5.1c-.1-1-.3-1.7-.6-2.3-.6-1.1-1.6-1.6-3-1.6-1 0-1.8.4-2.5 1.1s-1 1.7-1.1 2.8h7.2zM196.5 59.3h13v2.2h-10.7V67h9.9v2.1h-9.9v6.1h10.9v2.1h-13.2v-18zM214.9 64.2v8.7c0 .7.1 1.2.3 1.6.4.8 1.1 1.2 2.1 1.2 1.5 0 2.5-.7 3.1-2.1.3-.7.4-1.7.4-3v-6.4h2.2v13.1h-2.1v-1.9c-.3.5-.6.9-1 1.3-.8.7-1.8 1-3 1-1.8 0-3.1-.6-3.7-1.9-.4-.7-.5-1.6-.5-2.7v-8.9h2.2zM226.7 64.2h2.1v2.3c.2-.4.6-1 1.3-1.6s1.4-.9 2.3-.9h.7v2.3h-.8c-1.1 0-2 .4-2.6 1.1s-.9 1.5-.9 2.5v7.5h-2.2l.1-13.2zM244.5 65.5c1.2 1.1 1.7 2.8 1.7 5 0 2.1-.5 3.9-1.5 5.2-1 1.4-2.6 2.1-4.8 2.1-1.8 0-3.2-.6-4.3-1.8s-1.6-2.9-1.6-4.9c0-2.2.6-4 1.7-5.3s2.6-2 4.5-2c1.7 0 3.1.6 4.3 1.7zm-1.4 8.7c.5-1.1.8-2.3.8-3.7 0-1.2-.2-2.2-.6-3-.6-1.2-1.7-1.8-3.2-1.8-1.3 0-2.3.5-2.9 1.5s-.9 2.3-.9 3.7.3 2.6.9 3.5 1.6 1.4 2.9 1.4c1.5.1 2.4-.5 3-1.6zM248.7 64.3h2.2V66c.4-.6.9-1.1 1.4-1.4.7-.5 1.6-.7 2.6-.7 1.5 0 2.8.6 3.8 1.7s1.6 2.8 1.6 4.9c0 2.9-.7 4.9-2.2 6.1-1 .8-2.1 1.2-3.3 1.2-1 0-1.8-.2-2.5-.6-.4-.2-.8-.7-1.3-1.3v6.7h-2.2l-.1-18.3zm8.3 10.2c.7-.9 1-2.1 1-3.9 0-1-.2-1.9-.5-2.7-.6-1.4-1.6-2.2-3.1-2.2s-2.6.8-3.1 2.3c-.3.8-.5 1.9-.5 3.1 0 1 .2 1.9.5 2.6.6 1.4 1.6 2 3.1 2 1.1.1 1.9-.3 2.6-1.2zM270.9 64.6c.9.4 1.5 1 2 1.7.4.7.7 1.4.9 2.3.1.6.2 1.6.2 2.9h-9.5c0 1.3.4 2.4.9 3.2s1.5 1.2 2.7 1.2c1.1 0 2.1-.4 2.7-1.1.4-.4.7-1 .8-1.5h2.2c-.1.5-.2 1-.6 1.6-.3.6-.7 1.1-1.1 1.5-.7.7-1.5 1.1-2.5 1.3-.5.1-1.1.2-1.8.2-1.6 0-3-.6-4.1-1.8s-1.7-2.8-1.7-5c0-2.1.6-3.8 1.7-5.1s2.6-2 4.5-2c1-.1 1.9.1 2.7.6zm.8 5.1c-.1-1-.3-1.7-.6-2.3-.6-1.1-1.6-1.6-3-1.6-1 0-1.8.4-2.5 1.1s-1 1.7-1.1 2.8h7.2zM283.8 69.4c.5-.1.8-.3 1-.6.1-.2.1-.5.1-.8 0-.8-.3-1.3-.8-1.6s-1.3-.5-2.3-.5c-1.1 0-2 .3-2.4.9-.3.3-.4.9-.5 1.5h-2.1c0-1.6.6-2.7 1.6-3.4 1-.6 2.2-1 3.5-1 1.5 0 2.8.3 3.8.9s1.4 1.5 1.4 2.7v7.6c0 .2 0 .4.1.6.1.1.3.2.6.2h.3c.1 0 .3 0 .4-.1v1.6c-.3.1-.6.2-.8.2h-.7c-.8 0-1.3-.3-1.7-.8-.2-.3-.3-.7-.4-1.2-.4.6-1.1 1.1-1.9 1.5s-1.8.6-2.8.6c-1.2 0-2.2-.4-3-1.1s-1.2-1.7-1.2-2.8c0-1.2.4-2.2 1.1-2.8.8-.7 1.8-1.1 3-1.2l3.7-.4zm-4.6 5.9c.5.4 1 .5 1.7.5.8 0 1.5-.2 2.3-.5 1.2-.6 1.8-1.6 1.8-2.9v-1.8c-.3.2-.6.3-1 .4s-.8.2-1.2.2l-1.3.2c-.8.1-1.4.3-1.8.5-.7.4-1 1-1 1.8-.2.8 0 1.3.5 1.6zM290.7 64.2h2.1v1.9c.6-.8 1.3-1.3 2-1.7s1.5-.5 2.3-.5c1.9 0 3.1.6 3.8 1.9.4.7.5 1.7.5 3v8.4h-2.2V69c0-.8-.1-1.4-.4-1.9-.4-.8-1.1-1.2-2.1-1.2-.5 0-1 .1-1.3.2-.6.2-1.1.5-1.6 1.1-.4.4-.6.9-.7 1.3-.1.5-.2 1.1-.2 2v6.9h-2.2V64.2zM314.5 59.3v11.1c0 1.3.2 2.4.7 3.3.7 1.3 2 2 3.7 2 2.1 0 3.5-.7 4.2-2.1.4-.8.6-1.8.6-3.1V59.3h2.5v10.1c0 2.2-.3 3.9-.9 5.1-1.1 2.2-3.2 3.3-6.2 3.3s-5.1-1.1-6.2-3.3c-.6-1.2-.9-2.9-.9-5.1V59.3h2.5zM329.7 64.2h2.1v1.9c.6-.8 1.3-1.3 2-1.7s1.5-.5 2.3-.5c1.9 0 3.1.6 3.8 1.9.4.7.5 1.7.5 3v8.4h-2.2V69c0-.8-.1-1.4-.4-1.9-.4-.8-1.1-1.2-2.1-1.2-.5 0-1 .1-1.3.2-.6.2-1.1.5-1.6 1.1-.4.4-.6.9-.7 1.3-.1.5-.2 1.1-.2 2v6.9h-2.2V64.2zM343.7 59.3h2.2v2.5h-2.2v-2.5zm0 5h2.2v13h-2.2v-13zM358.7 65.5c1.2 1.1 1.7 2.8 1.7 5 0 2.1-.5 3.9-1.5 5.2-1 1.4-2.6 2.1-4.8 2.1-1.8 0-3.2-.6-4.3-1.8s-1.6-2.9-1.6-4.9c0-2.2.6-4 1.7-5.3s2.6-2 4.5-2c1.7 0 3.2.6 4.3 1.7zm-1.3 8.7c.5-1.1.8-2.3.8-3.7 0-1.2-.2-2.2-.6-3-.6-1.2-1.7-1.8-3.2-1.8-1.3 0-2.3.5-2.9 1.5s-.9 2.3-.9 3.7.3 2.6.9 3.5 1.6 1.4 2.9 1.4c1.4.1 2.4-.5 3-1.6zM363.2 64.2h2.1v1.9c.6-.8 1.3-1.3 2-1.7s1.5-.5 2.3-.5c1.9 0 3.1.6 3.8 1.9.4.7.5 1.7.5 3v8.4h-2.2V69c0-.8-.1-1.4-.4-1.9-.4-.8-1.1-1.2-2.1-1.2-.5 0-1 .1-1.3.2-.6.2-1.1.5-1.6 1.1-.4.4-.6.9-.7 1.3-.1.5-.2 1.1-.2 2v6.9h-2.2V64.2zM1.4.2v78.4h117.7V.2H1.4zm80.1 25.2 1-3 .9 3h3.1L84 27.2l.9 2.9-2.5-1.8-2.4 1.9.9-2.9-2.5-1.8 3.1-.1zM30.4 38.3h3.1l1-3 .9 3h3.1L36 40.1l1 2.9-2.5-1.8L32 43l.9-2.9-2.5-1.8zm10.1 17.6L38 54.1l-2.5 1.8 1-2.9-2.5-1.8h3l1-3 .9 3H42L39.5 53l1 2.9zm-1-28.6.9 2.9-2.4-1.8-2.5 1.8 1-2.9-2.5-1.8h3l1-3 .9 3H42l-2.5 1.8zM46.4 16l1-3 .9 3h3.1l-2.5 1.8.9 2.9-2.4-1.7-2.5 1.8.9-3-2.5-1.8h3.1zm3.5 49.3-2.5-1.8-2.5 1.8.9-2.9-2.5-1.8h3.1l1-3 .9 3h3.1l-2.6 1.8 1.1 2.9zm9.4-52.7.9-2.9.9 2.9h3.1l-2.5 1.8.9 2.9-2.5-1.8-2.5 1.8.9-2.9-2.5-1.8h3.3zm3.4 56.1-2.5-1.8-2.5 1.8.9-2.9-2.4-1.8h3.1l.9-3 1 3h3.1l-2.5 1.8.9 2.9zm12.8-3.4L73 63.5l-2.5 1.8.9-2.9-2.4-1.8h3.1l1-3 .9 3h3.1l-2.5 1.9.9 2.8zm-.9-47.5.9 2.9-2.4-1.7-2.5 1.8.9-2.9-2.5-1.8h3.1l.9-3 1 3h3.1l-2.5 1.7zM85 55.9l-2.5-1.8-2.5 1.8.9-2.9-2.5-1.8h3.1l1-3 .9 3h3.1L84 53l1 2.9zM88.4 43l-2.5-1.8-2.5 1.8.9-2.9-2.5-1.8h3.1l.9-3 1 3H90l-2.5 1.8.9 2.9z"/></g></svg>
