<svg version="1.1" id="Layer_1" xmlns="http://www.w3.org/2000/svg" x="0" y="0" viewBox="0 0 1291 475.5" style="enable-background:new 0 0 1291 475.5" xml:space="preserve"><style>.st0{fill:#fff}</style><path class="st0" d="m362.9 367.2.1.1-.1-.1zm-1.3-1.6.1.1-.1-.1zm-1.4-4v.2-.2zm0-36.5v.2-.2zm2.7-5.5zm7.8 39.3-.1-.2.1.2zm.5.7-.1-.1.1.1zm23.9 9.1v-8.3h-20.5c-1 0-2.1 0-2.9-.5l-.6-.5-.1-.1-.4-.6v-.2l-.3-1.9v-8.2l21.6-.7v-8.4l-21.6-.7v-8.2c0-2 0-4.1 3.8-4.1h21.1v-8.4c-4.6-.7-23.3-1.2-23.5-1.2h-.3c-1.1 0-2.4.1-3.7.4l-1 .3c-1.2.4-2.3 1-3.4 1.8l-.2.2-.2.2-.2.2-1 1.3-.2.4-.6 1.3-.2.5-.4 1.7-.1.7-.1 1.7v32.5l.1 1.6.1.7.4 1.5.1.4.7 1.5.3.5 1 1.2.1.1.5.4.2.2.7.5.3.2.7.4.3.1.7.3.3.1.7.2.3.1.8.2h.1c1 .2 1.9.2 2.8.2h1c.2-.4 18.7-1 22.8-1.6zM443.9 356.7zm-.8 2.7zm-8.5-12.9c0 6.7-1.1 10.4-3.1 12.3l-.1.1-.6.5-.3.2-.5.3-.3.1-.6.2-.2.1c-1.2.4-2.6.5-4.1.5-3.6 0-6.3-.4-8-2.6-1.6-2-2.3-5.5-2.3-11.6v-29.8h-10.2v32.3l.1 1.6.2 2.1.1 1.2.2 1.4.2 1.3.3 1.5.2.8.6 1.7.2.6.7 1.5.3.5.8 1.3.3.4.9 1.1.1.1.2.2 1.1.9.4.3 1.1.7.4.2 1.2.5.5.2 1.1.3.7.1 1.1.2c2 .3 4 .3 6 .3h1.4c1.8 0 3.7 0 5.7-.2l.5-.1 1-.1 1-.2.6-.1 1.2-.4.5-.2 1.1-.5.5-.3 1-.7.3-.2.2-.2 1.3-1.1.3-.4 1-1.3.3-.5.8-1.5.3-.7.7-1.6.3-.8.5-1.8.2-1 .4-2 .1-1.2.2-2.2.1-1.3.1-2v-30.7h-10.3v29.7zM483.7 317.6zm-3.8 22.4-.1.1.1-.1zm.7-.7zm-1.4-13.1.7.4.3.2.4.5.3.5.3.5.2.7.2.6.1.8.1.9v.1l.1 1.7c0 6.3-1.7 7.4-5.2 7.4h-12.1v-15h12.1c.9 0 1.7.1 2.4.4l.1.3zm-14.7 22.4 8.9 1 8.8 20.1h11.5l-10.1-20.8h.1c1.5-.5 3.6-1.1 5.3-3.3l.5-.7.1-.1.5-.8.2-.3.4-.8.2-.4.3-.9.1-.5.3-1.1.1-.4.2-1.5v-.2c.2-1.3.2-2.8.2-4.3 0-1.6-.1-3-.3-4.3l-.3-1.8-.1-.5-.3-1.2-.2-.6-.4-1-.2-.4-.5-1-.1-.1-1.7-2.1-.2-.1-1.6-1.2-.4-.3-1.9-.9-.5-.2-2.3-.5-.5-.1c-.9-.1-1.8-.2-2.8-.2h-23.6v53h10.2l.1-21.5zM532.3 318l.8.3-.8-.3zM535.3 319.6l.5.4-.5-.4zM500.8 330.5l.3-1.5-.3 1.5zm-.6 3.1.2-1.5-.2 1.5zm-.3 3 .1-1.1-.1 1.1zm1.7-9 .4-1.2-.4 1.2zm1.4-3.4-.3.7.3-.7zm1.2-1.9zm7.7 46.9h-.2.2zm-3.6-1.3-.2-.1.2.1zm1.8.7-.4-.2.4.2zm19.1-10.4-.3.3-.5.4-.3.2-.6.3-.4.2-.4.2-.8.3h-.2c-1.2.3-2.8.5-4.8.5-2.1 0-3.9-.1-5.4-.6-1.5-.5-2.7-1.2-3.6-2.5-.6-.9-1-2-1.4-3.4-.6-2.4-.8-5.7-.8-10.5 0-8.3.8-12.8 2.7-15.3 1.9-2.4 4.8-2.6 8.5-2.6 4.3 0 6.9.4 8.6 2.7 1.8 2.4 2.6 7 2.6 15.1 0 7.3-.7 11.5-2.4 13.9l-.3.4-.2.4zm10-33.5-.2-.4.2.4zm1.1 2.6-.3-.8.3.8zm1.4 5.9-.2-1.1.2 1.1zm.4 3v-.7.7zm-1-6.1-.2-1.1.2 1.1zm.5 24.3.1-.5-.1.5zm-.6 2.9.1-.6-.1.6zm-.8 2.5.1-.4-.1.4zm-1 2.2zm-4.1 4.8.2-.1 1-.9-.3.2.4-.3-.1.1.3-.3c.9-.9 1.8-2.1 2.5-3.3l1-2.1v-.1c1.6-4 2.3-9.4 2.3-16.5 0-6-.5-10.9-1.6-14.7-.2-.9-.5-1.7-.8-2.5l-.1-.2-.9-2-.1-.2c-.7-1.2-1.5-2.3-2.4-3.2l-.7-.6.4.3-1-.8.2.1-.7-.5h.1l-1.1-.7.2.1-.5-.3-.2-.1-1-.4.2.1-1.2-.4h.1-.3.1l-1.5-.4c-2.3-.5-4.9-.8-8.7-.8-6.5 0-11.6.7-15.3 4.3l-1.3 1.5v.1l-1.1 1.7-.1.2-1 2.2c-1.7 4.2-2.5 9.8-2.5 17.3 0 4.4.3 8.1.9 11.3l.1.4.5 2.4.2.7.6 1.8.3.7.7 1.5.3.5c.6 1.1 1.3 2 2.2 2.8 3.6 3.5 8.6 4.2 15.6 4.2 1.3 0 2.7-.1 4-.2l1.2-.1 1.3-.2 2.3-.4.5-.1.2-.1.9-.3.5-.2.7-.3-.4.1c1.1-.2 2-.7 2.9-1.3l-.2.2.2-.2zM531.1 317.5zM533.8 318.7l.8.5-.8-.5zM577 339.6zM582 318.3zm6.8 16.5v.7-.7zm-.3 3 .1-.7-.1.7zm-.4 2 .1-.5-.1.5zm-.4 1.8.1-.3-.1.3zm-.7 1.7.1-.2-.1.2zm-.7 1.4.1-.2-.1.2zm-.9 1.3.2-.2-.2.2zm-.9 1-.1.1.1-.1zm-1.4 1.1.3-.2-.3.2zm-1.2.8.3-.1-.3.1zm-1.3.5.3-.1-.3.1zm-1.4.3.3-.1-.3.1zm-1.2.3zm-4.3-24.3h.5-.5zm1.1.2.4.1-.4-.1zm1 .4.3.2-.3-.2zm.9.7.2.2-.2-.2zm.7.9.1.3-.1-.3zm.6 1.3.1.2-.1-.2zm.4 1.7v.1-.1zm-.2 6.1zm-3.8 4.1h-.4.4zm1.1-.3-.5.2.5-.2zm.9-.6-.4.3.4-.3zm1.2-1.6-.1.3-.5.7.2-.2-.3.3c-.5.6-1.2 1-2.1 1.3l-1.5.2h-11.9v-15.5h11.9l1.2.1h.1l.9.3.2.1.7.4.3.2.5.5.3.4.3.6.2.6.2.7.1.7.2.9.1.9.1 1v.6l-.1 1.3v.5l-.2 1.3-.1.3-.3 1-.1.3v-.1l-.3.3.1-.1-.1.1zm-16.3 10.1c.6.2 9.9 1.3 12.7 1.4 1.8.1 4 0 6-.6l.2-.1 1-.4.3-.1.9-.4.4-.2.8-.5.4-.3.6-.5.2-.2.2-.2.8-.9.2-.3.6-1 .2-.4.5-1.1.2-.5.4-1.3.2-.6.3-1.6.1-.5.3-2.2v-.1c.1-.9.1-1.8.1-2.8 0-1.7-.1-3.3-.4-4.7l-.1-.4-.3-1.5-.2-.7-.4-1.1-.3-.7-.4-.9-.3-.6-.5-.8-.3-.4-.7-1-1-.9-.2-.1-1.5-.9-.5-.3-1.9-.7-.4-.1-2.2-.4-.4-.1-2.5-.1h-23.3v53h10.2v-21.2zM598.2 325.1v.2-.2zm2.7-5.5zm7.4 38.2zm.4 1.1-.1-.2.1.2zm.5.7-.2-.1.2.1zm-8.4 7.6.1.1-.1-.1zm-1.2-1.6.1.1-.1-.1zm-1.4-4v.2-.2zm-.1-.3.1.7.4 1.5.1.4.7 1.5.3.4 1 1.2.1.1.5.4.2.2.7.5.3.2.7.4.3.1.7.3.3.1.7.2.3.1.8.2h.1c1 .2 1.9.2 2.8.2h1c.2 0 18.6-.7 22.7-1.2v-8.3h-20.6c-1 0-2.1 0-2.9-.5l-.6-.5v-.1l-.4-.6v-.1l-.3-1.9v-8.2l21.6-.7v-8.4l-21.6-.7v-8.2c0-2 0-4 3.8-4H633v-8.4c-4.6-.6-23.3-1.1-23.5-1.2h-.3c-1.1 0-2.4.1-3.7.4l-1 .3c-1.2.4-2.3 1-3.4 1.9l-.2.2-.2.2-.2.2-1 1.3-.2.4-.6 1.3-.2.5-.4 1.7-.1.7-.1 1.7v32.5l.2 1zM670 349h-12.4l6.4-18.9 6 18.9zm-.3-32.3h-11.6l-18 53h11L655 358h17.5l3.8 11.7H687l-17.3-53zM726.5 350.9l-21.1-34.2H695v53h10.3v-33.9l21.2 33.9h10.2v-53h-10.2zM786.5 367.5l-.4-.3.4.3zm-1.9-1.5zm3.7 2.5-.5-.2.5.2zm1.7.6-.4-.1.4.1zm-1.3-18.2zm7.5-34.8c-1.8 0-3.4.2-4.9.5l-.4.1-1.7.4-.9.4-1 .4-.9.5-.8.5-.6.5-.9.7-.2.2c-.8.8-1.6 1.8-2.2 2.8-.7 1.1-1.2 2.4-1.7 3.8l-.1.2-.6 2-.1.6-.4 1.8-.1.7-.3 1.9-.1.6c-.3 2.5-.4 5.2-.4 8.3 0 8.9 1.3 15.4 4 19.8 3 4.8 7.6 7.2 14.1 7.3h2.7c1.2 0 2.3 0 3.3-.1l1.5-.1c1.1-.1 2.1-.2 3.1-.3l1.3-.2c1-.1 1.9-.3 2.9-.5l1-.2 2.3-.6.5-.1v-7.9c-.1 0-8.6.6-16.2.6-4.1 0-6.7-1.4-8.3-4.3-1.4-2.7-2-6.7-2-13.2 0-8 .7-12.5 2.4-14.9 1.6-2.4 4.1-2.8 8-2.8 5.6 0 12.4.6 15.9 1h.2v-8c-5.7-1.7-11.1-2.4-18.4-2.4M854.1 318l.8.3-.8-.3zM857 319.6l.5.4-.5-.4zM822.5 330.5l.4-1.5-.4 1.5zm-.5 3.1.2-1.5-.2 1.5zm-.4 3 .1-1.1-.1 1.1zm1.7-9 .4-1.2-.4 1.2zm1.5-3.4-.3.7.3-.7zm1.2-1.9zm7.7 46.9h-.2.2zm-3.6-1.3-.2-.1.2.1zm1.7.7-.4-.2.4.2zm19.2-10.4-.3.3-.5.4-.3.2-.6.3-.4.2-.4.2-.8.3h-.2c-1.2.3-2.8.5-4.8.5-2.1 0-3.9-.1-5.4-.6h-.1c-1.5-.4-2.7-1.2-3.6-2.5-.6-.9-1-2-1.4-3.4-.6-2.4-.8-5.7-.8-10.6 0-8.3.8-12.8 2.7-15.3 1.9-2.4 4.8-2.6 8.5-2.6 4.3 0 6.9.4 8.6 2.7 1.8 2.4 2.6 6.9 2.6 15.1 0 7.3-.7 11.5-2.4 13.9l-.3.4-.1.5zm10-33.5-.2-.4.2.4zm1.1 2.6-.3-.8.3.8zm1.3 5.9-.1-1 .1 1zm.4 2.9v-.6.6zm-.9-6-.2-1 .2 1zm.4 24.3.1-.4-.1.4zm-.6 2.9.1-.5-.1.5zm-.8 2.5.1-.4-.1.4zm-1 2.2zm-2.9 3.8-.3.2.3-.2.3-.3c.9-.9 1.7-2 2.4-3.3l1-2.1v-.1c1.6-4 2.3-9.4 2.3-16.5 0-6-.5-10.9-1.6-14.7-.2-.9-.5-1.7-.8-2.5l-.1-.2-.9-2-.2-.2c-.7-1.2-1.5-2.3-2.4-3.2l-.7-.6.4.3-1-.8.2.1-.7-.5h.1l-1.1-.7.2.1-.5-.3-.2-.1-1-.4.2.1-1.2-.4h.1l-.2-.1h.1l-1.5-.4c-2.3-.5-4.9-.8-8.7-.8-6.5 0-11.6.7-15.3 4.3l-1.3 1.5v.1l-1.1 1.7-.1.2-1 2.2c-1.7 4.2-2.5 9.8-2.5 17.3 0 4.4.3 8.2.8 11.3l.1.4.6 2.5.2.6.6 1.9.3.7.7 1.5.3.5c.6 1.1 1.4 2.1 2.2 2.9 3.6 3.5 8.6 4.2 15.6 4.2 1.4 0 2.7 0 4-.1l1.2-.1 1.3-.2 2.3-.4.4-.1.3-.1.8-.2.7-.2.7-.3-.4.1c1-.4 1.9-.9 2.7-1.5l-.2.1.2-.2.2-.1 1.2-.9zM852.9 317.5zM855.5 318.7l.8.5-.8-.5zM905.2 318l.7.3-.7-.3zM906.6 318.7l.8.5-.8-.5zM908.1 319.6l.4.4-.4-.4zM904 317.5zM912.1 324.6l-.2-.4.2.4zm1 2.7-.3-.8.3.8zm1.4 6-.2-1.1.2 1.1zm.4 3-.1-.7.1.7zm-.9-6.1-.2-1.1.2 1.1zm.9 20.9zm-.5 3.3.1-.6-.1.6zm-.6 2.9.1-.6-.1.6zm-.8 2.5.1-.4-.1.4zm-1 2.2.1-.1-.1.1zm-38.4-31.5.3-1.4-.3 1.4zm-.5 3 .2-1.4-.2 1.4zm-.4 3 .1-.9-.1.9zm1.7-8.9.4-1.1-.4 1.1zm6.8 40.3-.2-.1.2.1zm1.7.7-.4-.2.4.2zm1.8.6h-.2.2zm17.9-11.8-.3.4-.3.3-.3.3-.5.4-.3.2-.6.3-.4.2-.4.2-.8.3h-.1c-1.2.3-2.8.5-4.8.5-2.1 0-3.9-.1-5.4-.6-1.5-.5-2.7-1.2-3.6-2.5-.6-.9-1-2-1.4-3.4-.6-2.4-.8-5.7-.8-10.6 0-8.3.8-12.8 2.7-15.3 1.9-2.4 4.8-2.6 8.6-2.6 4.3 0 6.9.4 8.6 2.7 1.8 2.4 2.6 7 2.6 15.1-.1 7.6-.8 11.7-2.5 14.1m-26.8-33.2-.3.6.3-.6zm.3-.4-.2.2-1 2.1v.1c-1.7 4.2-2.5 9.8-2.5 17.3 0 4.4.3 8.1.9 11.3l.1.5.5 2.4.2.7.6 1.8.3.7.7 1.5.3.5c.6 1.1 1.3 2 2.2 2.8 3.6 3.5 8.6 4.2 15.6 4.2 1.3 0 2.7-.1 4-.2l1.2-.1 1.3-.2 2.3-.4.4-.1.3-.1.8-.2.7-.2.7-.3-.4.1c1-.4 1.9-.9 2.7-1.5l-.2.1.2-.2.2-.1 1-.9-.3.3.4-.4-.1.1.3-.3c1.4-1.4 2.6-3.2 3.4-5.5 1.6-4 2.3-9.4 2.3-16.5 0-6-.5-10.9-1.6-14.7-.3-.9-.5-1.7-.8-2.5l-.1-.2-.9-2-.2-.3c-.7-1.2-1.5-2.3-2.4-3.2l-.7-.6.4.3-1-.8.2.1-.7-.5h.1l-1.1-.7.2.1-.7-.4-1-.4.2.1-.9-.1h.1l-.2-.1h.1l-1.5-.4c-2.3-.5-4.9-.8-8.7-.8-6.5 0-11.6.7-15.3 4.3l-1.2 1.4-.1.2-1.1 1.7zM949.8 339.6zM954.8 318.3zm6.8 16.8v.3-.3zm-.3 2.7.1-.5-.1.5zm-.3 2 .1-.4-.1.4zm-.5 1.8.1-.3-.1.3zm-.6 1.6.1-.2-.1.2zm-.8 1.5.1-.1-.1.1zm-.9 1.3.1-.2-.1.2zm-.9 1-.2.1.2-.1zm-1.2 1 .2-.1-.2.1zm-2.2 1.2zm1.1-.5.1-.1-.1.1zm-8.4-23h.5-.5zm1.1.2.4.1-.4-.1zm.9.4.3.2-.3-.2zm.9.7.2.3-.2-.3zm.7.9.1.3-.1-.3zm.6 1.3.1.2-.1-.2zm.4 1.7v.2-.2zm-4 10.2h-.4.4zm1.1-.3-.5.2.5-.2zm.9-.6-.4.3.4-.3zm1.8-3-.3 1-.1.4v-.1l-.1.2v-.1l-.1.2-.1.2-.5.7.2-.2-.3.3v-.1c-.5.6-1.2 1-2.1 1.3l-1.5.2h-11.9v-15.5H946l1.2.1h.1l.9.3.2.1.7.4.2.2.5.5.3.4.4.6.2.5.2.8.1.7.2.9v.7l.1 1.1v.6l-.1 1.2v.6l-.2 1.3v.5-.1.1zm-16.9 11.5c.6.2 9.9 1.3 12.7 1.4h1.2c2.4 0 5-.3 7.4-1.7h.1l1-.7.2-.2.7-.6.2-.2.3-.3.7-.9.2-.4.6-1 .2-.5.5-1.1.2-.6.4-1.2.2-.7.3-1.5.1-.6.2-2.1v-.2c.1-.9.1-1.8.1-2.8 0-1.7-.1-3.3-.4-4.7l-.1-.5-.3-1.4-.2-.7-.3-1.1-.3-.7-.4-.9-.4-.6-.5-.8-.4-.4-.6-.7-.1-.1-.9-.8-.2-.1-1.5-1-.4-.2-1.9-.7-.4-.1-2.2-.4-.5-.1-2.5-.1h-23.3v53H934l.1-21zM971 325.2v.2-.2zm2.7-5.6zm7.4 38.2zm.4 1.1-.1-.2.1.2zm.5.7-.2-.1.2.1zm-8.3 7.6.1.1-.1-.1zm-1.3-1.6.1.1-.1-.1zm-1.4-4v.2-.2zm0-.3.1.7.4 1.4.1.4.7 1.4.3.5 1 1.2.1.1.5.4.2.2.7.5.3.2.7.4.3.1.7.3.3.1.7.2.3.1.8.2h.1c1 .1 1.9.2 2.8.2h1c.2 0 18.6-.7 22.7-1.2v-8.4h-20.5c-1 0-2.1 0-2.9-.5l-.6-.5v-.1l-.4-.6v-.1l-.3-2v-8.2l21.5-.7v-8.4l-21.6-.7v-8.2c0-2 0-4 3.8-4h21.1v-8.4c-4.6-.6-23.3-1.2-23.5-1.2h-.3c-1.1 0-2.4.1-3.7.4l-1 .3c-1.2.4-2.4 1-3.4 1.9l-.2.2-.2.2-.2.2-1 1.3-.2.4-.6 1.3-.2.5-.4 1.7-.1.7-.1 1.7V360l.2 1.3zM1043.5 317.6zm-3.8 22.4zm.8-.7zm-1.7-13.2 1.5 1.1c1 1.2 1.4 3.2 1.4 6 0 6.3-1.7 7.4-5.2 7.4h-12.1v-15h12.1c.9.1 1.7.2 2.3.5zm-14.4 22.5 8.9 1 8.8 20.1h11.5l-10.1-20.8h.1c1.5-.5 3.6-1.1 5.3-3.3l.5-.8v-.1l.5-.8.1-.3.4-.9.2-.4.3-1 .1-.4.3-1.2.1-.4.2-1.6v-.1c.2-1.3.3-2.8.3-4.4 0-2.3-.2-4.4-.6-6.2l-.1-.4-.4-1.2-.2-.5-.4-1-.2-.4-.5-1v-.1l-1.7-2.2-.2-.1-1.5-1.2-.4-.3-1.9-.9-.5-.2-2.3-.5-.5-.1c-.9-.1-1.8-.2-2.8-.2h-23.6v53h10.2l.1-21.1zM1089.6 349h-12.4l6.4-18.9 6 18.9zm6.2 20.7h10.9l-17.3-53h-11.6l-18 53h11l3.9-11.7h17.5l3.6 11.7zM1119.9 369.7h10.3V326h14.8v-9.3h-39.5v9.3h14.4zM1153.5 316.7h10.2v53h-10.2zM1207.3 318.7l.8.5-.8-.5zM1204.6 317.5zM1212.7 324.6l-.2-.4.2.4zm1.1 2.6-.2-.7.2.7zm1.4 5.9-.1-1 .1 1zm.4 3v-.6.6zm-1-6-.2-1 .2 1zm.5 24.3.1-.4-.1.4zm-.6 2.9.1-.5-.1.5zm-.8 2.5.1-.4-.1.4zm-1 2.2zm-38.4-31.5.3-1.5-.3 1.5zm-.6 3.1.2-1.5-.2 1.5zm-.3 3 .1-1-.1 1zm1.7-9 .4-1.1-.4 1.1zm1.4-3.4-.3.7.3-.7zm5.4 43.7-.2-.1.2.1zm1.7.7-.4-.2.4.2zm1.8.6h-.2.2zm17.9-11.8-.3.4-.3.4-.3.3-.5.4-.3.2-.6.3-.4.2-.4.2-.8.3h-.2c-1.2.3-2.8.5-4.8.5-2.1 0-3.9-.1-5.4-.6h-.1c-1.5-.4-2.7-1.2-3.6-2.5-.6-.9-1-1.9-1.4-3.3v-.1c-.6-2.4-.8-5.7-.8-10.6 0-8.3.8-12.8 2.7-15.3 1.9-2.4 4.8-2.6 8.5-2.6 4.3 0 6.9.4 8.6 2.7 1.8 2.4 2.6 6.9 2.6 15.1.2 7.5-.5 11.6-2.2 14m-25.6-35.1zm-1 1.5-.1.2-1 2.2c-1.7 4.2-2.5 9.8-2.5 17.3 0 4.4.3 8.2.9 11.3l.1.4.5 2.5.2.7.6 1.8.3.7.7 1.5.3.5c.6 1.1 1.4 2.1 2.2 2.9 3.6 3.5 8.6 4.2 15.6 4.2 1.3 0 2.7 0 4-.1l1.2-.1 1.3-.2 2.3-.4.4-.1.3-.1.8-.2.7-.2.7-.3-.4.1c1-.4 1.9-.9 2.7-1.5l-.2.1.2-.2.2-.1 1-.9-.3.2.4-.3-.1.1.3-.3c.9-.9 1.7-2 2.4-3.3l1-2.1v-.1c1.6-4 2.3-9.4 2.3-16.5 0-6-.5-10.9-1.6-14.7v-.1l-.8-2.5-.1-.3-.9-1.9-.2-.3-1-1.6-1.3-1.5-.7-.6.4.3-1-.8.2.1-.7-.5.1.1-1.1-.7.2.1-.5-.3-.2-.1-1-.4.2.1-1.2-.4h.1l-.2-.1h.1l-1.5-.4c-2.3-.5-4.9-.8-8.7-.8-6.5 0-11.6.7-15.3 4.3l-1.3 1.5-.1.1-.9 1.7zM1205.8 318l.7.3-.7-.3zM1208.8 319.6l.4.4-.4-.4zM1235.6 335.8l21.2 33.9h10.2v-53h-10.2v34.2l-21.1-34.2h-10.4v53h10.3zM360 403.1h10.2v53.2H360zM411.7 437.4 390.6 403h-10.4v53.3h10.3v-34l21.2 34H422V403h-10.3zM477.4 455.4zm-20.1-20.6-.4-.1.4.1zm-2.1-.5.4.1-.4-.1zm-1.6-.6.3.1-.3-.1zm-1.4-.8.3.2-.3-.2zm-1.1-.9.2.1-.2-.1zm-1.1-1zm-.6-23.5-.1.1.1-.1zm11.8 4.6h.3-.3zm-1.3.3.4-.1-.4.1zm-1 .5.4-.2-.4.2zm-.6.5.1-.1-.1.1zm-.6 1 .1-.2-.1.2zm-.3 1.2v-.1.1zm17.4 9.6h-.2.2zM448 410.4l.2-.5-.2.5zm-.4 1.3.1-.4-.1.4zm.9-2.6.2-.4-.2.4zm27.7 16.5-.2-.1.2.1zm1.4.5-.3-.1.3.1zm1.2.7-.2-.1.2.1zm1.1.8zm.2.3-1-.8-.2-.1-1-.6-.2-.1-1.2-.5-.2-.1-1.4-.4h-.1c-1.1-.2-2.3-.4-3.5-.4H463c-1.3 0-2.4-.1-3.3-.4l-.3-.1-.6-.4-.2-.1c-.9-.7-1.4-2-1.4-4.2v-4l.1-.6.2-.6.2-.5.3-.4.3-.4.2-.2.7-.5.3-.1.8-.3h.3l1-.1H464.2c2.6 0 13.2.3 17.9.7v-8c-4.4-1.3-11.8-2-17.7-2.1H461.1c-.9 0-1.8.1-2.6.2l-.6.1-2.2.4-.6.2-1.9.7-.4.2-1.5 1-.2.1c-2.8 2.3-4.2 5.8-4.2 10.8v4.6c0 2.4.2 5.8 2.1 8.8l.6.8.2.3.7.7.3.4.8.6.4.3.9.5.4.2 1.1.5.4.2 1.4.4.3.1c1.3.3 2.7.4 4.2.4h8.2c4 0 4.8 2 4.8 5v2.8l-.1 1.1v.2l-.3.8-.1.3-.6.7-.1.1-.9.6c-1.3.7-3.1.8-4.4.8-6.9 0-15.8-.5-18.6-.8v8c5.4 1.6 11.2 2.2 20.7 2.2h.4l2.5-.1.6-.1 2.1-.4.5-.1 1.9-.7.5-.2 1.5-.9.2-.1 1.6-1.6.3-.3.5-.7.3-.5.4-.8.3-.6.3-.9.2-.6.3-1.3.1-.4c.2-1.2.3-2.6.3-4V439c0-2.6-.4-6.3-2.4-9.3l-1.6-1.8zM498.8 454.1l-.4-.3.4.3zm-1.9-1.5zm3.7 2.5-.5-.2.5.2zm1.6.6-.4-.1.4.1zm6.3-53.2c-1.8 0-3.4.2-4.9.5l-.3.1-1.7.5-.8.3-1.1.4-.9.5-.8.5-.6.5-.9.7-.2.2c-.8.8-1.6 1.8-2.2 2.8-.7 1.1-1.2 2.4-1.7 3.9v.2l-.6 2-.1.5-.4 1.8-.1.7-.3 1.9-.1.6c-.3 2.5-.4 5.2-.4 8.3 0 8.9 1.3 15.4 4 19.9 3 4.9 7.6 7.3 14.2 7.3h2.6c1.2 0 2.3 0 3.4-.1l1.5-.1c1.1-.1 2.1-.2 3.1-.3l1.3-.2c1-.1 2-.3 2.9-.5l1-.2 2.4-.6.5-.1v-7.9c-.1 0-8.6.6-16.2.6-4.1 0-6.8-1.4-8.3-4.4-1.4-2.7-2-6.8-2-13.3 0-8 .7-12.5 2.4-15 1.6-2.4 4.2-2.8 8-2.8 5.7 0 12.4.6 16 1h.2v-8c-6.2-1.5-11.6-2.2-18.9-2.2M535.8 403.1H546v53.2h-10.2zM565.9 445.5l-.1-.2.1.2zm.5.6-.1-.1.1.1zm-8.4 7.6.2.2-.2-.2zm-1.3-1.5.1.1-.1-.1zm-1.4-4.1v.2-.2zm.1-36.5v.2-.2zm2.6-5.6zm8.8-2.9h-.3c-1.1 0-2.4.1-3.7.4l-1 .3c-1.2.4-2.4 1-3.4 1.9l-.2.2-.2.2-.2.2-1 1.3-.2.4-.6 1.3-.2.5-.4 1.7-.1.7-.1 1.6v32.6l.1 1.6.1.8.4 1.4.2.5.7 1.4.3.5 1 1.2.1.1.5.4.2.2.7.5.3.2.7.4.3.1.7.3.4.1.7.2.3.1.8.2h.2c1 .1 1.9.2 2.8.2h1c.2 0 18.7-.7 22.8-1.2v-8.4H570c-1.1 0-2.1 0-3-.5l-.6-.5v-.1l-.4-.6v-.1l-.3-1.9v-8.3l21.6-.7V426l-21.6-.7V417c0-2 0-4.1 3.8-4.1h21.1v-8.5c-4.9-.8-23.6-1.3-23.8-1.3M629 437.4 607.9 403h-10.4v53.3h10.3v-34l21.2 34h10.3V403H629zM658.3 455.7l-.4-.1.4.1zm-3.5-1.7-.4-.2.4.2zm1.8 1-.5-.2.5.2zm7.9-52.5c-1.8 0-3.4.2-4.9.5l-.3.1-1.7.5-.8.3-1.1.4-.9.5-.8.5-.7.5-.9.7-.3.3c-.8.8-1.5 1.7-2.2 2.8-.7 1.1-1.2 2.4-1.7 3.8l-.1.3-.5 1.9-.1.7-.4 1.7-.1.9-.3 1.7-.1.8-.2 2.1v.2c-.1 1.8-.2 3.8-.2 5.9 0 8.9 1.3 15.4 4 19.9 3 4.9 7.6 7.3 14.2 7.3h2.6c1.2 0 2.3 0 3.4-.1l1.5-.1c1.1-.1 2.1-.2 3.1-.3l1.3-.2c1-.1 2-.3 2.9-.5l1-.2 2.4-.6.5-.1v-7.9c-.1 0-8.6.6-16.2.6-4.1 0-6.8-1.4-8.3-4.4-1.4-2.7-2-6.8-2-13.3 0-8 .7-12.5 2.4-15 1.6-2.4 4.2-2.8 8-2.8 5.7 0 12.4.6 16 1h.2v-8c-5.9-1.7-11.3-2.4-18.7-2.4M700.3 444.4zm.4 1.1-.1-.2.1.2zm.5.6-.1-.1.1.1zm-8.4 7.6.2.2-.2-.2zm-1.3-1.5.1.1-.1-.1zm-1.4-4.1v.3-.3zm0-36.6v.2-.2zm2.7-5.5zm8.7-2.9h-.3c-1.1 0-2.4.1-3.7.4l-1 .3c-1.2.4-2.4 1-3.4 1.9l-.2.2-.2.2-.2.2-1 1.3-.2.4-.6 1.3-.2.5-.4 1.7-.1.7-.1 1.6v32.7l.1 1.5.1.8.4 1.4.2.5.7 1.4.3.5 1 1.2.1.1.5.4.2.1.7.5.3.1.7.4.3.1.7.3.3.1.7.2.3.1.8.2h.2c1 .1 1.9.2 2.8.2h1c.2 0 18.7-.7 22.8-1.2V447h-20.6c-1 0-2.1 0-2.9-.5l-.6-.5v-.1l-.4-.7v-.1l-.3-2v-8.3l21.6-.7v-8.5l-21.6-.7v-8.3c0-2 0-4.1 3.8-4.1h21.1V404c-4.8-.4-23.5-.9-23.7-.9M777.4 454.8zm-2.3 1.1.2-.1-.2.1zm-2.4.5h.2-.2zm-4.6.1zm-1.8-.3.3.1-.3-.1zm-1.5-.5.3.1-.3-.1zm-1.5-.6.3.1-.3-.1zm-1.3-.7.2.1-.2-.1zm-1.3-.9.2.2-.2-.2zm-1.1-1 .2.2-.2-.2zm1.9-34.1zm-.6-1.1-.1-.3.1.3zm-.6-1.7.1.4-.1-.4zm-.3-1.3.1.4-.1-.4zm-.1-1.4v.4-.4zm.1-1.3v.4-.4zm.3-1.2-.1.3.1-.3zm.4-1.2v.1-.1zm.6-1.2-.1.1.1-.1zm.7-1zm.8-1zm.9-.8zm9.1 7.4.2-.1-.2.1zm-.9.6.2-.2-.2.2zm-.4.9.1-.4-.1.4zm0 1-.1-.4.1.4zm.4 1.1-.1-.2.1.2zm1.7 30.3-.1.1.1-.1zm-1.1.5zm-2.2.1-.5-.1.5.1zm-1.2-.3-.5-.2.5.2zm-1.1-.6-.4-.3.4.3zm-1.1-.8-.4-.4.4.4zm-1.8-7.2.1-.1-.1.1zm8.7 8.2-.5.3-.6.3-.5.2-.6.1-.5.1-.5-.1-.9-.2-.3-.1-1-.4-.2-.1-1-.7-.1-.1-1-1-1.2-2.1-.1-.2-.2-.8v-.1l-.1-.9c.1-1.6 1-3.2 2.8-4.8l3.8-3.3 7.4 9.7-3.7 3.6-.3.3-.7.3zm4.6-43.5zm15.7 36.9 4.4-7.8-3.6-4.3-8.8 8.3-12.3-16.8c-1-1.3-1.6-2.4-2-3.4l-.1-.3-.2-.9v-.3l.1-.6.2-.3.3-.4.3-.2.7-.3c.8-.2 1.8-.4 3.1-.4h12v-7.4c-5.1-1.2-11.5-2.7-20.2-1.5-1.5.2-2.9.8-4.1 1.8l-.8.7-.1.1-.7.8-.1.2-.6.8-.1.2-.5.9-.1.2-.2.3-.2.6-.1.3-.3 1v.2l-.1 1.1v1.5l.2 1.2v.2l.4 1.2.1.2c.4 1 .9 1.9 1.6 2.9l3.7 5.4-5 4.4c-3.2 2.7-5.3 6.2-5.9 9.8-.7 3.8.2 7.7 2.7 11.1.7.9 1.4 1.8 2.2 2.6l.2.2 1 .8.3.2 1 .6.3.2 1.1.5.3.1 1.1.4.3.1 1.2.3.4.1.7.1h.4l1 .1h1l1.9-.1.8-.1 1.8-.4.7-.2 1.7-.7.5-.3 1.4-1 .2-.1 4.7-4.2 5.2 7h12l-9.9-13.3 2.8-3.4zM815.6 412.5h14.5v43.8h10.3v-43.8h14.8v-9.4h-39.6zM870.9 445.5l-.1-.1.1.1zm.5.6-.1-.1.1.1zm-8.4 7.6zm-1.2-1.5.1.1-.1-.1zm-1.4-4v.2-.2zm0-36.6v.1-.1zm2.7-5.6zm8.7-2.9h-.3c-1.1 0-2.4.1-3.7.4l-1 .3h-.1c-1.2.4-2.3 1-3.3 1.8l-.3.2-.2.2-.2.2-1 1.3-.2.3-.6 1.3-.2.5-.4 1.7-.1.7-.1 1.7v32.6l.1 1.6.1.7.4 1.5.1.5.7 1.4.3.5 1 1.2.1.1.5.4.2.2.7.5.3.2.7.4.3.1.7.3.4.1.7.2.3.1.8.2h.2c1 .1 1.9.2 2.8.2h1c.2 0 18.7-.7 22.8-1.2v-8.4h-20.6c-1 0-2.1 0-2.9-.5l-.6-.5v-.1l-.4-.6v-.1l-.3-1.9v-8.3l21.6-.7v-8.5l-21.6-.7v-8.3c0-2 0-4.1 3.8-4.1h21.1v-8.5c-4.7-.7-23.4-1.2-23.6-1.2M909.7 454.1l-.5-.3.5.3zm-2-1.5.1.1-.1-.1zm3.8 2.5-.6-.3.6.3zm1.7.7-.4-.1.4.1zm6.1-53.3c-1.8 0-3.4.2-4.9.5l-.3.1-1.7.5-.8.3-1.1.4-.9.5-.8.5-.6.5-.9.7-.3.3c-.8.8-1.5 1.7-2.2 2.8-.7 1.1-1.2 2.4-1.7 3.8l-.1.3-.5 1.9-.1.7-.3 1.7-.1.9-.2 1.8-.1.8-.2 2.1v.1c-.1 1.8-.2 3.8-.2 5.9 0 8.9 1.3 15.4 4 19.9 3 4.9 7.6 7.3 14.2 7.3h2.6c1.2 0 2.3 0 3.4-.1l1.5-.1c1.1-.1 2.1-.2 3.1-.3l1.3-.2c1-.1 2-.3 2.9-.5l1-.2 2.4-.6.5-.1v-7.9c-.1 0-8.6.6-16.2.6-4.1 0-6.8-1.4-8.3-4.4-1.4-2.7-2-6.8-2-13.3 0-8 .7-12.5 2.4-15 1.6-2.4 4.1-2.8 8-2.8 5.6 0 12.4.6 16 1h.2v-8c-6.2-1.7-11.6-2.4-19-2.4M973.5 425.9h-18.3v-22.8h-10.3v53.2h10.3v-21.1h18.3v21.1h10.2v-53.2h-10.2zM1023.6 437.4l-21.1-34.4h-10.4v53.3h10.3v-34l21.3 34h10.2V403h-10.3zM1077.3 406l.4.4-.4-.4zM1081.2 448.6zm-8.2-44.8.3.1-.3-.1zm-19.1 52zm-3.6-1.3-.2-.1.2.1zm1.8.7-.3-.1.3.1zm.3-51.1zm18.9 40.6-.3.3-.5.4-.3.2-.6.3-.4.2-.4.2-.8.3h-.2c-1.2.3-2.8.5-4.8.5-1.6 0-3-.1-4.2-.3l-1.1-.3h-.1c-1.5-.4-2.7-1.2-3.6-2.5-1.6-2.3-2.2-6.3-2.2-14 0-8.3.8-12.9 2.7-15.3 1.9-2.4 4.9-2.6 8.6-2.6 4.3 0 6.9.4 8.7 2.8 1.8 2.4 2.6 7 2.6 15.2 0 7.4-.7 11.5-2.4 13.9l-.3.4-.4.3zm10-33.6-.2-.5.2.5zm1.1 2.6-.3-.8.3.8zm1.4 6-.2-1.1.2 1.1zm.4 3.1-.1-.7.1.7zm-1-6.2-.2-1.1.2 1.1zm.5 24.3.1-.5-.1.5zm-.7 2.9.1-.6-.1.6zm-.8 2.6.1-.4-.1.4zm2.3-16.4c0-6.1-.5-10.9-1.6-14.8-.2-.9-.5-1.8-.8-2.6l-.1-.2-.9-2-.1-.2c-.7-1.2-1.5-2.3-2.4-3.2l-.7-.6.4.4-1.1-.9.2.1-.7-.5.1.1-1.2-.7.2.1-.7-.4-1-.4.3.1c-.8-.4-1.7-.7-2.7-.9-2.3-.5-4.9-.8-8.7-.8-6.5 0-11.6.7-15.3 4.3-1 .9-1.8 2.1-2.5 3.3l-.1.1c-2.4 4.3-3.6 10.7-3.6 19.6 0 4.4.3 8.2.9 11.4l.1.4.6 2.5.2.7.6 1.8.3.7.7 1.5.3.5c.6 1.1 1.4 2.1 2.2 2.9 3.6 3.5 8.7 4.2 15.7 4.2 1.4 0 2.7-.1 4-.2l1.2-.1 1.3-.2 2.3-.4.5-.1.3-.1.8-.2.7-.2.7-.3-.4.1c1-.4 1.9-.9 2.8-1.5l-.2.1.2-.2.2-.1 1-.8-.3.2.4-.3-.1.1.4-.3c1.4-1.4 2.6-3.2 3.4-5.5 1.4-3.9 2.2-9.3 2.2-16.5M1074.4 404.4l.7.3-.7-.3zM1075.8 405l.8.5-.8-.5zM1102.4 444.4zm.4 1.1-.1-.2.1.2zm.5.6-.1-.1.1.1zm3.3.8c-1 0-2.1 0-2.9-.5l-.6-.5v-.1l-.4-.7v-.1l-.3-2v-40.1H1092V446.1l.2 2.1v.4l.5 1.9.1.3.9 1.6.2.2 1.3 1.3.1.1.2.1 1.1.7.4.2 1.4.5.5.1 1.6.3.5.1 1.7.1h22.4v-9.4h-18.5v.2zM1131.2 414.1l.4-1.3-.4 1.3zm-.8 2.9.4-1.6-.4 1.6zm-.6 3.1.2-1.6-.2 1.6zm-.4 3 .1-1.2-.1 1.2zm2.8-11.7.4-.8-.4.8zm1.6-2.7-.1.2.1-.2zm26.8-4.9.3.1-.3-.1zm-19.1 52zm-3.6-1.3-.2-.1.2.1zm1.8.7-.4-.1.4.1zm.3-51.1zm18.9 40.6-.3.3-.5.4-.3.2-.6.4-.4.2-.4.2-.8.3h-.2c-1.2.3-2.8.5-4.8.5-1.6 0-3-.1-4.2-.3l-1.1-.3h-.1c-1.5-.4-2.7-1.2-3.6-2.5-.6-.9-1.1-2-1.4-3.4-.6-2.4-.8-5.8-.8-10.6 0-8.3.8-12.9 2.7-15.3s4.9-2.6 8.6-2.6c4.3 0 6.9.4 8.7 2.8 1.8 2.4 2.6 7 2.6 15.2 0 7.4-.7 11.5-2.4 13.9l-.3.4-.4.2zm10-33.7-.2-.4.2.4zm1.1 2.6-.2-.7.2.7zm1.4 5.9-.1-1 .1 1zm.3 3v-.5.5zm-.9-6-.2-.9.2.9zm.5 24.4v-.3.3zm-.7 2.9.1-.4-.1.4zm-.8 2.6.1-.3-.1.3zm-1 2.2zm.9-1.9.1-.1c.3-.8.6-1.6.8-2.5 1-3.7 1.5-8.3 1.5-14.1 0-6.1-.5-10.9-1.6-14.8v-.1c-.3-.9-.5-1.7-.8-2.5l-.1-.3-.9-2-.2-.3c-.7-1.2-1.5-2.3-2.4-3.2l-.7-.6.4.4-1-.9.2.1-.7-.5.1.1-1.2-.7.2.1-.7-.4-1-.4.3.1c-.8-.4-1.7-.7-2.7-.9-2.3-.5-4.9-.8-8.7-.8-6.5 0-11.6.7-15.3 4.3-1 .9-1.8 2.1-2.5 3.4-2.4 4.3-3.6 10.7-3.6 19.6 0 4.4.3 8.2.9 11.4l.1.4.6 2.5.2.6.6 1.9.3.7.7 1.5.3.5c.6 1.1 1.4 2.1 2.2 2.9 3.6 3.5 8.7 4.2 15.7 4.2 1.4 0 2.7-.1 4-.2l1.2-.1 1.3-.2 2.3-.4.4-.1.3-.1.8-.2.7-.3.7-.3-.4.1c1-.4 1.9-.9 2.8-1.5l-.2.1.2-.2.2-.1 1-.9-.3.2.4-.3-.1.1.3-.3c.9-.9 1.7-2 2.4-3.3l.1-.1.8-1.5zM1164.9 406l.4.4-.4-.4zM1163.4 405l.8.5-.8-.5zM1162 404.4l.7.3-.7-.3zM1193.9 456.6h1.1-1.1zm-3.1-.2.7.1-.7-.1zm-2.5-.7.4.1-.4-.1zm-2.6-1.2.2.2-.2-.2zm-7.6-31.4zm.3-3.2-.1.7.1-.7zm.4-2.6-.2 1 .2-1zm.6-2.4-.3 1 .3-1zm.6-1.9-.3.9.3-.9zm.5-1.5-.2.3.2-.3zm3.1-4.7zm1.6-1.4-.2.1.2-.1zm1.8-1.1-.3.1.3-.1zm1.9-.8-.3.1.3-.1zm1.9-.6zm18.1 23.2h1.9-1.9zm-3.6.3 2.1-.2-2.1.2zm-3.3.5 2.2-.4-2.2.4zm-2.8.8 2.2-.7-2.2.7zm12.5-1.7c-5.8 0-9.8.6-12.7 1.8v6.5h7.4v9.5s-4.1 3.3-9 3.3h-.2c-4 0-6.1-1.1-7.4-3.6-1.2-2.5-1.7-6.5-1.7-13.9 0-7.3.5-11.4 1.8-13.9 1.4-2.8 3.8-4.1 7.8-4.1 6.8 0 14.2.8 17 1.1l1.1.1v-7.9c-7.4-1.8-12-2.3-20.5-2.3-1.8 0-3.4.2-4.9.5h-.1l-1.9.6-.3.1-1.5.7-.4.2-1.3.8-.3.3-1.1 1-.2.2c-.8.9-1.5 1.9-2.1 3-2.3 4.3-3.3 10.2-3.3 19.3 0 5.4.3 11.1 1.7 15.9v-.1c.7 2.6 1.8 4.8 3.3 6.7l-.4-.5.7.8.2.2.2.2-.1-.1.6.6-.2-.1-.3-.3.3.4.4.3 1.2.9.7.5 2 .9 1.1.3 1.3.3 1.3.2 1.5.1.9.1h1c6.1-.2 9-1.7 11.3-3.9l2.8 3.6h7.3v-30.1c-1.8-.2-3.5-.2-5-.2M1179.6 445.3l.5 1.5-.5-1.5zM1255.9 403.1l-11.5 25.5-10.4-25.5h-11.1l16.3 36.7v16.5h10.2v-16.5l17.6-36.7zM360 99.6V233c0 9.5 7.7 17.1 17.2 17.1h184v-33.6H393.6V116h167.7V82.5h-184c-9.6 0-17.3 7.7-17.3 17.1M1265.3 116V82.5h-167.6V15.4h-33.5V233c0 9.5 7.7 17.2 17.2 17.2h184v-33.6h-167.6V116h167.5zM829.4 99.6v66.3c0 9.5 7.7 17.2 17.1 17.2H997v33.5H829.4v33.6h184.1c9.5 0 17.1-7.7 17.1-17.1v-66.3c0-9.5-7.7-17.2-17.1-17.2H862.9v-33.5h167.7V82.5h-184c-9.5 0-17.2 7.7-17.2 17.1M762.4 216.6H628.3V116h134.1v100.6zm16.4-134.1H611.9c-9.5 0-17.2 7.7-17.2 17.2v133.4c0 9.5 7.7 17.2 17.2 17.2h166.9c9.5 0 17.2-7.7 17.2-17.2V99.6c-.1-9.4-7.8-17.1-17.2-17.1M292.6 212.6l-134.2 67.3-100.5-50.3v-62.3l-32.9 20v52c0 3.2.9 6.3 2.5 9 1.7 2.7 4 4.9 6.9 6.3l116.3 58.8c2.4 1.2 5.1 1.8 7.7 1.8 2.6 0 5.3-.6 7.7-1.8L283.2 255c2.9-1.4 5.3-3.6 6.9-6.3 1.7-2.7 2.6-5.8 2.6-9l-.1-27.1zM290.1 84.3c-1.7-2.7-4-4.9-6.9-6.3L166.9 19.3c-4.8-2.4-10.6-2.4-15.4 0l-117 58.4c-2.9 1.4-5.3 3.6-6.9 6.3-1.7 2.7-2.6 5.9-2.6 9v26.9l134.2-67.3L259.7 103v62.3l32.9-20.1v-52c0-3-.8-6.1-2.5-8.9"/></svg>
