<svg xmlns="http://www.w3.org/2000/svg" xmlns:xlink="http://www.w3.org/1999/xlink" width="527" height="187" viewBox="0 0 527 187">
  <defs>
    <polygon id="path-1" points="0 0 62.264 0 62.264 22.781 0 22.781"/>
    <polygon id="path-3" points="0 0 36.307 0 36.307 22.781 0 22.781"/>
    <polygon id="path-5" points="0 0 32.965 0 32.965 22.781 0 22.781"/>
    <polygon id="path-7" points="0 0 113.615 0 113.615 126.408 0 126.408"/>
  </defs>
  <g fill="none" fill-rule="evenodd" class="logo-cost">
    <path fill="#3a3b3b" d="M157.088 149.975v-3.504h-8.717c-.431 0-.87-.006-1.212-.196a.985.985 0 0 1-.259-.207c-.01-.01-.016-.024-.025-.035a1.088 1.088 0 0 1-.163-.261c-.009-.018-.013-.043-.021-.063a2.247 2.247 0 0 1-.132-.814v-3.46l9.135-.273h.005v-3.534l-9.14-.305v-3.459c0-.834 0-1.698 1.602-1.698h8.927v-3.533l-.004-.001c-1.954-.271-9.863-.485-9.943-.487l-.115-.001a6.91 6.91 0 0 0-1.547.172l-.007.001a5.213 5.213 0 0 0-.41.113l-.012.004a4.136 4.136 0 0 0-1.427.778c-.034.029-.069.056-.102.086-.027.025-.057.045-.084.071-.027.027-.045.062-.072.09-.154.16-.3.332-.427.53-.03.046-.054.098-.082.147a3.99 3.99 0 0 0-.265.549c-.025.065-.054.126-.076.192a5.045 5.045 0 0 0-.224 1.02 6.89 6.89 0 0 0-.051.7c-.001.059-.012.111-.012.172v13.25c0 .07.012.128.014.196a6.401 6.401 0 0 0 .1.984c.041.216.092.42.154.609.02.06.036.124.058.182.084.223.186.421.298.608a3.378 3.378 0 0 0 .536.692c.015.015.026.035.042.05.068.065.144.119.217.177.028.024.056.048.085.07.094.071.191.134.29.194.037.023.073.046.11.067a4.256 4.256 0 0 0 .722.323 5.48 5.48 0 0 0 .916.23l.06.009a7.932 7.932 0 0 0 1.62.082c.079-.003 7.894-.278 9.634-.516l.004-.001z" class="fill-1"/>
    <path fill="#3a3b3b" d="M173.814 140.67c0 2.826-.446 4.355-1.329 5.153l-.047.037a2.422 2.422 0 0 1-.258.198c-.036.024-.075.042-.111.064-.075.044-.15.089-.23.127-.044.02-.092.036-.138.055-.08.032-.159.066-.243.093-.032.01-.066.017-.099.026-.504.145-1.082.2-1.739.2-1.523 0-2.684-.182-3.404-1.074-.685-.846-.976-2.305-.976-4.879v-12.525h-4.333v12.525c0 .201.01.383.014.576.003.166.006.332.012.493a22.926 22.926 0 0 0 .096 1.527c.018.177.039.347.06.517a17.782 17.782 0 0 0 .184 1.151c.043.217.09.426.14.626.028.111.055.223.085.33a9.566 9.566 0 0 0 .333.979c.09.225.185.437.287.635.037.071.076.14.115.209.109.195.222.38.342.549.042.059.087.114.131.171.127.165.258.321.396.461.016.016.029.037.045.052.031.031.066.053.098.083.149.139.301.269.46.384.054.039.11.074.165.11.159.105.32.202.487.286.062.032.126.06.19.089a5.269 5.269 0 0 0 .728.273 7.316 7.316 0 0 0 1.219.257c.828.11 1.69.125 2.548.125l.288-.001h.29c.754 0 1.586-.006 2.424-.102l.207-.025c.136-.019.272-.04.407-.064a8.038 8.038 0 0 0 .673-.148 6.597 6.597 0 0 0 .711-.233 5.98 5.98 0 0 0 .704-.335 5.56 5.56 0 0 0 .435-.275c.039-.028.081-.047.12-.076.029-.022.053-.05.082-.073a5.16 5.16 0 0 0 .536-.477c.049-.05.095-.104.142-.156a5.654 5.654 0 0 0 .574-.755c.125-.193.243-.4.354-.622a8.264 8.264 0 0 0 .409-.966 11.366 11.366 0 0 0 .42-1.539 15.155 15.155 0 0 0 .21-1.341c.035-.301.065-.612.087-.939.013-.179.02-.366.029-.552.012-.267.019-.543.023-.827.002-.128.011-.245.011-.377v-12.525h-4.364v12.525z" class="fill-2"/>
    <path fill="#3a3b3b" d="M192.724 132.128a1.6 1.6 0 0 1 .304.182c.038.03.073.067.109.102.067.063.133.129.191.206.045.06.084.131.124.201.04.07.081.138.115.217.039.089.07.194.102.297.026.085.055.164.076.257.023.097.036.213.054.322.019.126.043.245.055.384.001.019.001.043.003.062.017.225.028.462.028.722 0 2.657-.716 3.124-2.219 3.124h-5.12v-6.282h5.12c.387 0 .716.057.995.173.022.009.041.023.063.033zm-6.209 9.43l3.788.421 3.736 8.419.002.003h4.889l-4.292-8.754.037-.012c.646-.201 1.531-.477 2.265-1.386.077-.094.146-.201.215-.305l.033-.046c.069-.107.133-.223.195-.34.023-.043.047-.084.069-.128.056-.114.108-.234.158-.357.024-.059.049-.117.072-.178.048-.127.091-.261.132-.397.021-.067.042-.133.061-.204a7.66 7.66 0 0 0 .113-.474c.014-.063.028-.124.04-.19.039-.201.071-.412.1-.629l.014-.104c.068-.559.106-1.162.106-1.817 0-.654-.043-1.261-.124-1.824l-.003-.016a9.5 9.5 0 0 0-.139-.749c-.017-.075-.039-.142-.057-.214a8.367 8.367 0 0 0-.138-.492c-.028-.084-.061-.159-.091-.239-.052-.138-.102-.278-.161-.408-.028-.062-.062-.118-.092-.178-.069-.139-.137-.278-.215-.406l-.032-.046a4.648 4.648 0 0 0-.706-.892c-.022-.021-.05-.034-.072-.055a4.579 4.579 0 0 0-.665-.509c-.056-.035-.109-.076-.167-.109a5.125 5.125 0 0 0-.814-.369c-.075-.027-.148-.059-.226-.084a6.849 6.849 0 0 0-.957-.22c-.077-.012-.15-.029-.229-.039a9.839 9.839 0 0 0-1.171-.078c-.043 0-.078-.008-.121-.008h-9.886v22.256h4.333v-8.843z" class="fill-3"/>
    <path fill="#3a3b3b" d="M215.25 129.317c.109.046.219.09.323.141a5.698 5.698 0 0 0-.323-.141" class="fill-4"/>
    <path fill="#3a3b3b" d="M216.493 130.017c.068.051.13.109.196.164-.065-.055-.128-.112-.196-.164" class="fill-5"/>
    <path fill="#3a3b3b" d="M201.883 134.59c.048-.208.091-.423.146-.619-.054.194-.098.411-.146.619zm-.239 1.29c.032-.215.059-.438.096-.642-.037.202-.064.427-.096.642zm-.149.629c.013-.146.021-.304.036-.445-.015.14-.023.299-.036.445zm.731-3.144c.055-.163.105-.334.166-.487-.06.152-.111.324-.166.487zm.603-1.426c-.049.09-.091.195-.138.289.047-.095.089-.199.138-.289zm2.99 18.022c-.055-.019-.105-.045-.159-.066.054.021.104.047.159.066zm8.106-4.392c-.035.038-.076.074-.115.111a2.758 2.758 0 0 1-.327.264 2.695 2.695 0 0 1-.423.235 3.852 3.852 0 0 1-.529.19l-.067.017c-.515.132-1.168.205-2.022.205-.896 0-1.659-.054-2.293-.24l-.02-.006c-.635-.19-1.138-.516-1.509-1.059-.249-.364-.441-.821-.585-1.418l-.003-.013c-.239-1.005-.341-2.406-.341-4.43 0-3.477.337-5.392 1.126-6.406.791-1.016 2.055-1.097 3.625-1.097 1.81 0 2.928.184 3.658 1.153.765 1.017 1.091 2.917 1.091 6.35 0 3.076-.302 4.82-1.01 5.828-.037.052-.079.1-.119.151-.045.056-.089.113-.137.165zm4.256-13.442c-.03-.06-.057-.128-.088-.186.032.058.057.126.088.186zm.455 1.098c-.039-.111-.072-.232-.113-.337.041.106.074.226.113.337zm.588 2.491c-.023-.152-.041-.316-.067-.461.026.146.044.309.067.461zm.156 1.268c-.009-.091-.013-.192-.022-.281.009.09.013.19.022.281zm-.402-2.555c-.034-.146-.063-.303-.1-.441.037.139.066.295.1.441zm.197 9.544c.012-.069.02-.147.031-.217-.011.071-.019.148-.031.217zm-.268 1.215c.02-.074.035-.159.054-.234-.019.076-.034.159-.054.234zm-.342 1.061c.019-.049.034-.106.053-.156-.019.05-.034.107-.053.156zm-2.149 2.943l.074-.056c.158-.119.303-.241.436-.365-.037.034-.078.062-.116.095.053-.045.108-.086.159-.134l-.043.039c.046-.041.098-.072.142-.115a6.03 6.03 0 0 0 1.041-1.403l.003-.005a8.028 8.028 0 0 0 .422-.904c.667-1.681.99-3.946.99-6.919 0-2.535-.222-4.568-.672-6.182l-.004-.012a10.958 10.958 0 0 0-.355-1.064c-.012-.03-.026-.055-.038-.085a8.344 8.344 0 0 0-.395-.844c-.02-.036-.044-.066-.064-.101a5.99 5.99 0 0 0-1.009-1.337c-.093-.091-.199-.167-.298-.25.055.048.11.095.164.144a5.275 5.275 0 0 0-.429-.355l.069.047a5.167 5.167 0 0 0-.244-.168 5.318 5.318 0 0 0-.485-.291l.096.05c-.066-.037-.13-.077-.199-.112l-.003-.001c-.027-.014-.057-.024-.085-.037l.009.005c-.136-.066-.278-.122-.42-.178.029.011.06.021.088.033a6.636 6.636 0 0 0-.497-.187l.023.009-.096-.028c.019.006.042.01.06.016-.203-.066-.406-.132-.626-.184-.96-.224-2.059-.319-3.672-.319-2.764 0-4.925.307-6.488 1.806-.198.189-.38.402-.554.626l-.021.023a6.455 6.455 0 0 0-.464.708c-.016.028-.035.051-.051.079a8.181 8.181 0 0 0-.436.911l-.005.01c-.717 1.754-1.064 4.13-1.064 7.268 0 1.851.121 3.423.362 4.758.012.065.028.121.04.185.069.356.143.701.231 1.02.028.105.063.194.093.294.079.263.159.525.252.762.043.109.092.202.137.304.092.21.183.423.286.612.045.082.097.15.144.228.27.449.567.852.911 1.182 1.524 1.459 3.666 1.753 6.627 1.753a24.221 24.221 0 0 0 2.198-.105c.187-.019.372-.039.556-.066.328-.046.648-.103.955-.177.071-.017.14-.039.211-.058l.097-.029c.141-.038.274-.079.402-.121.075-.026.15-.05.223-.078.103-.037.206-.075.3-.115-.05.022-.106.032-.157.053a5.812 5.812 0 0 0 1.166-.621c-.024.016-.044.039-.068.055.033-.022.06-.046.091-.069z" class="fill-6"/>
    <path fill="#3a3b3b" d="M214.74 129.127l.013.004-.013-.004" class="fill-7"/>
    <path fill="#3a3b3b" d="M215.86 129.607" class="fill-8"/>
    <path fill="#3a3b3b" d="M234.175 137.772l-.027.031.027-.031" class="fill-9"/>
    <path fill="#3a3b3b" d="M239.162 136.39c-.004.091-.004.187-.01.276.006-.088.006-.185.01-.276zm-.106.613c.012-.089.021-.182.031-.273-.01.091-.019.184-.031.273zm-.153.859zm-.206.763c.015-.047.031-.093.045-.141-.014.048-.03.094-.045.141zm-1.912 2.716c.036-.023.072-.046.107-.071-.035.025-.072.047-.107.071zm-.542.309zm-.554.224c.043-.014.085-.03.128-.046-.043.016-.085.032-.128.046zm-.559.154l.111-.027-.111.027zm-2.331-9.465c.073.005.146.009.218.02-.069-.011-.144-.015-.218-.02zm.463.078zm.417.17zm.368.278zm.309.4zm.241.54c.011.034.023.066.033.102-.01-.035-.022-.068-.033-.102zm-1.517 4.354c-.054.009-.114.009-.171.015.056-.006.118-.006.171-.015zm.465-.134c-.072.03-.15.05-.227.071.077-.022.156-.041.227-.071zm.384-.228c-.057.046-.121.081-.183.118.063-.037.126-.073.183-.118zm.509-.66c-.018.038-.041.068-.061.104a1.985 1.985 0 0 1-.202.307c.022-.026.046-.049.066-.076-.035.048-.075.087-.113.129l.02-.022a1.744 1.744 0 0 1-.894.534l-.016.004a2.694 2.694 0 0 1-.658.075h-5.058v-6.494h5.058c.18 0 .347.017.504.046l.053.013a1.934 1.934 0 0 1 .465.163c.099.049.191.108.277.175a1.53 1.53 0 0 1 .311.309 2.38 2.38 0 0 1 .357.653c.037.099.073.199.103.309.025.094.045.201.065.305.024.123.05.244.065.379.014.11.017.238.025.359.009.137.023.267.024.415 0 .078-.004.156-.005.234-.005.192-.011.379-.025.55-.006.076-.014.15-.021.225a6.038 6.038 0 0 1-.091.563c-.008.037-.014.076-.023.112a3.382 3.382 0 0 1-.14.423c-.018.047-.033.098-.054.143.006-.013.014-.024.019-.037l-.027.06.008-.023c-.01.022-.021.041-.032.063zm-6.916 4.229c.247.073 4.199.546 5.398.605.782.027 1.682-.002 2.552-.25l.08-.023c.142-.043.282-.093.421-.149l.132-.055c.126-.055.251-.117.374-.184.053-.03.105-.062.158-.094.114-.069.227-.143.337-.225.055-.041.108-.087.161-.132.079-.065.161-.121.237-.193.028-.027.052-.06.079-.088.032-.033.062-.07.094-.104.111-.12.219-.244.319-.379.031-.042.059-.089.089-.132a5.23 5.23 0 0 0 .273-.434c.033-.06.062-.126.094-.188.077-.152.15-.309.217-.475.03-.074.057-.154.085-.232a7.323 7.323 0 0 0 .238-.79c.053-.214.099-.437.139-.667.012-.071.025-.141.036-.214.046-.298.082-.609.107-.933l.004-.05c.028-.379.047-.77.047-1.185 0-.717-.054-1.374-.154-1.98-.01-.063-.024-.119-.035-.18a9.55 9.55 0 0 0-.137-.634c-.025-.095-.055-.182-.083-.273a6.728 6.728 0 0 0-.153-.461c-.037-.1-.081-.19-.122-.283-.056-.128-.112-.257-.176-.377-.045-.087-.096-.164-.145-.245-.069-.116-.138-.233-.215-.341-.043-.061-.091-.114-.137-.172-.09-.114-.18-.229-.279-.333l-.021-.02a4.42 4.42 0 0 0-.414-.385c-.028-.023-.065-.038-.094-.06a4.523 4.523 0 0 0-.613-.39c-.065-.035-.128-.072-.195-.104a5.473 5.473 0 0 0-.795-.305c-.062-.018-.124-.037-.187-.054a7.453 7.453 0 0 0-.932-.184l-.192-.025c-.361-.039-.72-.057-1.072-.061-.043 0-.079-.007-.122-.007h-9.731v22.256h4.333v-8.811z" class="fill-10"/>
    <path fill="#3a3b3b" d="M243.139 146.889a5.689 5.689 0 0 0 .205.922c.019.058.035.12.056.176.084.224.187.424.3.612a3.383 3.383 0 0 0 .535.691c.016.015.026.036.042.05.068.065.143.118.215.176.03.024.058.049.088.072.093.07.19.133.288.193l.112.068a4.702 4.702 0 0 0 1.295.484c.114.025.228.049.342.068l.061.009a7.932 7.932 0 0 0 1.62.082c.079-.003 7.893-.278 9.633-.516l.004-.001v-3.504h-8.716c-.431 0-.871-.006-1.213-.196a.985.985 0 0 1-.259-.207c-.009-.009-.015-.023-.023-.033a1.107 1.107 0 0 1-.165-.263c-.008-.018-.012-.041-.019-.059a2.243 2.243 0 0 1-.133-.818v-3.46l9.134-.273h.005v-3.534l-9.139-.305v-3.459c0-.834 0-1.698 1.6-1.698h8.928v-3.533l-.004-.001c-1.953-.271-9.863-.485-9.942-.487l-.116-.001a6.9 6.9 0 0 0-1.555.174 4.762 4.762 0 0 0-.408.112l-.014.004a4.138 4.138 0 0 0-1.423.776c-.035.03-.071.058-.105.089-.027.025-.057.044-.083.07-.027.027-.046.062-.072.089-.154.16-.3.333-.428.531-.03.046-.053.097-.081.145-.099.17-.188.355-.266.553-.025.063-.053.124-.076.19a5.042 5.042 0 0 0-.179.724 7.026 7.026 0 0 0-.096 1c-.001.058-.012.109-.012.168v13.25c0 .068.012.125.014.191.006.239.023.466.05.679z" class="fill-11"/>
    <path fill="#3a3b3b" d="M273.578 141.699h-5.235l2.711-7.94 2.524 7.94zm-.113-13.554h-4.915l-7.629 22.249-.002.007h4.643l1.637-4.923h7.401l1.606 4.92.001.003h4.61l-7.351-22.253-.001-.003z" class="fill-12"/>
    <polyline fill="#3a3b3b" points="297.54 142.508 288.592 128.145 284.203 128.145 284.203 150.401 288.566 150.401 288.566 136.191 297.545 150.401 301.874 150.401 301.874 128.145 297.54 128.145 297.54 142.508" class="fill-13"/>
    <path fill="#3a3b3b" d="M322.963 149.466c-.057-.038-.12-.069-.176-.109.056.04.119.071.176.109zm.756.419c-.074-.035-.154-.063-.227-.1.072.037.153.065.227.1zm.717.285c-.052-.017-.108-.029-.159-.047.051.018.107.03.159.047zm2.63-22.267c-.756 0-1.449.067-2.084.197-.059.012-.111.031-.168.044a7.434 7.434 0 0 0-.71.189c-.128.043-.242.098-.363.147-.147.058-.297.112-.435.18-.131.064-.248.142-.371.214-.117.069-.24.132-.351.209-.096.066-.182.145-.273.217-.126.099-.255.194-.372.304-.032.03-.059.066-.09.097a5.954 5.954 0 0 0-.937 1.19 8.202 8.202 0 0 0-.718 1.609c-.009.025-.016.053-.024.08a11.63 11.63 0 0 0-.236.821c-.019.077-.035.159-.052.238-.056.243-.11.491-.156.753-.018.1-.032.206-.048.309-.04.254-.08.511-.112.784-.01.085-.017.176-.026.262a32.908 32.908 0 0 0-.168 3.465c0 3.738.557 6.455 1.703 8.307 1.258 2.032 3.217 3.035 5.991 3.064.295.006.585.009.868.009.092 0 .171-.006.261-.007a35.718 35.718 0 0 0 2.075-.071c.448-.029.882-.067 1.299-.114.186-.021.368-.045.549-.07.416-.057.821-.12 1.205-.196.142-.028.276-.062.414-.093.344-.077.676-.161.993-.255.067-.02.144-.034.21-.054l.003-.001v-3.32h-.005c-.036.002-3.649.242-6.853.242-1.739 0-2.858-.578-3.52-1.821-.595-1.116-.861-2.831-.861-5.559 0-3.361.3-5.229 1-6.25.683-.996 1.756-1.191 3.381-1.191 2.392 0 5.259.26 6.755.416l.098.009h.005v-3.351l-.004-.001c-2.483-.711-4.764-1.002-7.873-1.002z" class="fill-14"/>
    <path fill="#3a3b3b" d="M351.606 129.317c.109.046.219.09.323.141a5.698 5.698 0 0 0-.323-.141" class="fill-15"/>
    <path fill="#3a3b3b" d="M352.848 130.017c.069.051.131.109.197.164-.065-.055-.128-.112-.197-.164" class="fill-16"/>
    <path fill="#3a3b3b" d="M338.24 134.59c.048-.208.091-.423.146-.619-.054.194-.098.411-.146.619zm-.239 1.29c.032-.215.059-.438.096-.642-.037.202-.064.427-.096.642zm-.149.629c.013-.146.02-.304.036-.445-.016.14-.023.299-.036.445zm.731-3.144c.055-.163.105-.334.166-.487-.06.152-.111.324-.166.487zm.603-1.426c-.049.09-.091.195-.138.289.047-.095.089-.199.138-.289zm2.99 18.022c-.058-.02-.11-.047-.167-.069.056.022.109.049.167.069zm8.107-4.394c-.037.04-.079.077-.119.116a2.868 2.868 0 0 1-.214.183c-.036.027-.074.053-.112.079a2.764 2.764 0 0 1-.423.235 3.672 3.672 0 0 1-.529.189l-.066.017c-.515.132-1.168.205-2.022.205-.894 0-1.656-.054-2.288-.239l-.025-.007c-.635-.19-1.138-.516-1.508-1.059-.25-.365-.443-.824-.587-1.424l-.002-.007c-.239-1.005-.341-2.406-.341-4.43 0-3.477.337-5.392 1.126-6.406.791-1.016 2.055-1.097 3.625-1.097 1.81 0 2.929.184 3.658 1.153.766 1.018 1.092 2.917 1.092 6.35 0 3.076-.302 4.82-1.011 5.828-.039.055-.083.106-.126.159-.042.052-.083.107-.128.155zm4.253-13.442c-.03-.059-.056-.127-.087-.184.031.058.057.125.087.184zm.453 1.092c-.037-.108-.07-.225-.109-.328.039.103.072.22.109.328zm.587 2.476c-.021-.143-.038-.298-.063-.435.025.138.042.292.063.435zm.156 1.245c-.007-.074-.01-.158-.018-.231.008.074.011.157.018.231zm-.4-2.521c-.033-.141-.062-.293-.098-.428.037.136.065.287.098.428zm.199 9.553c.011-.059.017-.128.027-.188-.01.061-.016.128-.027.188zm-.267 1.216c.018-.068.031-.145.049-.215-.018.07-.031.147-.049.215zm-.342 1.062c.017-.045.031-.098.048-.145-.017.047-.031.1-.048.145zm-1.64 2.523c-.037.034-.078.062-.116.095.053-.045.108-.086.159-.134l-.043.039c.046-.041.098-.072.142-.115a5.998 5.998 0 0 0 1.035-1.394l.009-.015c.148-.269.282-.561.407-.869.004-.012.01-.022.015-.035.667-1.681.99-3.945.99-6.918 0-2.534-.222-4.567-.672-6.18l-.006-.021a10.532 10.532 0 0 0-.353-1.056c-.012-.033-.028-.06-.041-.092a8.225 8.225 0 0 0-.392-.838c-.02-.036-.044-.066-.064-.101a5.99 5.99 0 0 0-1.009-1.337c-.093-.091-.199-.167-.298-.25.055.048.111.096.164.145a5.09 5.09 0 0 0-.429-.356c.022.016.047.031.068.047a4.765 4.765 0 0 0-.242-.168 5.35 5.35 0 0 0-.487-.291l.097.05c-.067-.037-.13-.077-.199-.112l-.003-.001c-.027-.014-.057-.024-.085-.037l.009.005c-.136-.066-.279-.122-.421-.178.029.011.06.021.089.033a6.636 6.636 0 0 0-.497-.187l.023.009-.097-.028c.019.006.043.01.061.016-.203-.066-.406-.132-.626-.184-.96-.224-2.059-.319-3.672-.319-2.763 0-4.925.307-6.487 1.806-.198.189-.38.402-.554.626l-.021.023a6.455 6.455 0 0 0-.464.708c-.017.028-.035.051-.051.079a8.181 8.181 0 0 0-.436.911l-.005.01c-.717 1.754-1.065 4.13-1.065 7.268 0 1.852.122 3.426.364 4.76.01.058.024.107.035.163.07.364.146.716.235 1.043.026.096.058.178.085.27.082.272.165.541.261.787.038.098.084.182.125.276.095.22.19.441.298.639.039.072.085.131.126.2.273.46.576.871.927 1.207 1.524 1.459 3.666 1.753 6.627 1.753a24.142 24.142 0 0 0 2.201-.105 14 14 0 0 0 .55-.065c.342-.049.675-.107.992-.185.055-.013.108-.032.163-.047.04-.01.078-.024.118-.035.115-.031.221-.065.327-.099.103-.034.206-.066.306-.104.097-.036.195-.072.285-.11-.047.021-.1.03-.148.05.411-.167.8-.366 1.157-.617-.024.016-.044.039-.068.055.033-.022.06-.046.091-.069l.074-.056c.158-.119.303-.241.436-.365z" class="fill-17"/>
    <path fill="#3a3b3b" d="M351.096 129.127l.013.004-.013-.004" class="fill-18"/>
    <path fill="#3a3b3b" d="M352.216 129.607" class="fill-19"/>
    <path fill="#3a3b3b" d="M373.255 129.319c.107.044.216.088.318.137a5.844 5.844 0 0 0-.318-.137" class="fill-20"/>
    <path fill="#3a3b3b" d="M373.865 129.609" class="fill-21"/>
    <path fill="#3a3b3b" d="M374.496 130.018c.066.05.128.107.191.16-.063-.054-.125-.109-.191-.16" class="fill-22"/>
    <path fill="#3a3b3b" d="M372.746 129.128l.007.002-.007-.002" class="fill-23"/>
    <path fill="#3a3b3b" d="M376.177 132.116c-.028-.056-.052-.12-.081-.174.029.055.053.118.081.174zm.459 1.102c-.038-.107-.07-.225-.11-.328.04.103.072.22.11.328zm.592 2.513c-.024-.158-.043-.327-.069-.478.027.152.045.32.069.478zm.156 1.274c-.009-.098-.014-.208-.024-.304.01.097.015.205.024.304zm-.402-2.572c-.034-.147-.064-.305-.102-.445.038.141.068.298.102.445zm.194 9.542c.014-.077.023-.165.036-.244-.013.079-.022.167-.036.244zm-.267 1.215c.021-.08.038-.172.058-.254-.02.082-.036.173-.058.254zm-.342 1.061c.021-.055.038-.119.059-.176-.021.057-.038.121-.059.176zm-16.675-11.686c.046-.198.087-.403.139-.59-.051.185-.093.392-.139.59zm-.24 1.28c.03-.201.056-.411.091-.602-.035.189-.061.401-.091.602zm-.15 1.236c.012-.124.018-.259.031-.381-.013.121-.019.257-.031.381zm.734-3.737c.053-.154.101-.317.158-.463-.057.145-.105.309-.158.463zm3.586 16.617c-.058-.02-.112-.048-.169-.07.057.022.111.05.169.07zm8.361-4.708c-.042.059-.09.114-.135.171-.039.047-.076.097-.118.141-.038.042-.081.08-.123.12a2.585 2.585 0 0 1-.21.18c-.036.028-.075.054-.114.081a2.618 2.618 0 0 1-.24.143 2.572 2.572 0 0 1-.182.091c-.059.027-.121.051-.183.075-.109.041-.221.08-.347.114l-.064.017c-.515.132-1.168.205-2.023.205-.896 0-1.659-.054-2.292-.24l-.02-.006c-.636-.19-1.139-.516-1.51-1.059-.249-.364-.441-.821-.584-1.418l-.004-.013c-.239-1.005-.341-2.406-.341-4.43 0-3.477.338-5.392 1.126-6.406.791-1.016 2.055-1.097 3.625-1.097 1.81 0 2.929.184 3.659 1.153.764 1.017 1.091 2.917 1.091 6.35 0 3.076-.303 4.819-1.011 5.828zm-11.352-13.312c-.045.084-.084.181-.128.269.044-.088.082-.185.128-.269zm.1-.805c-.021.036-.045.066-.065.103a8.05 8.05 0 0 0-.426.889c-.004.011-.01.021-.015.032-.716 1.754-1.063 4.129-1.063 7.265 0 1.85.121 3.422.362 4.755.013.072.03.133.044.203.068.349.14.69.226 1.004.029.107.064.198.095.3.079.261.159.521.251.758.042.107.091.199.136.301.092.211.183.424.287.615.044.08.095.147.141.223.27.451.568.855.914 1.186 1.523 1.459 3.664 1.753 6.626 1.753a24.148 24.148 0 0 0 2.2-.105c.185-.019.37-.039.552-.065.339-.049.67-.107.986-.183.058-.015.114-.034.171-.05.039-.01.075-.023.114-.034.119-.032.23-.067.341-.103.097-.032.195-.063.29-.099.099-.036.198-.072.289-.111-.048.021-.102.031-.15.05a5.804 5.804 0 0 0 1.16-.618c-.025.017-.045.04-.07.056.034-.023.061-.047.093-.071l.068-.051c.16-.12.306-.243.441-.368-.041.038-.086.069-.128.105.058-.05.119-.095.175-.148l-.047.043c.045-.041.097-.072.141-.115.603-.592 1.086-1.358 1.462-2.303a.049.049 0 0 0 .003-.007c.668-1.681.991-3.946.991-6.921 0-2.535-.222-4.568-.672-6.182l-.004-.012a10.673 10.673 0 0 0-.355-1.063c-.013-.033-.028-.06-.041-.093a8.077 8.077 0 0 0-.392-.836c-.022-.04-.048-.073-.07-.112a5.986 5.986 0 0 0-1.004-1.327c-.094-.092-.2-.168-.301-.252a5.057 5.057 0 0 0-.26-.208l.069.047a5.516 5.516 0 0 0-.279-.193l.033.023a5.368 5.368 0 0 0-.483-.29l.098.052a5.368 5.368 0 0 0-.282-.148c-.135-.065-.277-.121-.418-.177l.09.034a6.603 6.603 0 0 0-.502-.188l.024.009-.095-.028.064.017a7.385 7.385 0 0 0-.63-.185c-.96-.224-2.059-.319-3.672-.319-2.763 0-4.924.307-6.487 1.806a5.629 5.629 0 0 0-.518.586c-.018.023-.04.041-.058.065a6.81 6.81 0 0 0-.45.685z" class="fill-24"/>
    <path fill="#3a3b3b" d="M392.178 137.771l-.028.032.028-.032" class="fill-25"/>
    <path fill="#3a3b3b" d="M397.161 136.509c-.003.048-.002.098-.005.145.003-.046.002-.098.005-.145zm-.1.481c.01-.073.017-.151.026-.227-.009.076-.016.154-.026.227zm-.152.859zm-.205.763l.038-.117-.038.117zm-5.901-6.049c.073.005.145.009.218.02-.07-.011-.145-.014-.218-.02zm.462.078zm.417.17zm.368.277zm.308.4zm.241.539c.011.035.024.069.034.105-.01-.036-.023-.07-.034-.105zm-1.516 4.356c-.054.009-.114.009-.17.014.056-.005.117-.005.17-.014zm.465-.134c-.072.03-.151.05-.228.071.078-.022.157-.041.228-.071zm.385-.229c-.058.047-.123.083-.186.12.063-.038.128-.074.186-.12zm.73-1.277a3.35 3.35 0 0 1-.132.4c-.02.051-.035.106-.058.154.006-.013.014-.025.02-.039-.009.022-.02.044-.03.065l.01-.026c-.011.025-.024.047-.036.07-.016.034-.036.06-.053.091-.062.11-.126.219-.206.313.022-.026.047-.049.067-.077-.036.05-.078.091-.117.135l.022-.026a1.745 1.745 0 0 1-.893.534l-.016.004a2.691 2.691 0 0 1-.657.075h-5.059v-6.494h5.059c.179 0 .346.017.504.046l.051.013c.134.028.259.069.377.12.03.013.059.028.088.042a1.72 1.72 0 0 1 .591.487 2.325 2.325 0 0 1 .353.646c.038.101.075.205.105.318.025.09.043.192.063.291.025.128.051.253.068.394.011.095.014.206.021.308.011.151.025.297.027.461 0 .088-.005.176-.007.264a9.78 9.78 0 0 1-.022.507c-.006.084-.015.165-.024.247a5.36 5.36 0 0 1-.087.54c-.009.043-.016.086-.026.128.004-.015.009-.028.012-.044l-.013.047.001-.003-.003.009zm-7.138 4.847c.248.073 4.199.546 5.398.605.16.006.325.01.493.01 1.001 0 2.13-.131 3.126-.701l.033-.021c.148-.086.293-.182.435-.29.026-.02.051-.043.077-.064.097-.077.195-.151.287-.239.027-.026.05-.058.077-.085.037-.037.071-.08.107-.119a4.51 4.51 0 0 0 .306-.363c.035-.048.068-.102.102-.152a4.73 4.73 0 0 0 .259-.413c.037-.066.07-.139.105-.208.073-.146.143-.294.207-.452.033-.082.062-.169.093-.255a7.395 7.395 0 0 0 .236-.789c.05-.204.094-.416.132-.635.014-.081.029-.161.042-.246.043-.282.076-.577.101-.884.002-.033.006-.064.009-.098.027-.375.045-.762.045-1.172 0-.714-.053-1.369-.152-1.974-.012-.074-.029-.142-.042-.214a8.677 8.677 0 0 0-.13-.6c-.027-.104-.06-.198-.09-.296-.046-.15-.091-.299-.145-.44-.04-.105-.086-.201-.129-.3-.055-.123-.108-.246-.169-.361-.048-.092-.102-.174-.153-.26-.067-.11-.133-.223-.206-.326-.049-.067-.102-.126-.152-.19-.086-.108-.17-.217-.264-.315-.021-.022-.045-.04-.066-.062-.12-.12-.24-.24-.372-.346-.026-.02-.058-.034-.085-.054a4.64 4.64 0 0 0-.625-.398c-.063-.034-.125-.07-.19-.102a5.541 5.541 0 0 0-.797-.305c-.062-.018-.123-.037-.186-.054a7.489 7.489 0 0 0-.932-.184l-.193-.025c-.361-.039-.72-.057-1.071-.061-.043 0-.079-.007-.123-.007h-9.731v22.256h4.333v-8.811z" class="fill-26"/>
    <path fill="#3a3b3b" d="M401.141 146.887c.014.107.031.211.051.314.04.214.091.416.152.604.021.063.037.128.06.188a3.854 3.854 0 0 0 .832 1.296c.016.016.026.036.043.051.069.066.145.121.219.179.028.023.054.047.083.068.094.071.192.135.292.196l.107.065c.097.054.195.104.296.151l.129.058a4.707 4.707 0 0 0 .438.16c.104.032.207.062.312.088l.12.027c.115.026.229.05.345.069l.058.008c.411.064.818.092 1.196.092.146 0 .29-.003.426-.009.079-.003 7.893-.278 9.634-.516l.004-.001v-3.504h-8.717c-.43 0-.87-.006-1.212-.196a.989.989 0 0 1-.26-.208c-.007-.007-.012-.018-.018-.026a1.113 1.113 0 0 1-.169-.27c-.007-.014-.01-.033-.016-.048a2.226 2.226 0 0 1-.136-.828v-3.46l9.134-.273h.005v-3.534l-9.139-.305v-3.459c0-.834 0-1.698 1.6-1.698h8.928v-3.533l-.004-.001c-1.954-.271-9.864-.485-9.944-.487l-.115-.001a6.92 6.92 0 0 0-1.549.172l-.002.001a5.21 5.21 0 0 0-.415.113l-.004.002a4.117 4.117 0 0 0-1.439.786c-.032.027-.064.051-.094.079-.028.025-.058.045-.086.072-.028.027-.046.063-.074.092-.153.159-.297.33-.425.527-.03.048-.055.101-.083.15a3.847 3.847 0 0 0-.263.547c-.025.065-.055.126-.077.193a5.502 5.502 0 0 0-.224 1.02 6.79 6.79 0 0 0-.051.694c-.001.062-.012.115-.012.177v13.25c0 .071.012.132.014.201.007.234.022.457.05.667z" class="fill-27"/>
    <path fill="#3a3b3b" d="M429.905 132.084c.26.105.472.26.644.472.405.498.602 1.324.602 2.524 0 2.657-.716 3.124-2.219 3.124h-5.12v-6.282h5.12c.376 0 .692.05.958.154l.015.008zm-6.123 9.474l3.786.421 3.737 8.419.002.003h4.889l-4.292-8.754.038-.012c.646-.202 1.531-.477 2.265-1.387.079-.098.151-.208.223-.317l.022-.03a4.84 4.84 0 0 0 .204-.355c.02-.037.04-.072.059-.111.059-.119.114-.245.167-.375.021-.052.043-.104.064-.159.05-.134.096-.274.139-.418.018-.06.037-.118.054-.18.044-.161.084-.331.12-.504l.034-.158c.041-.215.076-.439.106-.672l.008-.061c.069-.562.108-1.168.108-1.828 0-.964-.091-1.828-.267-2.593-.015-.064-.034-.121-.049-.183a8.196 8.196 0 0 0-.147-.521c-.026-.079-.057-.149-.085-.225-.053-.143-.105-.287-.166-.42-.027-.06-.059-.113-.087-.17-.071-.142-.141-.284-.221-.415-.006-.011-.014-.021-.021-.032a4.716 4.716 0 0 0-.715-.905c-.025-.024-.056-.039-.081-.062a4.55 4.55 0 0 0-.653-.499c-.058-.037-.112-.078-.172-.113a5.125 5.125 0 0 0-.811-.367c-.076-.028-.149-.06-.229-.085a6.854 6.854 0 0 0-.955-.22c-.077-.012-.151-.029-.231-.039a9.807 9.807 0 0 0-1.17-.078c-.043 0-.078-.008-.121-.008h-9.886v22.256h4.334v-8.843z" class="fill-28"/>
    <path fill="#3a3b3b" d="M451.404 141.699h-5.235l2.71-7.941 2.525 7.941zm2.629 8.702h4.61l-7.351-22.253-.001-.003h-4.916l-7.628 22.249-.002.007h4.642l1.637-4.923h7.402l1.606 4.92.001.003z" class="fill-29"/>
    <polyline fill="#3a3b3b" points="464.284 150.401 468.615 150.401 468.615 132.076 474.883 132.076 474.883 128.145 458.169 128.145 458.169 132.076 464.284 132.076 464.284 150.401" class="fill-30"/>
    <polygon fill="#3a3b3b" points="478.489 150.401 482.82 150.401 482.82 128.145 478.489 128.145" class="fill-31"/>
    <path fill="#3a3b3b" d="M501.297 129.609" class="fill-32"/>
    <path fill="#3a3b3b" d="M500.179 129.128l.007.002-.007-.002" class="fill-33"/>
    <path fill="#3a3b3b" d="M503.601 132.096c-.024-.049-.045-.104-.071-.151.026.047.047.102.071.151zm.46 1.099c-.034-.098-.064-.208-.101-.302.037.095.066.203.101.302zm.594 2.495c-.021-.142-.038-.295-.062-.432.024.138.041.29.062.432zm.157 1.247c-.008-.074-.011-.157-.018-.229.007.073.011.155.018.229zm-.404-2.533c-.032-.136-.059-.282-.094-.412.035.131.062.276.094.412zm.202 9.566c.011-.059.018-.128.028-.188-.01.061-.017.128-.028.188zm-.267 1.216c.018-.069.032-.148.05-.219-.018.071-.031.15-.05.219zm-.342 1.063c.018-.047.032-.102.05-.151-.018.049-.032.103-.05.151zm-16.68-11.667c.047-.205.09-.417.143-.609-.052.191-.096.404-.143.609zm-.239 1.286c.031-.21.058-.429.094-.629-.036.198-.063.419-.094.629zm-.15 1.252c.013-.139.02-.289.035-.424-.015.134-.022.285-.035.424zm.732-3.762c.054-.16.104-.328.164-.479-.059.15-.11.319-.164.479zm.601-1.419c-.048.088-.089.191-.135.283.046-.092.087-.194.135-.283zm2.991 18.022c-.061-.021-.116-.049-.176-.072.059.023.115.051.176.072zm8.36-4.708c-.038.054-.081.103-.122.155-.044.054-.086.11-.133.16-.036.039-.078.076-.117.114-.069.064-.14.127-.215.184a3.179 3.179 0 0 1-.353.224 3.12 3.12 0 0 1-.365.165c-.109.041-.222.08-.347.114l-.064.017c-.515.132-1.168.205-2.023.205-.895 0-1.657-.054-2.29-.24-.008-.002-.016-.003-.023-.006-.635-.19-1.138-.516-1.509-1.059-.247-.361-.438-.816-.582-1.408l-.006-.024c-.239-1.005-.341-2.406-.341-4.429 0-3.477.338-5.392 1.126-6.406.791-1.016 2.055-1.097 3.625-1.097 1.81 0 2.929.184 3.659 1.153.765 1.018 1.091 2.917 1.091 6.35 0 3.075-.302 4.819-1.011 5.828zm-11.261-14.103c-.018.031-.038.056-.056.087a8.215 8.215 0 0 0-.44.921c-.716 1.754-1.064 4.13-1.064 7.267 0 1.851.121 3.424.363 4.759.011.062.026.115.037.176.07.359.145.707.233 1.03.027.099.06.184.088.28.081.268.163.534.258.777.039.101.086.188.128.285.094.217.188.435.295.63.041.075.088.137.131.209.272.456.573.865.922 1.199 1.524 1.459 3.665 1.753 6.627 1.753a24.12 24.12 0 0 0 2.2-.105c.185-.019.369-.039.552-.065.34-.049.671-.107.987-.184.058-.014.112-.033.169-.048l.115-.035c.118-.032.227-.066.335-.101.1-.033.201-.065.297-.102.098-.036.197-.071.288-.11-.048.021-.101.031-.15.05a5.746 5.746 0 0 0 1.159-.618c-.024.017-.045.04-.069.056.033-.022.06-.047.092-.07.025-.017.047-.037.072-.054a5.65 5.65 0 0 0 .438-.366c-.039.035-.081.064-.121.098.055-.047.112-.089.165-.138l-.044.04c.045-.041.097-.072.141-.115.397-.39.74-.858 1.038-1.399l.006-.009c.149-.271.284-.564.409-.875l.013-.029c.667-1.682.99-3.946.99-6.919 0-2.532-.221-4.565-.671-6.177l-.013-.04a10.587 10.587 0 0 0-.345-1.037c-.017-.041-.036-.076-.052-.116a8.157 8.157 0 0 0-.382-.813c-.026-.049-.057-.089-.085-.136a6.497 6.497 0 0 0-.424-.657l-.009-.011a5.559 5.559 0 0 0-.557-.638c-.094-.092-.2-.168-.301-.252a5.174 5.174 0 0 0-.257-.206c.021.015.045.029.065.045a5.488 5.488 0 0 0-.248-.172 5.248 5.248 0 0 0-.478-.286c.031.016.065.032.095.05-.067-.038-.131-.079-.201-.114a.017.017 0 0 1-.005-.002c-.027-.014-.058-.024-.085-.037l.009.005c-.135-.065-.275-.12-.415-.176l.088.033a6.603 6.603 0 0 0-.502-.188c.008.002.015.006.023.009-.029-.01-.061-.017-.091-.027l.061.016a7.385 7.385 0 0 0-.63-.185c-.96-.224-2.059-.319-3.672-.319-2.763 0-4.924.307-6.487 1.806a5.705 5.705 0 0 0-.542.612c-.01.014-.023.024-.033.038a6.718 6.718 0 0 0-.46.7z" class="fill-34"/>
    <path fill="#3a3b3b" d="M500.688 129.319c.107.044.215.088.318.137a5.844 5.844 0 0 0-.318-.137" class="fill-35"/>
    <path fill="#3a3b3b" d="M501.928 130.018c.067.05.128.107.192.16-.063-.054-.125-.109-.192-.16" class="fill-36"/>
    <polyline fill="#3a3b3b" points="513.297 136.191 522.277 150.401 526.604 150.401 526.604 128.145 522.272 128.145 522.272 142.508 513.323 128.145 508.935 128.145 508.935 150.401 513.297 150.401 513.297 136.191" class="fill-37"/>
    <polygon fill="#3a3b3b" points="142.228 186.757 146.57 186.757 146.57 164.404 142.228 164.404" class="fill-38"/>
    <g class="group-43" transform="translate(150.768 164.159)">
      <mask id="mask-2" fill="#fff">
        <use xlink:href="#path-1"/>
      </mask>
      <polyline fill="#3a3b3b" points="13.369 14.669 4.399 .245 0 .245 0 22.598 4.373 22.598 4.373 8.325 13.374 22.598 17.712 22.598 17.712 .245 13.369 .245 13.369 14.669" class="fill-39" mask="url(#mask-2)"/>
      <path fill="#3a3b3b" d="M32.69 13.554c-.057-.01-.117-.016-.173-.027.055.011.116.017.173.027zm-.908-.209c.052.016.11.029.164.044-.055-.015-.111-.028-.164-.044zm-.657-.251c.045.021.093.039.139.058-.046-.019-.094-.037-.139-.058zm-.581-.315c.035.022.073.042.109.064-.036-.022-.074-.041-.109-.064zM34.32 4.05c.039-.005.076-.011.116-.015-.04.004-.077.01-.116.015zm-.542.119c.051-.017.101-.036.156-.05-.055.014-.105.033-.156.05zm-.427.211c.048-.033.093-.071.146-.099-.053.028-.098.066-.146.099zm-4.627-1.041c.024-.071.046-.146.073-.215-.027.069-.049.144-.073.215zm-.163.554c.013-.057.024-.118.039-.174-.015.056-.026.117-.039.174zm.401-1.126c.028-.057.052-.117.082-.172-.029.055-.054.115-.082.172zm11.752 6.942c-.038-.013-.08-.023-.119-.034.039.011.08.021.119.034zm.573.228c-.037-.018-.078-.033-.116-.05.038.017.078.032.116.05zm1.079.724c-.014-.012-.025-.026-.039-.038a4.216 4.216 0 0 0-.378-.3l-.067-.05a4.352 4.352 0 0 0-.428-.255c-.026-.014-.05-.029-.076-.042a4.714 4.714 0 0 0-.493-.211l-.073-.029a5.634 5.634 0 0 0-.595-.169l-.033-.008a7.025 7.025 0 0 0-1.503-.157h-3.59c-.57 0-1.024-.042-1.385-.163-.037-.012-.081-.02-.116-.034a1.455 1.455 0 0 1-.266-.15c-.021-.014-.047-.023-.066-.039-.391-.305-.576-.838-.576-1.747V6.171c0-.102.01-.187.015-.281.006-.105.01-.215.023-.309.012-.095.033-.177.052-.261.02-.086.042-.17.069-.246a1.312 1.312 0 0 1 .2-.384c.04-.056.078-.114.125-.162.026-.027.059-.046.087-.07.087-.074.179-.142.285-.194.036-.017.077-.03.115-.045.11-.045.225-.085.352-.113.041-.009.086-.015.129-.023.14-.025.284-.045.44-.056.03-.003.062-.004.093-.006.183-.01.373-.016.575-.016.131 0 .267.002.405.004 1.101 0 5.579.12 7.584.304l.005.001V.948l-.004-.001C41.345.402 38.209.111 35.717.065h-.023c-.22-.004-.443-.009-.652-.009-.196 0-.387.001-.57.005-.059.001-.107.01-.164.012-.377.011-.745.034-1.099.078-.088.011-.171.027-.256.039a8.205 8.205 0 0 0-.924.188c-.081.022-.156.049-.234.074a5.877 5.877 0 0 0-.794.304c-.062.03-.118.066-.179.098a4.662 4.662 0 0 0-.634.403c-.026.02-.058.033-.084.054-1.188.953-1.765 2.433-1.765 4.525v1.922c0 .991.09 2.454.871 3.695.074.118.161.223.244.331.032.042.059.086.094.127.086.104.181.198.276.293.048.048.093.097.144.144.102.092.212.175.324.258.056.042.11.084.169.124.122.082.252.155.385.227.06.032.119.066.182.097.149.072.307.135.467.195.061.022.118.046.18.067.188.062.386.114.589.16.048.011.092.025.141.035a8.856 8.856 0 0 0 1.788.173h3.467c1.69 0 2.037.84 2.037 2.101v1.19c0 .167-.02.316-.048.46-.005.024-.003.053-.009.076-.027.12-.076.223-.124.326-.018.04-.03.087-.051.124a1.426 1.426 0 0 1-.248.311c-.01.011-.018.025-.029.035a1.704 1.704 0 0 1-.394.267c-.566.284-1.301.321-1.877.321-2.938 0-6.699-.219-7.891-.336l-.006-.001v3.366l.004.001c2.305.659 4.761.916 8.759.916.055 0 .101-.008.155-.008.352-.004.704-.02 1.053-.055.083-.008.163-.02.244-.03.307-.039.61-.091.905-.163.078-.019.153-.041.228-.062a5.96 5.96 0 0 0 .784-.275c.068-.03.132-.065.197-.098.217-.107.427-.227.626-.366.027-.019.06-.031.086-.051a4.19 4.19 0 0 0 .696-.661c.041-.048.084-.092.124-.142.073-.094.138-.196.205-.297.046-.071.095-.139.139-.214.06-.103.111-.213.164-.322.041-.084.083-.164.12-.252.053-.125.097-.259.142-.392.027-.081.057-.158.082-.242.051-.177.092-.363.13-.552.01-.05.023-.095.032-.146.095-.519.145-1.08.145-1.689v-1.496c0-1.087-.174-2.643-1.006-3.89a4.398 4.398 0 0 0-.668-.777z" class="fill-41" mask="url(#mask-2)"/>
      <path fill="#3a3b3b" d="M50.259 21.661c-.059-.039-.123-.071-.181-.112.058.041.122.073.181.112zm.756.419c-.075-.035-.156-.064-.23-.102.073.038.155.066.23.102zm.72.286c-.053-.017-.111-.029-.163-.048.052.019.11.031.163.048zM54.367 0c-.758 0-1.453.068-2.09.199-.052.01-.097.027-.148.038a7.6 7.6 0 0 0-.732.196c-.124.042-.236.096-.354.143-.15.06-.304.115-.445.185-.129.064-.244.14-.365.211-.12.071-.246.136-.359.214-.095.066-.179.143-.269.215-.127.1-.258.197-.377.308-.032.031-.058.066-.09.098-.353.349-.67.742-.939 1.195a8.294 8.294 0 0 0-.721 1.618l-.019.065a11.52 11.52 0 0 0-.242.841c-.017.072-.031.149-.048.222-.058.25-.113.504-.16.773-.017.097-.03.199-.046.298-.041.26-.081.523-.114.801-.009.079-.015.163-.024.244a33.183 33.183 0 0 0-.17 3.497c0 3.753.559 6.482 1.707 8.342 1.26 2.041 3.225 3.048 6.005 3.077.295.006.584.009.868.009.092 0 .172-.007.263-.007a37.94 37.94 0 0 0 2.077-.072c.451-.029.887-.067 1.307-.114.185-.021.365-.045.543-.07.421-.057.831-.121 1.218-.198.139-.027.269-.06.403-.09.35-.078.687-.164 1.01-.26.065-.019.141-.032.205-.053l.003-.001v-3.335h-.005c-.036.002-3.658.244-6.871.244-1.742 0-2.863-.581-3.527-1.828-.597-1.121-.863-2.843-.863-5.584 0-3.376.299-5.253 1.001-6.278.686-.999 1.762-1.195 3.389-1.195 2.4 0 5.273.262 6.773.418l.098.01h.005V1.008l-.004-.001C59.766.292 57.479 0 54.367 0z" class="fill-42" mask="url(#mask-2)"/>
    </g>
    <polygon fill="#3a3b3b" points="216.736 186.757 221.079 186.757 221.079 164.404 216.736 164.404" class="fill-44"/>
    <path fill="#3a3b3b" d="M229.847 164.404l-.118-.001c-.469 0-1.008.046-1.551.172l-.002.001c-.139.032-.276.07-.414.114l-.008.002a4.133 4.133 0 0 0-1.437.786c-.032.027-.066.053-.098.082-.027.025-.056.044-.083.07-.027.027-.046.063-.073.091-.154.16-.3.333-.428.531-.031.048-.056.101-.084.151a3.887 3.887 0 0 0-.263.546c-.026.067-.056.13-.079.199a5.045 5.045 0 0 0-.225 1.026 7.078 7.078 0 0 0-.05.691c-.002.064-.013.119-.013.184v13.307c0 .074.013.137.015.209a6.7 6.7 0 0 0 .049.659 5.278 5.278 0 0 0 .202.917c.023.07.043.143.069.211.082.215.181.408.288.59a3.33 3.33 0 0 0 .539.697c.016.016.027.037.044.053.07.067.148.122.222.182.027.021.052.044.079.064.095.071.193.136.294.197l.108.066a4.256 4.256 0 0 0 .723.324 4.544 4.544 0 0 0 .583.165c.111.024.221.047.333.066l.073.011a7.92 7.92 0 0 0 1.615.081c.079-.003 7.912-.278 9.657-.519l.004-.001v-3.519h-8.69c-.449 0-.908.001-1.264-.197a1.013 1.013 0 0 1-.26-.209c-.007-.008-.012-.019-.019-.028a1.085 1.085 0 0 1-.168-.269c-.008-.017-.012-.041-.019-.059a2.236 2.236 0 0 1-.134-.82v-3.475l9.156-.274h.005v-3.552l-9.161-.304v-3.476c0-.837 0-1.703 1.604-1.703h8.95v-3.551l-.004-.001c-1.958-.27-9.887-.485-9.967-.487z" class="fill-45"/>
    <g class="group-49" transform="translate(242.866 164.159)">
      <mask id="mask-4" fill="#fff">
        <use xlink:href="#path-3"/>
      </mask>
      <polyline fill="#3a3b3b" points="13.37 14.669 4.399 .245 0 .245 0 22.598 4.374 22.598 4.374 8.325 13.375 22.598 17.713 22.598 17.713 .245 13.37 .245 13.37 14.669" class="fill-46" mask="url(#mask-4)"/>
      <path fill="#3a3b3b" d="M25.771 22.364c-.051-.017-.106-.028-.155-.045.049.017.105.028.155.045zm-1.491-.717c-.051-.034-.107-.061-.157-.097.05.036.106.064.157.097zm.766.427c-.071-.033-.147-.059-.217-.095.069.036.146.062.217.095zM28.411 0c-.759 0-1.454.068-2.092.199-.048.01-.091.025-.139.036a7.407 7.407 0 0 0-.74.198c-.123.041-.234.095-.351.142-.151.06-.306.116-.448.186-.13.064-.247.142-.369.213-.118.07-.242.134-.354.211-.099.069-.187.15-.28.224-.123.098-.251.191-.365.299-.04.038-.075.083-.114.123a5.934 5.934 0 0 0-.916 1.171 8.223 8.223 0 0 0-.719 1.611c-.014.039-.024.082-.037.122-.08.25-.156.508-.224.782-.023.09-.041.187-.061.279-.053.232-.104.465-.148.714-.021.119-.037.244-.056.365-.037.238-.074.476-.104.729-.012.11-.022.226-.033.338-.029.283-.057.568-.078.869l-.005.084c-.051.763-.08 1.577-.08 2.466 0 3.753.559 6.482 1.707 8.342 1.261 2.041 3.225 3.048 6.006 3.077.294.006.584.009.867.009.092 0 .172-.007.263-.007a37.827 37.827 0 0 0 2.077-.072c.451-.029.887-.067 1.307-.114.185-.021.364-.045.543-.069.421-.058.83-.122 1.218-.199.139-.027.27-.06.405-.09a15.52 15.52 0 0 0 1.001-.258c.068-.02.146-.034.212-.055l.003-.001v-3.335h-.005c-.036.002-3.658.244-6.871.244-1.743 0-2.864-.581-3.528-1.828-.596-1.121-.862-2.843-.862-5.584 0-3.376.299-5.253 1.001-6.278.685-.999 1.761-1.195 3.389-1.195 2.4 0 5.274.262 6.773.418l.098.01h.005V1.008l-.004-.001C33.809.292 31.522 0 28.411 0z" class="fill-48" mask="url(#mask-4)"/>
    </g>
    <path fill="#3a3b3b" d="M282.117 183.331l.017.104-.017-.104zm4.845-18.927l-.118-.001c-.469 0-1.008.047-1.551.172l-.003.001a5.762 5.762 0 0 0-.423.117 4.144 4.144 0 0 0-1.435.784c-.032.028-.066.054-.098.083-.027.025-.056.044-.083.07-.028.027-.046.063-.073.091-.154.16-.3.333-.428.531-.031.048-.056.102-.085.153a3.942 3.942 0 0 0-.261.542c-.027.068-.057.132-.081.203a5.112 5.112 0 0 0-.224 1.028c-.027.214-.043.44-.049.678-.002.067-.014.125-.014.193v13.307c0 .078.013.144.016.22a5.31 5.31 0 0 0 .101.972c.039.208.088.404.147.587.024.074.046.151.073.222a3.851 3.851 0 0 0 .413.785c.126.182.262.349.411.496.017.017.027.038.045.054.071.068.149.124.225.184.025.02.049.042.075.061.096.072.195.138.297.2l.105.064c.097.054.195.104.295.151.045.02.089.041.134.06a4.588 4.588 0 0 0 .44.161 5.57 5.57 0 0 0 .771.183l.071.01a7.818 7.818 0 0 0 1.616.082c.079-.003 7.914-.278 9.658-.519l.004-.001v-3.519h-8.741c-.431 0-.872-.007-1.214-.197a1.017 1.017 0 0 1-.26-.209c-.007-.008-.011-.018-.018-.026a1.14 1.14 0 0 1-.17-.272c-.007-.015-.01-.035-.016-.051a2.22 2.22 0 0 1-.136-.827v-3.475l9.157-.274h.005v-3.552l-9.162-.304v-3.476c0-.837 0-1.703 1.605-1.703h8.95v-3.551l-.004-.001c-1.959-.27-9.887-.485-9.967-.487z" class="fill-50"/>
    <path fill="#3a3b3b" d="M314.417 186.709l.114.027-.114-.027zm-.649-.189l.123.042-.123-.042zm-.612-.25c.039.019.078.038.117.055a6.156 6.156 0 0 1-.117-.055zm-1.031-15.874c-.02-.044-.044-.087-.063-.131.019.043.043.087.063.131zm-.268-.703c.015.052.034.104.051.155-.017-.051-.036-.103-.051-.155zm-.12-.573c.008.058.019.116.03.175-.011-.059-.022-.117-.03-.175zm-.039-.565zm.039-.546a4.59 4.59 0 0 0-.02.169c.006-.056.012-.113.02-.169zm.111-.526zm4.753 1.547c.01-.053.012-.111.032-.159-.02.048-.022.106-.032.159zm.012.425c-.011-.055-.032-.115-.037-.166.005.05.026.111.037.166zm.152.469c-.015-.034-.039-.073-.052-.105.013.032.037.071.052.105zm-.662 12.982zm-.493-.133zm-.485-.243zm-.447-.337c-.059-.053-.109-.112-.163-.168.054.056.106.116.163.168zm2.895.396a1.999 1.999 0 0 1-.201.112 2.075 2.075 0 0 1-.258.112c-.068.024-.137.05-.207.066-.084.02-.167.029-.25.038-.073.008-.144.022-.218.022h-.005c-.073 0-.144-.014-.215-.021a2.254 2.254 0 0 1-.511-.113 2.77 2.77 0 0 1-.413-.181c-.03-.017-.06-.032-.089-.05a3.142 3.142 0 0 1-.417-.293l-.051-.041a3.443 3.443 0 0 1-.424-.437 3.386 3.386 0 0 1-.522-.863c-.011-.027-.016-.056-.026-.084a2.338 2.338 0 0 1-.099-.348c-.002-.015-.001-.031-.003-.045a1.873 1.873 0 0 1-.025-.38c.03-.68.434-1.351 1.202-1.996l1.604-1.401 3.121 4.082-1.574 1.493c-.042.041-.087.069-.13.106-.095.082-.191.16-.289.222zm8.597-2.763l1.857-3.267.002-.004-1.519-1.802-.004-.004-3.743 3.478-5.23-7.045c-.412-.562-.686-1.026-.833-1.411-.017-.046-.021-.084-.035-.127a1.78 1.78 0 0 1-.086-.385c-.003-.05.01-.092.013-.138a.825.825 0 0 1 .055-.269c.022-.048.06-.088.093-.13.043-.057.081-.115.144-.162.035-.027.087-.046.129-.069.089-.05.175-.102.293-.138l.019-.004c.329-.1.765-.15 1.32-.15h5.081v-3.122l-.004-.001c-2.169-.505-4.869-1.137-8.576-.611-.615.084-1.215.357-1.741.755l-.019.013c-.119.092-.233.19-.343.294l-.051.047a4.37 4.37 0 0 0-.292.316c-.021.024-.042.046-.062.071-.09.11-.172.226-.251.345l-.055.081a4.5 4.5 0 0 0-.211.378l-.042.085c-.024.049-.052.096-.073.145-.035.083-.058.168-.087.251l-.039.112a4.09 4.09 0 0 0-.11.429c-.006.03-.013.06-.018.091a3.832 3.832 0 0 0-.053.464l-.005.083a4.09 4.09 0 0 0 .013.482l.008.091c.018.162.047.323.084.485l.023.101c.044.168.098.335.163.501.011.029.02.058.032.087.166.407.389.809.681 1.198l1.575 2.256-2.131 1.858c-1.341 1.153-2.236 2.612-2.521 4.109-.306 1.613.084 3.223 1.128 4.659.276.399.598.754.953 1.07.033.029.067.055.101.084.139.118.282.231.431.337.046.032.093.062.14.093.142.094.287.183.437.266l.146.076c.152.078.306.151.465.216l.143.057c.161.062.324.118.491.167.048.015.096.028.144.041a6.734 6.734 0 0 0 .661.144c.097.016.193.039.293.051.056.007.111.005.167.01.137.014.274.02.411.026.099.004.2.018.299.018.04 0 .078-.008.118-.009.27-.005.537-.028.8-.063.107-.014.213-.026.319-.045a6.656 6.656 0 0 0 1.08-.292c.248-.09.488-.192.712-.31.072-.038.138-.082.208-.123.215-.127.418-.264.6-.416.024-.021.055-.035.079-.055l2.008-1.766 2.198 2.928h5.086l-4.212-5.591 1.143-1.34z" class="fill-51"/>
    <polyline fill="#3a3b3b" points="335.32 168.35 341.448 168.35 341.448 186.757 345.791 186.757 345.791 168.35 352.075 168.35 352.075 164.404 335.32 164.404 335.32 168.35" class="fill-52"/>
    <g class="group-56" transform="translate(354.194 164.159)">
      <mask id="mask-6" fill="#fff">
        <use xlink:href="#path-5"/>
      </mask>
      <path fill="#3a3b3b" d="M4.926.245L4.808.244A6.91 6.91 0 0 0 3.25.418a5.78 5.78 0 0 0-.405.111l-.022.008c-.5.161-.986.409-1.414.771-.038.032-.077.062-.114.096-.026.024-.054.042-.079.067-.027.026-.045.06-.07.087a3.61 3.61 0 0 0-.434.537c-.029.045-.051.095-.079.142-.1.172-.19.359-.268.559-.025.064-.054.124-.076.19a4.98 4.98 0 0 0-.181.729 6.523 6.523 0 0 0-.096 1.007C.011 4.78 0 4.83 0 4.89v13.307c0 .068.012.125.014.191.006.24.023.468.05.682a5.803 5.803 0 0 0 .205.922c.02.063.038.129.061.19.083.221.185.419.295.603a3.368 3.368 0 0 0 .538.696c.016.016.027.037.043.052.068.065.144.119.216.177l.087.071c.093.07.19.133.288.193l.115.07c.094.053.19.101.288.147.046.021.093.043.14.063a4.855 4.855 0 0 0 .874.276 6.364 6.364 0 0 0 .405.077 7.796 7.796 0 0 0 1.615.082c.079-.003 7.914-.278 9.658-.519l.004-.001V18.65h-8.74c-.431 0-.872-.007-1.214-.197a.997.997 0 0 1-.26-.209c-.008-.008-.013-.021-.021-.03a1.119 1.119 0 0 1-.167-.267c-.008-.018-.012-.042-.019-.061a2.22 2.22 0 0 1-.134-.818v-3.475l9.157-.274h.005V9.767l-9.162-.304V5.987c0-.837 0-1.703 1.606-1.703h8.949V.733l-.004-.001C12.934.462 5.006.247 4.926.245z" class="fill-53" mask="url(#mask-6)"/>
      <path fill="#3a3b3b" d="M20.983 21.675c-.068-.044-.141-.081-.206-.127.065.046.138.083.206.127zm.751.413c-.082-.038-.17-.069-.25-.11.08.041.168.072.25.11zm.718.283c-.06-.02-.123-.033-.181-.053.057.02.122.033.181.053zM25.067 0c-.758 0-1.453.068-2.09.199-.049.01-.092.025-.14.036a7.407 7.407 0 0 0-.74.198c-.123.041-.233.095-.349.141-.152.061-.307.117-.45.187-.129.064-.244.14-.365.212-.12.07-.245.134-.358.213-.097.067-.183.146-.275.219-.125.099-.254.194-.37.304-.038.036-.07.078-.107.115a5.974 5.974 0 0 0-.923 1.178 8.299 8.299 0 0 0-.718 1.61c-.014.041-.025.086-.039.127-.079.249-.155.506-.222.778-.023.09-.041.186-.061.278-.053.232-.104.467-.148.716-.021.117-.037.24-.055.359-.038.24-.075.48-.105.736-.013.106-.021.219-.032.328-.03.286-.059.575-.08.88l-.003.058a36.783 36.783 0 0 0-.081 2.489c0 3.753.559 6.482 1.707 8.342 1.261 2.041 3.224 3.048 6.004 3.077.295.006.584.009.867.009.092 0 .172-.007.264-.007a37.992 37.992 0 0 0 2.075-.072c.453-.029.89-.067 1.311-.114.184-.021.362-.045.54-.069.422-.058.832-.122 1.22-.199.138-.027.269-.06.402-.09.351-.078.689-.164 1.012-.26.065-.019.14-.033.204-.053l.003-.001v-3.335h-.005c-.036.002-3.658.244-6.871.244-1.743 0-2.864-.581-3.528-1.828-.596-1.12-.862-2.842-.862-5.584 0-3.376.299-5.253 1.001-6.278.685-.999 1.761-1.195 3.389-1.195 2.395 0 5.269.262 6.77.418l.101.01h.005V1.008l-.004-.001C30.465.292 28.178 0 25.067 0z" class="fill-55" mask="url(#mask-6)"/>
    </g>
    <polyline fill="#3a3b3b" points="402.216 173.987 394.458 173.987 394.458 164.404 390.115 164.404 390.115 186.757 394.458 186.757 394.458 177.904 402.216 177.904 402.216 186.757 406.56 186.757 406.56 164.404 402.216 164.404 402.216 173.987" class="fill-57"/>
    <polyline fill="#3a3b3b" points="423.473 178.828 414.501 164.404 410.101 164.404 410.101 186.757 414.474 186.757 414.474 172.484 423.478 186.757 427.815 186.757 427.815 164.404 423.473 164.404 423.473 178.828" class="fill-58"/>
    <path fill="#3a3b3b" d="M446.219 165.651c.067.05.128.107.192.161-.063-.054-.125-.109-.192-.161" class="fill-59"/>
    <path fill="#3a3b3b" d="M444.39 164.738l.11.032c-.036-.012-.074-.02-.11-.032zm-8.873 21.576c-.051-.018-.097-.042-.147-.061.05.019.097.043.147.061zm8.132-4.416c-.04.044-.086.084-.13.126a2.614 2.614 0 0 1-.204.175c-.038.03-.079.058-.12.086a3.043 3.043 0 0 1-.603.308 3.814 3.814 0 0 1-.347.115l-.066.017c-.517.133-1.171.206-2.028.206-.674 0-1.272-.03-1.797-.125l-.016-.002a4.674 4.674 0 0 1-.459-.108c-.015-.005-.032-.008-.048-.012-.635-.192-1.137-.519-1.508-1.063-.671-.983-.932-2.634-.932-5.888 0-3.492.337-5.416 1.129-6.433.791-1.02 2.058-1.101 3.631-1.101 1.815 0 2.937.184 3.668 1.158.766 1.02 1.093 2.928 1.093 6.376 0 3.09-.303 4.84-1.012 5.853-.045.063-.095.122-.143.182-.036.043-.07.089-.108.13zm4.264-14.121c-.031-.063-.059-.135-.091-.195.033.061.06.132.091.195zm.454 1.099c-.038-.112-.073-.235-.114-.342.042.108.075.23.114.342zm.591 2.515c-.024-.158-.043-.329-.07-.481.027.153.046.322.07.481zm.157 1.288c-.01-.102-.015-.215-.025-.315.01.1.015.213.025.315zm-.403-2.589c-.035-.149-.065-.31-.103-.452.038.143.068.302.103.452zm.195 10.211c.012-.071.02-.152.032-.224-.012.073-.02.153-.032.224zm-.268 1.219c.019-.073.034-.157.053-.232-.019.075-.034.158-.053.232zm-.343 1.065c.018-.046.032-.1.049-.147-.017.047-.031.101-.049.147zm.961-6.852c0-2.546-.223-4.588-.674-6.209a10.85 10.85 0 0 0-.36-1.082c-.011-.028-.024-.051-.036-.079a8.306 8.306 0 0 0-.399-.853c-.018-.033-.039-.06-.057-.092a6.054 6.054 0 0 0-1.018-1.354c-.094-.091-.201-.168-.302-.252a5.32 5.32 0 0 0-.265-.212c.024.018.05.033.073.051a5.428 5.428 0 0 0-.281-.196l.039.028a5.36 5.36 0 0 0-.493-.296c.035.018.072.036.106.055a5.74 5.74 0 0 0-.302-.158l.019.01c-.139-.068-.284-.124-.429-.182.035.014.073.026.107.04a7.17 7.17 0 0 0-1.152-.38c-.963-.225-2.064-.321-3.682-.321-2.77 0-4.936.308-6.502 1.813a6.166 6.166 0 0 0-1.068 1.404c-.007.013-.016.023-.023.036-1.023 1.815-1.511 4.486-1.511 8.229 0 1.86.121 3.441.364 4.781.011.059.025.11.036.168.07.363.146.716.235 1.043.027.099.06.185.089.281.081.269.163.536.257.779.041.104.089.194.132.293.094.215.187.432.293.626.041.076.09.14.133.212.273.458.574.867.923 1.203 1.528 1.465 3.675 1.759 6.642 1.759a24.968 24.968 0 0 0 2.203-.104c.187-.019.372-.04.556-.066.332-.047.654-.105.963-.179.065-.016.129-.036.193-.053.041-.011.08-.025.121-.037.117-.031.225-.066.333-.1.1-.033.201-.065.299-.102.096-.036.194-.071.284-.109-.048.021-.102.031-.151.05a5.816 5.816 0 0 0 1.166-.622c-.022.016-.041.037-.064.052.031-.021.056-.044.085-.065.028-.019.054-.041.081-.061.154-.116.296-.235.426-.357-.038.035-.079.063-.117.096.053-.046.109-.087.161-.136l-.044.04c.048-.043.102-.075.149-.121.603-.593 1.085-1.36 1.462-2.306a.091.091 0 0 1 .007-.014c.669-1.689.993-3.964.993-6.951z" class="fill-60"/>
    <path fill="#3a3b3b" d="M444.985 164.952c.102.043.205.085.303.132a6.124 6.124 0 0 0-.303-.132" class="fill-61"/>
    <path fill="#3a3b3b" d="M445.59 165.242" class="fill-62"/>
    <path fill="#3a3b3b" d="M458.614 182.809c-.431 0-.871-.007-1.213-.197a1.005 1.005 0 0 1-.261-.21c-.006-.006-.01-.015-.016-.022a1.134 1.134 0 0 1-.172-.275c-.006-.014-.009-.032-.014-.046a2.218 2.218 0 0 1-.138-.832v-16.823h-4.343v18.013c0 .04.009.073.009.113.005.309.03.594.071.862.009.057.014.117.024.173.054.295.135.559.23.805.017.044.031.09.049.133.108.25.239.472.386.673.024.033.044.068.069.1.165.21.352.391.554.55.017.013.028.031.045.044.026.019.059.032.085.051.146.103.3.194.46.276.052.026.101.055.155.08.189.086.388.155.592.215.063.019.125.039.191.056.214.055.436.095.662.126.075.011.148.023.226.032.243.026.491.037.741.041.055.001.104.01.16.01h9.322v-3.948h-7.874z" class="fill-63"/>
    <path fill="#3a3b3b" d="M469.033 169.045c.059-.177.114-.361.18-.526-.065.164-.121.349-.18.526zm-.339 1.227c.05-.221.096-.448.154-.655-.057.205-.104.434-.154.655zm-.237 1.293c.033-.226.062-.461.101-.675-.039.212-.068.449-.101.675zm-.149 1.274c.014-.16.023-.331.039-.486-.016.153-.024.326-.039.486zm1.183-4.927c.054-.111.103-.232.161-.337-.057.105-.107.226-.161.337zm12.024-3.174l.113.032c-.037-.012-.075-.021-.113-.032zm-8.87 21.576c-.052-.018-.098-.042-.149-.061.05.019.098.043.149.061zm8.13-4.414c-.039.042-.083.081-.125.121a2.752 2.752 0 0 1-.209.18 2.64 2.64 0 0 1-.355.226 3.466 3.466 0 0 1-.183.091 3.748 3.748 0 0 1-.529.189l-.069.019c-.516.132-1.17.205-2.026.205-.675 0-1.274-.03-1.8-.125l-.013-.002a4.674 4.674 0 0 1-.459-.108l-.048-.012c-.636-.192-1.139-.519-1.51-1.063-.251-.368-.445-.831-.589-1.436v-.001c-.24-1.01-.343-2.417-.343-4.451 0-3.492.338-5.416 1.129-6.433.792-1.02 2.059-1.101 3.633-1.101 1.815 0 2.937.184 3.667 1.158.767 1.02 1.094 2.928 1.094 6.376 0 3.09-.303 4.84-1.013 5.853-.041.06-.089.115-.134.171-.039.048-.077.099-.118.143zm4.25-14.156c-.026-.051-.048-.109-.074-.158.027.049.048.107.074.158zm.457 1.094c-.034-.098-.064-.205-.099-.299.036.094.065.201.099.299zm.594 2.485c-.021-.133-.036-.277-.059-.404.023.128.038.271.059.404zm.157 1.242c-.006-.061-.009-.13-.015-.191.006.061.009.13.015.191zm-.405-2.523c-.031-.131-.057-.272-.09-.397.033.126.059.266.09.397zm.207 10.251c.008-.044.013-.095.02-.14-.007.046-.012.096-.02.14zm-.268 1.221c.015-.056.027-.12.041-.177-.015.057-.026.121-.041.177zm-.342 1.068c.013-.036.024-.078.038-.115-.014.037-.024.079-.038.115zm-.06.157l.028-.06c.128-.324.242-.671.345-1.039l.003-.008c.431-1.55.642-3.492.642-5.899 0-2.543-.221-4.584-.672-6.204l-.013-.043a10.736 10.736 0 0 0-.347-1.04c-.014-.038-.032-.069-.047-.106a8.35 8.35 0 0 0-.387-.828c-.023-.041-.049-.075-.073-.115a6.025 6.025 0 0 0-1.004-1.333c-.095-.092-.202-.169-.304-.254a5.425 5.425 0 0 0-.261-.209c.023.018.049.033.072.05a5.291 5.291 0 0 0-.284-.197l.04.028a5.566 5.566 0 0 0-.492-.295c.036.019.073.037.107.056a5.783 5.783 0 0 0-.303-.159l.02.01a5.854 5.854 0 0 0-.431-.182c.036.014.074.026.109.041a7.04 7.04 0 0 0-1.152-.381c-.963-.225-2.065-.321-3.682-.321-2.77 0-4.936.308-6.504 1.813a6.148 6.148 0 0 0-1.076 1.42l-.013.019c-1.023 1.814-1.512 4.485-1.512 8.23 0 1.861.122 3.441.365 4.782.01.057.024.107.035.164.07.365.146.719.236 1.047.026.096.057.178.085.27.082.273.165.544.261.79.04.101.086.187.128.283.094.219.189.439.296.636.042.076.09.139.133.211.273.458.574.867.924 1.203 1.528 1.465 3.673 1.759 6.642 1.759a24.94 24.94 0 0 0 2.202-.104c.187-.019.372-.04.556-.066.334-.048.659-.105.97-.18.062-.015.121-.034.182-.051.043-.011.083-.026.126-.038.113-.03.218-.064.322-.097.105-.035.211-.068.312-.107.095-.035.192-.07.28-.107-.047.02-.1.03-.148.05.414-.169.807-.37 1.166-.623-.023.016-.043.038-.066.054.032-.022.058-.045.089-.068.024-.017.048-.037.073-.056a5.79 5.79 0 0 0 .436-.364c-.038.034-.079.062-.117.095.052-.045.108-.086.159-.134l-.042.039c.046-.042.098-.073.143-.117.39-.384.728-.847 1.023-1.376l.025-.041c.144-.263.274-.548.395-.848z" class="fill-64"/>
    <path fill="#3a3b3b" d="M483.347 165.651c.066.05.126.106.189.159-.062-.053-.123-.108-.189-.159" class="fill-65"/>
    <path fill="#3a3b3b" d="M482.718 165.243" class="fill-66"/>
    <path fill="#3a3b3b" d="M482.113 164.953c.102.042.205.084.302.131a5.271 5.271 0 0 0-.302-.131" class="fill-67"/>
    <path fill="#3a3b3b" d="M495.614 186.895c.151.003.296.011.454.007-.094.002-.189.005-.28.005-.061 0-.113-.011-.174-.012zm-1.286-.113c.101.017.206.03.31.043-.104-.013-.209-.026-.31-.043zm-1.088-.272c.052.018.111.03.164.047-.054-.017-.112-.028-.164-.047zm-1.073-.525c.036.023.069.05.106.072-.037-.022-.07-.049-.106-.072zm-3.101-14.486c-.012.093-.025.185-.036.28.011-.096.024-.186.036-.28zm.179-1.133c-.026.137-.054.272-.077.412.024-.142.051-.276.077-.412zm.223-.973c-.039.144-.079.287-.113.437.035-.151.074-.293.113-.437zm.256-.825c-.043.12-.088.238-.127.362.04-.126.084-.242.127-.362zm.241-.616c-.021.048-.045.092-.065.14.02-.049.044-.092.065-.14zm2.725-3.031c-.035.018-.073.032-.108.05.035-.018.073-.032.108-.05zm.802-.337c-.04.013-.083.022-.122.036.039-.014.082-.023.122-.036zm8.485 9.497zm-1.541.108zm-1.366.218zm-1.182.349zm5.289-.708c-2.462 0-4.174.233-5.387.734l-.003.002v2.723h3.156l.002 3.99c-.017.015-1.749 1.403-3.829 1.403h-.067c-1.676-.015-2.582-.457-3.126-1.526-.523-1.031-.738-2.727-.738-5.854 0-3.071.219-4.768.754-5.855.583-1.183 1.608-1.711 3.326-1.711 2.87 0 6.019.342 7.205.471.271.03.435.047.47.047h.005v-3.335l-.004-.001c-3.137-.758-5.088-.977-8.697-.977-.757 0-1.447.077-2.08.223-.018.004-.035.01-.053.015a6.584 6.584 0 0 0-.817.246c-.049.018-.091.042-.139.061a6.17 6.17 0 0 0-.642.299c-.056.032-.106.07-.161.103a5.558 5.558 0 0 0-.534.355c-.05.039-.093.084-.142.125a5.477 5.477 0 0 0-.472.431c-.026.027-.048.058-.073.086a6.305 6.305 0 0 0-.901 1.268c-.96 1.79-1.389 4.285-1.389 8.088 0 2.269.117 4.671.706 6.681l-.008-.034c.313 1.086.763 2.03 1.392 2.79-.059-.071-.128-.133-.183-.207.098.127.197.244.296.354.03.033.062.063.093.096l.084.086-.032-.036c.08.083.166.161.251.239-.025-.023-.056-.038-.081-.062-.046-.044-.092-.094-.138-.141.046.047.084.103.131.149.049.046.108.076.157.12.158.139.327.265.502.385.105.072.205.151.316.215.263.153.545.286.849.398.151.055.318.092.479.137.184.051.37.101.568.138.184.034.376.059.57.08.202.022.413.036.629.045.125.004.236.026.366.026.139 0 .281-.003.424-.009 2.6-.092 3.799-.724 4.798-1.645l1.176 1.493h3.099v-12.646h-.004c-.743-.063-1.467-.063-2.104-.063z" class="fill-68"/>
    <path fill="#3a3b3b" d="M489.547 182.14c.061.216.125.42.192.611-.071-.198-.131-.405-.192-.611" class="fill-69"/>
    <polyline fill="#3a3b3b" points="521.893 164.404 517.036 175.11 512.616 164.407 512.614 164.404 507.899 164.404 514.803 179.823 514.803 186.757 519.146 186.757 519.146 179.825 526.604 164.411 526.607 164.404 521.893 164.404" class="fill-70"/>
    <path fill="#3a3b3b" d="M142.228 36.631v56.625c0 4.014 3.266 7.281 7.281 7.281h78.131V86.282h-71.177V43.598h71.177V29.35h-78.131c-4.015 0-7.281 3.266-7.281 7.281" class="fill-71"/>
    <path fill="#3a3b3b" d="M526.552 43.598V29.35h-71.165V.867h-14.24v92.384c0 4.014 3.266 7.281 7.282 7.281h78.123V86.286h-71.165V43.598h71.165" class="fill-72"/>
    <path fill="#3a3b3b" d="M341.497 36.631v28.154c0 4.015 3.267 7.282 7.281 7.282h63.905v14.215h-71.186v14.255h78.139c4.014 0 7.281-3.267 7.281-7.281V65.101c0-4.015-3.267-7.281-7.281-7.281h-63.905V43.598h71.186V29.35h-78.139c-4.014 0-7.281 3.266-7.281 7.281" class="fill-73"/>
    <path fill="#3a3b3b" d="M256.104 86.289h56.928V43.598h-56.928v42.691zm63.903-56.939h-70.855c-4.014 0-7.281 3.266-7.281 7.281v56.62c0 4.014 3.267 7.281 7.281 7.281h70.855c4.015 0 7.281-3.267 7.281-7.281v-56.62c0-4.015-3.266-7.281-7.281-7.281z" class="fill-74"/>
    <g class="group-78" transform="translate(0 1.737)">
      <mask id="mask-8" fill="#fff">
        <use xlink:href="#path-7"/>
      </mask>
      <path fill="#3a3b3b" d="M113.593 82.871l-56.969 28.58-42.669-21.383V63.6L0 72.124V94.18a7.28 7.28 0 0 0 3.997 6.499l49.361 24.95a7.282 7.282 0 0 0 3.286.78 7.29 7.29 0 0 0 3.251-.763l49.69-24.805a7.277 7.277 0 0 0 4.03-6.529l-.022-11.433v-.008" class="fill-75" mask="url(#mask-8)"/>
      <path fill="#3a3b3b" d="M112.536 28.414a7.277 7.277 0 0 0-2.918-2.684L60.257.78A7.31 7.31 0 0 0 53.72.762L4.029 25.568a7.265 7.265 0 0 0-2.944 2.69A7.27 7.27 0 0 0 0 32.096l.022 11.432v.01l56.968-28.58L99.659 36.34v26.467l13.956-8.524V32.23a7.278 7.278 0 0 0-1.079-3.815" class="fill-77" mask="url(#mask-8)"/>
    </g>
  </g>
</svg>
