<svg id="Layer_1" data-name="Layer 1" xmlns="http://www.w3.org/2000/svg" viewBox="0 0 207.83 232.54"><defs><style>.cls-1,.cls-2{fill:#fff}.cls-2{fill-rule:evenodd}.cls-3{fill:#231f20}</style></defs><path class="cls-1" d="m116.17 152.12-.22.08-.21-.08s-27.9-14.55-48.63-55.25C47.67 58.73 51.42 6.59 51.42 6.59s14.32 9.3 28.46 12.6A159.27 159.27 0 0 0 116 23.45a159 159 0 0 0 36-4.26c14.15-3.3 28.47-12.6 28.47-12.6s3.73 52.14-15.7 90.28c-20.73 40.7-48.62 55.25-48.62 55.25Z" transform="translate(-12.04 -6.59)"/><path class="cls-1" d="M51.55 6.85c-.24 3.91-2.82 53.61 15.69 90 20.47 40.18 48.28 55 48.56 55.17l.15.06.17-.06c.26-.14 28.08-15 48.55-55.17 18.5-36.35 15.92-86 15.69-90-1.83 1.14-15.22 9.42-28.31 12.48a162.46 162.46 0 0 1-35.11 4.28H115a162.61 162.61 0 0 1-35.16-4.28C66.76 16.27 53.38 8 51.55 6.85ZM16.34 16.43a49.53 49.53 0 0 0-2.24 15.73c.09 10.58 5.55 15.74 5.55 15.74s4.63-6.3 2.21-16.61c-2.7-11.54-5.52-14.86-5.52-14.86ZM31.11 76.64c-.1-2.83 1.16-5.16 2.82-5.21s3.07 2.18 3.17 5-1.17 5.16-2.82 5.21-3.07-2.18-3.17-5ZM40.45 135.84a49.53 49.53 0 0 0 9.08 13c7.29 7.68 14.8 7.73 14.8 7.73s-.92-7.77-9.71-13.66c-9.85-6.6-14.17-7.11-14.17-7.11ZM65.06 131.2a49.36 49.36 0 0 0 1.07 15.85c2.3 10.33 8.71 14.25 8.71 14.25s3.22-7.13-1.29-16.72c-5-10.72-8.49-13.38-8.49-13.38ZM55.81 137.92c-.68-2.73.07-5.27 1.67-5.67s3.47 1.49 4.14 4.24-.06 5.27-1.67 5.68-3.46-1.5-4.14-4.25ZM63 164.32c-1.89-2.1-2.42-4.7-1.19-5.81s3.75-.29 5.64 1.8 2.42 4.69 1.2 5.79-3.77.31-5.65-1.78ZM51.47 102.78a49.55 49.55 0 0 0-3.07 15.59c-.46 10.57 4.73 16 4.73 16s4.94-6 3.07-16.48c-2.09-11.66-4.73-15.12-4.73-15.12ZM41 111c-.09-2.81 1.17-5.15 2.83-5.21s3.06 2.19 3.16 5-1.14 5.21-2.8 5.21-3.07-2.18-3.17-5ZM40.69 130.13c-1.37-2.46-1.3-5.11.14-5.92s3.73.55 5.1 3 1.31 5.11-.14 5.92-3.73-.55-5.1-3ZM15 57.59c-1.11-2.61-.77-5.24.75-5.88s3.66.93 4.75 3.54.77 5.22-.76 5.87-3.64-.94-4.74-3.53ZM28.31 41.36a49.67 49.67 0 0 0-3.6 15.48C23.88 67.4 28.87 73 28.87 73s5.13-5.87 3.65-16.36c-1.69-11.72-4.21-15.28-4.21-15.28ZM12 60.75A49.86 49.86 0 0 0 16.65 76c4.56 9.55 11.69 11.92 11.69 11.92s1.53-7.67-5-16C16 62.56 12 60.75 12 60.75ZM86.62 156.13a49.44 49.44 0 0 0 3.27 15.56c3.7 9.9 10.6 12.89 10.6 12.89s2.19-7.51-3.6-16.37c-6.49-9.92-10.27-12.08-10.27-12.08ZM64.74 170a49.08 49.08 0 0 0 12.32 10c9.13 5.38 16.36 3.36 16.36 3.36s-3-7.22-13.11-10.46C69 169.29 64.74 170 64.74 170ZM78.41 166.7c-1.06-2.62-.68-5.24.86-5.85s3.63 1 4.69 3.61.67 5.24-.86 5.85-3.64-1-4.69-3.61ZM41.36 73.25a49.32 49.32 0 0 0-3.62 15.48c-.81 10.55 4.17 16.17 4.17 16.17s5.15-5.9 3.65-16.37c-1.69-11.73-4.2-15.28-4.2-15.28ZM29.28 95.11c-1.1-2.6-.76-5.23.76-5.88s3.65.94 4.76 3.54.76 5.23-.8 5.87-3.64-.94-4.75-3.53ZM19.89 93.15a49.63 49.63 0 0 0 6.18 14.63c5.54 9 12.88 10.64 12.88 10.64s.72-7.79-6.67-15.39c-8.28-8.49-12.39-9.88-12.39-9.88Z" transform="translate(-12.04 -6.59)"/><path class="cls-2" d="M98.52 187.78s4.66 2.32 15.44 9c7.54 4.65 18.81 14.69 18.81 14.69a4.49 4.49 0 0 0-3.91 1.38 8.81 8.81 0 0 0-1.8 4.54s-1.16-9.5-13.2-18.29c-9.71-7.05-15.34-11.3-15.34-11.3Z" transform="translate(-12.04 -6.59)"/><path class="cls-1" d="M215.56 16.43a49.19 49.19 0 0 1 2.24 15.73c-.09 10.58-5.55 15.74-5.55 15.74s-4.63-6.3-2.21-16.61c2.71-11.54 5.52-14.86 5.52-14.86ZM200.72 76.64c.11-2.83-1.17-5.16-2.82-5.21s-3.07 2.18-3.17 5 1.16 5.16 2.82 5.21 3.07-2.18 3.17-5ZM191.46 135.84a49.44 49.44 0 0 1-9.09 13c-7.29 7.68-14.8 7.73-14.8 7.73s.92-7.77 9.72-13.66c9.85-6.6 14.17-7.11 14.17-7.11ZM166.84 131.2a49.36 49.36 0 0 1-1.07 15.85c-2.29 10.33-8.7 14.25-8.7 14.25s-3.22-7.13 1.29-16.72c5-10.72 8.48-13.38 8.48-13.38ZM176 137.92c.69-2.73-.06-5.27-1.66-5.67s-3.46 1.49-4.13 4.24.05 5.27 1.66 5.68 3.46-1.5 4.13-4.25ZM168.81 164.32c1.88-2.1 2.42-4.7 1.19-5.81s-3.75-.29-5.65 1.8-2.41 4.69-1.19 5.79 3.76.31 5.65-1.78ZM180.43 102.78a49.55 49.55 0 0 1 3.07 15.59c.46 10.57-4.72 16-4.72 16s-4.94-6-3.07-16.48c2.08-11.66 4.72-15.12 4.72-15.12ZM190.81 111c.09-2.81-1.17-5.15-2.82-5.21s-3.07 2.19-3.17 5S186 116 187.64 116s3.06-2.18 3.17-5ZM191.13 130.13c1.38-2.46 1.31-5.11-.13-5.92s-3.74.55-5.1 3-1.3 5.11.14 5.92 3.73-.55 5.09-3ZM216.83 57.59c1.09-2.61.76-5.24-.76-5.88s-3.65.93-4.76 3.54-.75 5.22.77 5.87 3.65-.94 4.75-3.53ZM203.59 41.36a49.83 49.83 0 0 1 3.61 15.48C208 67.4 203 73 203 73s-5.15-5.88-3.64-16.37c1.68-11.72 4.2-15.28 4.2-15.28ZM219.87 60.75A49.86 49.86 0 0 1 215.26 76c-4.56 9.55-11.7 11.92-11.7 11.92s-1.52-7.67 5-16c7.32-9.32 11.28-11.13 11.28-11.13ZM145.29 156.13a49.65 49.65 0 0 1-3.29 15.56c-3.7 9.9-10.6 12.89-10.6 12.89s-2.18-7.51 3.61-16.37c6.48-9.92 10.27-12.08 10.27-12.08ZM167.17 170a49.26 49.26 0 0 1-12.33 10c-9.12 5.38-16.35 3.36-16.35 3.36s3-7.22 13.1-10.46c11.28-3.62 15.58-2.92 15.58-2.92ZM153.42 166.7c1.05-2.62.67-5.24-.86-5.85s-3.64 1-4.69 3.61-.68 5.24.87 5.85 3.63-1 4.68-3.61ZM190.55 73.25a49.49 49.49 0 0 1 3.61 15.48C195 99.28 190 104.9 190 104.9s-5.15-5.89-3.65-16.37c1.68-11.73 4.2-15.28 4.2-15.28ZM202.54 95.11c1.12-2.6.77-5.23-.75-5.88s-3.66.94-4.76 3.54-.76 5.22.76 5.87 3.65-.94 4.75-3.53ZM212 93.15a49.41 49.41 0 0 1-6.17 14.63c-5.54 9-12.87 10.64-12.87 10.64s-.72-7.79 6.67-15.39c8.25-8.49 12.37-9.88 12.37-9.88Z" transform="translate(-12.04 -6.59)"/><path class="cls-2" d="M133.38 187.78s-4.65 2.32-15.43 9c-7.53 4.65-18.81 14.69-18.81 14.69a4.49 4.49 0 0 1 3.91 1.38 8.91 8.91 0 0 1 1.8 4.54s1.15-9.5 13.2-18.29c9.7-7.05 15.33-11.3 15.33-11.3Z" transform="translate(-12.04 -6.59)"/><path class="cls-3" d="M60.29 21.59S72.32 34.33 78 38.71 97.76 52 102.27 57.48a68.18 68.18 0 0 1 9.47 16.43 62.41 62.41 0 0 0 3.68 7.43 67.1 67.1 0 0 0-9.18 5.73 51.62 51.62 0 0 0-7.21 8A12 12 0 0 1 94 93a23.48 23.48 0 0 1-3.46-3.57s2.73.77 3.93 1 3.5.37 3.53-.11-3.19-1.7-6.09-3.21a26.84 26.84 0 0 1-6.5-4.89s3.3 1.25 5.26 1.72 3.6 1.06 3.83.45-5.38-2.46-9-4.61a22.15 22.15 0 0 1-7.71-8.07s5.66 3.54 8.1 4.62 5.26 2.36 5.62 2.12.6-.28.48-.77-1.59-.94-3.68-2-4.53-3.08-6.2-4.15c-4.87-3.09-8.3-9.29-8.3-9.29s7.09 5.07 8.57 5.83 6.32 3.19 6.8 2.59-.4-.84-.75-1.2-8.85-5.35-11.11-7.1a22.12 22.12 0 0 1-8-11.75A112 112 0 0 0 78.34 58c2.69 1.72 8 4.88 8.7 4.4s.39-.52-.13-1a44.31 44.31 0 0 1-10.78-7.92c-7.09-6.93-9-12.63-9-12.63s7.37 6.31 9.94 8.39 7.21 5.19 8 5.43 1.36.48 1.73 0a1.11 1.11 0 0 0-.24-1.56c-.52-.49-4.77-3.46-7.86-6s-8.64-7.33-11.39-10.91c-4.61-6-7-14.57-7-14.57ZM120.85 79.16s1.22-2.71 2.22-5 2.9-6.79 4.66-8.92a57.2 57.2 0 0 1 10.49-10c5.6-4.37 10.81-8.78 15.09-12 8-6 16.64-17.31 16.64-17.31a43.84 43.84 0 0 1-5.3 13.1c-3.37 5.3-10.08 13.48-10.44 14s-1 1.32-.53 1.6a1 1 0 0 0 1.39-.09c.56-.47 2.31-1.94 4.08-3.73 1.95-2 4.84-5.39 4.84-5.39a21.48 21.48 0 0 1-4.37 10.32c-3.71 4.37-7.79 8.45-8.26 8.83s-1.88 1.76-1.51 2.22 1 .21 1.61-.25 4-3.48 5.08-4.3 3.83-3.71 3.83-3.71a27.51 27.51 0 0 1-4.46 8.08 59.84 59.84 0 0 1-8.48 7.26c-.74.56-2.42 2-2 2.32a1.49 1.49 0 0 0 1.67-.09c.85-.44 5-3.24 5-3.24a13.93 13.93 0 0 1-5.57 7.62 47.61 47.61 0 0 1-7.72 4.19 7.71 7.71 0 0 0-5.81-6.45c-5.38-1.39-12.16.94-12.16.94Z" transform="translate(-12.04 -6.59)"/><path class="cls-3" d="M92.23 111.8S96.47 98.41 107 88.92c7-6.37 11.48-7.66 16.2-8.74 5.52-1.26 10.1-.47 12.35 2.13a6 6 0 0 1 .28 8.11l1.45 5-4.32-2.59a9.17 9.17 0 0 1-2.19.53 12.24 12.24 0 0 1-2.66-.07 16.49 16.49 0 0 1-.86 2.27 14.85 14.85 0 0 1-1.8 2.32s4.29 4.6 5.19 6.71a33.82 33.82 0 0 1 2.53 7.7l-3.8 1.4a29.57 29.57 0 0 0-2.19-6.25 26.29 26.29 0 0 0-4.25-5.5s2.62 5.24 3.19 6.9c.88 2.52 1.72 5.25 1.72 5.25l-3.9.93s-.83-3.35-1.6-5.45a49.48 49.48 0 0 0-3.79-7s1.52 5.71 2.26 7.9a46.13 46.13 0 0 1 1.06 4.86l-4.06.33-.91-5.39a60.66 60.66 0 0 0-2.2-7.24s-.2 5.25 0 7.11.8 5.65.8 5.65l-4.59-.07s-.27-4.18-.27-5.65.07-7.31.07-7.31a29.34 29.34 0 0 0-1.73 6.78 58.17 58.17 0 0 0-.2 6.12l-4.45-.27a43.41 43.41 0 0 1 .67-6.92c.59-2.65 1.79-6 1.79-6a20.22 20.22 0 0 0-3.45 5.78 54.56 54.56 0 0 0-1.26 6.71l-4.2-.79a26 26 0 0 1 1.12-5.76c.93-2.72 2.72-7 2.72-7A28.2 28.2 0 0 0 97.6 108a16.25 16.25 0 0 0-1.46 5.71l-3.91-1.86Z" transform="translate(-12.04 -6.59)"/><path class="cls-1" d="M130.43 86.81a1.66 1.66 0 1 1 1.65 1.66 1.66 1.66 0 0 1-1.65-1.66Z" transform="translate(-12.04 -6.59)"/><path class="cls-1" d="M132.08 88.87a2.08 2.08 0 1 1 2.08-2.06 2.07 2.07 0 0 1-2.08 2.06Zm0-3.32a1.25 1.25 0 1 0 1.25 1.26 1.25 1.25 0 0 0-1.25-1.26Z" transform="translate(-12.04 -6.59)"/><path d="m131.41 103.42 1.33 1.54a13.49 13.49 0 0 1 .93-2.39 8 8 0 0 1 1.07-1.47 5.86 5.86 0 0 0 3.58.21c2.66-.61 5.85-3.19 5.85-3.19a35.72 35.72 0 0 0-5 .14 10 10 0 0 0-3.65 1.52 19.66 19.66 0 0 1 2.12-3.26c.94-1 2.47-2.59 2.47-2.59a5.13 5.13 0 0 0 3.31 2 12.83 12.83 0 0 0 5.52-1.32 6.16 6.16 0 0 0-3.39-1.73 13.91 13.91 0 0 0-4.12-.07 10.28 10.28 0 0 1 2-1.46c.93-.46 2.19-.92 2.19-.92a5.23 5.23 0 0 0 3.73 2.32 18.39 18.39 0 0 0 5.63-.07 7.4 7.4 0 0 0-2.98-2.33 15.89 15.89 0 0 0-4.06-.8 22.45 22.45 0 0 1 2.4-.86c.79-.2 1.93-.35 1.93-.35a5 5 0 0 0 3.78 2.41 16.5 16.5 0 0 0 5.06-.54 9.52 9.52 0 0 0-3.39-1.93 15.92 15.92 0 0 0-3.26-.66l4.54-1.45-5.64.46a22 22 0 0 0 2.65-2.4 13.18 13.18 0 0 0 2.2-3.64s-3.67 1.51-5.12 3.11a39.47 39.47 0 0 0-2.72 3.39l-1.66.8a15 15 0 0 0 1.92-2.8c.4-1 1-3 1-3a8.3 8.3 0 0 0-4.85 3.2c-1.15 1.72-2.2 3.58-3.19 4.18a15.32 15.32 0 0 0-2.13 1.86s.67-1.39 1.34-3.19a12.46 12.46 0 0 0 .72-3.45s-3.92 2.12-4.84 4.11a6.24 6.24 0 0 0-.47 4.32 1.05 1.05 0 0 0 .27.54s-.47.59-1.79 2.45-2.2 3.13-2.2 3.13a3.7 3.7 0 0 0-.4-2.73 7.06 7.06 0 0 0-2.38-2.73 10.56 10.56 0 0 0-.07 4.27 4.55 4.55 0 0 0 1.66 2.51l-1.87 2.85Z" transform="translate(-12.04 -6.59)" style="fill:#231f20;fill-rule:evenodd"/><path class="cls-1" d="M99.48 132.46H101v-11.4h-1.11c-.44 1.77-1.27 2.09-3 2.21v1.13h2.59v8.06Z" transform="translate(-12.04 -6.59)"/><path class="cls-2" d="M105.85 129.65a3.26 3.26 0 0 0 3.42 3.11c3.56 0 4.44-3.46 4.44-6.37 0-2.64-1-5.33-4.1-5.33a3.82 3.82 0 0 0-3.84 3.93 3.59 3.59 0 0 0 3.62 3.62 3.53 3.53 0 0 0 2.69-1.24c-.16 1.72-.47 4.09-2.67 4.09a1.86 1.86 0 0 1-2-1.81Zm1.5-4.78a2.3 2.3 0 1 1 4.58-.05 2.29 2.29 0 1 1-4.58.05ZM124.17 124.21a3.31 3.31 0 0 0-3.52-3.12c-3.32 0-4.33 3.59-4.33 6.28s1 5.39 4.09 5.39a3.79 3.79 0 0 0 3.83-3.91 3.54 3.54 0 0 0-3.6-3.6 3.37 3.37 0 0 0-2.7 1.24c.17-1.72.48-4.09 2.69-4.09a1.83 1.83 0 0 1 2 1.81Zm-1.5 4.8a2.29 2.29 0 1 1-4.57 0 2.29 2.29 0 1 1 4.57 0ZM127 126.92c0 2.69 1 5.87 3.66 5.87 2.84 0 3.65-3.18 3.65-5.87s-.81-5.88-3.65-5.88c-2.67 0-3.66 3.18-3.66 5.88Zm3.66-4.52c2 0 2.28 2.55 2.28 4.52s-.31 4.51-2.28 4.51-2.28-2.55-2.28-4.51.3-4.52 2.28-4.52Z" transform="translate(-12.04 -6.59)"/><path d="M130.66 133.11c-2.75 0-4-3.1-4-6.19s1.23-6.21 4-6.21c2.5 0 4 2.32 4 6.21s-1.47 6.19-4 6.19Zm0-11.76c-2.63 0-3.34 3.5-3.34 5.57s.71 5.55 3.34 5.55c3.09 0 3.33-4.25 3.33-5.55s-.24-5.57-3.33-5.57Zm-10.25 11.73c-2.8 0-4.42-2.08-4.42-5.71 0-3.06 1.22-6.62 4.66-6.62a3.64 3.64 0 0 1 3.84 3.43v.35h-2.12v-.27c-.16-1.08-.67-1.54-1.7-1.54-1.56 0-2 1.35-2.27 2.93a3.77 3.77 0 0 1 2.28-.71 3.88 3.88 0 0 1 3.93 3.91 4.1 4.1 0 0 1-4.16 4.23Zm.24-11.68c-3 0-4 3.22-4 6 0 1.89.5 5.07 3.77 5.07a3.47 3.47 0 0 0 3.51-3.59 3.2 3.2 0 0 0-3.28-3.27 3.08 3.08 0 0 0-2.46 1.12l-.66.76.1-1c.15-1.54.45-4.39 3-4.39a2.13 2.13 0 0 1 2.29 1.82h.89a3 3 0 0 0-3.16-2.49Zm-11.38 11.68a3.54 3.54 0 0 1-3.74-3.41v-.34h2.17v.29a1.53 1.53 0 0 0 1.71 1.52c1.57 0 2-1.36 2.25-3a3.77 3.77 0 0 1-2.27.75 3.89 3.89 0 0 1-3.94-3.94 4.11 4.11 0 0 1 4.16-4.24c2.78 0 4.43 2.11 4.43 5.64 0 4.26-1.75 6.69-4.77 6.69Zm-3.06-3.08a2.93 2.93 0 0 0 3.06 2.47c3.59 0 4.12-3.8 4.12-6 0-1.5-.37-5-3.78-5a3.48 3.48 0 0 0-3.51 3.6 3.25 3.25 0 0 0 3.29 3.29 3.2 3.2 0 0 0 2.45-1.13l.65-.73-.09 1c-.14 1.53-.41 4.38-3 4.38a2.18 2.18 0 0 1-2.32-1.81Zm-4.87 2.81h-2.17v-8h-2.61V123h.31c1.69-.11 2.31-.4 2.71-2l.06-.23h1.7v12Zm-1.53-.65h.88v-10.77h-.55c-.48 1.62-1.35 2-2.93 2.17v.52h2.6v8Zm20.59-.31a2.64 2.64 0 0 1-2.62-2.83 2.61 2.61 0 1 1 5.21 0 2.62 2.62 0 0 1-2.59 2.81Zm0-4.91a2 2 0 0 0-2 2.08 2 2 0 0 0 2 2.18 2 2 0 0 0 1.95-2.16 1.93 1.93 0 0 0-1.94-2.1Zm10.25 4.85c-1.73 0-2.61-1.63-2.61-4.84s.88-4.85 2.61-4.85 2.61 1.63 2.61 4.85-.88 4.84-2.61 4.84Zm0-9c-1.32 0-2 1.37-2 4.2s.65 4.19 2 4.19 2-1.41 2-4.19-.66-4.2-2-4.2Zm-21 4.87a2.61 2.61 0 0 1-2.61-2.72 2.63 2.63 0 1 1 5.24-.05 2.61 2.61 0 0 1-2.63 2.77Zm0-4.9a2 2 0 0 0-2 2.18 2 2 0 1 0 3.94-.05 2 2 0 0 0-2-2.13Z" transform="translate(-12.04 -6.59)" style="stroke:#231f20;stroke-miterlimit:10;fill:#231f20"/><path class="cls-1" d="M13.47 222.42a22.31 22.31 0 0 1 3.49-.27c2.36 0 4 .55 5.15 1.59a5.83 5.83 0 0 1 1.79 4.56 6.72 6.72 0 0 1-1.83 4.94 7.83 7.83 0 0 1-5.62 1.83 27.56 27.56 0 0 1-3-.15Zm1.64 11.24a11.17 11.17 0 0 0 1.66.09c3.51 0 5.42-2 5.42-5.39 0-3-1.68-4.91-5.15-4.91a9.75 9.75 0 0 0-1.93.17ZM27 230.69a2.92 2.92 0 0 0 3.13 3.17 5.91 5.91 0 0 0 2.53-.47l.28 1.19a7.4 7.4 0 0 1-3 .57 4.24 4.24 0 0 1-4.49-4.61c0-2.75 1.62-4.92 4.28-4.92 3 0 3.77 2.62 3.77 4.3v.77Zm4.87-1.18c0-1.06-.43-2.7-2.3-2.7a2.75 2.75 0 0 0-2.55 2.7ZM35.5 228.81c0-1.17 0-2.11-.08-3h1.49l.07 1.56a3.6 3.6 0 0 1 3.25-1.77c2.2 0 3.86 1.87 3.86 4.64 0 3.28-2 4.9-4.15 4.9a3.2 3.2 0 0 1-2.81-1.43v5H35.5Zm1.64 2.43a3.55 3.55 0 0 0 .07.68 2.56 2.56 0 0 0 2.49 1.94c1.75 0 2.77-1.43 2.77-3.52 0-1.83-1-3.4-2.71-3.4a2.64 2.64 0 0 0-2.51 2.06 2.55 2.55 0 0 0-.11.68ZM53.86 232.47c0 .94 0 1.77.08 2.49h-1.48l-.09-1.49a3.43 3.43 0 0 1-3 1.69c-1.44 0-3.15-.79-3.15-4v-5.34h1.66v5c0 1.74.52 2.91 2 2.91a2.4 2.4 0 0 0 2.19-1.51 2.57 2.57 0 0 0 .15-.85v-5.6h1.66ZM58.61 223.21v2.62H61v1.26h-2.39V232c0 1.14.32 1.78 1.24 1.78a3.54 3.54 0 0 0 1-.12l.07 1.25a4.09 4.09 0 0 1-1.47.23 2.32 2.32 0 0 1-1.79-.7 3.39 3.39 0 0 1-.64-2.38v-5h-1.45v-1.26H57v-2.19ZM63.62 225.83l2 5.39c.21.61.44 1.32.59 1.87.17-.55.35-1.25.58-1.9l1.81-5.36h1.8l-2.49 6.51c-1.19 3.13-2 4.73-3.13 5.71a4.46 4.46 0 0 1-2 1.07l-.42-1.39a4.41 4.41 0 0 0 1.46-.81 5.1 5.1 0 0 0 1.39-1.85 1.07 1.07 0 0 0 .13-.4 1.31 1.31 0 0 0-.11-.43l-3.38-8.41ZM86.67 229.38c-.1-1.78-.21-3.91-.19-5.49h-.06c-.43 1.49-1 3.07-1.6 4.82l-2.24 6.17h-1.25l-2.06-6c-.6-1.79-1.11-3.43-1.47-4.94 0 1.58-.14 3.71-.25 5.62l-.37 5.44h-1.56l.88-12.71h2.1l2.16 6.14c.53 1.57 1 3 1.29 4.28.32-1.28.78-2.67 1.34-4.28l2.27-6.14h2.14l.79 12.71H87ZM93.13 223.26a1 1 0 0 1-2 0 1 1 0 0 1 1-1 1 1 0 0 1 1 1ZM91.28 235v-9.13h1.66V235ZM95.7 228.3c0-.94 0-1.72-.08-2.47h1.47l.1 1.51a3.37 3.37 0 0 1 3-1.72c1.26 0 3.23.76 3.23 3.89V235h-1.66v-5.3c0-1.48-.55-2.7-2.12-2.7a2.35 2.35 0 0 0-2.22 1.7 2.24 2.24 0 0 0-.11.77V235H95.7ZM108 223.26a1 1 0 0 1-2.06 0 1 1 0 0 1 1-1 1 1 0 0 1 1.06 1ZM106.16 235v-9.13h1.66V235ZM110.34 233.26a4.36 4.36 0 0 0 2.19.66c1.21 0 1.78-.6 1.78-1.36s-.48-1.22-1.7-1.68c-1.64-.58-2.42-1.49-2.42-2.58 0-1.47 1.19-2.68 3.15-2.68a4.58 4.58 0 0 1 2.25.57l-.42 1.2a3.56 3.56 0 0 0-1.86-.52c-1 0-1.53.56-1.53 1.24s.55 1.1 1.73 1.55c1.59.6 2.4 1.39 2.4 2.75 0 1.6-1.25 2.74-3.41 2.74a5.19 5.19 0 0 1-2.57-.63ZM120 223.21v2.62h2.37v1.26H120V232c0 1.14.32 1.78 1.24 1.78a3.4 3.4 0 0 0 1-.12l.08 1.25a4.09 4.09 0 0 1-1.47.23 2.3 2.3 0 0 1-1.79-.7 3.34 3.34 0 0 1-.64-2.38v-5H117v-1.26h1.42v-2.19ZM124.28 228.68c0-1.08 0-2-.08-2.85h1.46v1.79h.08a2.72 2.72 0 0 1 2.52-2 1.75 1.75 0 0 1 .48.06v1.56a3.1 3.1 0 0 0-.57-.05 2.31 2.31 0 0 0-2.22 2.13 4.34 4.34 0 0 0-.08.77V235h-1.64ZM131.52 225.83l2 5.39c.2.61.43 1.32.58 1.87.17-.55.36-1.25.58-1.9l1.82-5.36h1.75l-2.49 6.51c-1.19 3.13-2 4.73-3.13 5.71a4.37 4.37 0 0 1-2 1.07l-.41-1.39a4.48 4.48 0 0 0 1.45-.81 5 5 0 0 0 1.39-1.85 1.12 1.12 0 0 0 .14-.4 1.41 1.41 0 0 0-.12-.43l-3.37-8.41ZM152.05 230.32a4.46 4.46 0 0 1-4.54 4.84 4.34 4.34 0 0 1-4.38-4.69c0-3.06 2-4.85 4.53-4.85s4.39 1.91 4.39 4.7Zm-7.24.09c0 2 1.15 3.51 2.77 3.51s2.78-1.49 2.78-3.55c0-1.54-.78-3.5-2.74-3.5s-2.81 1.81-2.81 3.54ZM154.31 235v-7.87H153v-1.26h1.28v-.43a4.31 4.31 0 0 1 1.06-3.19 3.14 3.14 0 0 1 2.22-.85 3.91 3.91 0 0 1 1.42.26l-.23 1.29a2.33 2.33 0 0 0-1.05-.21c-1.42 0-1.78 1.24-1.78 2.64v.49h2.21v1.26H156V235ZM172.59 234.54a8.18 8.18 0 0 1-3.36.61c-3.58 0-6.28-2.27-6.28-6.44a6.33 6.33 0 0 1 6.64-6.67 6.89 6.89 0 0 1 3 .56l-.39 1.34a6 6 0 0 0-2.57-.52c-3 0-5 1.9-5 5.24 0 3.11 1.8 5.11 4.89 5.11a6.58 6.58 0 0 0 2.68-.53ZM182 232.47c0 .94 0 1.77.08 2.49h-1.48l-.1-1.49a3.46 3.46 0 0 1-3 1.69c-1.44 0-3.15-.79-3.15-4v-5.34H176v5c0 1.74.53 2.91 2 2.91a2.4 2.4 0 0 0 2.18-1.51 2.34 2.34 0 0 0 .15-.85v-5.6H182ZM184.74 221.57h1.66V235h-1.66ZM191.19 223.21v2.62h2.38v1.26h-2.38V232c0 1.14.32 1.78 1.25 1.78a3.51 3.51 0 0 0 1-.12l.08 1.25a4.15 4.15 0 0 1-1.48.23 2.32 2.32 0 0 1-1.79-.7 3.39 3.39 0 0 1-.64-2.38v-5h-1.41v-1.26h1.41v-2.19ZM203.07 232.47c0 .94 0 1.77.08 2.49h-1.47l-.1-1.49a3.43 3.43 0 0 1-3 1.69c-1.44 0-3.15-.79-3.15-4v-5.34H197v5c0 1.74.53 2.91 2 2.91a2.4 2.4 0 0 0 2.19-1.51 2.34 2.34 0 0 0 .15-.85v-5.6H203ZM205.82 228.68c0-1.08 0-2-.07-2.85h1.45l.06 1.79h.07a2.74 2.74 0 0 1 2.53-2 1.68 1.68 0 0 1 .47.06v1.56a3.1 3.1 0 0 0-.57-.05 2.33 2.33 0 0 0-2.22 2.13 4.34 4.34 0 0 0-.08.77V235h-1.64ZM212.72 230.69a2.92 2.92 0 0 0 3.13 3.17 5.91 5.91 0 0 0 2.53-.47l.29 1.19a7.5 7.5 0 0 1-3 .57 4.24 4.24 0 0 1-4.49-4.61c0-2.75 1.62-4.92 4.28-4.92 3 0 3.77 2.62 3.77 4.3a6.09 6.09 0 0 1-.05.77Zm4.87-1.18c0-1.06-.43-2.7-2.3-2.7a2.75 2.75 0 0 0-2.55 2.7Z" transform="translate(-12.04 -6.59)"/></svg>
