<svg id="Layer_1" data-name="Layer 1" xmlns="http://www.w3.org/2000/svg" viewBox="0 0 115.57 110.13"><defs><style>.cls-1{fill:#ff3750;}.cls-2{fill:#193764;}</style></defs><title>EMAP-logo_RGB</title><path class="cls-1" d="M94.76,33,40.86,10.68V94.3l53.9,25.08V33ZM40.68,10,95.14,32.51a.29.29,0,0,1,.2.27v87.05a.53.53,0,0,1,0,.12.28.28,0,0,1-.38.13L40.47,94.75a.31.31,0,0,1-.18-.27V10.25a.36.36,0,0,1,0-.1.28.28,0,0,1,.37-.15Z" transform="translate(-12.02 -9.97)"/><polygon class="cls-2" points="8.08 53.28 8.08 48.1 22.78 48.1 22.78 40.49 0 40.49 0 73.78 22.78 73.78 22.78 66.12 8.08 66.12 8.08 60.94 21.5 60.94 21.5 53.28 8.08 53.28 8.08 53.28"/><polygon class="cls-2" points="57.6 73.78 57.6 40.49 52.75 40.49 40.77 55.33 28.83 40.49 23.98 40.49 23.98 73.78 32.06 73.78 32.06 55.14 40.77 65.84 49.52 55.14 49.52 73.78 57.6 73.78 57.6 73.78"/><path class="cls-2" d="M80.28,79.14H90.75l1.71,4.61h9L88,50.47H83.18L69.58,83.75h9l1.71-4.61ZM85.51,65l2.43,6.47H83.09L85.51,65Z" transform="translate(-12.02 -9.97)"/><path class="cls-2" d="M101.43,50.47V83.75h8.09v-7h3.13c9.75,0,14.94-6,14.94-13.13s-5.19-13.12-14.94-13.12Zm8.09,18.59v-11h3.75c3.43,0,6.66,1.85,6.66,5.51,0,3.85-3.23,5.47-6.66,5.47Z" transform="translate(-12.02 -9.97)"/><polygon class="cls-1" points="83.32 23.76 83.32 108.18 82.75 108.18 82.75 23.76 83.32 23.76 83.32 23.76"/></svg>
