<svg id="Layer_1" data-name="Layer 1" xmlns="http://www.w3.org/2000/svg" viewBox="0 0 139 139"><defs><style>.cls-1{fill:#fff;stroke:#fff;stroke-miterlimit:10;}.cls-2{fill:#ff3750;}.cls-3{fill:#193764;}</style></defs><title>EMAP-white</title><rect class="cls-1" x="0.5" y="0.5" width="138" height="138"/><path class="cls-2" d="M94.76,33,40.86,10.68V94.3l53.9,25.08V33ZM40.68,10,95.14,32.51a.29.29,0,0,1,.2.27v87.05a.53.53,0,0,1,0,.12.28.28,0,0,1-.38.13L40.47,94.75a.31.31,0,0,1-.18-.27V10.25a.36.36,0,0,1,0-.1.28.28,0,0,1,.37-.15Z" transform="translate(0.5 0.5)"/><polygon class="cls-3" points="20.6 63.76 20.6 58.58 35.3 58.58 35.3 50.97 12.52 50.97 12.52 84.25 35.3 84.25 35.3 76.6 20.6 76.6 20.6 71.42 34.01 71.42 34.01 63.76 20.6 63.76 20.6 63.76"/><polygon class="cls-3" points="70.12 84.25 70.12 50.97 65.27 50.97 53.28 65.8 41.35 50.97 36.5 50.97 36.5 84.25 44.58 84.25 44.58 65.61 53.28 76.31 62.03 65.61 62.03 84.25 70.12 84.25 70.12 84.25"/><path class="cls-3" d="M80.28,79.14H90.75l1.71,4.61h9L88,50.47H83.18L69.58,83.75h9l1.71-4.61ZM85.51,65l2.43,6.47H83.09L85.51,65Z" transform="translate(0.5 0.5)"/><path class="cls-3" d="M101.43,50.47V83.75h8.09v-7h3.13c9.75,0,14.94-6,14.94-13.13s-5.19-13.12-14.94-13.12Zm8.09,18.59v-11h3.75c3.43,0,6.66,1.85,6.66,5.51,0,3.85-3.23,5.47-6.66,5.47Z" transform="translate(0.5 0.5)"/><polygon class="cls-2" points="95.84 34.24 95.84 118.65 95.26 118.65 95.26 34.24 95.84 34.24 95.84 34.24"/></svg>
