<svg id="Layer_1" data-name="Layer 1" xmlns="http://www.w3.org/2000/svg" viewBox="0 0 115.57 110.13"><defs><style>.cls-1{fill:#808285;}.cls-2{fill:#e6e7e8;}</style></defs><title>EMAP_logo_BLACK-INV</title><path class="cls-1" d="M86.8,28.52,32.9,6.23V89.86l53.9,25.07V28.52Zm-54.08-23L87.18,28.06a.28.28,0,0,1,.19.27v87.05a.5.5,0,0,1,0,.12.28.28,0,0,1-.38.13L32.51,90.3a.28.28,0,0,1-.18-.27V5.81a.2.2,0,0,1,0-.11.29.29,0,0,1,.37-.15Z" transform="translate(-4.05 -5.52)"/><polygon class="cls-2" points="8.08 53.28 8.08 48.1 22.78 48.1 22.78 40.49 0 40.49 0 73.78 22.78 73.78 22.78 66.12 8.08 66.12 8.08 60.94 21.5 60.94 21.5 53.28 8.08 53.28 8.08 53.28"/><polygon class="cls-2" points="57.6 73.78 57.6 40.49 52.75 40.49 40.77 55.33 28.83 40.49 23.98 40.49 23.98 73.78 32.06 73.78 32.06 55.14 40.77 65.84 49.52 55.14 49.52 73.78 57.6 73.78 57.6 73.78"/><path class="cls-2" d="M72.32,74.69H82.78l1.71,4.62h9L80.07,46H75.22L61.62,79.31h9l1.71-4.62Zm5.23-14.12L80,67H75.13l2.42-6.47Z" transform="translate(-4.05 -5.52)"/><path class="cls-2" d="M93.47,46V79.31h8.08v-7h3.14c9.75,0,14.93-6,14.93-13.13S114.44,46,104.69,46Zm8.08,18.59v-11h3.76c3.42,0,6.66,1.85,6.66,5.51,0,3.85-3.24,5.47-6.66,5.47Z" transform="translate(-4.05 -5.52)"/><polygon class="cls-1" points="83.32 23.76 83.32 108.18 82.75 108.18 82.75 23.76 83.32 23.76 83.32 23.76"/></svg>
