<svg xmlns="http://www.w3.org/2000/svg" viewBox="0 0 309 213.5" style="enable-background:new 0 0 309 213.5" xml:space="preserve"><path d="M12.4 11.6v189.1H296V11.6H12.4zm70.1 91.7H90l2.3-7.2 2.3 7.2h7.5l-6.1 4.4 2.3 7.1-6-4.4-6 4.4 2.3-7.1-6.1-4.4zm24 42.5-6-4.4-6 4.4 2.3-7.1-6.1-4.4h7.5l2.3-7.2 2.3 7.2h7.5l-6.1 4.4 2.3 7.1zm-2.2-69 2.3 7.1-6-4.4-6 4.4 2.3-7.1-6.1-4.4h7.5l2.3-7.2 2.3 7.2h7.5l-6.1 4.4zm16.6-27.1 2.3-7.2 2.3 7.2h7.5l-6.1 4.4 2.3 7.1-6-4.4-6 4.4 2.3-7.1-6.1-4.4h7.5zm8.3 118.8-6-4.4-6 4.4 2.3-7.1-6.1-4.4h7.5l2.3-7.2 2.3 7.1h7.5l-6.1 4.4 2.3 7.2zm22.7-127.1 2.3-7.2 2.3 7.1h7.5l-6.1 4.4 2.3 7.1-6-4.4-6 4.4 2.3-7.1-6.1-4.4 7.5.1zm8.3 135.3-6-4.4-6 4.4 2.3-7.1-6.1-4.4h7.5l2.3-7.2 2.3 7.2h7.5l-6.1 4.4 2.3 7.1zm30.9-8.2-6-4.4-6 4.4 2.3-7.1-6.1-4.4h7.5l2.3-7.2 2.3 7.1h7.5l-6.1 4.4 2.3 7.2zm-2.2-114.4 2.3 7.1-6-4.4-6 4.4 2.3-7.1-6.1-4.4h7.5l2.3-7.2 2.3 7.1h7.5l-6.1 4.5zm16.6 18.2 2.3-7.2 2.3 7.2h7.5l-6.1 4.4 2.3 7.1-6-4.4-6 4.4 2.3-7.1-6.1-4.4h7.5zm8.3 73.5-6-4.4-6 4.4 2.3-7.1-6.1-4.4h7.5l2.3-7.2 2.3 7.2h7.5l-6.1 4.4 2.3 7.1zm8.2-31.1-6-4.4-6 4.4 2.3-7.1-6.1-4.4h7.5L216 96l2.3 7.2h7.5l-6.1 4.4 2.3 7.1z" style="fill:#fff"/></svg>
