<svg id="Layer_1" data-name="Layer 1" xmlns="http://www.w3.org/2000/svg" viewBox="0 0 936.97 200.02"><defs><style>.cls-1{fill:#fff;}.cls-2{fill:#034ea2;}</style></defs><title>eu-f</title><rect class="cls-1" width="294.47" height="200.02"/><rect class="cls-2" x="5.66" y="5.48" width="283.15" height="188.77"/><polygon class="cls-1" points="141.2 46.61 147.17 42.25 153.15 46.61 150.88 39.56 156.94 35.2 149.46 35.2 147.17 28.07 144.89 35.21 137.41 35.2 143.47 39.56 141.2 46.61"/><polygon class="cls-1" points="110.28 54.92 116.25 50.56 122.23 54.92 119.96 47.87 126.02 43.51 118.54 43.51 116.25 36.37 113.96 43.52 106.49 43.51 112.55 47.87 110.28 54.92"/><polygon class="cls-1" points="93.63 59.04 91.34 66.19 83.87 66.18 89.93 70.54 87.66 77.6 93.63 73.24 99.61 77.6 97.33 70.54 103.4 66.18 95.92 66.18 93.63 59.04"/><polygon class="cls-1" points="85.33 104.12 91.3 108.48 89.03 101.43 95.1 97.07 87.62 97.07 85.33 89.92 83.04 97.08 75.56 97.07 81.63 101.43 79.36 108.48 85.33 104.12"/><polygon class="cls-1" points="95.92 128.04 93.63 120.89 91.34 128.05 83.87 128.04 89.93 132.4 87.66 139.45 93.63 135.08 99.61 139.45 97.33 132.4 103.4 128.04 95.92 128.04"/><polygon class="cls-1" points="118.59 150.7 116.3 143.57 114.01 150.71 106.53 150.7 112.6 155.07 110.33 162.12 116.3 157.76 122.27 162.12 120 155.07 126.07 150.7 118.59 150.7"/><polygon class="cls-1" points="149.47 158.92 147.18 151.77 144.89 158.93 137.41 158.92 143.48 163.28 141.21 170.33 147.18 165.97 153.15 170.33 150.88 163.28 156.95 158.92 149.47 158.92"/><polygon class="cls-1" points="180.35 150.7 178.06 143.57 175.77 150.71 168.3 150.7 174.36 155.07 172.09 162.12 178.06 157.76 184.04 162.12 181.76 155.07 187.83 150.7 180.35 150.7"/><polygon class="cls-1" points="203.02 128.04 200.73 120.89 198.44 128.05 190.96 128.04 197.03 132.4 194.75 139.45 200.73 135.08 206.7 139.45 204.43 132.4 210.49 128.04 203.02 128.04"/><polygon class="cls-1" points="218.71 96.98 211.23 96.98 208.93 89.83 206.65 96.99 199.17 96.98 205.24 101.34 202.97 108.39 208.93 104.02 214.91 108.39 212.64 101.34 218.71 96.98"/><polygon class="cls-1" points="194.75 77.5 200.73 73.14 206.7 77.5 204.43 70.45 210.49 66.1 203.02 66.1 200.73 58.95 198.44 66.11 190.96 66.1 197.03 70.45 194.75 77.5"/><polygon class="cls-1" points="178.15 36.37 175.86 43.53 168.38 43.51 174.44 47.88 172.17 54.93 178.16 50.56 184.12 54.93 181.85 47.88 187.92 43.51 180.43 43.51 178.15 36.37"/><path class="cls-2" d="M386.94,65.68l9.11,2.88q-2.1,7.62-7,11.32t-12.36,3.7a20,20,0,0,1-15.23-6.33q-6-6.34-6-17.32,0-11.61,6-18t15.77-6.43q8.53,0,13.87,5a18.27,18.27,0,0,1,4.76,8.57l-9.3,2.22a9.62,9.62,0,0,0-9.8-7.81,10.61,10.61,0,0,0-8.4,3.72q-3.23,3.7-3.22,12,0,8.83,3.17,12.57a10.3,10.3,0,0,0,8.25,3.75A9.51,9.51,0,0,0,383,73.14C384.85,71.57,386.16,69.09,386.94,65.68Z" transform="translate(-28.6 -6.21)"/><path class="cls-2" d="M402,65.45a18.21,18.21,0,0,1,2.2-8.6,14.87,14.87,0,0,1,6.2-6.34,18.33,18.33,0,0,1,9-2.19,16.85,16.85,0,0,1,12.53,5,17.17,17.17,0,0,1,4.89,12.55,17.37,17.37,0,0,1-4.94,12.68,16.67,16.67,0,0,1-12.42,5,19.52,19.52,0,0,1-8.84-2.09,14.27,14.27,0,0,1-6.39-6.14A20.36,20.36,0,0,1,402,65.45Zm9.14.48q0,5,2.39,7.68a7.77,7.77,0,0,0,11.72,0q2.37-2.67,2.37-7.74t-2.37-7.62a7.77,7.77,0,0,0-11.72,0q-2.4,2.67-2.41,7.68Z" transform="translate(-28.6 -6.21)"/><path class="cls-2" d="M442.74,70.37V61.46h17.52v8.91Z" transform="translate(-28.6 -6.21)"/><path class="cls-2" d="M461.49,49.08h4.95V46.54a16.91,16.91,0,0,1,.91-6.35,7.07,7.07,0,0,1,3.33-3.41,12.82,12.82,0,0,1,6.14-1.32,24.82,24.82,0,0,1,7.46,1.14l-1.2,6.22a18.25,18.25,0,0,0-4.1-.5,3.67,3.67,0,0,0-2.78.9q-.84.9-.84,3.48v2.38H482v7h-6.67v26.7h-8.92V56.09h-5Z" transform="translate(-28.6 -6.21)"/><path class="cls-2" d="M509.23,82.78v-5A13,13,0,0,1,504.39,82a13.44,13.44,0,0,1-6.33,1.55,12.35,12.35,0,0,1-6.1-1.49,8.77,8.77,0,0,1-3.9-4.19,18.56,18.56,0,0,1-1.21-7.45V49.08h8.92V64.57q0,7.11.49,8.71a4.77,4.77,0,0,0,1.8,2.54,5.52,5.52,0,0,0,3.3.93,7,7,0,0,0,4.09-1.25,6.43,6.43,0,0,0,2.48-3.11q.66-1.86.66-9.09V49.08h8.92v33.7Z" transform="translate(-28.6 -6.21)"/><path class="cls-2" d="M557.41,82.78h-8.92V65.58q0-5.46-.57-7.06A5,5,0,0,0,546.06,56a5.34,5.34,0,0,0-3.1-.89,7.08,7.08,0,0,0-4.15,1.27,6.39,6.39,0,0,0-2.53,3.36,29.26,29.26,0,0,0-.68,7.75V82.78h-8.92V49.08H535v5a13.82,13.82,0,0,1,16.5-4.65,9,9,0,0,1,3.7,2.71,9.83,9.83,0,0,1,1.74,3.75,27.48,27.48,0,0,1,.5,6Z" transform="translate(-28.6 -6.21)"/><path class="cls-2" d="M597.36,82.78h-8.28v-5a13.43,13.43,0,0,1-4.87,4.3,12.58,12.58,0,0,1-5.67,1.41,12.86,12.86,0,0,1-9.95-4.68q-4.14-4.68-4.14-13.06,0-8.56,4-13a13.12,13.12,0,0,1,10.19-4.45,12.63,12.63,0,0,1,9.81,4.7V36.25h8.91ZM573.56,65.2q0,5.4,1.49,7.81a6.74,6.74,0,0,0,6,3.49,6.55,6.55,0,0,0,5.24-2.62c1.44-1.75,2.16-4.35,2.16-7.82q0-5.81-2.1-8.37A6.6,6.6,0,0,0,581,55.14a6.73,6.73,0,0,0-5.32,2.52C574.27,59.34,573.56,61.86,573.56,65.2Z" transform="translate(-28.6 -6.21)"/><path class="cls-2" d="M625.68,72.06l8.88,1.49A14.57,14.57,0,0,1,629.15,81a16,16,0,0,1-9.25,2.55q-8.79,0-13-5.74a19.3,19.3,0,0,1-3.34-11.62q0-8.37,4.38-13.12A14.44,14.44,0,0,1,619,48.32q7.51,0,11.87,5T635,68.5H612.69a9.1,9.1,0,0,0,2.16,6.17A6.76,6.76,0,0,0,620,76.88a5.47,5.47,0,0,0,3.52-1.14A7.14,7.14,0,0,0,625.68,72.06Zm.5-9a8.6,8.6,0,0,0-2-5.89,6.43,6.43,0,0,0-9.09-.25l-.36.37A8.19,8.19,0,0,0,612.85,63Z" transform="translate(-28.6 -6.21)"/><path class="cls-2" d="M673.22,82.78h-8.29v-5a13.19,13.19,0,0,1-4.87,4.3,12.54,12.54,0,0,1-5.66,1.41,12.86,12.86,0,0,1-9.95-4.68q-4.14-4.68-4.14-13.06,0-8.56,4-13a13.12,13.12,0,0,1,10.18-4.45A12.6,12.6,0,0,1,664.3,53V36.25h8.92ZM649.42,65.2c0,3.6.49,6.2,1.49,7.81a6.74,6.74,0,0,0,6,3.49,6.52,6.52,0,0,0,5.23-2.62c1.44-1.75,2.16-4.35,2.16-7.82q0-5.81-2.09-8.37a6.89,6.89,0,0,0-9.69-1,6.62,6.62,0,0,0-1,1C650.13,59.34,649.42,61.86,649.42,65.2Z" transform="translate(-28.6 -6.21)"/><path class="cls-2" d="M699.69,82.78V36.25h8.92V53a12.6,12.6,0,0,1,9.77-4.69,13.12,13.12,0,0,1,10.19,4.45q4,4.47,4,12.81,0,8.64-4.11,13.3a12.83,12.83,0,0,1-10,4.66,12.33,12.33,0,0,1-5.7-1.44A13.62,13.62,0,0,1,708,77.83v5Zm8.85-17.58q0,5.24,1.65,7.74a7.06,7.06,0,0,0,6.16,3.56,6.28,6.28,0,0,0,5-2.52c1.39-1.69,2.08-4.35,2.08-8,0-3.86-.7-6.63-2.09-8.34a6.66,6.66,0,0,0-5.34-2.5,6.75,6.75,0,0,0-5.33,2.49C709.25,59.29,708.54,61.82,708.54,65.2Z" transform="translate(-28.6 -6.21)"/><path class="cls-2" d="M735.55,49.08H745L753.1,73,761,49.08h9.23l-11.9,32.43-2.13,5.87A23.12,23.12,0,0,1,754,91.89a9.63,9.63,0,0,1-2.44,2.53,10.9,10.9,0,0,1-3.4,1.5,17.49,17.49,0,0,1-4.55.54,23.34,23.34,0,0,1-5-.54l-.8-7a20,20,0,0,0,3.78.41,5.6,5.6,0,0,0,4.6-1.82,12.71,12.71,0,0,0,2.28-4.65Z" transform="translate(-28.6 -6.21)"/><path class="cls-2" d="M372.56,127.08v7.11h-6.09v13.58a35.11,35.11,0,0,0,.17,4.81,1.94,1.94,0,0,0,.8,1.12,2.44,2.44,0,0,0,1.5.45,11.42,11.42,0,0,0,3.59-.86l.76,6.92a17.68,17.68,0,0,1-7,1.33,11.17,11.17,0,0,1-4.35-.81,6.22,6.22,0,0,1-2.84-2.09,8.31,8.31,0,0,1-1.26-3.47,44.08,44.08,0,0,1-.28-6.29V134.19h-4.09v-7.11h4.09v-6.7l9-5.2v11.9Z" transform="translate(-28.6 -6.21)"/><path class="cls-2" d="M387.64,114.25v17.11a13.34,13.34,0,0,1,15.87-3.9,9,9,0,0,1,3.73,2.92,10.71,10.71,0,0,1,1.71,3.93,35,35,0,0,1,.46,6.7v19.77h-8.92V143q0-5.31-.51-6.73a4.33,4.33,0,0,0-1.79-2.27,5.8,5.8,0,0,0-3.22-.84,7.41,7.41,0,0,0-4,1.08,6.28,6.28,0,0,0-2.55,3.25,19.43,19.43,0,0,0-.81,6.43V160.8h-8.92V114.25Z" transform="translate(-28.6 -6.21)"/><path class="cls-2" d="M438,150.06l8.89,1.49a14.55,14.55,0,0,1-5.41,7.44,16,16,0,0,1-9.25,2.55q-8.79,0-13-5.74a19.36,19.36,0,0,1-3.33-11.62q0-8.37,4.38-13.12a14.44,14.44,0,0,1,11.08-4.75q7.51,0,11.87,5t4.16,15.22H425a9.1,9.1,0,0,0,2.16,6.17,6.77,6.77,0,0,0,5.14,2.21,5.49,5.49,0,0,0,3.53-1.14A7.07,7.07,0,0,0,438,150.06Zm.51-9a8.6,8.6,0,0,0-2-5.89,6.45,6.45,0,0,0-9.46.13,8.28,8.28,0,0,0-1.87,5.77Z" transform="translate(-28.6 -6.21)"/><path class="cls-2" d="M472.73,160.78V114.25h34.5v7.88H482.12v10.31h23.36v7.84H482.12v12.66h26v7.84Z" transform="translate(-28.6 -6.21)"/><path class="cls-2" d="M538.2,160.78v-5a13,13,0,0,1-4.84,4.25,13.44,13.44,0,0,1-6.33,1.55,12.34,12.34,0,0,1-6.09-1.49,8.77,8.77,0,0,1-3.9-4.19,18.63,18.63,0,0,1-1.21-7.46V127.08h8.92v15.48c0,4.75.16,7.65.49,8.72a4.84,4.84,0,0,0,1.79,2.54,5.52,5.52,0,0,0,3.3.93,7.06,7.06,0,0,0,4.1-1.25,6.41,6.41,0,0,0,2.47-3.11c.45-1.24.68-4.27.67-9.09V127.08h8.92v33.7Z" transform="translate(-28.6 -6.21)"/><path class="cls-2" d="M564.26,160.78h-8.92v-33.7h8.29v4.79a14.32,14.32,0,0,1,3.82-4.48,7.13,7.13,0,0,1,3.86-1.08,11.4,11.4,0,0,1,5.87,1.69l-2.76,7.77a7.82,7.82,0,0,0-4.19-1.46,5,5,0,0,0-3.18,1,7.15,7.15,0,0,0-2,3.73q-.75,2.7-.75,11.3Z" transform="translate(-28.6 -6.21)"/><path class="cls-2" d="M579,143.45a18.2,18.2,0,0,1,2.19-8.6,15,15,0,0,1,6.2-6.34,18.34,18.34,0,0,1,9-2.2,16.82,16.82,0,0,1,12.53,5,17.17,17.17,0,0,1,4.89,12.55,17.36,17.36,0,0,1-4.93,12.68,16.69,16.69,0,0,1-12.43,5,19.52,19.52,0,0,1-8.84-2.09,14.37,14.37,0,0,1-6.39-6.14A20.45,20.45,0,0,1,579,143.45Zm9.14.48q0,5,2.38,7.68a7.77,7.77,0,0,0,11.72,0q2.37-2.67,2.37-7.74t-2.37-7.62a7.77,7.77,0,0,0-11.72,0q-2.41,2.67-2.42,7.68Z" transform="translate(-28.6 -6.21)"/><path class="cls-2" d="M620.47,127.08h8.31v5a12.41,12.41,0,0,1,4.39-4.13,11.93,11.93,0,0,1,6.12-1.59,12.84,12.84,0,0,1,10,4.61q4.1,4.59,4.09,12.82,0,8.44-4.13,13.12a12.85,12.85,0,0,1-10,4.68,11.22,11.22,0,0,1-5.06-1.11,17,17,0,0,1-4.78-3.81v17h-8.92Zm8.82,16.28c0,3.79.75,6.58,2.26,8.39a6.88,6.88,0,0,0,5.49,2.72,6.44,6.44,0,0,0,5.17-2.49c1.38-1.67,2.06-4.39,2.06-8.18,0-3.53-.71-6.16-2.12-7.87a6.62,6.62,0,0,0-5.27-2.57,6.84,6.84,0,0,0-5.43,2.52C630,137.57,629.29,140.07,629.29,143.36Z" transform="translate(-28.6 -6.21)"/><path class="cls-2" d="M680,150.06l8.88,1.49a14.55,14.55,0,0,1-5.41,7.44,16,16,0,0,1-9.25,2.55q-8.79,0-13-5.74a19.36,19.36,0,0,1-3.33-11.62q0-8.37,4.38-13.12a14.41,14.41,0,0,1,11.07-4.75q7.53,0,11.87,5t4.16,15.22H667a9,9,0,0,0,2.15,6.17,6.76,6.76,0,0,0,5.15,2.21,5.47,5.47,0,0,0,3.52-1.14A7.09,7.09,0,0,0,680,150.06Zm.5-9a8.6,8.6,0,0,0-2-5.89,6.43,6.43,0,0,0-9.1-.24,3.06,3.06,0,0,0-.36.36,8.23,8.23,0,0,0-1.88,5.77Z" transform="translate(-28.6 -6.21)"/><path class="cls-2" d="M703.24,137.36l-8.09-1.46a12.65,12.65,0,0,1,4.7-7.24q3.33-2.34,9.9-2.35c4,0,6.94.48,8.89,1.42a8.89,8.89,0,0,1,4.11,3.58c.79,1.45,1.18,4.11,1.19,8l-.1,10.41a35.94,35.94,0,0,0,.43,6.55,19,19,0,0,0,1.6,4.52h-8.82c-.23-.59-.52-1.47-.86-2.63-.15-.53-.25-.88-.31-1a16.19,16.19,0,0,1-4.89,3.33,14,14,0,0,1-5.56,1.11q-5.2,0-8.2-2.82a9.37,9.37,0,0,1-3-7.14,9.53,9.53,0,0,1,1.37-5.1,8.9,8.9,0,0,1,3.82-3.42,29.3,29.3,0,0,1,7.09-2.08,48.1,48.1,0,0,0,8.67-2.19v-.89a4.65,4.65,0,0,0-1.27-3.67c-.85-.73-2.45-1.09-4.8-1.09a6.45,6.45,0,0,0-3.71.93A6.56,6.56,0,0,0,703.24,137.36Zm11.94,7.24c-1.15.38-2.95.83-5.43,1.36a16.35,16.35,0,0,0-4.86,1.56,3.71,3.71,0,0,0-1.74,3.14,4.37,4.37,0,0,0,1.39,3.24,4.86,4.86,0,0,0,3.56,1.36,7.74,7.74,0,0,0,4.6-1.59,5.6,5.6,0,0,0,2.13-2.95,17.64,17.64,0,0,0,.35-4.35Z" transform="translate(-28.6 -6.21)"/><path class="cls-2" d="M763.39,160.78h-8.92v-17.2q0-5.46-.57-7.06A4.93,4.93,0,0,0,752,134a5.29,5.29,0,0,0-3.09-.89,7.09,7.09,0,0,0-4.16,1.27,6.32,6.32,0,0,0-2.52,3.36,28.85,28.85,0,0,0-.69,7.75v15.26h-8.91v-33.7H741v5a13.77,13.77,0,0,1,16.5-4.65,9,9,0,0,1,3.7,2.71,9.85,9.85,0,0,1,1.75,3.75,28.11,28.11,0,0,1,.49,6Z" transform="translate(-28.6 -6.21)"/><path class="cls-2" d="M790.49,114.25h9.4v25.2a51.84,51.84,0,0,0,.35,7.78,7.57,7.57,0,0,0,2.87,4.59,10,10,0,0,0,6.2,1.73q4,0,6-1.64a6.48,6.48,0,0,0,2.45-4,53.62,53.62,0,0,0,.41-7.91V114.25h9.4v24.44a62.57,62.57,0,0,1-.77,11.84,13.09,13.09,0,0,1-2.81,5.84,14.09,14.09,0,0,1-5.47,3.79,23.51,23.51,0,0,1-8.95,1.42c-4.44,0-7.81-.52-10.11-1.54a14.46,14.46,0,0,1-5.44-4,12.81,12.81,0,0,1-2.64-5.16,56.31,56.31,0,0,1-.92-11.81Z" transform="translate(-28.6 -6.21)"/><path class="cls-2" d="M868.09,160.78h-8.92v-17.2q0-5.46-.57-7.06a5,5,0,0,0-1.85-2.49,5.34,5.34,0,0,0-3.1-.89,7.12,7.12,0,0,0-4.16,1.27,6.46,6.46,0,0,0-2.52,3.36,29.26,29.26,0,0,0-.68,7.75v15.26h-8.92v-33.7h8.28v5a13.79,13.79,0,0,1,16.51-4.65,9,9,0,0,1,3.69,2.71,9.85,9.85,0,0,1,1.75,3.75,27.48,27.48,0,0,1,.49,6Z" transform="translate(-28.6 -6.21)"/><path class="cls-2" d="M877.14,122.51v-8.26h8.92v8.26Zm0,38.27v-33.7h8.92v33.7Z" transform="translate(-28.6 -6.21)"/><path class="cls-2" d="M893.13,143.45a18.2,18.2,0,0,1,2.19-8.6,15,15,0,0,1,6.21-6.34,18.34,18.34,0,0,1,9-2.2,16.84,16.84,0,0,1,12.54,5A17.17,17.17,0,0,1,928,143.86a17.39,17.39,0,0,1-5,12.65,16.67,16.67,0,0,1-12.42,5,19.52,19.52,0,0,1-8.84-2.09,14.34,14.34,0,0,1-6.4-6.14A20.56,20.56,0,0,1,893.13,143.45Zm9.14.48c0,3.34.8,5.9,2.38,7.68a7.78,7.78,0,0,0,11,.75,7.59,7.59,0,0,0,.75-.75q2.37-2.67,2.37-7.74t-2.37-7.62a7.78,7.78,0,0,0-11-.75,7.59,7.59,0,0,0-.75.75C903.07,138,902.27,140.59,902.27,143.93Z" transform="translate(-28.6 -6.21)"/><path class="cls-2" d="M965.56,160.78h-8.92v-17.2q0-5.46-.57-7.06a4.92,4.92,0,0,0-1.86-2.49,5.29,5.29,0,0,0-3.09-.89,7.09,7.09,0,0,0-4.16,1.27,6.32,6.32,0,0,0-2.52,3.36,29.26,29.26,0,0,0-.68,7.75v15.26h-8.92v-33.7h8.28v5a13.47,13.47,0,0,1,11.11-5.72,13.3,13.3,0,0,1,5.39,1.07,9,9,0,0,1,3.7,2.71,9.85,9.85,0,0,1,1.75,3.75,27.48,27.48,0,0,1,.49,6Z" transform="translate(-28.6 -6.21)"/></svg>
