<?xml version="1.0" encoding="UTF-8"?>
<svg width="970px" height="970px" viewBox="0 0 970 970" version="1.1" xmlns="http://www.w3.org/2000/svg" xmlns:xlink="http://www.w3.org/1999/xlink">
    <title>extinction symbol</title>
    <desc>designed by ESP.</desc>
    <defs/>
    <g id="Page-1" stroke="none" stroke-width="1" fill="none" fill-rule="evenodd">
        <g id="extinction" fill="#ffffff">
            <path d="M213.169256,794 C285.727407,858.100068 381.07092,897 485.5,897 C589.92908,897 685.272593,858.100068 757.830744,794 L213.169256,794 Z M191.479695,773.396557 L437,484 L192.846408,196.214397 C119.366939,270.543976 74,372.72398 74,485.5 C74,597.575143 118.804801,699.185565 191.479695,773.396557 Z M216.603049,174 L754.396951,174 C682.276995,111.688235 588.289777,74 485.5,74 C382.710223,74 288.723005,111.688235 216.603049,174 Z M779.067873,197.142169 L532,484 L780.441597,772.45279 C852.57367,698.325244 897,597.100785 897,485.5 C897,373.19247 852.009202,271.393104 779.067873,197.142169 Z M485,970 C217.141896,970 0,752.858104 0,485 C0,217.141896 217.141896,0 485,0 C752.858104,0 970,217.141896 970,485 C970,752.858104 752.858104,970 485,970 Z M484,538 L322,724 L646,724 L484,538 Z M484,432 L646,246 L322,246 L484,432 Z" id="Combined-Shape"/>
        </g>
    </g>
</svg>
