<svg xmlns="http://www.w3.org/2000/svg" xml:space="preserve" id="Layer_1" x="0" y="0" style="enable-background:new 0 0 1019 213.5" version="1.1" viewBox="0 0 1019 213.5"><style>.st0{fill:#fff}</style><path d="M12.4 11.6v189.1H296V11.6H12.4zm70.1 91.7H90l2.3-7.2 2.3 7.2h7.5l-6.1 4.4 2.3 7.1-6-4.4-6 4.4 2.3-7.1-6.1-4.4zm24 42.5-6-4.4-6 4.4 2.3-7.1-6.1-4.4h7.5l2.3-7.2 2.3 7.2h7.5l-6.1 4.4 2.3 7.1zm-2.2-69 2.3 7.1-6-4.4-6 4.4 2.3-7.1-6.1-4.4h7.5l2.3-7.2 2.3 7.2h7.5l-6.1 4.4zm16.6-27.1 2.3-7.2 2.3 7.2h7.5l-6.1 4.4 2.3 7.1-6-4.4-6 4.4 2.3-7.1-6.1-4.4h7.5zm8.3 118.8-6-4.4-6 4.4 2.3-7.1-6.1-4.4h7.5l2.3-7.2 2.3 7.1h7.5l-6.1 4.4 2.3 7.2zm22.7-127.1 2.3-7.2 2.3 7.1h7.5l-6.1 4.4 2.3 7.1-6-4.4-6 4.4 2.3-7.1-6.1-4.4 7.5.1zm8.3 135.3-6-4.4-6 4.4 2.3-7.1-6.1-4.4h7.5l2.3-7.2 2.3 7.2h7.5l-6.1 4.4 2.3 7.1zm30.9-8.2-6-4.4-6 4.4 2.3-7.1-6.1-4.4h7.5l2.3-7.2 2.3 7.1h7.5l-6.1 4.4 2.3 7.2zm-2.2-114.4 2.3 7.1-6-4.4-6 4.4 2.3-7.1-6.1-4.4h7.5l2.3-7.2 2.3 7.1h7.5l-6.1 4.5zm16.6 18.2 2.3-7.2 2.3 7.2h7.5l-6.1 4.4 2.3 7.1-6-4.4-6 4.4 2.3-7.1-6.1-4.4h7.5zm8.3 73.5-6-4.4-6 4.4 2.3-7.1-6.1-4.4h7.5l2.3-7.2 2.3 7.2h7.5l-6.1 4.4 2.3 7.1zm8.2-31.1-6-4.4-6 4.4 2.3-7.1-6.1-4.4h7.5L216 96l2.3 7.2h7.5l-6.1 4.4 2.3 7.1zM337.2 82.5V36h31.9v7.9h-22.5v11H366v7.9h-19.4v19.8h-9.4zM399 82.5v-5c-1.2 1.8-2.8 3.2-4.8 4.3-2 1-4.1 1.6-6.3 1.6-2.3 0-4.3-.5-6.1-1.5-1.8-1-3.1-2.4-3.9-4.2-.8-1.8-1.2-4.3-1.2-7.5V48.8h8.9v15.5c0 4.7.2 7.6.5 8.7.3 1.1.9 1.9 1.8 2.5.9.6 2 .9 3.3.9 1.5 0 2.9-.4 4.1-1.3 1.2-.8 2-1.9 2.5-3.1.4-1.2.7-4.3.7-9.1V48.8h8.9v33.7H399zM447.1 82.5h-8.9V65.3c0-3.6-.2-6-.6-7.1s-1-1.9-1.9-2.5c-.9-.6-1.9-.9-3.1-.9-1.5 0-2.9.4-4.2 1.3-1.2.8-2.1 2-2.5 3.4-.5 1.4-.7 4-.7 7.7v15.3h-8.9V48.8h8.3v5c2.9-3.8 6.6-5.7 11.1-5.7 2 0 3.8.4 5.4 1.1 1.6.7 2.9 1.6 3.7 2.7.8 1.1 1.4 2.3 1.7 3.7.3 1.4.5 3.4.5 6v20.9zM487.1 82.5h-8.3v-5c-1.4 1.9-3 3.4-4.9 4.3-1.9.9-3.8 1.4-5.7 1.4-3.9 0-7.2-1.6-10-4.7s-4.1-7.5-4.1-13.1c0-5.7 1.3-10.1 4-13 2.7-3 6.1-4.5 10.2-4.5 3.8 0 7 1.6 9.8 4.7V36h8.9v46.5zm-23.8-17.6c0 3.6.5 6.2 1.5 7.8 1.4 2.3 3.4 3.5 6 3.5 2.1 0 3.8-.9 5.2-2.6 1.4-1.7 2.2-4.4 2.2-7.8 0-3.9-.7-6.7-2.1-8.4s-3.2-2.6-5.4-2.6c-2.1 0-3.9.8-5.3 2.5-1.4 1.8-2.1 4.3-2.1 7.6zM515.4 71.8l8.9 1.5c-1.1 3.3-2.9 5.7-5.4 7.4-2.5 1.7-5.5 2.6-9.3 2.6-5.9 0-10.2-1.9-13-5.7-2.2-3.1-3.3-6.9-3.3-11.6 0-5.6 1.5-10 4.4-13.1s6.6-4.7 11.1-4.7c5 0 9 1.7 11.9 5 2.9 3.3 4.3 8.4 4.2 15.2h-22.3c.1 2.6.8 4.7 2.2 6.2 1.4 1.5 3.1 2.2 5.1 2.2 1.4 0 2.6-.4 3.5-1.1s1.5-2.2 2-3.9zm.5-9c-.1-2.6-.7-4.5-2-5.9-1.3-1.3-2.8-2-4.6-2-1.9 0-3.6.7-4.8 2.1-1.3 1.4-1.9 3.3-1.9 5.8h13.3zM563 82.5h-8.3v-5c-1.4 1.9-3 3.4-4.9 4.3-1.9.9-3.8 1.4-5.7 1.4-3.9 0-7.2-1.6-10-4.7S530 71 530 65.4c0-5.7 1.3-10.1 4-13 2.7-3 6.1-4.5 10.2-4.5 3.8 0 7 1.6 9.8 4.7V36h8.9v46.5zm-23.8-17.6c0 3.6.5 6.2 1.5 7.8 1.4 2.3 3.4 3.5 6 3.5 2.1 0 3.8-.9 5.2-2.6 1.4-1.7 2.2-4.4 2.2-7.8 0-3.9-.7-6.7-2.1-8.4s-3.2-2.6-5.4-2.6c-2.1 0-3.9.8-5.3 2.5-1.4 1.8-2.1 4.3-2.1 7.6zM589.4 82.5V36h8.9v16.8c2.8-3.1 6-4.7 9.8-4.7 4.1 0 7.5 1.5 10.2 4.5 2.7 3 4 7.2 4 12.8 0 5.8-1.4 10.2-4.1 13.3s-6.1 4.7-10 4.7c-1.9 0-3.8-.5-5.7-1.4-1.9-1-3.5-2.4-4.8-4.3v5h-8.3zm8.9-17.6c0 3.5.5 6.1 1.7 7.7 1.5 2.4 3.6 3.6 6.2 3.6 2 0 3.6-.8 5-2.5s2.1-4.3 2.1-8c0-3.9-.7-6.6-2.1-8.3s-3.2-2.6-5.4-2.6c-2.1 0-3.9.8-5.3 2.5-1.5 1.7-2.2 4.3-2.2 7.6zM625.3 48.8h9.5l8.1 23.9 7.9-23.9h9.2l-12 32.5-2.1 5.9c-.8 2-1.5 3.5-2.2 4.5-.7 1-1.5 1.9-2.4 2.5-.9.6-2.1 1.1-3.4 1.5-1.3.4-2.9.5-4.6.5-1.7 0-3.4-.2-5-.5l-.8-7c1.4.3 2.7.4 3.8.4 2.1 0 3.6-.6 4.6-1.8 1-1.2 1.8-2.8 2.3-4.6l-12.9-33.9zM352.5 126.8v7.1h-6.1v13.6c0 2.8.1 4.4.2 4.8.1.5.4.8.8 1.1.4.3.9.4 1.5.4.8 0 2-.3 3.6-.9l.8 6.9c-2.1.9-4.4 1.3-7 1.3-1.6 0-3.1-.3-4.3-.8-1.3-.5-2.2-1.2-2.8-2.1-.6-.9-1-2-1.3-3.5-.2-1-.3-3.1-.3-6.3v-14.7h-4.1v-7.1h4.1v-6.7l9-5.2v11.9h5.9zM367.6 114v17.1c2.9-3.4 6.3-5 10.3-5 2.1 0 3.9.4 5.6 1.1s2.9 1.7 3.7 2.9c.8 1.2 1.4 2.5 1.7 3.9.3 1.4.5 3.7.5 6.7v19.8h-8.9v-17.8c0-3.5-.2-5.8-.5-6.7-.3-1-.9-1.7-1.8-2.3-.9-.6-1.9-.8-3.2-.8-1.5 0-2.8.4-4 1.1-1.2.7-2 1.8-2.6 3.3-.5 1.4-.8 3.6-.8 6.4v16.9h-8.9V114h8.9zM417.9 149.8l8.9 1.5c-1.1 3.3-2.9 5.7-5.4 7.4-2.5 1.7-5.5 2.6-9.3 2.6-5.9 0-10.2-1.9-13-5.7-2.2-3.1-3.3-6.9-3.3-11.6 0-5.6 1.5-10 4.4-13.1s6.6-4.7 11.1-4.7c5 0 9 1.7 11.9 5 2.9 3.3 4.3 8.4 4.2 15.2H405c.1 2.6.8 4.7 2.2 6.2 1.4 1.5 3.1 2.2 5.1 2.2 1.4 0 2.6-.4 3.5-1.1s1.7-2.2 2.1-3.9zm.5-9c-.1-2.6-.7-4.5-2-5.9-1.3-1.3-2.8-2-4.6-2-1.9 0-3.6.7-4.8 2.1-1.3 1.4-1.9 3.3-1.9 5.8h13.3zM452.7 160.5V114h34.5v7.9h-25.1v10.3h23.4v7.8h-23.4v12.7h26v7.8h-35.4zM518.2 160.5v-5c-1.2 1.8-2.8 3.2-4.8 4.3-2 1-4.1 1.6-6.3 1.6-2.3 0-4.3-.5-6.1-1.5-1.8-1-3.1-2.4-3.9-4.2-.8-1.8-1.2-4.3-1.2-7.5v-21.3h8.9v15.5c0 4.7.2 7.6.5 8.7.3 1.1.9 1.9 1.8 2.5.9.6 2 .9 3.3.9 1.5 0 2.9-.4 4.1-1.3 1.2-.8 2-1.9 2.5-3.1.4-1.2.7-4.3.7-9.1v-14.2h8.9v33.7h-8.4zM544.2 160.5h-8.9v-33.7h8.3v4.8c1.4-2.3 2.7-3.8 3.8-4.5 1.1-.7 2.4-1.1 3.9-1.1 2 0 4 .6 5.9 1.7l-2.8 7.8c-1.5-1-2.9-1.5-4.2-1.5-1.2 0-2.3.3-3.2 1-.9.7-1.5 1.9-2 3.7-.5 1.8-.7 5.6-.7 11.3v10.5zM558.9 143.2c0-3 .7-5.8 2.2-8.6 1.5-2.8 3.5-4.9 6.2-6.3 2.7-1.5 5.7-2.2 9-2.2 5.1 0 9.3 1.7 12.5 5 3.3 3.3 4.9 7.5 4.9 12.6s-1.6 9.3-4.9 12.7-7.4 5-12.4 5c-3.1 0-6-.7-8.8-2.1s-4.9-3.4-6.4-6.1c-1.5-2.8-2.3-6.1-2.3-10zm9.2.5c0 3.3.8 5.9 2.4 7.7 1.6 1.8 3.5 2.7 5.9 2.7 2.3 0 4.3-.9 5.9-2.7s2.4-4.4 2.4-7.7-.8-5.8-2.4-7.6-3.5-2.7-5.9-2.7c-2.3 0-4.3.9-5.9 2.7-1.6 1.7-2.4 4.2-2.4 7.6zM600.4 126.8h8.3v5c1.1-1.7 2.5-3.1 4.4-4.1 1.8-1.1 3.9-1.6 6.1-1.6 3.9 0 7.2 1.5 10 4.6 2.7 3.1 4.1 7.3 4.1 12.8 0 5.6-1.4 10-4.1 13.1-2.8 3.1-6.1 4.7-10 4.7-1.9 0-3.5-.4-5.1-1.1-1.5-.7-3.1-2-4.8-3.8v17h-8.9v-46.6zm8.9 16.3c0 3.8.8 6.6 2.3 8.4 1.5 1.8 3.3 2.7 5.5 2.7 2.1 0 3.8-.8 5.2-2.5 1.4-1.7 2.1-4.4 2.1-8.2 0-3.5-.7-6.2-2.1-7.9-1.4-1.7-3.2-2.6-5.3-2.6-2.2 0-4 .8-5.4 2.5-1.6 1.8-2.3 4.3-2.3 7.6zM659.9 149.8l8.9 1.5c-1.1 3.3-2.9 5.7-5.4 7.4-2.5 1.7-5.5 2.6-9.3 2.6-5.9 0-10.2-1.9-13-5.7-2.2-3.1-3.3-6.9-3.3-11.6 0-5.6 1.5-10 4.4-13.1s6.6-4.7 11.1-4.7c5 0 9 1.7 11.9 5 2.9 3.3 4.3 8.4 4.2 15.2h-22.3c.1 2.6.8 4.7 2.2 6.2 1.4 1.5 3.1 2.2 5.1 2.2 1.4 0 2.6-.4 3.5-1.1s1.5-2.2 2-3.9zm.5-9c-.1-2.6-.7-4.5-2-5.9-1.3-1.3-2.8-2-4.6-2-1.9 0-3.6.7-4.8 2.1-1.3 1.4-1.9 3.3-1.9 5.8h13.3zM683.2 137.1l-8.1-1.5c.9-3.3 2.5-5.7 4.7-7.2 2.2-1.6 5.5-2.3 9.9-2.3 4 0 6.9.5 8.9 1.4 1.9.9 3.3 2.1 4.1 3.6.8 1.4 1.2 4.1 1.2 8l-.1 10.4c0 3 .1 5.1.4 6.6.3 1.4.8 2.9 1.6 4.5H697c-.2-.6-.5-1.5-.9-2.6-.1-.5-.3-.9-.3-1-1.5 1.5-3.2 2.6-4.9 3.3-1.7.7-3.6 1.1-5.6 1.1-3.5 0-6.2-.9-8.2-2.8-2-1.9-3-4.3-3-7.1 0-1.9.5-3.6 1.4-5.1.9-1.5 2.2-2.6 3.8-3.4 1.6-.8 4-1.5 7.1-2.1 4.2-.8 7.1-1.5 8.7-2.2v-.9c0-1.7-.4-2.9-1.3-3.7-.8-.7-2.4-1.1-4.8-1.1-1.6 0-2.8.3-3.7.9-.8.5-1.5 1.6-2.1 3.2zm11.9 7.2c-1.1.4-3 .8-5.4 1.4-2.5.5-4.1 1-4.9 1.6-1.2.8-1.7 1.9-1.7 3.1 0 1.2.5 2.3 1.4 3.2.9.9 2.1 1.4 3.6 1.4 1.6 0 3.1-.5 4.6-1.6 1.1-.8 1.8-1.8 2.1-3 .2-.8.3-2.2.3-4.3v-1.8zM743.4 160.5h-8.9v-17.2c0-3.6-.2-6-.6-7.1s-1-1.9-1.9-2.5c-.9-.6-1.9-.9-3.1-.9-1.5 0-2.9.4-4.2 1.3-1.2.8-2.1 2-2.5 3.4-.5 1.4-.7 4-.7 7.7v15.3h-8.9v-33.7h8.3v5c2.9-3.8 6.6-5.7 11.1-5.7 2 0 3.8.4 5.4 1.1 1.6.7 2.9 1.6 3.7 2.7.8 1.1 1.4 2.3 1.7 3.7.3 1.4.5 3.4.5 6v20.9zM770.5 114h9.4v25.2c0 4 .1 6.6.3 7.8.4 1.9 1.4 3.4 2.9 4.6s3.6 1.7 6.2 1.7c2.7 0 4.7-.5 6-1.6 1.4-1.1 2.2-2.4 2.4-4 .3-1.6.4-4.2.4-7.9V114h9.4v24.4c0 5.6-.3 9.5-.8 11.8-.5 2.3-1.4 4.3-2.8 5.8-1.4 1.6-3.2 2.9-5.5 3.8s-5.3 1.4-9 1.4c-4.4 0-7.8-.5-10.1-1.5s-4.1-2.4-5.4-4c-1.3-1.6-2.2-3.4-2.6-5.2-.6-2.7-.9-6.6-.9-11.8V114zM848.1 160.5h-8.9v-17.2c0-3.6-.2-6-.6-7.1s-1-1.9-1.9-2.5c-.9-.6-1.9-.9-3.1-.9-1.5 0-2.9.4-4.2 1.3-1.2.8-2.1 2-2.5 3.4-.5 1.4-.7 4-.7 7.7v15.3h-8.9v-33.7h8.3v5c2.9-3.8 6.6-5.7 11.1-5.7 2 0 3.8.4 5.4 1.1 1.6.7 2.9 1.6 3.7 2.7.8 1.1 1.4 2.3 1.7 3.7.3 1.4.5 3.4.5 6v20.9zM857.1 122.2V114h8.9v8.3h-8.9zm0 38.3v-33.7h8.9v33.7h-8.9zM873.1 143.2c0-3 .7-5.8 2.2-8.6 1.5-2.8 3.5-4.9 6.2-6.3 2.7-1.5 5.7-2.2 9-2.2 5.1 0 9.3 1.7 12.5 5 3.3 3.3 4.9 7.5 4.9 12.6s-1.6 9.3-4.9 12.7-7.4 5-12.4 5c-3.1 0-6-.7-8.8-2.1s-4.9-3.4-6.4-6.1c-1.6-2.8-2.3-6.1-2.3-10zm9.1.5c0 3.3.8 5.9 2.4 7.7 1.6 1.8 3.5 2.7 5.9 2.7 2.3 0 4.3-.9 5.9-2.7s2.4-4.4 2.4-7.7-.8-5.8-2.4-7.6-3.5-2.7-5.9-2.7c-2.3 0-4.3.9-5.9 2.7-1.6 1.7-2.4 4.2-2.4 7.6zM945.5 160.5h-8.9v-17.2c0-3.6-.2-6-.6-7.1s-1-1.9-1.9-2.5c-.9-.6-1.9-.9-3.1-.9-1.5 0-2.9.4-4.2 1.3-1.2.8-2.1 2-2.5 3.4-.5 1.4-.7 4-.7 7.7v15.3h-8.9v-33.7h8.3v5c2.9-3.8 6.6-5.7 11.1-5.7 2 0 3.8.4 5.4 1.1 1.6.7 2.9 1.6 3.7 2.7.8 1.1 1.4 2.3 1.7 3.7.3 1.4.5 3.4.5 6v20.9z" class="st0"/></svg>
