<svg version="1.1" xmlns="http://www.w3.org/2000/svg" x="0" y="0" viewBox="0 0 1346.4 967.9" xml:space="preserve"><style type="text/css">.st0{fill:#006838}</style><g id="Layer_1"><path class="st0" d="M1308.1 229.4c-21.3 13.1-42 25.8-63.6 39-10 6.1-22.9 3.7-30-5.6-52.4-68.6-110.3-126.4-207.2-124.4-69.8 1.5-128.6 24.7-176.8 74.7-93.7 97.1-85.7 242.1 18 336 108.3 97.9 237.6 77.2 363.1-60.2 7.1-7.8 18.6-9.7 27.8-4.6 23.2 12.8 47 26 72.2 40 11.1 6.2 15.1 20.2 8.7 31.3-64.8 113.3-164.1 169.8-291.8 173.1-184.3 4.9-368.9 1.3-553.4.9h-.2c-12.6 0-22.7-10.2-22.7-22.8V253.9c0-12.6 10.2-22.8 22.8-22.8h65.4c12.6 0 22.8 10.2 22.8 22.8v330.7c0 12.6 10.2 22.8 22.8 22.8h95.1c17.4 0 28.5-18.8 19.9-34-75.1-132.5-79-264.1 1.8-397.3 9.2-15.1-1.8-34.5-19.5-34.5H169.7c-12.6 0-22.8 10.2-22.8 22.8v538.5c0 12.6-10.2 22.8-22.8 22.8H56.4c-12.6 0-22.8-10.2-22.8-22.8V48.1c0-11.7 8.9-21.6 20.6-22.7 10.7-1 21.8-2 32.9-2 304.9-.3 609.7-1.1 914.6 0 143.2.5 254.5 63 314.6 175.7 5.7 10.7 2.2 24-8.2 30.3z"/><path class="st0" d="M349.3 727.9H243.2V231.2h106.1v496.7zM563.3 727.9H457.2V231.2h106.1v496.7zM139.7 727.9H33.6V23.5h106.1v704.4z"/><path class="st0" d="M147.3 727.9H41.2V78.7h106.1v649.2zM556 727.9H449.9V231.2H556v496.7z"/><g><path class="st0" d="M125.3 788.5h41.4v147.2h-26.8v-99.5c0-2.9 0-6.9.1-12 .1-5.2.1-9.1.1-11.9L114 935.8H86L60.1 812.1c0 2.8 0 6.8.1 11.9.1 5.2.1 9.2.1 12v99.5H33.5v-147h41.9l25.1 115.7 24.8-115.7zM295.1 814.5h-72.8v31.2h66.9v25.6h-66.9v37.8h76.2v26.5H194.1V788.5h101v26zM401.5 791.6c9.7 3.4 17.5 9.6 23.5 18.7 4.8 7.3 8.1 15.2 9.8 23.8 1.7 8.5 2.6 16.6 2.6 24.4 0 19.6-3.7 36.1-11 49.7-10 18.3-25.4 27.5-46.2 27.5h-59.4V788.5h59.4c8.5.1 15.6 1.1 21.3 3.1zM348.8 814v96h26.6c13.6 0 23.1-7.2 28.4-21.5 2.9-7.9 4.4-17.2 4.4-28.1 0-15-2.2-26.5-6.6-34.5-4.4-8-13.1-12-26.2-12h-26.6zM565 922.5c-10.4 11.4-25.4 17.2-45.1 17.2-19.7 0-34.7-5.7-45.1-17.2-13.9-14-20.9-34.3-20.9-60.7 0-27 7-47.2 20.9-60.7 10.4-11.4 25.4-17.2 45.1-17.2 19.7 0 34.7 5.7 45.1 17.2 13.9 13.5 20.8 33.7 20.8 60.7 0 26.5-7 46.7-20.8 60.7zm-18-22.3c6.7-9 10-21.8 10-38.3 0-16.5-3.3-29.3-10-38.3-6.7-9-15.7-13.5-27.1-13.5-11.4 0-20.5 4.5-27.3 13.5-6.8 9-10.2 21.8-10.2 38.3 0 16.6 3.4 29.4 10.2 38.3 6.8 9 15.9 13.5 27.3 13.5 11.3-.1 20.4-4.5 27.1-13.5zM620.9 803.8c11.1-12.1 25.2-18.2 42.3-18.2 22.9 0 39.7 8.1 50.3 24.4 5.9 9.1 9 18.3 9.4 27.5h-28.8c-1.8-7.1-4.2-12.4-7-16-5.1-6.4-12.7-9.6-22.8-9.6-10.2 0-18.3 4.5-24.2 13.5-5.9 9-8.9 21.8-8.9 38.3 0 16.5 3.1 28.9 9.4 37.1 6.2 8.2 14.2 12.3 23.8 12.3 9.9 0 17.4-3.5 22.6-10.6 2.9-3.8 5.2-9.5 7.1-17.1h28.6c-2.5 16-8.8 29.1-18.9 39.1-10.1 10.1-23.1 15.1-38.9 15.1-19.6 0-35-6.8-46.2-20.4-11.2-13.6-16.8-32.3-16.8-56.1-.1-25.6 6.2-45.4 19-59.3zM745.7 935.6V788.5h28.6v56.1h53.5v-56.1h28.6v147.2h-28.6V870h-53.5v65.7h-28.6zM985.8 814.5H913v31.2h66.9v25.6H913v37.8h76.2v26.5H884.8V788.5h101v26zM1102.9 788.5h41.4v147.2h-26.8v-99.5c0-2.9 0-6.9.1-12 .1-5.2.1-9.1.1-11.9l-26.1 123.5h-28l-25.9-123.5c0 2.8 0 6.8.1 11.9.1 5.2.1 9.2.1 12v99.5h-26.8V788.5h41.9l25.1 115.7 24.8-115.7zM1197.1 935.6h-28.6V788.5h28.6v147.1zM1325.8 814.5H1253v31.2h66.9v25.6H1253v37.8h76.2v26.5h-104.3V788.5h101v26z"/></g></g></svg>
