<svg id="Layer_1" data-name="Layer 1" xmlns="http://www.w3.org/2000/svg" viewBox="0 0 477 355.3"><defs><style>.cls-1{fill:#fff}</style></defs><path class="cls-1" d="m275.3 37.7-212-17.5 22 337.1-17.7 2L0 11.3 270.8 4z" transform="translate(0 -4)"/><path class="cls-1" d="m262.8 56.1-5.5 300.7h-22.2l-3.3-302zM323.6 45.6l32.7 312.5h-48.5V45.6zM387.8 323.6a11.58 11.58 0 0 0-3.4 3.2 14.44 14.44 0 0 0-2.1 4.1 14.87 14.87 0 0 0-.7 4.7 16.52 16.52 0 0 0 1.7 7.7 15.36 15.36 0 0 0 4.5 5.3 18.32 18.32 0 0 0 6.3 3 25 25 0 0 0 7.2 1 25.53 25.53 0 0 0 7.2-1 20.43 20.43 0 0 0 6.3-3 14.5 14.5 0 0 0 4.5-5.3 16.82 16.82 0 0 0 1.7-7.7 14.85 14.85 0 0 0-1.1-5.7 15.23 15.23 0 0 0-3.1-4.4 16.63 16.63 0 0 0-4.6-3 20.08 20.08 0 0 0-5.6-1.5v-4.3a21.8 21.8 0 0 1 7.5 2 17.55 17.55 0 0 1 5.6 3.9 18.45 18.45 0 0 1 3.6 5.7 22.25 22.25 0 0 1-.6 16.5 20.21 20.21 0 0 1-5.1 6.7 21.18 21.18 0 0 1-7.4 4 29 29 0 0 1-8.9 1.3 29.5 29.5 0 0 1-8.9-1.3 21.18 21.18 0 0 1-7.4-4 17.88 17.88 0 0 1-5.1-6.7 21.18 21.18 0 0 1-1.9-9.3 22.31 22.31 0 0 1 .9-6.3 19.6 19.6 0 0 1 2.8-5.6 15.42 15.42 0 0 1 4.6-4.2 15.72 15.72 0 0 1 6.2-2.1v4.3a18.47 18.47 0 0 0-4.7 2zm-9-17.2h27.7a21 21 0 0 0 6.6-.9 12.4 12.4 0 0 0 4.5-2.6 8.93 8.93 0 0 0 2.5-4.2 20 20 0 0 0 0-11.2 11.19 11.19 0 0 0-2.5-4.2 11.56 11.56 0 0 0-4.5-2.6 21 21 0 0 0-6.6-.9h-27.7v-4.3h28.7a20.7 20.7 0 0 1 6.6 1 14.43 14.43 0 0 1 5.4 3.1 15.24 15.24 0 0 1 3.7 5.4 21.5 21.5 0 0 1 1.3 8.1 23.5 23.5 0 0 1-1.3 8 13 13 0 0 1-3.7 5.4 15.26 15.26 0 0 1-5.4 3.1 20.7 20.7 0 0 1-6.6 1h-28.7v-4.2zm0-43.8H420v-25.3h3.6v29.6h-44.8v-4.3zm0-59.8h3.6v15.7h41.2v4.3h-41.2v15.7h-3.6zm0-8.1h27.7a21 21 0 0 0 6.6-.9 12.4 12.4 0 0 0 4.5-2.6 8.93 8.93 0 0 0 2.5-4.2 20 20 0 0 0 0-11.2 11.19 11.19 0 0 0-2.5-4.2 11.56 11.56 0 0 0-4.5-2.6 21 21 0 0 0-6.6-.9h-27.7v-4.3h28.7a20.7 20.7 0 0 1 6.6 1 14.43 14.43 0 0 1 5.4 3.1 15.24 15.24 0 0 1 3.7 5.4 21.5 21.5 0 0 1 1.3 8.1 23.5 23.5 0 0 1-1.3 8 14.05 14.05 0 0 1-3.7 5.4 15.26 15.26 0 0 1-5.4 3.1 20.7 20.7 0 0 1-6.6 1h-28.7zm0-59.1a18.35 18.35 0 0 1 .7-5.3 15 15 0 0 1 2.1-4.4 11.78 11.78 0 0 1 3.6-3 12.07 12.07 0 0 1 5.2-1.1 12.43 12.43 0 0 1 7.4 2.2 10.25 10.25 0 0 1 4 6.6h.1a9.49 9.49 0 0 1 1.2-3.7 7.28 7.28 0 0 1 2.2-2.4 8.06 8.06 0 0 1 3-1.3 15 15 0 0 1 3.7-.5l2.8-.1a18.41 18.41 0 0 0 3.3-.3 14.2 14.2 0 0 0 3.1-.6 6.16 6.16 0 0 0 2.3-1.1v4.7a3.39 3.39 0 0 1-1.5.6 10.79 10.79 0 0 1-1.9.3c-.6.1-1.3.1-1.9.2s-1.2.1-1.6.1l-4.7.4a12.93 12.93 0 0 0-4.2 1.2 7.19 7.19 0 0 0-4 7.5V152h19.9v4.3h-44.8v-20.7zm21.3.3a11 11 0 0 0-.6-3.7 10.3 10.3 0 0 0-1.7-3.1 9 9 0 0 0-2.7-2.1 9.62 9.62 0 0 0-10.2 1.6c-1.6 1.6-2.4 4-2.4 7.3V152h17.6v-16.1zm-21.3-38.8 44.8-17.7V84l-13.9 5.5V110l13.9 5.4v4.6l-44.8-18.2zm27.3-6.2-23 8.7 23 9zM378.8 71H420V45.7h3.6v29.6h-44.8V71zm89.5 280.9a9 9 0 0 0 3.3-2.8 10.78 10.78 0 0 0 1.7-4.1 27.56 27.56 0 0 0 .5-5.1 14.24 14.24 0 0 0-.4-3.4 12.77 12.77 0 0 0-1.4-3.4 7.77 7.77 0 0 0-2.5-2.6 6.24 6.24 0 0 0-3.7-1.1 5.43 5.43 0 0 0-2.9.7 6.06 6.06 0 0 0-2 1.9 13 13 0 0 0-1.4 2.6l-.9 2.8-2.2 8.8-1.1 3.4a8.8 8.8 0 0 1-1.8 2.9 7.94 7.94 0 0 1-2.7 2 9.35 9.35 0 0 1-3.9.8 11.62 11.62 0 0 1-3.4-.6 9.46 9.46 0 0 1-3.6-2.1 12.45 12.45 0 0 1-2.9-4.2 16.9 16.9 0 0 1-1.2-6.8 20.48 20.48 0 0 1 .8-5.6 14.72 14.72 0 0 1 2.3-4.7 11.81 11.81 0 0 1 3.8-3.2 11.2 11.2 0 0 1 5.3-1.2v3.8a9.35 9.35 0 0 0-3.9 1 8.14 8.14 0 0 0-2.8 2.4 9.88 9.88 0 0 0-1.7 3.4 13.36 13.36 0 0 0-.6 4 15 15 0 0 0 .4 3.7 10.23 10.23 0 0 0 1.3 3.2 7.28 7.28 0 0 0 2.4 2.2 7 7 0 0 0 3.7.8 6 6 0 0 0 2.4-.5 3.71 3.71 0 0 0 1.7-1.3 7.61 7.61 0 0 0 1.2-1.9 15.46 15.46 0 0 0 .7-2.3l2.4-9.7a27 27 0 0 1 1.4-4 13.85 13.85 0 0 1 2-3.3 8.93 8.93 0 0 1 2.9-2.2 10 10 0 0 1 4.1-.8 13.58 13.58 0 0 1 1.8.1 7.5 7.5 0 0 1 2.3.7 16.54 16.54 0 0 1 2.5 1.5 9 9 0 0 1 2.3 2.7 16.64 16.64 0 0 1 1.7 4.2 26.44 26.44 0 0 1 .6 6 26.9 26.9 0 0 1-.8 6.5 13.53 13.53 0 0 1-2.5 5.1 10.27 10.27 0 0 1-4.2 3.2 13.28 13.28 0 0 1-6.2 1v-3.8a9.15 9.15 0 0 0 5.2-.7zm-31.5-68.7h3.2v23.6h14.2v-22.1h3.2v22.1H473v-23.9h3.2v27.7h-39.4v-27.4zm0-31.7a17 17 0 0 1 .6-4.6 11 11 0 0 1 1.8-3.8 8.19 8.19 0 0 1 3.2-2.6 11.65 11.65 0 0 1 11.1.9 8.89 8.89 0 0 1 3.5 5.8h.1a8.62 8.62 0 0 1 1-3.2 6.39 6.39 0 0 1 1.9-2.1 11.07 11.07 0 0 1 2.7-1.2l3.3-.5 2.4-.1a28.25 28.25 0 0 0 2.9-.2 23.25 23.25 0 0 0 2.8-.5 4.69 4.69 0 0 0 2-1v4.2a4.57 4.57 0 0 1-1.4.5l-1.7.3a9.7 9.7 0 0 1-1.7.1c-.6 0-1 .1-1.4.1l-4.2.4a10.67 10.67 0 0 0-3.7 1.1 5.82 5.82 0 0 0-2.6 2.3 6.58 6.58 0 0 0-.9 4.2v14.3H476v3.8h-39.4v-18.2zm18.7.3a12.57 12.57 0 0 0-.5-3.3 8.92 8.92 0 0 0-1.5-2.7 8.76 8.76 0 0 0-2.4-1.9 6.57 6.57 0 0 0-3.2-.7 7.7 7.7 0 0 0-5.7 2.1c-1.4 1.4-2.1 3.6-2.1 6.4v14.1h15.5v-14zm-18.7-25.2 35.2-12.9v-.1l-35.2-12.8v-4l39.4 14.7v4.4l-39.4 14.7v-4zm0-45.3h39.4v3.8h-39.4zm7.9-42.7a11.49 11.49 0 0 0-3 2.8 12.16 12.16 0 0 0-1.8 3.6 14 14 0 0 0-.6 4.1 14.51 14.51 0 0 0 1.5 6.8 13.48 13.48 0 0 0 3.9 4.6 17.64 17.64 0 0 0 5.5 2.7 22.5 22.5 0 0 0 12.6 0 18 18 0 0 0 5.6-2.7 13.32 13.32 0 0 0 3.9-4.6 14.23 14.23 0 0 0 1.5-6.8 11.46 11.46 0 0 0-1-5 11.87 11.87 0 0 0-2.7-3.8 13.81 13.81 0 0 0-4-2.6 16.12 16.12 0 0 0-4.9-1.3v-3.8a22.85 22.85 0 0 1 6.6 1.7 17.67 17.67 0 0 1 5 3.4 13.6 13.6 0 0 1 3.1 5 18.26 18.26 0 0 1 1.1 6.4 19.37 19.37 0 0 1-1.7 8.2 16.58 16.58 0 0 1-4.5 5.9 18.55 18.55 0 0 1-6.5 3.5 26 26 0 0 1-15.6 0 18.55 18.55 0 0 1-6.5-3.5 16.58 16.58 0 0 1-4.5-5.9 19.37 19.37 0 0 1-1.7-8.2 20.32 20.32 0 0 1 .8-5.5 17.45 17.45 0 0 1 2.5-4.9 14.14 14.14 0 0 1 4-3.7 13.82 13.82 0 0 1 5.5-1.9v3.8a15.31 15.31 0 0 0-4.1 1.7zM436.8 91.5h3.2v23.6h14.2V93h3.2v22.1H473V91.2h3.2v27.7h-39.4V91.5zm31.5-17.7a9 9 0 0 0 3.3-2.8 10.78 10.78 0 0 0 1.7-4.1 27.56 27.56 0 0 0 .5-5.1 14.24 14.24 0 0 0-.4-3.4A12.77 12.77 0 0 0 472 55a7.77 7.77 0 0 0-2.5-2.6 6.24 6.24 0 0 0-3.7-1.1 5.47 5.47 0 0 0-2.9.8 6.06 6.06 0 0 0-2 1.9 13 13 0 0 0-1.4 2.6l-.9 2.8-2.2 8.8-1.1 3.4a8.8 8.8 0 0 1-1.8 2.9 7.94 7.94 0 0 1-2.7 2 9.35 9.35 0 0 1-3.9.8 11.62 11.62 0 0 1-3.4-.6 9.46 9.46 0 0 1-3.6-2.1 12.45 12.45 0 0 1-2.9-4.2 16.9 16.9 0 0 1-1.2-6.8 20.48 20.48 0 0 1 .8-5.6 14.72 14.72 0 0 1 2.3-4.7 11.81 11.81 0 0 1 3.8-3.2 11.2 11.2 0 0 1 5.3-1.2v3.8a9.35 9.35 0 0 0-3.9 1 8.14 8.14 0 0 0-2.8 2.4 9.88 9.88 0 0 0-1.7 3.4 13.36 13.36 0 0 0-.6 4 15 15 0 0 0 .4 3.7 10.23 10.23 0 0 0 1.3 3.2 7.28 7.28 0 0 0 2.4 2.2 7 7 0 0 0 3.7.8 6 6 0 0 0 2.4-.5 4.53 4.53 0 0 0 1.7-1.3 7.61 7.61 0 0 0 1.2-1.9 15.46 15.46 0 0 0 .7-2.3l2.4-9.7a27 27 0 0 1 1.4-4 13.85 13.85 0 0 1 2-3.3 8.93 8.93 0 0 1 2.9-2.2 10 10 0 0 1 4.1-.8 13.58 13.58 0 0 1 1.8.1 7.5 7.5 0 0 1 2.3.7 16.54 16.54 0 0 1 2.5 1.5 9 9 0 0 1 2.3 2.7 16.64 16.64 0 0 1 1.7 4.2 26.44 26.44 0 0 1 .6 6 26.9 26.9 0 0 1-.8 6.5 13.53 13.53 0 0 1-2.5 5.1 10.27 10.27 0 0 1-4.2 3.2 13.28 13.28 0 0 1-6.2 1v-3.8a9.08 9.08 0 0 0 5.2-.8z" transform="translate(0 -4)"/></svg>
