<?xml version="1.0" encoding="UTF-8"?>
<!DOCTYPE svg  PUBLIC '-//W3C//DTD SVG 1.1//EN'  'http://www.w3.org/Graphics/SVG/1.1/DTD/svg11.dtd'>
<svg enable-background="new 0 0 476.6 470.6" version="1.1" viewBox="0 0 476.6 470.6" xml:space="preserve" xmlns="http://www.w3.org/2000/svg">
<style type="text/css">
.st0{fill:#000;}
.st1{fill:#000;}
.st2{fill:#000;}
</style>
<title>MOEC</title>
<polygon class="st0" points="275.3 33.7 63.3 16.2 85.3 353.3 67.6 355.3 0 7.3 270.8 0"/>
<polygon class="st1" points="262.8 52.1 257.3 352.8 235.1 352.8 231.8 50.8"/>
<polygon class="st2" points="323.6 41.6 356.3 354.1 307.8 354.1 307.8 41.6"/>
<path d="m387.8 319.6c-1.4 0.9-2.5 1.9-3.4 3.2-0.9 1.2-1.6 2.6-2.1 4.1s-0.7 3.1-0.7 4.7c0 3 0.6 5.6 1.7 7.7s2.6 3.9 4.5 5.3 4 2.4 6.3 3c2.3 0.7 4.8 1 7.2 1s4.8-0.3 7.2-1 4.5-1.7 6.3-3c1.9-1.4 3.4-3.1 4.5-5.3s1.7-4.7 1.7-7.7c0-2.1-0.4-4-1.1-5.7-0.8-1.7-1.8-3.1-3.1-4.4-1.3-1.2-2.8-2.2-4.6-3-1.7-0.8-3.6-1.2-5.6-1.5v-4.3c2.8 0.3 5.3 0.9 7.5 2 2.2 1 4.1 2.3 5.6 3.9s2.7 3.5 3.6 5.7c0.8 2.2 1.3 4.6 1.3 7.2 0 3.5-0.6 6.7-1.9 9.3-1.3 2.7-3 4.9-5.1 6.7s-4.6 3.1-7.4 4-5.8 1.3-8.9 1.3-6-0.4-8.9-1.3c-2.8-0.9-5.3-2.2-7.4-4-2.2-1.8-3.9-4-5.1-6.7-1.3-2.7-1.9-5.8-1.9-9.3 0-2.2 0.3-4.2 0.9-6.3 0.6-2 1.6-3.9 2.8-5.6s2.8-3.1 4.6-4.2 3.9-1.8 6.2-2.1v4.3c-1.8 0.5-3.4 1.2-4.7 2z"/>
<path d="m378.8 302.4h27.7c2.6 0 4.8-0.3 6.6-0.9s3.3-1.5 4.5-2.6 2-2.5 2.5-4.2c0.5-1.6 0.8-3.5 0.8-5.6s-0.3-4-0.8-5.6-1.4-3-2.5-4.2c-1.2-1.1-2.6-2-4.5-2.6-1.8-0.6-4-0.9-6.6-0.9h-27.7v-4.3h28.7c2.3 0 4.5 0.3 6.6 1s3.9 1.7 5.4 3.1 2.8 3.2 3.7 5.4 1.3 4.9 1.3 8.1c0 3.1-0.5 5.8-1.3 8s-2.1 4-3.7 5.4c-1.5 1.4-3.4 2.4-5.4 3.1-2.1 0.7-4.3 1-6.6 1h-28.7v-4.2z"/>
<path d="m378.8 258.6h41.2v-25.3h3.6v29.6h-44.8v-4.3z"/>
<path d="m378.8 198.8h3.6v15.7h41.2v4.3h-41.2v15.7h-3.6v-35.7z"/>
<path d="m378.8 190.7h27.7c2.6 0 4.8-0.3 6.6-0.9s3.3-1.5 4.5-2.6 2-2.5 2.5-4.2c0.5-1.6 0.8-3.5 0.8-5.6s-0.3-4-0.8-5.6-1.4-3-2.5-4.2c-1.2-1.1-2.6-2-4.5-2.6-1.8-0.6-4-0.9-6.6-0.9h-27.7v-4.3h28.7c2.3 0 4.5 0.3 6.6 1s3.9 1.7 5.4 3.1 2.8 3.2 3.7 5.4 1.3 4.9 1.3 8.1c0 3.1-0.5 5.8-1.3 8-0.9 2.2-2.1 4-3.7 5.4-1.5 1.4-3.4 2.4-5.4 3.1-2.1 0.7-4.3 1-6.6 1h-28.7v-4.2z"/>
<path d="m378.8 131.6c0-1.9 0.2-3.6 0.7-5.3s1.2-3.1 2.1-4.4c0.9-1.2 2.2-2.2 3.6-3 1.5-0.7 3.2-1.1 5.2-1.1 2.8 0 5.3 0.7 7.4 2.2s3.4 3.7 4 6.6h0.1c0.2-1.5 0.6-2.7 1.2-3.7s1.3-1.8 2.2-2.4 1.9-1.1 3-1.3c1.2-0.3 2.4-0.5 3.7-0.5 0.8 0 1.7-0.1 2.8-0.1s2.2-0.1 3.3-0.3c1.1-0.1 2.2-0.3 3.1-0.6 1-0.3 1.7-0.6 2.3-1.1v4.7c-0.4 0.3-0.9 0.5-1.5 0.6s-1.2 0.3-1.9 0.3c-0.6 0.1-1.3 0.1-1.9 0.2-0.6 0-1.2 0.1-1.6 0.1-1.6 0.1-3.2 0.2-4.7 0.4-1.6 0.2-3 0.6-4.2 1.2s-2.2 1.5-3 2.7-1.1 2.8-1 4.8v16.4h19.9v4.3h-44.8v-20.7zm21.3 0.3c0-1.3-0.2-2.6-0.6-3.7-0.4-1.2-1-2.2-1.7-3.1-0.8-0.9-1.7-1.6-2.7-2.1-1.1-0.5-2.3-0.8-3.7-0.8-2.8 0-4.9 0.8-6.5 2.4s-2.4 4-2.4 7.3v16.1h17.6v-16.1z"/>
<path d="m378.8 93.1l44.8-17.7v4.6l-13.9 5.5v20.5l13.9 5.4v4.6l-44.8-18.2v-4.7zm27.3-6.2l-23 8.7 23 9v-17.7z"/>
<path d="M378.8,67H420V41.7h3.6v29.6h-44.8V67z"/>
<path d="m468.3 347.9c1.4-0.7 2.4-1.6 3.3-2.8 0.8-1.2 1.4-2.5 1.7-4.1s0.5-3.3 0.5-5.1c0-1-0.1-2.2-0.4-3.4s-0.8-2.4-1.4-3.4c-0.6-1.1-1.5-1.9-2.5-2.6s-2.2-1.1-3.7-1.1c-1.1 0-2.1 0.2-2.9 0.7s-1.5 1.1-2 1.9c-0.6 0.8-1 1.7-1.4 2.6-0.3 1-0.6 1.9-0.9 2.8l-2.2 8.8c-0.3 1.1-0.7 2.3-1.1 3.4s-1 2-1.8 2.9c-0.7 0.8-1.6 1.5-2.7 2s-2.4 0.8-3.9 0.8c-1 0-2.1-0.2-3.4-0.6s-2.5-1.1-3.6-2.1-2.1-2.4-2.9-4.2-1.2-4.1-1.2-6.8c0-2 0.3-3.8 0.8-5.6s1.3-3.3 2.3-4.7c1-1.3 2.3-2.4 3.8-3.2s3.3-1.2 5.3-1.2v3.8c-1.5 0.1-2.8 0.4-3.9 1s-2.1 1.4-2.8 2.4c-0.8 1-1.3 2.1-1.7 3.4s-0.6 2.6-0.6 4c0 1.3 0.1 2.5 0.4 3.7s0.7 2.3 1.3 3.2 1.4 1.6 2.4 2.2 2.2 0.8 3.7 0.8c0.9 0 1.7-0.2 2.4-0.5s1.3-0.7 1.7-1.3c0.5-0.6 0.9-1.2 1.2-1.9s0.5-1.5 0.7-2.3l2.4-9.7c0.4-1.4 0.8-2.7 1.4-4 0.5-1.2 1.2-2.3 2-3.3 0.8-0.9 1.8-1.7 2.9-2.2s2.5-0.8 4.1-0.8c0.4 0 1 0 1.8 0.1 0.7 0.1 1.5 0.3 2.3 0.7s1.7 0.9 2.5 1.5 1.6 1.5 2.3 2.7c0.7 1.1 1.2 2.5 1.7 4.2 0.4 1.7 0.6 3.7 0.6 6s-0.3 4.5-0.8 6.5-1.4 3.7-2.5 5.1-2.5 2.5-4.2 3.2c-1.7 0.8-3.8 1.1-6.2 1v-3.8c2.2 0.3 3.9-0.1 5.2-0.7z"/>
<path d="M436.8,279.2h3.2v23.6h14.2v-22.1h3.2v22.1H473v-23.9h3.2v27.7h-39.4V279.2z"/>
<path d="m436.8 247.5c0-1.6 0.2-3.2 0.6-4.6 0.4-1.5 1-2.7 1.8-3.8s1.9-2 3.2-2.6 2.8-1 4.6-1c2.5 0 4.7 0.6 6.5 1.9s3 3.2 3.5 5.8h0.1c0.2-1.3 0.5-2.4 1-3.2 0.5-0.9 1.1-1.5 1.9-2.1 0.8-0.5 1.7-0.9 2.7-1.2 1-0.2 2.1-0.4 3.3-0.5 0.7 0 1.5-0.1 2.4-0.1 1 0 1.9-0.1 2.9-0.2s1.9-0.3 2.8-0.5 1.5-0.6 2-1v4.2c-0.4 0.2-0.8 0.4-1.4 0.5-0.5 0.1-1.1 0.2-1.7 0.3s-1.1 0.1-1.7 0.1-1 0.1-1.4 0.1c-1.4 0.1-2.8 0.2-4.2 0.4s-2.6 0.5-3.7 1.1c-1.1 0.5-2 1.3-2.6 2.3-0.7 1-1 2.4-0.9 4.2v14.3h17.5v3.8h-39.4v-18.2zm18.7 0.3c0-1.1-0.2-2.2-0.5-3.3-0.3-1-0.9-1.9-1.5-2.7-0.7-0.8-1.5-1.4-2.4-1.9s-2-0.7-3.2-0.7c-2.4 0-4.3 0.7-5.7 2.1s-2.1 3.6-2.1 6.4v14.1h15.5v-14z"/>
<path d="m436.8 222.6l35.2-12.9v-0.1l-35.2-12.8v-4l39.4 14.7v4.4l-39.4 14.7v-4z"/>
<path d="m436.8 177.3h39.4v3.8h-39.4v-3.8z"/>
<path d="m444.7 134.6c-1.2 0.8-2.2 1.7-3 2.8s-1.4 2.3-1.8 3.6-0.6 2.7-0.6 4.1c0 2.6 0.5 4.9 1.5 6.8s2.3 3.4 3.9 4.6 3.5 2.1 5.5 2.7c2.1 0.6 4.2 0.9 6.3 0.9s4.2-0.3 6.3-0.9 3.9-1.5 5.6-2.7c1.6-1.2 3-2.8 3.9-4.6 1-1.9 1.5-4.1 1.5-6.8 0-1.9-0.3-3.5-1-5s-1.6-2.8-2.7-3.8c-1.1-1.1-2.5-1.9-4-2.6s-3.2-1.1-4.9-1.3v-3.8c2.4 0.3 4.6 0.8 6.6 1.7 1.9 0.9 3.6 2 5 3.4s2.4 3.1 3.1 5 1.1 4 1.1 6.4c0 3.1-0.6 5.8-1.7 8.2s-2.6 4.3-4.5 5.9-4 2.7-6.5 3.5-5.1 1.2-7.8 1.2-5.3-0.4-7.8-1.2-4.6-1.9-6.5-3.5-3.4-3.5-4.5-5.9-1.7-5.1-1.7-8.2c0-1.9 0.3-3.7 0.8-5.5 0.6-1.8 1.4-3.4 2.5-4.9s2.4-2.7 4-3.7 3.4-1.6 5.5-1.9v3.8c-1.6 0.4-2.9 1-4.1 1.7z"/>
<path d="M436.8,87.5h3.2v23.6h14.2V89h3.2v22.1H473V87.2h3.2v27.7h-39.4V87.5z"/>
<path d="m468.3 69.8c1.4-0.7 2.4-1.6 3.3-2.8 0.8-1.2 1.4-2.5 1.7-4.1s0.5-3.3 0.5-5.1c0-1-0.1-2.2-0.4-3.4s-0.8-2.4-1.4-3.4c-0.6-1.1-1.5-1.9-2.5-2.6s-2.2-1.1-3.7-1.1c-1.1 0-2.1 0.3-2.9 0.8s-1.5 1.1-2 1.9c-0.6 0.8-1 1.7-1.4 2.6-0.3 1-0.6 1.9-0.9 2.8l-2.2 8.8c-0.3 1.1-0.7 2.3-1.1 3.4s-1 2-1.8 2.9c-0.7 0.8-1.6 1.5-2.7 2s-2.4 0.8-3.9 0.8c-1 0-2.1-0.2-3.4-0.6s-2.5-1.1-3.6-2.1-2.1-2.4-2.9-4.2-1.2-4.1-1.2-6.8c0-2 0.3-3.8 0.8-5.6s1.3-3.3 2.3-4.7c1-1.3 2.3-2.4 3.8-3.2s3.3-1.2 5.3-1.2v3.8c-1.5 0.1-2.8 0.4-3.9 1s-2.1 1.4-2.8 2.4c-0.8 1-1.3 2.1-1.7 3.4s-0.6 2.6-0.6 4c0 1.3 0.1 2.5 0.4 3.7s0.7 2.3 1.3 3.2 1.4 1.6 2.4 2.2 2.2 0.8 3.7 0.8c0.9 0 1.7-0.2 2.4-0.5s1.3-0.8 1.7-1.3c0.5-0.6 0.9-1.2 1.2-1.9s0.5-1.5 0.7-2.3l2.4-9.7c0.4-1.4 0.8-2.7 1.4-4 0.5-1.2 1.2-2.3 2-3.3 0.8-0.9 1.8-1.7 2.9-2.2s2.5-0.8 4.1-0.8c0.4 0 1 0 1.8 0.1 0.7 0.1 1.5 0.3 2.3 0.7s1.7 0.9 2.5 1.5 1.6 1.5 2.3 2.7c0.7 1.1 1.2 2.5 1.7 4.2 0.4 1.7 0.6 3.7 0.6 6s-0.3 4.5-0.8 6.5-1.4 3.7-2.5 5.1-2.5 2.5-4.2 3.2c-1.7 0.8-3.8 1.1-6.2 1v-3.8c2.2 0.2 3.9-0.1 5.2-0.8z"/>
<path d="M12.7,403h1.7l7.7,18.2h0.1l7.6-18.2h1.7v19.6h-1.2v-18.1h-0.1l-7.5,18.1h-1.2L14,404.5h-0.1v18.1h-1.2V403z"/>
<path d="M42.9,403h1.2v19.6h-1.2V403z"/>
<path d="M54.6,403h1.5l12.4,18h0.1v-18h1.2v19.6h-1.4l-12.5-18.1h-0.1v18.1h-1.2V403z"/>
<path d="M81.2,403h1.2v19.6h-1.2V403z"/>
<path d="m105.6 408.6c0-0.8-0.2-1.6-0.5-2.2s-0.8-1.1-1.3-1.6c-0.5-0.4-1.2-0.7-2-0.9s-1.6-0.3-2.5-0.3c-0.5 0-1.1 0.1-1.8 0.2s-1.2 0.4-1.8 0.7c-0.5 0.3-1 0.8-1.3 1.3s-0.5 1.2-0.5 2 0.2 1.4 0.6 1.9 0.9 0.9 1.5 1.2 1.3 0.5 2.1 0.7 1.6 0.4 2.4 0.5c0.8 0.2 1.7 0.4 2.5 0.6s1.5 0.5 2.1 0.9 1.1 0.9 1.5 1.5 0.6 1.4 0.6 2.4-0.2 1.9-0.7 2.6c-0.4 0.7-1 1.3-1.7 1.7s-1.4 0.8-2.2 0.9c-0.8 0.2-1.6 0.3-2.3 0.3-1.2 0-2.2-0.1-3.2-0.4-1-0.2-1.9-0.6-2.6-1.2-0.8-0.6-1.3-1.3-1.8-2.2-0.4-0.9-0.6-1.9-0.6-3.2h1.2c-0.1 1.1 0.1 2 0.5 2.7s0.9 1.3 1.5 1.8 1.4 0.8 2.3 1 1.8 0.3 2.8 0.3c0.6 0 1.2-0.1 1.9-0.2s1.3-0.4 1.8-0.7c0.6-0.3 1-0.8 1.4-1.4s0.6-1.3 0.6-2.1-0.2-1.5-0.6-2-0.9-0.9-1.5-1.3c-0.6-0.3-1.3-0.6-2.1-0.8s-1.6-0.4-2.5-0.5l-2.4-0.6c-0.8-0.2-1.5-0.5-2.1-0.9s-1.1-0.9-1.5-1.5-0.6-1.4-0.6-2.3 0.2-1.7 0.6-2.4 0.9-1.2 1.5-1.6 1.3-0.7 2.1-0.9 1.6-0.3 2.3-0.3c1 0 2 0.1 2.9 0.3s1.7 0.6 2.3 1.1c0.7 0.5 1.2 1.1 1.6 1.9s0.6 1.7 0.7 2.8h-1.2z"/>
<path d="m116.4 404.1v-1h15v1h-6.9v18.5h-1.2v-18.5h-6.9z"/>
<path d="m140.7 403h8.2c0.9 0 1.7 0.1 2.4 0.3s1.4 0.5 2 0.9 1 0.9 1.3 1.5 0.5 1.4 0.5 2.4c0 1.3-0.4 2.4-1.1 3.3s-1.8 1.5-3.1 1.7v0.1c0.9 0.1 1.6 0.3 2.1 0.7s0.9 0.8 1.2 1.3 0.4 1.1 0.5 1.8c0.1 0.6 0.1 1.3 0.1 1.9v1.1c0 0.4 0 0.7 0.1 1 0 0.3 0.1 0.6 0.2 0.9s0.2 0.5 0.3 0.7h-1.4c-0.3-0.5-0.4-1-0.4-1.6s0-1.2 0-1.9 0-1.3-0.1-2c-0.1-0.6-0.2-1.2-0.5-1.7s-0.8-0.9-1.4-1.2-1.5-0.5-2.7-0.5h-7v8.9h-1.2v-19.6zm8.2 9.7c0.7 0 1.4-0.1 2-0.3s1.1-0.4 1.6-0.8 0.8-0.8 1-1.4c0.3-0.6 0.4-1.2 0.4-2 0-0.7-0.1-1.4-0.4-1.9s-0.6-0.9-1.1-1.3-1-0.6-1.6-0.7-1.2-0.2-1.9-0.2h-7v8.6h7z"/>
<path d="m179.9 403h1.3l-7.9 11.4v8.2h-1.2v-8.2l-7.8-11.4h1.4l7.1 10.4 7.1-10.4z"/>
<path d="m220.8 412.8c0 1.4-0.2 2.8-0.6 4-0.4 1.3-1 2.3-1.8 3.3-0.8 0.9-1.8 1.7-2.9 2.2s-2.5 0.8-3.9 0.8c-1.5 0-2.8-0.3-3.9-0.8-1.2-0.5-2.1-1.3-2.9-2.2s-1.4-2-1.8-3.3-0.6-2.6-0.6-4 0.2-2.8 0.6-4c0.4-1.3 1-2.3 1.8-3.3 0.8-0.9 1.8-1.6 2.9-2.2 1.2-0.5 2.5-0.8 3.9-0.8 1.5 0 2.8 0.3 3.9 0.8s2.1 1.3 2.9 2.2 1.4 2 1.8 3.3 0.6 2.6 0.6 4zm-17.4 0c0 1.3 0.2 2.5 0.5 3.6 0.4 1.1 0.9 2.1 1.6 2.9s1.5 1.5 2.6 2c1 0.5 2.1 0.7 3.4 0.7s2.4-0.2 3.4-0.7 1.8-1.2 2.5-2 1.2-1.8 1.6-2.9 0.5-2.3 0.5-3.6-0.2-2.5-0.5-3.6c-0.4-1.1-0.9-2.1-1.6-2.9s-1.5-1.5-2.5-2-2.1-0.7-3.4-0.7-2.4 0.2-3.4 0.7-1.9 1.2-2.6 2-1.2 1.8-1.6 2.9c-0.3 1.2-0.5 2.4-0.5 3.6z"/>
<path d="M231.4,403h12.3v1h-11.1v7.8h10v1h-10v9.7h-1.2V403z"/>
<path d="M268.1,403h13.2v1h-12v7.8h11.2v1h-11.2v8.6h12.1v1h-13.3V403z"/>
<path d="m291.5 403h6.4c1.8 0 3.2 0.3 4.4 0.8s2.1 1.3 2.8 2.2 1.2 2 1.5 3.1c0.3 1.2 0.4 2.4 0.4 3.6 0 1.4-0.2 2.7-0.5 3.9-0.4 1.2-0.9 2.2-1.7 3.1s-1.7 1.6-2.8 2.1-2.5 0.8-4.1 0.8h-6.4v-19.6zm6.4 18.6c0.9 0 1.8-0.1 2.8-0.4 0.9-0.3 1.8-0.8 2.5-1.4 0.7-0.7 1.4-1.6 1.8-2.7 0.5-1.1 0.7-2.5 0.7-4.2 0-1.3-0.1-2.5-0.4-3.4-0.3-1-0.6-1.8-1-2.4s-0.9-1.2-1.5-1.5c-0.6-0.4-1.1-0.7-1.7-0.9s-1.2-0.3-1.8-0.4-1.1-0.1-1.6-0.1h-5v17.5h5.2z"/>
<path d="m319 403v11.7c0 0.4 0 0.8 0.1 1.3 0 0.5 0.1 1 0.3 1.6 0.1 0.5 0.4 1.1 0.6 1.6 0.3 0.5 0.6 1 1.1 1.4s1 0.7 1.7 1 1.5 0.4 2.4 0.4c1.2 0 2.2-0.2 3-0.5s1.5-0.8 2-1.5c0.5-0.6 0.9-1.4 1.1-2.3s0.3-1.9 0.3-3v-11.7h1.2v11.7c0 1.2-0.1 2.3-0.4 3.3-0.2 1-0.7 1.9-1.2 2.6-0.6 0.8-1.4 1.3-2.3 1.8-1 0.4-2.2 0.6-3.7 0.6-1.2 0-2.1-0.1-3-0.4s-1.5-0.7-2-1.1c-0.5-0.5-1-1-1.3-1.6s-0.5-1.2-0.7-1.8-0.3-1.2-0.3-1.8-0.1-1.1-0.1-1.5v-11.8h1.2z"/>
<path d="m344.5 412.8c0-1.4 0.2-2.8 0.6-4 0.4-1.3 1-2.3 1.8-3.3 0.8-0.9 1.8-1.6 2.9-2.2 1.2-0.5 2.5-0.8 3.9-0.8 1.2 0 2.1 0.2 3 0.5 0.8 0.3 1.5 0.7 2.1 1.1s1 0.9 1.4 1.5c0.4 0.5 0.6 1 0.8 1.5s0.3 0.9 0.4 1.2 0.1 0.5 0.1 0.6h-1.2c-0.1-0.8-0.4-1.6-0.8-2.2s-0.9-1.2-1.5-1.7-1.3-0.8-2-1-1.5-0.4-2.3-0.4c-1.3 0-2.4 0.2-3.4 0.7s-1.9 1.2-2.6 2-1.2 1.8-1.6 2.9-0.5 2.3-0.5 3.6 0.2 2.5 0.5 3.6c0.4 1.1 0.9 2.1 1.6 2.9s1.5 1.5 2.6 2c1 0.5 2.1 0.7 3.4 0.7 1 0 1.8-0.2 2.7-0.6 0.8-0.4 1.6-0.9 2.2-1.6 0.6-0.6 1.1-1.4 1.5-2.2s0.6-1.7 0.6-2.6h1.2c-0.1 1.2-0.4 2.2-0.9 3.2s-1.1 1.8-1.8 2.6c-0.7 0.7-1.6 1.3-2.5 1.7-1 0.4-2 0.6-3 0.6-1.5 0-2.8-0.3-3.9-0.8-1.2-0.5-2.1-1.3-2.9-2.2s-1.4-2-1.8-3.3c-0.4-1.2-0.6-2.6-0.6-4z"/>
<path d="m378.8 403h1.3l7.7 19.6h-1.3l-2.5-6.3h-9.4l-2.5 6.3h-1.1l7.8-19.6zm4.9 12.3l-4.2-11.1h-0.1l-4.4 11.1h8.7z"/>
<path d="M395,404.1v-1h15v1h-6.9v18.5h-1.2v-18.5H395z"/>
<path d="M419.4,403h1.2v19.6h-1.2V403z"/>
<path d="m449.8 412.8c0 1.4-0.2 2.8-0.6 4-0.4 1.3-1 2.3-1.8 3.3-0.8 0.9-1.8 1.7-2.9 2.2s-2.5 0.8-3.9 0.8-2.8-0.3-3.9-0.8-2.1-1.3-2.9-2.2-1.4-2-1.8-3.3-0.6-2.6-0.6-4 0.2-2.8 0.6-4c0.4-1.3 1-2.3 1.8-3.3 0.8-0.9 1.8-1.6 2.9-2.2s2.5-0.8 3.9-0.8 2.8 0.3 3.9 0.8 2.1 1.3 2.9 2.2 1.4 2 1.8 3.3 0.6 2.6 0.6 4zm-17.4 0c0 1.3 0.2 2.5 0.5 3.6 0.4 1.1 0.9 2.1 1.6 2.9s1.5 1.5 2.6 2c1 0.5 2.1 0.7 3.4 0.7s2.4-0.2 3.4-0.7 1.8-1.2 2.5-2 1.2-1.8 1.6-2.9 0.5-2.3 0.5-3.6-0.2-2.5-0.5-3.6c-0.4-1.1-0.9-2.1-1.6-2.9s-1.5-1.5-2.5-2-2.1-0.7-3.4-0.7-2.4 0.2-3.4 0.7-1.9 1.2-2.6 2-1.2 1.8-1.6 2.9c-0.3 1.2-0.5 2.4-0.5 3.6z"/>
<path d="M460.4,403h1.5l12.4,18h0.1v-18h1.2v19.6h-1.4l-12.5-18.1h-0.1v18.1h-1.2V403z"/>
<path d="m21.5 430.5h2.7l15.6 39.5h-2.6l-5-12.7h-18.9l-5 12.7h-2.6l15.8-39.5zm10 24.8l-8.5-22.4h-0.1l-8.8 22.4h17.4z"/>
<path d="m53.6 430.5h3l25 36.3h0.1v-36.3h2.4v39.5h-2.9l-25.1-36.5h-0.1v36.5h-2.4v-39.5z"/>
<path d="m102.2 430.5h13c3.5 0 6.5 0.6 8.8 1.7s4.2 2.6 5.6 4.4 2.4 3.9 3 6.3 0.9 4.8 0.9 7.3c0 2.8-0.4 5.4-1.1 7.8s-1.8 4.5-3.3 6.3-3.4 3.2-5.7 4.2-5 1.5-8.2 1.5h-12.8v-39.5zm13 37.4c1.8 0 3.7-0.3 5.6-0.9s3.6-1.5 5.1-2.9c1.5-1.3 2.7-3.2 3.7-5.4 0.9-2.3 1.4-5.1 1.4-8.6 0-2.7-0.3-5-0.8-6.9s-1.2-3.5-2.1-4.8-1.9-2.3-3-3.1-2.3-1.3-3.5-1.7-2.4-0.7-3.6-0.8-2.3-0.2-3.2-0.2h-10.1v35.3h10.5z"/>
<path d="m174 450.3c0-2.9 0.4-5.6 1.3-8.1 0.8-2.5 2.1-4.7 3.7-6.6s3.6-3.3 5.9-4.4 5-1.6 7.9-1.6c2.3 0 4.3 0.3 6 0.9s3.1 1.4 4.3 2.3 2.1 1.9 2.9 3c0.7 1.1 1.3 2.1 1.7 3s0.7 1.8 0.8 2.4c0.1 0.7 0.2 1.1 0.2 1.1h-2.4c-0.3-1.7-0.8-3.1-1.6-4.5-0.8-1.3-1.8-2.4-3-3.3s-2.6-1.6-4.1-2.1-3.1-0.7-4.7-0.7c-2.6 0-4.9 0.5-6.9 1.5s-3.7 2.3-5.1 4-2.5 3.6-3.2 5.9-1.1 4.6-1.1 7.2c0 2.5 0.4 4.9 1.1 7.2s1.8 4.2 3.2 5.9 3.1 3 5.1 4 4.3 1.5 6.9 1.5c1.9 0 3.7-0.4 5.4-1.2s3.1-1.8 4.4-3.2c1.3-1.3 2.3-2.8 3-4.5 0.8-1.7 1.2-3.5 1.3-5.3h2.4c-0.2 2.4-0.8 4.5-1.7 6.5s-2.1 3.7-3.6 5.2-3.1 2.6-5.1 3.4c-1.9 0.8-4 1.2-6.1 1.2-3 0-5.6-0.5-7.9-1.6s-4.3-2.5-5.9-4.4-2.8-4.1-3.7-6.6c-1-2.5-1.4-5.2-1.4-8.1z"/>
<path d="m228.9 430.5v23.7c0 0.8 0 1.7 0.1 2.7s0.3 2.1 0.6 3.2 0.7 2.2 1.2 3.2c0.5 1.1 1.3 2 2.2 2.8s2.1 1.5 3.4 2 3 0.7 4.9 0.7c2.4 0 4.5-0.3 6.1-1s3-1.7 4-2.9c1-1.3 1.7-2.8 2.2-4.6 0.4-1.8 0.7-3.8 0.7-6.1v-23.7h2.4v23.7c0 2.4-0.2 4.6-0.7 6.6s-1.3 3.8-2.5 5.3-2.8 2.7-4.7 3.6c-2 0.9-4.4 1.3-7.4 1.3-2.3 0-4.3-0.3-6-0.9s-3-1.4-4.1-2.3-1.9-2-2.6-3.2c-0.6-1.2-1.1-2.4-1.4-3.7s-0.5-2.4-0.6-3.6-0.1-2.2-0.1-3.1v-23.7h2.3z"/>
<path d="m273.6 430.5h2.4v37.4h22.4v2.1h-24.9v-39.5z"/>
<path d="M310.1,432.6v-2.1h30.3v2.1h-13.9v37.4H324v-37.4H310.1z"/>
<path d="m357.5 430.5v23.7c0 0.8 0 1.7 0.1 2.7s0.3 2.1 0.6 3.2 0.7 2.2 1.2 3.2c0.5 1.1 1.3 2 2.2 2.8s2.1 1.5 3.4 2 3 0.7 4.9 0.7c2.4 0 4.5-0.3 6.1-1s3-1.7 4-2.9c1-1.3 1.7-2.8 2.2-4.6 0.4-1.8 0.7-3.8 0.7-6.1v-23.7h2.4v23.7c0 2.4-0.2 4.6-0.7 6.6s-1.3 3.8-2.5 5.3-2.8 2.7-4.7 3.6c-2 0.9-4.4 1.3-7.4 1.3-2.3 0-4.3-0.3-6-0.9s-3-1.4-4.1-2.3-1.9-2-2.6-3.2c-0.6-1.2-1.1-2.4-1.4-3.7s-0.5-2.4-0.6-3.6-0.1-2.2-0.1-3.1v-23.7h2.3z"/>
<path d="m402.3 430.5h16.5c1.7 0 3.4 0.2 4.9 0.5 1.5 0.4 2.8 0.9 4 1.7 1.1 0.8 2 1.8 2.7 3.1 0.6 1.3 1 2.9 1 4.8 0 2.7-0.7 4.9-2.2 6.7s-3.6 3-6.2 3.4v0.1c1.8 0.2 3.2 0.7 4.3 1.4s1.8 1.6 2.4 2.7c0.5 1.1 0.8 2.3 1 3.5 0.1 1.3 0.2 2.6 0.2 3.9v2.3c0 0.7 0 1.4 0.1 2.1 0.1 0.6 0.2 1.2 0.4 1.8s0.4 1 0.7 1.4h-2.7c-0.5-0.9-0.8-2-0.9-3.2s-0.1-2.5-0.1-3.8-0.1-2.6-0.2-4-0.5-2.5-1.1-3.5-1.5-1.9-2.8-2.5-3.1-0.9-5.4-0.9h-14.1v18h-2.4v-39.5zm16.5 19.5c1.4 0 2.8-0.2 4-0.5s2.3-0.9 3.2-1.6 1.6-1.7 2.1-2.8 0.8-2.5 0.8-4.1c0-1.5-0.3-2.7-0.8-3.8s-1.3-1.9-2.2-2.6-2-1.1-3.2-1.4-2.5-0.4-3.8-0.4h-14.1v17.2h14z"/>
<path d="M449.1,430.5h26.6v2.1h-24.1v15.8h22.7v2.1h-22.7v17.4H476v2.1h-26.8V430.5z"/>
</svg>
