<svg xmlns="http://www.w3.org/2000/svg" viewBox="0 0 476.6 350.6"><path d="M275.3 33.7l-212-17.5 22 337.1-17.7 2L0 7.3 270.8 0z" fill="#727336"/><path d="M262.8 52.1l-5.5 300.7h-22.2l-3.3-302z" fill="#3c3935"/><path d="M323.6 41.6l32.7 312.5h-48.5V41.6z" fill="#1d5b7d"/><path d="M387.8 319.6c-1.4.9-2.5 1.9-3.4 3.2-.9 1.2-1.6 2.6-2.1 4.1s-.7 3.1-.7 4.7c0 3 .6 5.6 1.7 7.7s2.6 3.9 4.5 5.3 4 2.4 6.3 3c2.3.7 4.8 1 7.2 1s4.8-.3 7.2-1 4.5-1.7 6.3-3c1.9-1.4 3.4-3.1 4.5-5.3s1.7-4.7 1.7-7.7c0-2.1-.4-4-1.1-5.7-.8-1.7-1.8-3.1-3.1-4.4-1.3-1.2-2.8-2.2-4.6-3-1.7-.8-3.6-1.2-5.6-1.5v-4.3c2.8.3 5.3.9 7.5 2 2.2 1 4.1 2.3 5.6 3.9s2.7 3.5 3.6 5.7c.8 2.2 1.3 4.6 1.3 7.2 0 3.5-.6 6.7-1.9 9.3-1.3 2.7-3 4.9-5.1 6.7s-4.6 3.1-7.4 4-5.8 1.3-8.9 1.3-6-.4-8.9-1.3c-2.8-.9-5.3-2.2-7.4-4-2.2-1.8-3.9-4-5.1-6.7-1.3-2.7-1.9-5.8-1.9-9.3 0-2.2.3-4.2.9-6.3.6-2 1.6-3.9 2.8-5.6s2.8-3.1 4.6-4.2 3.9-1.8 6.2-2.1v4.3c-1.8.5-3.4 1.2-4.7 2zm-9-17.2h27.7c2.6 0 4.8-.3 6.6-.9s3.3-1.5 4.5-2.6 2-2.5 2.5-4.2c.5-1.6.8-3.5.8-5.6s-.3-4-.8-5.6-1.4-3-2.5-4.2a11.61 11.61 0 0 0-4.5-2.6c-1.8-.6-4-.9-6.6-.9h-27.7v-4.3h28.7c2.3 0 4.5.3 6.6 1s3.9 1.7 5.4 3.1 2.8 3.2 3.7 5.4 1.3 4.9 1.3 8.1c0 3.1-.5 5.8-1.3 8s-2.1 4-3.7 5.4c-1.5 1.4-3.4 2.4-5.4 3.1-2.1.7-4.3 1-6.6 1h-28.7v-4.2zm0-43.8H420v-25.3h3.6v29.6h-44.8v-4.3zm0-59.8h3.6v15.7h41.2v4.3h-41.2v15.7h-3.6v-35.7zm0-8.1h27.7c2.6 0 4.8-.3 6.6-.9s3.3-1.5 4.5-2.6 2-2.5 2.5-4.2c.5-1.6.8-3.5.8-5.6s-.3-4-.8-5.6-1.4-3-2.5-4.2a11.61 11.61 0 0 0-4.5-2.6c-1.8-.6-4-.9-6.6-.9h-27.7v-4.3h28.7c2.3 0 4.5.3 6.6 1s3.9 1.7 5.4 3.1 2.8 3.2 3.7 5.4 1.3 4.9 1.3 8.1c0 3.1-.5 5.8-1.3 8-.9 2.2-2.1 4-3.7 5.4-1.5 1.4-3.4 2.4-5.4 3.1-2.1.7-4.3 1-6.6 1h-28.7v-4.2zm0-59.1c0-1.9.2-3.6.7-5.3s1.2-3.1 2.1-4.4c.9-1.2 2.2-2.2 3.6-3 1.5-.7 3.2-1.1 5.2-1.1 2.8 0 5.3.7 7.4 2.2s3.4 3.7 4 6.6h.1c.2-1.5.6-2.7 1.2-3.7s1.3-1.8 2.2-2.4 1.9-1.1 3-1.3c1.2-.3 2.4-.5 3.7-.5l2.8-.1c1.1 0 2.2-.1 3.3-.3 1.1-.1 2.2-.3 3.1-.6 1-.3 1.7-.6 2.3-1.1v4.7c-.4.3-.9.5-1.5.6s-1.2.3-1.9.3c-.6.1-1.3.1-1.9.2-.6 0-1.2.1-1.6.1l-4.7.4c-1.6.2-3 .6-4.2 1.2s-2.2 1.5-3 2.7-1.1 2.8-1 4.8V148h19.9v4.3h-44.8v-20.7zm21.3.3c0-1.3-.2-2.6-.6-3.7-.4-1.2-1-2.2-1.7-3.1-.8-.9-1.7-1.6-2.7-2.1-1.1-.5-2.3-.8-3.7-.8-2.8 0-4.9.8-6.5 2.4s-2.4 4-2.4 7.3V148h17.6v-16.1zm-21.3-38.8l44.8-17.7V80l-13.9 5.5V106l13.9 5.4v4.6l-44.8-18.2v-4.7zm27.3-6.2l-23 8.7 23 9V86.9zM378.8 67H420V41.7h3.6v29.6h-44.8V67zm89.5 280.9c1.4-.7 2.4-1.6 3.3-2.8.8-1.2 1.4-2.5 1.7-4.1s.5-3.3.5-5.1c0-1-.1-2.2-.4-3.4a12.81 12.81 0 0 0-1.4-3.4c-.6-1.1-1.5-1.9-2.5-2.6s-2.2-1.1-3.7-1.1c-1.1 0-2.1.2-2.9.7s-1.5 1.1-2 1.9c-.6.8-1 1.7-1.4 2.6l-.9 2.8-2.2 8.8-1.1 3.4c-.4 1.1-1 2-1.8 2.9-.7.8-1.6 1.5-2.7 2s-2.4.8-3.9.8c-1 0-2.1-.2-3.4-.6s-2.5-1.1-3.6-2.1-2.1-2.4-2.9-4.2-1.2-4.1-1.2-6.8c0-2 .3-3.8.8-5.6s1.3-3.3 2.3-4.7c1-1.3 2.3-2.4 3.8-3.2s3.3-1.2 5.3-1.2v3.8c-1.5.1-2.8.4-3.9 1s-2.1 1.4-2.8 2.4c-.8 1-1.3 2.1-1.7 3.4s-.6 2.6-.6 4c0 1.3.1 2.5.4 3.7s.7 2.3 1.3 3.2 1.4 1.6 2.4 2.2 2.2.8 3.7.8c.9 0 1.7-.2 2.4-.5s1.3-.7 1.7-1.3c.5-.6.9-1.2 1.2-1.9s.5-1.5.7-2.3l2.4-9.7c.4-1.4.8-2.7 1.4-4 .5-1.2 1.2-2.3 2-3.3.8-.9 1.8-1.7 2.9-2.2s2.5-.8 4.1-.8a13.57 13.57 0 0 1 1.8.1c.7.1 1.5.3 2.3.7s1.7.9 2.5 1.5 1.6 1.5 2.3 2.7c.7 1.1 1.2 2.5 1.7 4.2.4 1.7.6 3.7.6 6a26.91 26.91 0 0 1-.8 6.5c-.5 2-1.4 3.7-2.5 5.1s-2.5 2.5-4.2 3.2c-1.7.8-3.8 1.1-6.2 1v-3.8c2.2.3 3.9-.1 5.2-.7zm-31.5-68.7h3.2v23.6h14.2v-22.1h3.2v22.1H473v-23.9h3.2v27.7h-39.4v-27.4zm0-31.7c0-1.6.2-3.2.6-4.6a11.15 11.15 0 0 1 1.8-3.8c.8-1.1 1.9-2 3.2-2.6a10.76 10.76 0 0 1 4.6-1c2.5 0 4.7.6 6.5 1.9s3 3.2 3.5 5.8h.1c.2-1.3.5-2.4 1-3.2.5-.9 1.1-1.5 1.9-2.1.8-.5 1.7-.9 2.7-1.2l3.3-.5 2.4-.1c1 0 1.9-.1 2.9-.2s1.9-.3 2.8-.5 1.5-.6 2-1v4.2c-.4.2-.8.4-1.4.5l-1.7.3c-.6.1-1.1.1-1.7.1s-1 .1-1.4.1l-4.2.4c-1.4.2-2.6.5-3.7 1.1-1.1.5-2 1.3-2.6 2.3-.7 1-1 2.4-.9 4.2v14.3H476v3.8h-39.4v-18.2zm18.7.3c0-1.1-.2-2.2-.5-3.3-.3-1-.9-1.9-1.5-2.7-.7-.8-1.5-1.4-2.4-1.9s-2-.7-3.2-.7c-2.4 0-4.3.7-5.7 2.1s-2.1 3.6-2.1 6.4v14.1h15.5v-14zm-18.7-25.2l35.2-12.9v-.1l-35.2-12.8v-4l39.4 14.7v4.4l-39.4 14.7v-4zm0-45.3h39.4v3.8h-39.4v-3.8zm7.9-42.7c-1.2.8-2.2 1.7-3 2.8a12.16 12.16 0 0 0-1.8 3.6c-.4 1.3-.6 2.7-.6 4.1 0 2.6.5 4.9 1.5 6.8s2.3 3.4 3.9 4.6 3.5 2.1 5.5 2.7c2.1.6 4.2.9 6.3.9s4.2-.3 6.3-.9a18.17 18.17 0 0 0 5.6-2.7c1.6-1.2 3-2.8 3.9-4.6 1-1.9 1.5-4.1 1.5-6.8 0-1.9-.3-3.5-1-5s-1.6-2.8-2.7-3.8c-1.1-1.1-2.5-1.9-4-2.6s-3.2-1.1-4.9-1.3v-3.8c2.4.3 4.6.8 6.6 1.7 1.9.9 3.6 2 5 3.4s2.4 3.1 3.1 5 1.1 4 1.1 6.4c0 3.1-.6 5.8-1.7 8.2s-2.6 4.3-4.5 5.9-4 2.7-6.5 3.5-5.1 1.2-7.8 1.2-5.3-.4-7.8-1.2-4.6-1.9-6.5-3.5-3.4-3.5-4.5-5.9-1.7-5.1-1.7-8.2c0-1.9.3-3.7.8-5.5.6-1.8 1.4-3.4 2.5-4.9s2.4-2.7 4-3.7 3.4-1.6 5.5-1.9v3.8c-1.6.4-2.9 1-4.1 1.7z"/><path d="M436.8 87.5h3.2v23.6h14.2V89h3.2v22.1H473V87.2h3.2v27.7h-39.4V87.5zm31.5-17.7c1.4-.7 2.4-1.6 3.3-2.8.8-1.2 1.4-2.5 1.7-4.1s.5-3.3.5-5.1c0-1-.1-2.2-.4-3.4A12.81 12.81 0 0 0 472 51c-.6-1.1-1.5-1.9-2.5-2.6s-2.2-1.1-3.7-1.1c-1.1 0-2.1.3-2.9.8s-1.5 1.1-2 1.9c-.6.8-1 1.7-1.4 2.6l-.9 2.8-2.2 8.8-1.1 3.4c-.4 1.1-1 2-1.8 2.9-.7.8-1.6 1.5-2.7 2s-2.4.8-3.9.8c-1 0-2.1-.2-3.4-.6s-2.5-1.1-3.6-2.1-2.1-2.4-2.9-4.2-1.2-4.1-1.2-6.8c0-2 .3-3.8.8-5.6s1.3-3.3 2.3-4.7c1-1.3 2.3-2.4 3.8-3.2s3.3-1.2 5.3-1.2v3.8c-1.5.1-2.8.4-3.9 1s-2.1 1.4-2.8 2.4c-.8 1-1.3 2.1-1.7 3.4s-.6 2.6-.6 4c0 1.3.1 2.5.4 3.7s.7 2.3 1.3 3.2 1.4 1.6 2.4 2.2 2.2.8 3.7.8c.9 0 1.7-.2 2.4-.5s1.3-.8 1.7-1.3c.5-.6.9-1.2 1.2-1.9s.5-1.5.7-2.3l2.4-9.7c.4-1.4.8-2.7 1.4-4 .5-1.2 1.2-2.3 2-3.3.8-.9 1.8-1.7 2.9-2.2s2.5-.8 4.1-.8a13.57 13.57 0 0 1 1.8.1c.7.1 1.5.3 2.3.7s1.7.9 2.5 1.5 1.6 1.5 2.3 2.7c.7 1.1 1.2 2.5 1.7 4.2.4 1.7.6 3.7.6 6a26.91 26.91 0 0 1-.8 6.5c-.5 2-1.4 3.7-2.5 5.1s-2.5 2.5-4.2 3.2c-1.7.8-3.8 1.1-6.2 1v-3.8c2.2.2 3.9-.1 5.2-.8z"/></svg>
