<svg xmlns="http://www.w3.org/2000/svg" viewBox="0 0 711 737"><defs><style>.cls-1,.cls-10,.cls-2,.cls-4,.cls-5,.cls-7,.cls-8{fill:none;}.cls-1,.cls-10,.cls-2,.cls-3,.cls-4,.cls-5,.cls-7,.cls-8,.cls-9{stroke:#fff;stroke-miterlimit:10;}.cls-1{stroke-width:0.75px;}.cls-3,.cls-6,.cls-9{fill:#fff;}.cls-4{stroke-dasharray:12.91 12.91;}.cls-5{stroke-dasharray:11.92 11.92;}.cls-7{stroke-dasharray:14 14;}.cls-8{stroke-dasharray:12;}.cls-10,.cls-9{stroke-width:0.5px;}</style></defs><title>nac_white</title><g id="Layer_3" data-name="Layer 3"><path class="cls-1" d="M254.5,109.5h-.06l.06,36h1.83l31.5.22,2.67,0v-.25A36.17,36.17,0,0,0,254.5,109.5Z" transform="translate(-236 -9)"/><path class="cls-1" d="M339.44,109.5h.06l-.06,36H337.6l-31.49.22-2.67,0v-.25A36.17,36.17,0,0,1,339.44,109.5Z" transform="translate(-236 -9)"/><path class="cls-1" d="M345.9,146H346l-.08,45.68h-2.32l-40,.29-3.39,0v-.32A45.9,45.9,0,0,1,345.9,146Z" transform="translate(-236 -9)"/><line class="cls-2" x1="121.5" y1="73.5" x2="121.5" y2="125.5"/><line class="cls-2" x1="109.5" y1="73.5" x2="109.5" y2="125.5"/></g><g id="Layer_1" data-name="Layer 1"><polygon class="cls-3" points="363.5 571.5 363.5 719.5 357.5 719.5 357.5 735.5 404.5 735.5 404.5 714.5 371.5 714.5 371.5 684.42 404.5 684.5 404.5 675.5 371.5 675.5 371.5 571.5 363.5 571.5"/><polygon class="cls-3" points="404.5 501.5 404.5 492.5 371.5 492.69 371.5 391.5 363.5 391.5 363.5 542.5 356.5 542.5 356.5 556.5 363.5 556.5 363.5 556.5 371.5 556.5 371.5 550.33 404.5 550.5 404.5 542.5 371.5 542.5 371.5 501.81 404.5 501.5"/><polygon class="cls-3" points="404.5 143.5 404.5 135.5 371.5 135.38 371.5 30.5 363.5 30.5 363.5 180.5 357.5 180.5 357.5 195.5 371.5 195.5 371.5 189.25 404.5 189.5 404.5 180.5 371.5 180.75 371.5 143.75 404.5 143.5"/><polygon class="cls-3" points="363.5 211.5 363.5 361.5 357.5 361.5 357.5 376.5 371.5 376.5 371.5 370.5 404.5 370.5 404.5 362.5 371.5 362.25 371.5 321.13 404.5 320.5 404.5 312.5 371.5 312.88 371.5 211.5 363.5 211.5"/><path class="cls-3" d="M740.5,117.5V9.5h-85l-1,735,292,1v-628h-206Zm198,618-22-1v-5h-14l-1,5h-232v-3h-3v-165h3v-14h-3v-167h4v-13h-4v-165h3v-17h-3V26.5h5v-5h61.83l.17,102,166,1,1,79h16v-13h-12l-.31-66.7,34.31-.3Z" transform="translate(-236 -9)"/><rect class="cls-3" x="666.5" y="364.5" width="14" height="13"/><rect class="cls-3" x="666.5" y="542.5" width="14" height="15"/><line class="cls-2" x1="125.5" y1="541.5" x2="280.5" y2="542.5"/><line class="cls-2" x1="126.5" y1="375.5" x2="280.5" y2="375.5"/><line class="cls-2" x1="280.5" y1="375.5" x2="280.5" y2="542.5"/><line class="cls-2" x1="205.5" y1="536.5" x2="205.5" y2="376"/><line class="cls-2" x1="258.5" y1="536.5" x2="258.5" y2="375.5"/><line class="cls-2" x1="205" y1="536.5" x2="259" y2="536.5"/><line class="cls-2" x1="205" y1="524.5" x2="259" y2="524.5"/><line class="cls-2" x1="205" y1="512.5" x2="259" y2="512.5"/><line class="cls-2" x1="205" y1="500.5" x2="259" y2="500.5"/><line class="cls-2" x1="205" y1="488.5" x2="259" y2="488.5"/><line class="cls-2" x1="205" y1="476.5" x2="259" y2="476.5"/><line class="cls-2" x1="205" y1="465.5" x2="259" y2="465.5"/><line class="cls-2" x1="205" y1="454.5" x2="259" y2="454.5"/><line class="cls-2" x1="205" y1="444.5" x2="259" y2="444.5"/><line class="cls-2" x1="205" y1="432.5" x2="259" y2="432.5"/><line class="cls-2" x1="205" y1="420.5" x2="259" y2="420.5"/><line class="cls-2" x1="205" y1="408.5" x2="259" y2="408.5"/><line class="cls-2" x1="205" y1="397.5" x2="259" y2="397.5"/><line class="cls-2" x1="205" y1="386.5" x2="259" y2="386.5"/><line class="cls-2" x1="434.5" y1="375.5" x2="440.5" y2="375.5"/><line class="cls-4" x1="453.41" y1="375.5" x2="576.05" y2="375.5"/><line class="cls-2" x1="582.5" y1="375.5" x2="588.5" y2="375.5"/><line class="cls-2" x1="588.5" y1="375.5" x2="588.5" y2="381.5"/><line class="cls-5" x1="588.5" y1="393.42" x2="588.5" y2="530.54"/><line class="cls-2" x1="588.5" y1="536.5" x2="588.5" y2="542.5"/><line class="cls-2" x1="513.5" y1="536.5" x2="513.5" y2="465.5"/><line class="cls-2" x1="566.5" y1="537" x2="566.5" y2="438"/><polygon class="cls-6" points="539.5 376 557.44 386.36 557.44 390.02 541.09 380.58 541.09 395.7 541.09 537 537.91 537 537.91 395.7 537.91 380.58 521.56 390.02 521.56 386.36 539.5 376"/><line class="cls-2" x1="513" y1="536.5" x2="567" y2="536.5"/><line class="cls-2" x1="513" y1="524.5" x2="567" y2="524.5"/><line class="cls-2" x1="513" y1="512.5" x2="567" y2="512.5"/><line class="cls-2" x1="513" y1="500.5" x2="567" y2="500.5"/><line class="cls-2" x1="513" y1="488.5" x2="567" y2="488.5"/><line class="cls-2" x1="513" y1="476.5" x2="567" y2="476.5"/><line class="cls-2" x1="513" y1="465.5" x2="567" y2="465.5"/><line class="cls-2" x1="513" y1="454.5" x2="519" y2="454.5"/><line class="cls-2" x1="534" y1="454.5" x2="540" y2="454.5"/><line class="cls-2" x1="513" y1="444.5" x2="519" y2="444.5"/><line class="cls-7" x1="533" y1="444.5" x2="554" y2="444.5"/><line class="cls-2" x1="561" y1="444.5" x2="567" y2="444.5"/><line class="cls-2" x1="513" y1="432.5" x2="519" y2="432.5"/><line class="cls-7" x1="533" y1="432.5" x2="554" y2="432.5"/><line class="cls-2" x1="561" y1="432.5" x2="567" y2="432.5"/><line class="cls-2" x1="513" y1="420.5" x2="519" y2="420.5"/><line class="cls-7" x1="533" y1="420.5" x2="554" y2="420.5"/><line class="cls-2" x1="561" y1="420.5" x2="567" y2="420.5"/><line class="cls-2" x1="513" y1="408.5" x2="519" y2="408.5"/><line class="cls-7" x1="533" y1="408.5" x2="554" y2="408.5"/><line class="cls-2" x1="561" y1="408.5" x2="567" y2="408.5"/><line class="cls-2" x1="513" y1="397.5" x2="519" y2="397.5"/><line class="cls-7" x1="533" y1="397.5" x2="554" y2="397.5"/><line class="cls-2" x1="561" y1="397.5" x2="567" y2="397.5"/><line class="cls-2" x1="513" y1="386.5" x2="519" y2="386.5"/><line class="cls-7" x1="533" y1="386.5" x2="554" y2="386.5"/><line class="cls-2" x1="561" y1="386.5" x2="567" y2="386.5"/><line class="cls-2" x1="434.5" y1="542.5" x2="440.5" y2="542.5"/><line class="cls-4" x1="453.41" y1="542.5" x2="576.05" y2="542.5"/><line class="cls-2" x1="582.5" y1="542.5" x2="588.5" y2="542.5"/><polyline class="cls-2" points="513.5 465.5 535.5 452.5 539.5 440.5 542.5 458.5 545.93 448.17 566.5 437.5"/><line class="cls-8" x1="566.5" y1="439" x2="566.5" y2="376"/><line class="cls-8" x1="513.5" y1="464" x2="513.5" y2="376"/><polygon class="cls-6" points="231.5 376 249.44 386.36 249.44 390.02 233.09 380.58 233.09 395.7 233.09 537 229.91 537 229.91 395.7 229.91 380.58 213.56 390.02 213.56 386.36 231.5 376"/><line class="cls-2" x1="544" y1="454.5" x2="566.5" y2="454.5"/><line class="cls-2" x1="566.5" y1="444.5" x2="552.5" y2="444.5"/><line class="cls-2" x1="538.5" y1="454.5" x2="532.5" y2="454.5"/><circle class="cls-2" cx="148.5" cy="48.5" r="24"/><circle class="cls-2" cx="149" cy="48" r="13.5"/><circle class="cls-2" cx="149" cy="48" r="4.5"/><line class="cls-2" x1="153.5" y1="47.5" x2="170.5" y2="38.5"/><line class="cls-2" x1="172.5" y1="46.5" x2="153.5" y2="48.5"/><line class="cls-2" x1="171.5" y1="54.5" x2="153.5" y2="49.5"/><line class="cls-2" x1="152.5" y1="44.5" x2="166.5" y2="32.5"/><line class="cls-2" x1="151.5" y1="44.5" x2="160.5" y2="27.5"/><line class="cls-2" x1="150.5" y1="43.5" x2="152.5" y2="24.5"/><line class="cls-2" x1="148.5" y1="43.5" x2="145.5" y2="24.5"/><line class="cls-2" x1="136.5" y1="27.5" x2="146.5" y2="44.5"/><line class="cls-2" x1="131.5" y1="32.5" x2="145.5" y2="45.5"/><line class="cls-2" x1="126.5" y1="38.5" x2="144.5" y2="46.5"/><line class="cls-2" x1="124.5" y1="46.5" x2="144.5" y2="47.5"/><line class="cls-2" x1="125.5" y1="54.5" x2="144.5" y2="49.5"/><line class="cls-2" x1="128.5" y1="62.5" x2="145.5" y2="50.5"/><line class="cls-2" x1="133.5" y1="67.5" x2="146.5" y2="51.5"/><line class="cls-2" x1="140.5" y1="71.5" x2="147.5" y2="52.5"/><line class="cls-2" x1="148.5" y1="73" x2="148.5" y2="52.5"/><line class="cls-2" x1="156.5" y1="71.5" x2="149.5" y2="51.5"/><line class="cls-2" x1="163.5" y1="67.5" x2="151.5" y2="51.5"/><line class="cls-2" x1="168.5" y1="61.5" x2="152.5" y2="50.5"/><circle class="cls-2" cx="456.5" cy="48.5" r="24"/><circle class="cls-2" cx="457" cy="48" r="13.5"/><circle class="cls-2" cx="457" cy="48" r="4.5"/><line class="cls-2" x1="461.5" y1="47.5" x2="478.5" y2="38.5"/><line class="cls-2" x1="480.5" y1="46.5" x2="461.5" y2="48.5"/><line class="cls-2" x1="479.5" y1="54.5" x2="461.5" y2="49.5"/><line class="cls-2" x1="460.5" y1="44.5" x2="474.5" y2="32.5"/><line class="cls-2" x1="459.5" y1="44.5" x2="468.5" y2="27.5"/><line class="cls-2" x1="458.5" y1="43.5" x2="460.5" y2="24.5"/><line class="cls-2" x1="456.5" y1="43.5" x2="453.5" y2="24.5"/><line class="cls-2" x1="444.5" y1="27.5" x2="454.5" y2="44.5"/><line class="cls-2" x1="439.5" y1="32.5" x2="453.5" y2="45.5"/><line class="cls-2" x1="434.5" y1="38.5" x2="452.5" y2="46.5"/><line class="cls-2" x1="432.5" y1="46.5" x2="452.5" y2="47.5"/><line class="cls-2" x1="433.5" y1="54.5" x2="452.5" y2="49.5"/><line class="cls-2" x1="436.5" y1="62.5" x2="453.5" y2="50.5"/><line class="cls-2" x1="441.5" y1="67.5" x2="454.5" y2="51.5"/><line class="cls-2" x1="448.5" y1="71.5" x2="455.5" y2="52.5"/><line class="cls-2" x1="456.5" y1="73" x2="456.5" y2="52.5"/><line class="cls-2" x1="464.5" y1="71.5" x2="457.5" y2="51.5"/><line class="cls-2" x1="471.5" y1="67.5" x2="459.5" y2="51.5"/><line class="cls-2" x1="476.5" y1="61.5" x2="460.5" y2="50.5"/><rect class="cls-9" x="392.5" y="11.5" width="2" height="124"/><rect class="cls-9" x="392.5" y="189.5" width="2" height="123"/><rect class="cls-9" x="392.5" y="370.5" width="2" height="122"/><rect class="cls-9" x="392.5" y="550.5" width="2" height="125"/><rect class="cls-9" x="476" y="690" width="2" height="105" transform="translate(-501.5 1210.5) rotate(-90)"/><path class="cls-10" d="M593.5,742.5l-32,.11v-.11a32.15,32.15,0,0,1,31.88-32Z" transform="translate(-236 -9)"/><path class="cls-10" d="M529.5,742.61l-.09-32h.09a32.15,32.15,0,0,1,32,31.78Z" transform="translate(-236 -9)"/><path class="cls-10" d="M599,26l0,13.5h0a13.53,13.53,0,0,1-13.13-10.38Z" transform="translate(-236 -9)"/><path class="cls-10" d="M599,205l0,15.5h0a15.55,15.55,0,0,1-15.08-11.91Z" transform="translate(-236 -9)"/><path class="cls-10" d="M599.5,385.5l0,15h0A15,15,0,0,1,584.91,389Z" transform="translate(-236 -9)"/><path class="cls-10" d="M599.5,565.5l0,15h0A15,15,0,0,1,584.91,569Z" transform="translate(-236 -9)"/></g><g id="Layer_2" data-name="Layer 2"><polygon class="cls-3" points="0.5 0.5 0.5 373.5 110.5 373.5 110.5 735.5 188.5 735.5 188.5 725.5 125.5 725.5 125.5 721.5 122.5 721.5 121.5 556.5 125.5 556.5 125.5 541.5 121.5 541.5 121.52 376.48 126.5 376.5 126.5 361.5 121.5 361.5 121.5 196.5 124.5 196.5 124.5 182.5 110.5 182.5 110.5 362.5 11.5 362.5 11.5 136.5 17.5 136.5 17.5 124.5 11.5 124.5 11.5 11.5 59.25 11.5 59.5 125.5 54.5 125.5 54.5 136.5 66.5 136.5 66.75 11.5 109.67 11.5 109.5 73.5 121.5 73.5 121.5 16.5 126.5 16.5 126.67 11.5 355.5 11.5 355.5 16.5 373.5 16.5 373.5 11.5 403.5 11.5 403.5 0.5 0.5 0.5"/><rect class="cls-3" x="103.5" y="125.5" width="19" height="11"/></g></svg>
