<?xml version="1.0" encoding="UTF-8"?>
<svg enable-background="new 0 0 162 162" version="1.1" viewBox="0 0 162 162" xml:space="preserve" xmlns="http://www.w3.org/2000/svg">
<style type="text/css">
.st0{fill:none;stroke:#ffffff;stroke-width:6;}
.st1{fill:#ffffff;}
</style>
<title>NeMe logo</title>
<rect class="st0" x="3" y="3" width="156" height="156"/>
<path class="st1" d="m9.8 9.9h22.5l40.8 98.6v-98.6h19.9v141.5h-21.4l-41.8-100.4v100.4h-20v-141.5z"/>
<path class="st1" d="M97.9,10h52.7v84.6H98.1V79.4h38.4V59.6H98V45h38.5V25H98L97.9,10C98,10,97.9,10,97.9,10z"/>
<path class="st1" d="m124.4 101.2h11.9v50h-7.7v-33.9-4.1-4.1l-7.5 42h-8l-7.4-42v4.1 4.1 33.9h-7.7v-50.1h12l7.2 39.4 7.2-39.3z"/>
<path class="st1" d="m150.6 151.2l-21.9-0.1v-50h21.9v9h-16v11.7h16v8.7h-16v11.8h16v8.9z"/>
</svg>
