<?xml version="1.0" encoding="UTF-8" standalone="no"?>
<!DOCTYPE svg PUBLIC "-//W3C//DTD SVG 1.1//EN" "http://www.w3.org/Graphics/SVG/1.1/DTD/svg11.dtd">
<svg width="100%" height="100%" viewBox="0 0 162 162" version="1.1" xmlns="http://www.w3.org/2000/svg" xmlns:xlink="http://www.w3.org/1999/xlink" xml:space="preserve" xmlns:serif="http://www.serif.com/" style="fill-rule:evenodd;clip-rule:evenodd;">
    <rect x="3" y="3" width="156" height="156" style="fill:none;stroke:white;stroke-width:6px;"/>
    <path d="M9.8,9.9L32.3,9.9L73.1,108.5L73.1,9.9L93,9.9L93,151.4L71.6,151.4L29.8,51L29.8,151.4L9.8,151.4L9.8,9.9Z" style="fill:white;fill-rule:nonzero;"/>
    <path d="M97.9,10L150.6,10L150.6,94.6L98.1,94.6L98.1,79.4L136.5,79.4L136.5,59.6L98,59.6L98,45L136.5,45L136.5,25L98,25L97.9,10C98,10 97.9,10 97.9,10Z" style="fill:white;fill-rule:nonzero;"/>
    <g transform="matrix(0.907827,0,0,0.907827,6.41011,7.41812)">
        <g id="path4" transform="matrix(14.617,0,0,14.6345,-6.61698,-6.63451)">
            <path d="M11,6C11,3.238 8.762,1 6,1C3.238,1 1,3.238 1,6C1,8.762 3.238,11 6,11C8.762,11 11,8.762 11,6Z" style="fill:none;fill-rule:nonzero;stroke:rgb(170,0,0);stroke-width:1px;stroke-miterlimit:10;"/>
        </g>
        <g id="path2-3" transform="matrix(14.617,0,0,14.6345,-6.61698,-6.63451)">
            <path d="M8.455,6.898C8.455,6.402 8.052,6 7.556,6C7.06,6 6.658,6.402 6.658,6.898C6.658,7.395 7.06,7.797 7.556,7.797C8.052,7.797 8.455,7.395 8.455,6.898" style="fill:rgb(170,0,0);fill-rule:nonzero;stroke:rgb(170,0,0);stroke-width:1px;stroke-miterlimit:10;"/>
        </g>
        <g id="path2-7" transform="matrix(14.617,0,0,14.6345,-6.61698,-6.63451)">
            <path d="M5.342,6.898C5.342,6.402 4.94,6 4.444,6C3.948,6 3.545,6.402 3.545,6.898C3.545,7.395 3.948,7.797 4.444,7.797C4.94,7.797 5.342,7.395 5.342,6.898" style="fill:rgb(170,0,0);fill-rule:nonzero;stroke:rgb(170,0,0);stroke-width:1px;stroke-miterlimit:10;"/>
        </g>
        <g id="path2-5" transform="matrix(14.617,0,0,14.6345,-6.61698,-6.63451)">
            <path d="M6.898,4.203C6.898,3.707 6.496,3.305 6,3.305C5.504,3.305 5.102,3.707 5.102,4.203C5.102,4.699 5.504,5.102 6,5.102C6.496,5.102 6.898,4.699 6.898,4.203" style="fill:rgb(170,0,0);fill-rule:nonzero;stroke:rgb(170,0,0);stroke-width:1px;stroke-miterlimit:10;"/>
        </g>
    </g>
    <path d="M150.6,151.2L128.7,151.1L128.7,101.1L150.6,101.1L150.6,110.1L134.6,110.1L134.6,121.8L150.6,121.8L150.6,130.5L134.6,130.5L134.6,142.3L150.6,142.3L150.6,151.2Z" style="fill:white;fill-rule:nonzero;"/>
    <path d="M124.4,101.2L136.3,101.2L136.3,151.2L128.6,151.2L128.6,109.1L121.1,151.1L113.1,151.1L105.7,109.1L105.7,151.2L98,151.2L98,101.1L110,101.1L117.2,140.5L124.4,101.2Z" style="fill:white;fill-rule:nonzero;"/>
</svg>
