<svg id="nospam" xmlns="http://www.w3.org/2000/svg" viewBox="0 0 220 220"><defs><style>.cls-1{fill:#fff;}.cls-2{fill:#cc0000;}</style></defs><title>No-spam1</title><g id="g4"><g id="g3730"><path id="path3690" class="cls-1" d="M120,10q5.69,0,11.22.56c3.69.38,7.33,1,10.9,1.69s7.09,1.65,10.54,2.72a107.08,107.08,0,0,1,10.12,3.69c3.29,1.39,6.48,3,9.6,4.65s6.13,3.52,9.06,5.5,5.75,4.1,8.47,6.35,5.35,4.6,7.84,7.09,4.85,5.13,7.09,7.84,4.37,5.55,6.35,8.47,3.8,6,5.5,9.07,3.26,6.3,4.65,9.59A107.08,107.08,0,0,1,225,87.34c1.07,3.45,2,7,2.72,10.54s1.31,7.21,1.69,10.9.56,7.43.56,11.22-.19,7.53-.56,11.22-1,7.33-1.69,10.9-1.65,7.09-2.72,10.54a107.08,107.08,0,0,1-3.69,10.12c-1.39,3.29-3,6.48-4.65,9.6s-3.52,6.13-5.5,9.06-4.1,5.75-6.35,8.47-4.6,5.35-7.09,7.84-5.13,4.85-7.84,7.09-5.55,4.37-8.47,6.35-5.95,3.8-9.06,5.5-6.31,3.26-9.6,4.65A107.08,107.08,0,0,1,152.66,225c-3.45,1.07-7,2-10.54,2.72s-7.21,1.31-10.9,1.69-7.43.56-11.22.56-7.53-.19-11.22-.56-7.33-1-10.9-1.69S90.79,226.1,87.34,225a107.08,107.08,0,0,1-10.12-3.69c-3.29-1.39-6.48-3-9.6-4.65s-6.13-3.52-9.06-5.5-5.75-4.1-8.47-6.35-5.35-4.6-7.84-7.09-4.85-5.13-7.09-7.84-4.37-5.55-6.35-8.47-3.8-5.95-5.5-9.06-3.26-6.31-4.65-9.6A107.08,107.08,0,0,1,15,152.66c-1.07-3.45-2-7-2.72-10.54s-1.31-7.21-1.69-10.9S10,123.79,10,120s.19-7.53.56-11.22,1-7.33,1.69-10.9S13.9,90.79,15,87.34a107.08,107.08,0,0,1,3.69-10.12c1.39-3.29,3-6.48,4.65-9.59s3.52-6.14,5.5-9.07,4.1-5.75,6.35-8.47,4.6-5.35,7.09-7.84,5.13-4.85,7.84-7.09,5.55-4.37,8.47-6.35,6-3.8,9.06-5.5,6.31-3.26,9.6-4.65A107.08,107.08,0,0,1,87.34,15c3.45-1.07,7-2,10.54-2.72s7.21-1.31,10.9-1.69S116.21,10,120,10Z" transform="translate(-10 -10)"/><path d="M38,127.63l8.54-.83a10.4,10.4,0,0,0,3.13,6.32,9.42,9.42,0,0,0,6.36,2q4.24,0,6.39-1.8a5.3,5.3,0,0,0,2.15-4.19,4,4,0,0,0-.9-2.63,7.21,7.21,0,0,0-3.16-1.88q-1.55-.54-7-1.9-7.07-1.76-9.91-4.3a11.31,11.31,0,0,1-4-8.75,11.17,11.17,0,0,1,1.88-6.21,11.84,11.84,0,0,1,5.43-4.41,21.74,21.74,0,0,1,8.56-1.51q8.19,0,12.32,3.59a12.66,12.66,0,0,1,4.35,9.58l-8.78.38a7.47,7.47,0,0,0-2.42-4.82,8.85,8.85,0,0,0-5.56-1.47,10,10,0,0,0-6,1.58,3.17,3.17,0,0,0-1.4,2.7,3.37,3.37,0,0,0,1.31,2.64c1.11.93,3.8,1.89,8.07,2.9a42.35,42.35,0,0,1,9.47,3.13,12.23,12.23,0,0,1,4.81,4.42,13.73,13.73,0,0,1-.34,13.93A12.49,12.49,0,0,1,65.41,141,24.57,24.57,0,0,1,56,142.55q-8.25,0-12.66-3.81T38,127.63Z" transform="translate(-10 -10)"/><path d="M80.75,141.78V98.3H94.84q8,0,10.44.65a11.37,11.37,0,0,1,6.26,4.26,13.5,13.5,0,0,1,2.52,8.47,14.16,14.16,0,0,1-1.45,6.73,11.9,11.9,0,0,1-3.7,4.29,12.91,12.91,0,0,1-4.55,2.06,50.7,50.7,0,0,1-9.11.62H89.53v16.4Zm8.78-36.12V118h4.8c3.46,0,5.78-.22,7-.68a5.73,5.73,0,0,0,2.74-2.13,5.87,5.87,0,0,0,1-3.38,5.61,5.61,0,0,0-1.39-3.92,6.09,6.09,0,0,0-3.53-1.93,42.28,42.28,0,0,0-6.32-.29Z" transform="translate(-10 -10)"/><path d="M156,141.78h-9.55l-3.8-9.87H125.24l-3.59,9.87h-9.31L129.28,98.3h9.28Zm-16.16-17.2-6-16.14-5.87,16.14Z" transform="translate(-10 -10)"/><path d="M160.51,141.78V98.3h13.14L181.54,128l7.8-29.66h13.17v43.48h-8.16V107.55l-8.63,34.23h-8.45l-8.6-34.23v34.23Z" transform="translate(-10 -10)"/><path id="circle8" class="cls-2" d="M120,10A110,110,0,1,0,230,120,110.16,110.16,0,0,0,120,10Zm0,20a89.7,89.7,0,0,1,56.22,19.66l-63.28,63.28L49.66,176.22A90.06,90.06,0,0,1,120,30Zm70.34,33.78A90.06,90.06,0,0,1,63.78,190.34l63.28-63.28Z" transform="translate(-10 -10)"/></g></g></svg>
