<?xml version="1.0" encoding="UTF-8"?>
<svg enable-background="new 0 0 473.932 473.932" viewBox="0 0 473.932 473.932" xmlns="http://www.w3.org/2000/svg">
<circle class="circle" cx="236.97" cy="236.97" r="236.97"/>
<g fill="#fff">
<path d="m235.65 141.99c2.193 1.355 4.636 3.33 7.36 5.931 2.615 2.713 5.171 6.05 7.682 9.991 2.402 3.734 4.531 8.127 6.391 13.212 1.523 5.078 2.286 11.012 2.286 17.788-0.198 12.423-2.945 22.357-8.232 29.818-2.574 3.611-5.321 6.941-8.217 9.998-3.207 3.035-6.619 6.151-10.23 9.31-2.08 2.144-3.981 4.569-5.744 7.285-2.065 2.821-3.102 6.092-3.102 9.815 0 3.641 1.059 6.623 3.188 8.988 1.792 2.26 3.555 4.239 5.253 5.934l11.783 9.654c7.315 6.002 13.736 12.572 19.255 19.805 5.197 7.353 7.899 16.947 8.131 28.797 0 16.827-7.439 31.727-22.301 44.729-15.394 13.448-37.639 20.382-66.694 20.827-24.325-0.221-42.484-5.407-54.484-15.536-12.093-9.478-18.159-20.801-18.159-33.99 0-6.417 1.961-13.594 5.92-21.482 3.809-7.876 10.728-14.817 20.752-20.793 11.237-6.413 23.053-10.702 35.438-12.853 12.258-1.792 22.432-2.818 30.54-3.035-2.507-3.3-4.741-6.818-6.698-10.559-2.286-3.637-3.42-8.019-3.42-13.111 0-3.065 0.43-5.635 1.302-7.667 0.76-2.17 1.474-4.135 2.118-5.964-3.944 0.445-7.667 0.681-11.147 0.681-18.492-0.236-32.583-6.05-42.278-17.448-10.159-10.63-15.233-22.993-15.233-37.1 0-17.059 7.184-32.52 21.571-46.413 9.871-8.127 20.127-13.418 30.765-15.925 10.537-2.144 20.411-3.214 29.616-3.214h69.451l-21.444 12.524h-21.422v3e-3zm13.407 199.89c0-8.819-2.874-16.486-8.61-23.034-6.092-6.208-15.596-13.826-28.535-22.874-2.223-0.236-4.819-0.341-7.798-0.341-1.77-0.217-6.305 0-13.598 0.677-7.188 1.018-14.548 2.657-22.065 4.917-1.774 0.674-4.251 1.695-7.457 3.046-3.203 1.471-6.466 3.566-9.789 6.271-3.207 2.821-5.92 6.32-8.12 10.511-2.556 4.408-3.809 9.714-3.809 15.918 0 12.206 5.512 22.26 16.565 30.17 10.514 7.899 24.879 11.962 43.132 12.198 16.363-0.236 28.86-3.843 37.474-10.844 8.408-6.903 12.61-15.76 12.61-26.615zm-48.407-101.79c9.141-0.337 16.759-3.63 22.847-9.856 2.945-4.412 4.831-8.939 5.669-13.579 0.505-4.64 0.763-8.535 0.763-11.716 0-13.68-3.506-27.502-10.507-41.403-3.289-6.668-7.615-12.112-12.977-16.295-5.474-3.944-11.768-6.047-18.877-6.275-9.414 0.228-17.227 4.019-23.472 11.379-5.261 7.689-7.779 16.292-7.543 25.8 0 12.554 3.667 25.613 11.016 39.203 3.562 6.335 8.146 11.708 13.788 16.123 5.624 4.419 12.049 6.619 19.293 6.619z"/>
<polygon points="372.59 167.4 336.16 167.4 336.16 130.95 318.5 130.95 318.5 167.4 282.06 167.4 282.06 185.05 318.5 185.05 318.5 221.49 336.16 221.49 336.16 185.05 372.59 185.05"/>
</g>
</svg>
