<?xml version="1.0" encoding="UTF-8" standalone="no"?>
<!DOCTYPE svg PUBLIC "-//W3C//DTD SVG 1.1//EN" "http://www.w3.org/Graphics/SVG/1.1/DTD/svg11.dtd">
<svg width="100%" height="100%" viewBox="0 0 543 544" version="1.1" xmlns="http://www.w3.org/2000/svg" xmlns:xlink="http://www.w3.org/1999/xlink" xml:space="preserve" xmlns:serif="http://www.serif.com/" style="fill-rule:evenodd;clip-rule:evenodd;stroke-linecap:round;stroke-linejoin:round;stroke-miterlimit:1.5;"><g id="insta" transform="matrix(1,0,0,1,-129.767,-28.6629)"><rect x="129.767" y="28.663" width="542.355" height="543.164" style="fill:none;"/><clipPath id="_clip1"><rect x="129.767" y="28.663" width="542.355" height="543.164"/></clipPath><g clip-path="url(#_clip1)"><g transform="matrix(0.966506,0,0,0.966506,4.78755,-249.832)"><g id="Layer1"><circle cx="409.942" cy="570.544" r="281" style="stroke:rgb(235,235,235);stroke-width:1.03px;"/></g></g><g transform="matrix(0.927047,0,0,0.927047,29.1714,14.5981)"><g id="square"><path d="M555.683,229.587C555.683,186.44 520.654,151.41 477.507,151.41L321.154,151.41C278.007,151.41 242.977,186.44 242.977,229.587L242.977,385.94C242.977,429.087 278.007,464.117 321.154,464.117L477.507,464.117C520.654,464.117 555.683,429.087 555.683,385.94L555.683,229.587Z" style="fill:none;stroke:white;stroke-width:40.99px;"/></g></g><g id="circle" transform="matrix(1,0,0,1,0.76696,0.662888)"><g transform="matrix(3.04965,0,0,3.04965,-962.776,-426.727)"><circle cx="475.542" cy="209.661" r="6.383" style="fill:white;"/></g>
<g transform="matrix(0.85958,0,0,0.85958,53.4146,41.1779)"><circle cx="402.833" cy="301.676" r="81.667" style="fill:none;stroke:white;stroke-width:40.72px;"/></g></g></g></g></svg>
