<?xml version="1.0" encoding="UTF-8"?>
<svg enable-background="new 0 0 473.9 473.9" version="1.1" viewBox="0 0 473.9 473.9" xml:space="preserve" xmlns="http://www.w3.org/2000/svg">
<style type="text/css">
.st0{fill:#FFFFFF;}
.st1{fill:#000000;}
</style>
<circle class="st1" cx="237" cy="237" r="237"/>
<path class="st0" d="m132.4 264.4c0 13.9 11 24.9 24.8 24.9 13.7 0 24.7-11 24.7-24.9 0-13.6-11.1-24.6-24.7-24.6-13.8 0-24.8 11.1-24.8 24.6zm148.3 0c0 13.9 11.1 24.9 24.9 24.9 13.6 0 24.5-11 24.5-24.9 0-13.6-11-24.6-24.5-24.6-13.8 0-24.9 11.1-24.9 24.6zm1.3 53c6.3-5 15.6-4 20.6 2.4 5.1 6.4 3.8 15.6-2.4 20.6-17.8 14.1-44.7 23.1-69 23.1-24.1 0-50.9-9-68.8-23.1-6.3-5-7.4-14.2-2.5-20.6 5.1-6.4 14.2-7.3 20.8-2.4 10 8.2 30.4 16.5 50.5 16.5 20.4 0 40.6-8.3 50.8-16.5zm146-107.3c0-27.4-22-49.3-49.5-49.3-18.5 0-34.6 10.1-43 25.4-25.6-13.9-56.5-22.8-90.1-24.9l29.4-66.3 56.5 16.3c5.1 14.3 18.7 24.6 35.1 24.6 20.6 0 37.2-16.5 37.2-37 0-20.3-16.6-37.1-37.2-37.1-14.2 0-26.4 7.9-32.8 19.4l-62.9-18.1c-7-2.1-14.6 1.5-17.5 8.3l-40.1 90c-32.9 2.2-63 11.1-87.8 24.7-8.6-15.2-24.8-25.4-43.2-25.4-27.3 0-49.4 21.9-49.4 49.3 0 20.3 12.1 37.6 29.3 45.4-3 9.1-4.8 18.8-4.8 28.8 0 68.3 77.6 123.7 173 123.7 95.7 0 173.3-55.5 173.3-123.7 0-10-1.8-19.7-4.8-28.8 17.2-7.7 29.3-25 29.3-45.3zm-60.7-120.3c7.6 0 13.9 6.5 13.9 14 0 7.8-6.4 13.9-13.9 13.9-7.6 0-14-6.2-14-13.9 0.1-7.5 6.4-14 14-14zm-309.1 125.3c0-13.6 11.2-24.8 24.8-24.8 10 0 18.2 5.8 22.3 14.2-12.9 9.9-23.6 21.2-31.4 33.6-9.1-3.7-15.7-12.7-15.7-23zm173 168.4c-79.2 0-143.5-42.2-143.5-94.2 0-52.1 64.3-94.4 143.5-94.4 79.5 0 143.7 42.3 143.7 94.4 0 52-64.2 94.2-143.7 94.2zm157.6-145.5c-7.7-12.3-18.6-23.7-31.3-33.6 3.9-8.4 12.3-14.2 22.1-14.2 13.8 0 25 11.2 25 24.8-0.1 10.4-6.7 19.4-15.8 23z"/>
</svg>
